<svg width="24" height="24" viewBox="0 0 24 24" fill="none" xmlns="http://www.w3.org/2000/svg">
<path fill-rule="evenodd" clip-rule="evenodd" d="M2.13946 7.8261V11.6739L12.0168 5.32702L21.8941 11.6342V7.78643L12.0168 1.3999L2.13946 7.8261ZM12.017 9.33323L2.10001 15.7594V19.5675C2.10001 19.5675 5.98746 22.8996 12.017 22.8996C18.0465 22.8996 21.8943 19.5675 21.8943 19.5675V15.7594L12.017 9.33323ZM18.5622 17.6238L12.017 13.3L5.47178 17.6238C5.47178 17.6238 9.40404 19.0122 12.017 19.0122C14.6299 19.0122 18.5622 17.6238 18.5622 17.6238Z" fill="white"/>
<path fill-rule="evenodd" clip-rule="evenodd" d="M1.13946 13.5051V7.28368L12.0151 0.207977L22.8941 7.24218V13.4593L12.0185 6.51458L1.13946 13.5051ZM12.0168 5.32702L21.8941 11.6342V7.78642L12.0168 1.3999L2.13946 7.82609V11.6739L12.0168 5.32702ZM1.10001 15.2158L12.0181 8.14092L22.8943 15.217V20.0244L22.5489 20.3235L21.8943 19.5675V15.7594L12.017 9.33322L2.10001 15.7594V19.5675L1.44921 20.3268L1.10001 20.0275V15.2158ZM2.10001 19.5675C2.10001 19.5675 5.98746 22.8996 12.017 22.8996C18.0465 22.8996 21.8943 19.5675 21.8943 19.5675C22.5489 20.3235 22.5492 20.3232 22.5489 20.3235L22.5459 20.3261L22.5415 20.3299L22.5283 20.3411C22.5177 20.3501 22.5032 20.3621 22.4851 20.3771C22.4487 20.407 22.3974 20.4484 22.3316 20.4997C22.2 20.6022 22.01 20.7442 21.7649 20.9125C21.2751 21.2489 20.5625 21.6918 19.6535 22.1332C17.8368 23.0152 15.2177 23.8996 12.017 23.8996C8.81655 23.8996 6.18817 23.0154 4.36267 22.1341C3.44908 21.6931 2.73197 21.2506 2.23871 20.9147C1.99188 20.7466 1.80048 20.6047 1.66791 20.5024C1.6016 20.4512 1.54995 20.4099 1.51337 20.3801C1.49508 20.3652 1.48056 20.3532 1.46985 20.3442L1.45665 20.3331L1.45221 20.3293L1.45053 20.3279C1.45022 20.3277 1.44921 20.3268 2.10001 19.5675ZM12.017 14.4985L7.79168 17.2898C7.86675 17.3103 7.94314 17.3308 8.0207 17.3514C9.31621 17.6947 10.8474 18.0122 12.017 18.0122C13.1865 18.0122 14.7177 17.6947 16.0132 17.3514C16.0908 17.3308 16.1672 17.3103 16.2423 17.2898L12.017 14.4985ZM12.017 13.3L5.47178 17.6238C5.47178 17.6238 5.95412 17.7941 6.6932 18.0154C8.06437 18.426 10.3192 19.0122 12.017 19.0122C13.7148 19.0122 15.9696 18.426 17.3408 18.0154C18.0798 17.7941 18.5622 17.6238 18.5622 17.6238L12.017 13.3Z" fill="black"/>
</svg>
