<svg xmlns:xlink="http://www.w3.org/1999/xlink" xmlns="http://www.w3.org/2000/svg" viewBox="0 0 423.48 98.38" width="700"  height="163" ><path d="M435.62,51.36h-.09s0,0,0-.05l-.91-1.74h-.67v1.72s0,.08-.08.08h-.52c-.05,0-.07,0-.07-.08V47s0,0,0-.05l.05,0h1.19a1.6,1.6,0,0,1,1,.32,1.22,1.22,0,0,1,.38,1,1.41,1.41,0,0,1-.19.73,1.18,1.18,0,0,1-.52.44l1,1.88s0,.08-.07.08Zm-1.72-3.82V49h.48a1,1,0,0,0,.62-.17.66.66,0,0,0,.23-.56.61.61,0,0,0-.66-.68Z" transform="translate(-14.79 -0.86)"/><path d="M434.5,45.37a3.77,3.77,0,1,0,3.77,3.78A3.77,3.77,0,0,0,434.5,45.37Zm0,6.91a3.14,3.14,0,1,1,3.14-3.13A3.14,3.14,0,0,1,434.5,52.28Z" transform="translate(-14.79 -0.86)"/><path d="M122.08,73.11h-2.26l1.41-3.89a6.15,6.15,0,0,1,.45-.86l-3.5,4H117l-.58-4a4,4,0,0,1-.17.86l-1.42,3.89h-2.27l2.88-7.89h2.23l.89,4.36a1,1,0,0,1-.07.36,1.84,1.84,0,0,1,.19-.36l4.07-4.36H125Z" transform="translate(-14.79 -0.86)"/><path d="M131.45,73.11H124.9l2.87-7.89h6.49l-.38,1h-4.13l-.83,2.3h3.55l-.37,1h-3.56l-.9,2.47h4.19Z" transform="translate(-14.79 -0.86)"/><path d="M142.07,73.11h-2.46l-1.27-3.66.26-.72h2.32l.91-2.5h-3l-2.51,6.88H134l2.88-7.89h6.26c.94,0,1.33.25,1.16.72l-1,2.87a1.1,1.1,0,0,1-.91.65,10.43,10.43,0,0,1-1.56.07Z" transform="translate(-14.79 -0.86)"/><path d="M152.47,72.39c-.17.48-.74.72-1.7.72h-4.92q-1.4,0-1.14-.72l2.34-6.45c.18-.47.73-.72,1.67-.72h4.92c1,0,1.35.25,1.18.72l-.67,1.85h-2.36l.57-1.56h-3.05l-2.14,5.87h3.06l.6-1.66h2.35Z" transform="translate(-14.79 -0.86)"/><path d="M161.54,73.11H155l2.87-7.89h6.49l-.38,1h-4.13l-.84,2.3h3.55l-.37,1h-3.55l-.9,2.47h4.18Z" transform="translate(-14.79 -0.86)"/><path d="M172,73.11h-2.07l-2-5a1.52,1.52,0,0,1-.06.57l-1.6,4.4H164l2.88-7.89h2.06l2,4.87a1.34,1.34,0,0,1,.06-.57l1.56-4.3h2.3Z" transform="translate(-14.79 -0.86)"/><path d="M182.91,73.11h-2.33l.07-1.5h-3l-1,1.5h-2.32v0l5.92-7.88h2.48Zm-2.23-2.51.15-3.56-2.46,3.56Z" transform="translate(-14.79 -0.86)"/><path d="M193.25,73.11h-2.46l-1.27-3.66.26-.72h2.32l.91-2.5h-3l-2.5,6.88h-2.36l2.88-7.89h6.25c.95,0,1.33.25,1.16.72l-1,2.87a1.1,1.1,0,0,1-.92.65,10.34,10.34,0,0,1-1.56.07Z" transform="translate(-14.79 -0.86)"/><path d="M206.46,65.26l-3.28,3.3c-.37.33-.92.88-1.64,1.65l-1.06,2.9h-2.36l1-2.9a2.89,2.89,0,0,0-.16-.83c-.18-.5-.27-.77-.28-.82l-.87-3.3s0,0,0,0h2.43l.64,3.43,3.13-3.43h2.41Z" transform="translate(-14.79 -0.86)"/><path d="M224.85,66.26h-4.08l-.85,2.33h3.49l-.37,1h-3.49l-1.28,3.49h-2.35l2.87-7.89h6.44Z" transform="translate(-14.79 -0.86)"/><path d="M232.9,72.39q-.26.72-1.68.72h-5.13q-1.4,0-1.14-.72l2.35-6.45c.17-.47.73-.72,1.66-.72h5.12c1,0,1.35.25,1.17.72Zm-2.24-.29,2.13-5.87h-3.24l-2.13,5.87Z" transform="translate(-14.79 -0.86)"/><path d="M243.55,73.11h-2.46l-1.27-3.66.27-.72h2.31l.91-2.5h-3l-2.5,6.88h-2.36l2.87-7.89h6.26c.95,0,1.33.25,1.16.72l-1.05,2.87a1.1,1.1,0,0,1-.91.65,10.34,10.34,0,0,1-1.56.07Z" transform="translate(-14.79 -0.86)"/><path d="M254,72.39c-.18.48-.74.72-1.71.72h-4.92q-1.4,0-1.14-.72l2.35-6.45c.17-.47.73-.72,1.66-.72h4.92c1,0,1.36.25,1.18.72l-.67,1.85h-2.35l.57-1.56h-3.06l-2.13,5.87h3.05l.61-1.66h2.35Z" transform="translate(-14.79 -0.86)"/><path d="M263,73.11h-6.54l2.87-7.89h6.49l-.39,1h-4.12l-.84,2.3H264l-.38,1h-3.54l-.9,2.47h4.18Z" transform="translate(-14.79 -0.86)"/><path d="M273.4,72.39c-.17.48-.74.72-1.7.72H267c-.95,0-1.34-.24-1.16-.72l.68-1.88h2.36l-.58,1.61h2.88l.56-1.55-3.91-2.24c-.28-.17-.38-.37-.28-.63l.63-1.76c.17-.47.74-.72,1.69-.72h4.75c.94,0,1.34.23,1.17.72l-.65,1.76h-2.36l.55-1.49H270.4l-.52,1.43,3.92,2.23a.49.49,0,0,1,.28.64Z" transform="translate(-14.79 -0.86)"/><path d="M294.19,72.39c-.18.48-.75.72-1.7.72h-4.92c-.94,0-1.32-.24-1.15-.72l2.35-6.45c.17-.47.73-.72,1.66-.72h4.92c1,0,1.35.25,1.18.72l-.67,1.85h-2.35l.57-1.56H291l-2.14,5.87h3.05l.61-1.66h2.34Z" transform="translate(-14.79 -0.86)"/><path d="M305,72.39q-.25.72-1.68.72h-5.13c-.93,0-1.31-.24-1.13-.72l2.33-6.45c.19-.47.74-.72,1.68-.72h5.11c1,0,1.35.25,1.17.72Zm-2.25-.29,2.14-5.87h-3.24L299.5,72.1Z" transform="translate(-14.79 -0.86)"/><path d="M315.63,73.11h-2.46l-1.26-3.66.26-.72h2.31l.91-2.5h-3l-2.5,6.88h-2.36l2.87-7.89h6.26c.95,0,1.33.25,1.16.72l-1.05,2.87a1.08,1.08,0,0,1-.91.65,10.43,10.43,0,0,1-1.56.07Z" transform="translate(-14.79 -0.86)"/><path d="M326.88,69.52c-.17.49-.74.73-1.7.73h-3.83l-1,2.86H318l2.87-7.89H327c1,0,1.35.25,1.17.72Zm-2.27-.29,1.09-3h-2.89l-1.09,3Z" transform="translate(-14.79 -0.86)"/><path d="M336.46,72.39c-.18.48-.74.72-1.69.72h-5.13q-1.39,0-1.14-.72l2.35-6.45c.17-.47.73-.72,1.66-.72h5.12c1,0,1.35.25,1.17.72Zm-2.26-.29,2.14-5.87H333.1L331,72.1Z" transform="translate(-14.79 -0.86)"/><path d="M347.05,73.11h-2.46l-1.28-3.66.27-.72h2.32l.91-2.5h-3l-2.51,6.88H339l2.86-7.89h6.26c.95,0,1.34.25,1.16.72l-1,2.87a1.11,1.11,0,0,1-.92.65,10.17,10.17,0,0,1-1.55.07Z" transform="translate(-14.79 -0.86)"/><path d="M357.53,73.11h-2.34l.07-1.5h-3l-1,1.5H349v0l5.92-7.88h2.48ZM355.3,70.6l.14-3.56L353,70.6Z" transform="translate(-14.79 -0.86)"/><path d="M369,66.26h-2.6l-2.49,6.85h-2.35l2.49-6.85h-2.6l.38-1h7.55Z" transform="translate(-14.79 -0.86)"/><path d="M371.07,73.11h-2.36l2.87-7.89h2.36Z" transform="translate(-14.79 -0.86)"/><path d="M382.1,72.39c-.18.48-.74.72-1.7.72h-5.12c-.94,0-1.31-.24-1.13-.72l2.34-6.45c.17-.47.73-.72,1.66-.72h5.13c1,0,1.33.25,1.16.72Zm-2.25-.29L382,66.23h-3.24l-2.13,5.87Z" transform="translate(-14.79 -0.86)"/><path d="M392.66,73.11H390.6l-2-5a1.56,1.56,0,0,1-.05.57l-1.6,4.4h-2.3l2.87-7.89h2.07l2,4.87a1.52,1.52,0,0,1,.06-.57l1.56-4.3h2.3Z" transform="translate(-14.79 -0.86)"/><path d="M149,30.51,164.47.86,162.32,2c-.11,0-10.57,5.64-13.95,7.24s-11.21,1.23-11.28,1.22H102c-.6,0-9.82-.45-14,10.82,0,0-13,37.62-13.77,39.69L57.92,45.26l3.68-7.55,16.3,0S83.49,22,83.53,21.85l.29-1H25.54c-.13,0-10.81.45-10.75,12.89V51.6l7.87-9.1a2.66,2.66,0,0,1,1.92-1.1c1.85-.16,3.8,1.52,3.88,1.59L84.64,99.25l14-41h31.58l7-17.71H104.56l3.44-10C109,30.49,149,30.51,149,30.51Z" transform="translate(-14.79 -0.86)"/><path d="M144.48,52.86h0l8-18.89,3.85-3.27h22.14l1.18,3.51-2,4.85h-9s1.19-2.85,1.69-4H161c-.4.91-5.15,12.08-5.75,13.49h9.33c.36-.84,2-4.39,2-4.39h9l-2.42,5.42-3.92,3.3Z" transform="translate(-14.79 -0.86)"/><path d="M197.46,52.86,193.9,39.64H201l1.95-4.6h-9.25l-7.58,17.82h-9L186.5,30.7h24.58l1.2,3.51-2.74,6.44L205.6,44h-1.46c.53,1.65,2.88,8.91,2.88,8.91Z" transform="translate(-14.79 -0.86)"/><path d="M221.64,30.7,217.78,34l-6.55,15.4,1.14,3.49h22.14l3.91-3.27L245,34.19l-1.19-3.49Zm14,4.34c-.6,1.4-5.36,12.57-5.74,13.49h-9.33L226.27,35Z" transform="translate(-14.79 -0.86)"/><path d="M242.47,52.86h24.76l3.91-3.28,4.24-10H257.05L259,35H277.1l2.08-4.34H254.36L250.5,34l-4.24,10h18.27c-.47,1.09-1.64,3.84-1.95,4.58l-18.07,0Z" transform="translate(-14.79 -0.86)"/><path d="M275.11,52.86h24.77l3.9-3.28,4.25-10H289.69L291.64,35h18.11l2.07-4.34H287L283.15,34l-4.24,10h18.26c-.46,1.09-1.63,3.84-1.95,4.58l-18.07,0Z" transform="translate(-14.79 -0.86)"/><path d="M383.94,52.86l-3.55-13.21h7.07c.31-.73,1.48-3.52,2-4.61h-9.26l-7.58,17.82h-9L373,30.7h24.58l1.2,3.51L396,40.65,392.09,44h-1.46c.52,1.65,2.87,8.91,2.87,8.91Z" transform="translate(-14.79 -0.86)"/><path d="M307.36,52.86h9l3.72-8.76h15.08L337,39.77H321.92c.47-1.09,1.64-3.85,1.95-4.57h18.26l1.95-4.5H316.8Z" transform="translate(-14.79 -0.86)"/><path d="M347.3,35h5.17c-.6,1.4-5.35,12.58-5.74,13.49h-5l-1.84,4.33H359l1.84-4.33h-5.07L361.55,35h4.73l1.85-4.34h-19Z" transform="translate(-14.79 -0.86)"/><path d="M430.57,35l1.84-4.34H405.13L395.7,52.86H423l1.85-4.33H406.56c.47-1.09,1.64-3.85,1.95-4.58h15.21l1.84-4.34H410.35c.47-1.08,1.64-3.84,1.95-4.57Z" transform="translate(-14.79 -0.86)"/></svg>