<svg width="24" height="25" viewBox="0 0 24 25" fill="none" xmlns="http://www.w3.org/2000/svg">
<mask id="mask0_1100_50" style="mask-type:luminance" maskUnits="userSpaceOnUse" x="1" y="1" width="23" height="24">
<path d="M23.0435 1H1V24.0455H23.0435V1Z" fill="white"/>
</mask>
<g mask="url(#mask0_1100_50)">
<path fill-rule="evenodd" clip-rule="evenodd" d="M10.3452 1.04926C10.3452 1.04926 10.1579 1.10236 9.75408 1.1194C6.22613 1.27069 2.96071 2.07428 1.2293 3.21853L1.03893 3.4079V4.05718C1.03893 4.05718 1.075 4.66838 1.075 5.50002C1.075 8.07008 1.77938 11.9828 2.71623 14.616C3.54886 16.9576 4.49272 18.683 5.82434 20.3001C7.30826 22.1017 9.62983 23.6187 11.5696 24.0555H12.4734C13.9774 23.775 15.8871 22.772 17.3711 21.4244C20.6585 18.4405 22.7657 12.3996 22.9691 5.37577C22.9871 4.74854 23.0382 4.3728 23.0382 4.3728L23.0793 3.94095L23.0823 3.41391L22.8338 3.26261C21.0293 2.16245 14.298 1.14945 14.298 1.14945L13.4063 1.04926C13.4564 1.02922 12.774 1.01118 11.8893 1.01018C10.9524 1.00918 10.3452 1.04926 10.3452 1.04926Z" fill="#FBAC18"/>
<mask id="mask1_1100_50" style="mask-type:luminance" maskUnits="userSpaceOnUse" x="1" y="1" width="23" height="24">
<path d="M10.345 1.04926C10.345 1.04926 10.1577 1.10236 9.75388 1.1194C6.22593 1.27069 2.96051 2.07428 1.2291 3.21853L1.03873 3.4079V4.05718C1.03873 4.05718 1.0748 4.66838 1.0748 5.50002C1.0748 8.07008 1.77918 11.9828 2.71603 14.616C3.54867 16.9576 4.49252 18.683 5.82414 20.3001C7.30806 22.1017 9.62963 23.6187 11.5694 24.0555H12.4732C13.9772 23.775 15.8869 22.772 17.3709 21.4244C20.6583 18.4405 22.7655 12.3996 22.9689 5.37577C22.9869 4.74854 23.038 4.3728 23.038 4.3728L23.0791 3.94095L23.0821 3.41391L22.8336 3.26261C21.0291 2.16245 14.2978 1.14945 14.2978 1.14945L13.4061 1.04926C13.4562 1.02922 12.7738 1.01118 11.8891 1.01018C10.9522 1.00918 10.345 1.04926 10.345 1.04926Z" fill="white"/>
</mask>
<g mask="url(#mask1_1100_50)">
<path d="M37.9356 -1.45291L12.0604 -1.45291L12.0604 38.0058H37.9356V-1.45291Z" fill="#28397F"/>
<path d="M7.79338 3.00111C8.41596 3.39411 8.876 3.80961 9.04688 4.48864C9.05567 4.52395 9.28613 4.50205 9.28613 4.50205L9.28286 4.93751L9.13373 4.96254L9.109 5.53849L8.70914 5.55234L8.71749 5.80039L14.7727 5.82363L15.0417 5.412L15.1313 5.9875L16.5805 6.03398L16.5836 6.2792L15.1058 6.30125L15.1342 7.03437L11.5738 7.03332L11.412 7.88637L11.4164 8.62172L11.5056 9.55551C11.5056 9.55551 10.496 9.65696 10.0413 9.72817C10.0319 9.66396 10.0225 9.59975 10.0131 9.53554C9.79608 9.82069 9.62357 10.1617 9.35183 10.3782C8.90326 10.7354 8.43696 10.6003 7.98869 10.2828C7.85729 10.1899 7.63636 10.2231 7.45639 10.1985C7.4403 10.3531 7.41885 10.5127 7.40187 10.66C7.29699 11.5668 6.86183 12.2815 6.34264 12.8762C6.28692 12.9401 5.99761 12.9756 5.99761 12.9756L5.99508 14.1744C5.99508 14.1744 6.1664 14.1407 6.21184 14.2292C6.77751 15.33 7.40202 16.4009 8.01387 17.4774C8.37126 18.1063 8.39599 18.7312 8.10981 19.3971C7.65021 20.4664 7.23993 21.5574 6.76752 22.6208C6.55121 23.1074 6.23657 23.5503 5.87828 24.1644C6.19456 24.3397 7.08663 24.6167 7.4257 24.8514C7.65006 25.0068 7.57036 25.1673 7.49543 25.3477H3.77085C3.78381 25.0573 3.75431 24.7574 3.81718 24.4784C4.05003 23.4441 4.26635 22.4021 4.57935 21.3911C4.85868 20.4888 4.06001 20.4399 4.35588 19.6861C3.63096 18.6769 2.93658 17.7102 2.17024 16.6434C1.9858 16.972 1.8188 17.1861 1.73657 17.429C0.880096 19.9552 0.576034 21.272 -1.14108 23.2647C-1.67412 23.8834 -1.95285 24.5407 -1.89028 25.3477H-3.97611C-3.73119 24.5137 -3.52888 23.6642 -3.23018 22.8501C-2.89067 21.9243 -2.49006 21.0183 -2.06697 20.1271C-1.83859 19.6463 -1.5962 19.1043 -1.20156 18.7872C-0.652432 18.3459 -0.494814 17.8158 -0.437607 17.1936C-0.383379 16.6021 -0.352541 16.0085 -0.289375 15.4181C-0.272689 15.2622 -0.218015 14.9889 -0.218015 14.9889L0.355845 14.8181C0.355845 14.8181 0.417373 14.2928 0.514804 14.1458C0.756147 13.7815 1.00434 13.4133 1.17879 13.0155C1.36785 12.5844 1.81746 12.113 1.13902 11.6749C1.04755 11.6159 1.00658 11.3668 1.04531 11.2363C1.24181 10.5753 1.46677 9.92229 1.69619 9.27171C1.73433 9.16385 1.84219 9.00161 1.9216 8.99937C2.73933 8.97643 2.73829 8.25389 2.98023 7.76286C3.50597 6.69589 4.03588 5.65931 5.45131 5.62623C5.47202 5.62564 5.69072 5.53431 5.69072 5.53431L5.72543 5.26884C5.72543 5.26884 5.51105 5.34392 5.47738 5.28582C5.01391 4.48909 5.16021 3.90912 6.00566 3.00111C6.60156 2.74382 7.19747 2.68066 7.79338 3.00111Z" fill="#28397F"/>
<path fill-rule="evenodd" clip-rule="evenodd" d="M5.24289 5.38484C3.86351 5.50804 3.29531 6.55163 2.75348 7.65108C2.65441 7.85235 2.59407 8.09116 2.50499 8.30718C2.40994 8.53749 2.27169 8.73668 1.91444 8.74666C1.84248 8.74874 1.75548 8.77928 1.67593 8.85094C1.58699 8.93109 1.49656 9.07784 1.45797 9.18733L1.45783 9.18748C1.22706 9.84209 1.00076 10.4991 0.803071 11.1643C0.762699 11.3 0.775809 11.5223 0.83674 11.6732C0.877113 11.7734 0.938938 11.8466 1.00196 11.8872C1.12963 11.9696 1.20591 12.0465 1.23511 12.1314C1.27861 12.2576 1.21663 12.3817 1.15496 12.5071C1.08717 12.6449 1.00538 12.7814 0.947281 12.914C0.778639 13.2985 0.537445 13.654 0.304147 14.0061C0.263774 14.0669 0.222806 14.173 0.192414 14.2941C0.165002 14.4032 0.143103 14.5261 0.128056 14.6222L-0.435822 14.7901L-0.465767 14.9392C-0.465767 14.9392 -0.523124 15.227 -0.540703 15.391C-0.604018 15.9828 -0.635005 16.5776 -0.689233 17.1704C-0.740183 17.7233 -0.872028 18.1981 -1.35993 18.5902C-1.78228 18.9297 -2.05074 19.504 -2.29521 20.0186C-2.72173 20.9168 -3.12531 21.83 -3.46751 22.763C-3.76814 23.5824 -3.97209 24.4371 -4.21865 25.2764L-4.3137 25.6003H-1.61721L-1.63837 25.3281C-1.69542 24.5919 -1.43591 23.994 -0.949645 23.4296C0.792941 21.4073 1.10684 20.0737 1.97597 17.5101C2.0223 17.3735 2.09798 17.2471 2.18841 17.1019C2.84153 18.0111 3.44816 18.8555 4.07491 19.7281C3.98359 20.0488 4.05599 20.2662 4.1637 20.4701C4.27767 20.6855 4.47491 20.8737 4.33785 21.3163C4.02291 22.3337 3.80496 23.382 3.57062 24.4228C3.50447 24.7161 3.53204 25.0312 3.51833 25.3363L3.50656 25.6003H7.66407L7.72887 25.4446C7.79427 25.287 7.84373 25.1358 7.81706 24.9944C7.79502 24.8775 7.7317 24.7559 7.56961 24.6436C7.29058 24.4503 6.64327 24.2269 6.23746 24.0545C6.54242 23.549 6.8076 23.1526 6.99844 22.7234C7.47129 21.659 7.88202 20.5671 8.34206 19.4969C8.66177 18.753 8.63286 18.055 8.23361 17.3525C7.62354 16.2789 7.00067 15.2112 6.43664 14.1137C6.39582 14.0345 6.32953 13.9786 6.24833 13.947L6.24983 13.1859C6.27336 13.1802 6.2966 13.174 6.3185 13.1671C6.41847 13.1361 6.49564 13.0853 6.53303 13.0424C7.08395 12.4113 7.54161 11.6513 7.65289 10.689C7.66138 10.6165 7.67077 10.5411 7.68015 10.4647C7.69475 10.4654 7.70921 10.4662 7.72366 10.467C7.76805 10.4702 7.8117 10.4672 7.84269 10.4891C8.39018 10.8767 8.96136 11.0122 9.5093 10.5758C9.70446 10.4204 9.85358 10.2062 10.0011 9.99017L10.0805 9.97781C10.5308 9.90734 11.5309 9.80693 11.5309 9.80693L11.781 9.78175L11.669 8.60885L11.6648 7.90941L11.7831 7.28609C12.5462 7.28624 15.1342 7.28713 15.1342 7.28713H15.397L15.3683 6.54999L16.8396 6.52809L16.8302 5.78902L15.3488 5.74164L15.2914 5.37322L14.8302 5.2737L14.6363 5.57032L9.36151 5.55006L9.37745 5.17776L9.53388 5.15154L9.54088 4.22401L9.26229 4.25038L9.24039 4.25112C9.02333 3.60739 8.5554 3.18326 7.92835 2.78727L7.9209 2.78266L7.91316 2.77848C7.2438 2.41855 6.57475 2.48008 5.90554 2.76895L5.85682 2.7901L5.82062 2.82884C5.25928 3.43175 4.9929 3.91324 4.96728 4.38505C4.94985 4.7055 5.03968 5.02744 5.24289 5.38484ZM7.79338 3.00106C8.41595 3.39406 8.87599 3.80956 9.04687 4.48859C9.05566 4.5239 9.28613 4.502 9.28613 4.502L9.28285 4.93746L9.13373 4.96249L9.109 5.53843L8.70914 5.55229L8.71748 5.80034L14.7727 5.82358L15.0417 5.41195L15.1312 5.98745L16.5805 6.03393L16.5836 6.27915L15.1058 6.3012L15.1342 7.03431L11.5738 7.03327L11.412 7.88632L11.4164 8.62167L11.5056 9.55546C11.5056 9.55546 10.496 9.65691 10.0413 9.72812C10.0319 9.66391 10.0225 9.5997 10.0131 9.53549C9.79608 9.82064 9.62356 10.1616 9.35183 10.3781C8.90326 10.7354 8.43696 10.6002 7.98869 10.2828C7.85729 10.1898 7.63636 10.223 7.45639 10.1984C7.4403 10.3531 7.41885 10.5126 7.40187 10.66C7.29699 11.5668 6.86182 12.2814 6.34264 12.8762C6.28692 12.9401 5.99761 12.9755 5.99761 12.9755L5.99507 14.1743C5.99507 14.1743 6.1664 14.1407 6.21184 14.2292C6.7775 15.33 7.40202 16.4008 8.01386 17.4773C8.37126 18.1063 8.39599 18.7311 8.10981 19.397C7.65021 20.4664 7.23993 21.5574 6.76752 22.6208C6.55121 23.1073 6.23657 23.5502 5.87828 24.1643C6.19455 24.3397 7.08663 24.6166 7.4257 24.8514C7.65006 25.0068 7.57036 25.1672 7.49542 25.3476H3.77085C3.78381 25.0573 3.75431 24.7574 3.81718 24.4783C4.05003 23.444 4.26634 22.4021 4.57934 21.3911C4.85868 20.4887 4.06001 20.4399 4.35588 19.6861C3.63096 18.6769 2.93657 17.7102 2.17024 16.6433C1.9858 16.972 1.8188 17.1861 1.73656 17.4289C0.880093 19.9551 0.57603 21.2719 -1.14108 23.2646C-1.67412 23.8833 -1.95286 24.5406 -1.89029 25.3476H-3.97612C-3.7312 24.5137 -3.52889 23.6642 -3.23019 22.85C-2.89067 21.9243 -2.49007 21.0182 -2.06697 20.127C-1.83859 19.6463 -1.59621 19.1043 -1.20157 18.7871C-0.652435 18.3459 -0.494818 17.8158 -0.43761 17.1935C-0.383383 16.6021 -0.352545 16.0084 -0.289378 15.418C-0.272693 15.2622 -0.218018 14.9888 -0.218018 14.9888L0.355842 14.8181C0.355842 14.8181 0.41737 14.2928 0.514801 14.1457C0.756144 13.7815 1.00434 13.4132 1.17879 13.0155C1.36784 12.5843 1.81746 12.1129 1.13901 11.6748C1.04754 11.6158 1.00657 11.3667 1.04531 11.2362C1.24181 10.5752 1.46676 9.92224 1.69619 9.27166C1.73433 9.1638 1.84219 9.00156 1.92159 8.99932C2.73933 8.97638 2.73829 8.25384 2.98022 7.76281C3.50596 6.69584 4.03588 5.65926 5.45131 5.62618C5.47202 5.62559 5.69071 5.53426 5.69071 5.53426L5.72543 5.26879C5.72543 5.26879 5.51105 5.34387 5.47738 5.28577C5.01391 4.48904 5.16021 3.90907 6.00565 3.00106C6.60156 2.74377 7.19747 2.68061 7.79338 3.00106Z" fill="white"/>
<path fill-rule="evenodd" clip-rule="evenodd" d="M16.9146 6.70739C17.0119 6.58654 17.0734 6.51118 17.085 6.50083C17.1135 6.4739 17.0645 6.1711 17.0359 6.12473C17.0083 6.07915 16.9235 6.05249 16.9262 6.00762C16.928 5.96276 17.0261 5.91656 17.0493 5.85565C17.0859 5.76129 17.1688 5.66773 17.1438 5.44155C17.1091 5.13537 17.2589 4.62218 17.4926 4.24198C17.6424 3.99921 17.7664 3.93455 18.2774 3.83261C18.5022 3.78783 19.0551 3.86097 19.3004 3.96808C19.6607 4.12487 19.8659 4.54762 19.9167 5.23294C19.9444 5.61288 20.0139 5.84316 20.1325 5.94653C20.2868 6.08067 20.7122 6.41022 20.9343 6.37463C21.2144 6.32995 21.4338 6.44241 21.8235 6.83091C22.2605 7.26597 22.8616 7.78888 22.8688 8.58862C22.8715 8.95421 22.9045 9.50637 22.941 9.81576C22.9428 9.8311 22.9437 9.84635 22.9446 9.86151C22.9633 9.86303 22.983 9.86401 23.0035 9.86454C23.0811 9.86677 23.1854 10.0245 23.2229 10.1294C23.4458 10.7622 23.6644 11.3973 23.8561 12.0402C23.8936 12.1672 23.8534 12.4094 23.7642 12.4668C23.5502 12.6051 23.4521 12.7467 23.4227 12.8894C23.4557 13.0278 23.5038 13.226 23.5547 13.4362C23.6126 13.5495 23.6777 13.6614 23.7259 13.7707C23.8954 14.1576 24.137 14.5158 24.3716 14.8701C24.4661 15.0131 24.5259 15.524 24.5259 15.524L25.0842 15.6901C25.0842 15.6901 25.1377 15.956 25.1538 16.1075C25.2153 16.6817 25.2457 17.2592 25.2983 17.8343C25.3536 18.4397 25.292 22.9212 24.9647 22.5011C24.9709 22.5105 24.9772 22.5201 24.9835 22.5295C25.0655 22.6491 25.1538 22.8258 25.1796 22.9222C25.2225 23.0819 25.21 23.1184 25.0343 23.3306C24.9282 23.4589 24.8265 23.622 24.8086 23.6932C24.7747 23.8258 24.9076 24.4324 24.9923 24.535C25.0182 24.5664 25.061 24.759 25.086 24.963C25.1119 25.1671 25.1573 25.3588 25.1877 25.3893C25.218 25.4196 25.243 25.5097 25.243 25.5897C25.243 25.6697 25.2813 25.8868 25.3277 26.0722C25.4071 26.3897 25.4071 26.4187 25.3224 26.5757C25.2287 26.7504 24.9638 26.9059 24.6035 26.9984C24.3796 27.0559 23.9747 27.0284 23.8784 26.9491C23.7232 26.822 23.6706 25.9788 23.8062 25.8125C23.832 25.7816 23.8784 25.6596 23.9096 25.5414C23.981 25.2768 23.9087 24.2283 23.8044 24.0149C23.7393 23.881 23.5716 23.751 23.321 23.6394C23.2621 23.6133 23.1747 23.5036 23.1265 23.3958C23.0784 23.288 23.0177 23.1599 22.991 23.111C22.9642 23.0623 22.9419 22.9699 22.9419 22.9057C22.9419 22.8417 22.8982 22.7065 22.8438 22.6053C22.7894 22.504 22.7297 22.3318 22.7118 22.2226C22.653 21.8752 22.5807 21.6957 22.4594 21.6009C22.3952 21.5502 22.3257 21.4521 22.3043 21.3829C22.2829 21.3136 22.2213 21.208 22.166 21.148C22.067 21.0394 21.9091 20.7858 21.8208 20.5923C21.7959 20.536 21.7121 20.2829 21.6354 20.0299C21.5595 19.7768 21.4793 19.5467 21.4588 19.5186C21.4374 19.4905 21.4035 19.3869 21.3829 19.2885C21.3624 19.1901 21.3053 19.0175 21.2572 18.905C21.2081 18.7925 21.1528 18.6659 21.135 18.6238C21.1171 18.5816 21.0217 18.4348 20.9219 18.2977C20.8237 18.1605 20.7283 17.9879 20.7113 17.9142C20.7033 17.8825 20.6864 17.8443 20.6641 17.8041L19.4708 19.4645C19.7588 20.1976 20.1468 21.0394 20.4188 21.917C20.723 22.9003 20.9334 23.9137 21.16 24.9198C21.2206 25.1912 21.1921 25.4828 21.2046 25.7652H17.5826C17.5095 25.5897 17.4319 25.4337 17.6504 25.2826C17.9795 25.0543 18.8473 24.7848 19.155 24.6143C18.8063 24.017 18.5004 23.5862 18.2899 23.113C17.8306 22.0787 17.4319 21.0176 16.9851 19.9775C16.7068 19.3298 16.73 18.7222 17.0779 18.1104C17.6727 17.0634 18.281 16.0219 18.8304 14.9512C18.875 14.8651 18.7582 13.6974 18.7037 13.6352C18.1981 13.0568 17.7753 12.3618 17.6736 11.4797C17.6567 11.3364 17.6362 11.1813 17.6201 11.0308C17.4453 11.0548 17.2304 11.0225 17.1028 11.1129C16.6667 11.4217 16.2127 11.553 15.7766 11.2057C15.5126 10.9951 15.3449 10.6634 15.1335 10.3861C15.1246 10.4485 15.1149 10.511 15.1059 10.5734C14.6636 10.5042 13.6816 10.4055 13.6816 10.4055L13.769 9.49727L13.7726 8.78207L13.6156 7.95236L10.1524 7.95343L10.1801 7.24029L8.74326 7.21888L8.74594 6.98039L10.156 6.93527L10.2425 6.37552L10.5038 6.77571L16.3938 6.75323L16.9146 6.70739Z" fill="#FBAC18"/>
<path fill-rule="evenodd" clip-rule="evenodd" d="M16.828 5.73408C16.8075 5.75371 16.7389 5.82086 16.7192 5.85208C16.6898 5.89962 16.6755 5.94814 16.6737 5.99496C16.6702 6.06693 16.6916 6.13498 16.7406 6.19635C16.7549 6.21356 16.7861 6.24058 16.8111 6.26092L16.8334 6.40665L16.7852 6.46507L16.3821 6.50056L10.6402 6.5225L10.4538 6.23719C10.3967 6.14961 10.2915 6.10635 10.1889 6.12847C10.0873 6.1505 10.0088 6.23327 9.9927 6.33664L9.93831 6.68937L8.73785 6.72781C8.60318 6.73209 8.49526 6.84197 8.49348 6.97718L8.4899 7.21567C8.48812 7.35498 8.59961 7.4695 8.73874 7.47155C8.73874 7.47155 9.50397 7.48297 9.9178 7.48912L9.89997 7.94362C9.89729 8.01229 9.92314 8.07909 9.97041 8.12868C10.0177 8.17818 10.0837 8.20619 10.1524 8.20619L13.4059 8.20512L13.5201 8.80508L13.5156 9.48451L13.43 10.3814C13.4166 10.5199 13.5183 10.6431 13.6566 10.657C13.6566 10.657 14.6287 10.7545 15.0666 10.8231C15.0898 10.8266 15.1121 10.8271 15.1344 10.8246C15.2798 11.0377 15.4269 11.2499 15.6187 11.4033C15.6187 11.4033 15.6187 11.4033 15.6196 11.4033C16.1547 11.8299 16.713 11.6981 17.2481 11.3191C17.2775 11.2986 17.3186 11.3019 17.3605 11.2991C17.3721 11.2983 17.3846 11.2976 17.3962 11.297C17.4051 11.369 17.414 11.4403 17.422 11.5088C17.5282 12.4269 17.958 13.1561 18.4798 13.7633C18.5279 13.9793 18.5957 14.6577 18.5877 14.8714C18.0437 15.9264 17.4452 16.9533 16.8584 17.9855C16.4686 18.6709 16.4401 19.3517 16.7523 20.0773C17.2 21.1184 17.5995 22.1804 18.0588 23.2156C18.0588 23.2157 18.0588 23.2157 18.0588 23.2157C18.2444 23.6315 18.5003 24.0155 18.7955 24.5042C18.4004 24.6717 17.7761 24.8878 17.5059 25.0748C17.3462 25.1854 17.2838 25.3052 17.2624 25.4204C17.2365 25.5592 17.2847 25.7076 17.3489 25.8622C17.3882 25.9565 17.48 26.0179 17.5826 26.0179H21.2045C21.2741 26.0179 21.34 25.9898 21.3873 25.9399C21.4355 25.89 21.4605 25.8229 21.4569 25.7539C21.4444 25.4567 21.4703 25.1499 21.406 24.8642C21.1786 23.8517 20.9663 22.8319 20.6595 21.8423C20.4018 21.0089 20.0406 20.2075 19.757 19.4997L20.6203 18.2977C20.6506 18.3482 20.6836 18.3986 20.7175 18.4456C20.8023 18.5632 20.887 18.6871 20.9021 18.7232C20.9209 18.7656 20.9762 18.8927 21.0252 19.0057C21.068 19.1038 21.118 19.2541 21.1358 19.34C21.1626 19.4686 21.2143 19.6002 21.2464 19.6548C21.2419 19.6484 21.2392 19.6426 21.2392 19.6426C21.2392 19.6426 21.3303 19.8922 21.3936 20.1028C21.4747 20.3705 21.5639 20.6377 21.5916 20.6972C21.6906 20.914 21.8689 21.1968 21.9795 21.3186C22.0116 21.354 22.05 21.4156 22.0625 21.4564C22.0955 21.5648 22.2025 21.7202 22.3033 21.7995C22.3336 21.8235 22.3541 21.8612 22.3746 21.9119C22.4094 21.9989 22.4371 22.1137 22.462 22.2646C22.4843 22.3958 22.5557 22.6029 22.6208 22.7246C22.6529 22.7843 22.6877 22.9048 22.6895 22.912C22.6912 23.0137 22.7278 23.1563 22.7688 23.2325C22.7938 23.2781 22.8509 23.3978 22.8955 23.4984C22.9713 23.6687 23.1247 23.829 23.2184 23.8704C23.3985 23.9507 23.5305 24.0291 23.5769 24.1255C23.6117 24.1973 23.6349 24.3831 23.6554 24.5928C23.6884 24.9318 23.7044 25.332 23.6661 25.4761C23.6465 25.5487 23.6054 25.6516 23.5992 25.6675C23.5599 25.7213 23.5234 25.8048 23.5029 25.9118C23.469 26.086 23.4681 26.3455 23.4966 26.5732C23.5162 26.7371 23.5537 26.885 23.5974 26.9808C23.6322 27.0561 23.6759 27.1099 23.7178 27.1442C23.7677 27.1858 23.8632 27.2301 23.988 27.2538C24.186 27.2916 24.4786 27.2913 24.6659 27.2434L24.6667 27.2432C25.1136 27.1284 25.4284 26.9125 25.5452 26.6956C25.597 26.5995 25.6228 26.533 25.6335 26.4588C25.6478 26.3659 25.6336 26.2537 25.5729 26.0105C25.5319 25.8487 25.4953 25.6597 25.4953 25.5897C25.4953 25.4668 25.4507 25.3358 25.4025 25.2583C25.3981 25.2385 25.3535 25.0611 25.3366 24.9315C25.3134 24.7468 25.2768 24.5707 25.2482 24.4894C25.2322 24.4418 25.2126 24.4078 25.1965 24.3862C25.1912 24.3701 25.1305 24.1964 25.1029 24.0714C25.077 23.9505 25.0592 23.7739 25.0565 23.745C25.0761 23.6884 25.1546 23.5811 25.2287 23.4918C25.3785 23.3106 25.4302 23.2103 25.4463 23.1173C25.4596 23.0427 25.4534 22.9664 25.424 22.857C25.4043 22.7834 25.3553 22.6701 25.2964 22.5606C25.3267 22.491 25.3562 22.3979 25.3785 22.2826C25.5631 21.3158 25.5952 18.3032 25.5497 17.8112C25.4971 17.2348 25.4668 16.6561 25.4052 16.0807C25.4052 16.0806 25.4052 16.0806 25.4052 16.0806C25.3883 15.9208 25.3321 15.6404 25.3321 15.6404C25.3133 15.5486 25.2465 15.4745 25.1564 15.4479L24.7541 15.3281C24.739 15.2352 24.7185 15.1173 24.6917 15.0127C24.6623 14.8939 24.6222 14.7901 24.582 14.7304C24.3555 14.3882 24.1209 14.043 23.9568 13.6692C23.9113 13.5639 23.8498 13.4559 23.7927 13.3469C23.7517 13.179 23.7142 13.0204 23.6839 12.8959C23.7151 12.8219 23.7865 12.7533 23.9015 12.6791C23.9639 12.639 24.0255 12.5668 24.0647 12.4678C24.1245 12.3196 24.1379 12.1015 24.0977 11.9683V11.9682C23.906 11.3212 23.6857 10.6821 23.4609 10.0454C23.4609 10.0453 23.4609 10.0452 23.4609 10.0452C23.4226 9.93777 23.3343 9.79373 23.2469 9.71515C23.2246 9.69509 23.2023 9.67832 23.1791 9.66449C23.1488 9.35367 23.1238 8.89989 23.1211 8.5864C23.1131 7.71227 22.4799 7.12728 22.0018 6.65174C21.5229 6.17503 21.2375 6.07023 20.895 6.12508C20.8834 6.12696 20.87 6.11982 20.8549 6.11518C20.813 6.10198 20.7666 6.08058 20.7202 6.05552C20.5534 5.96526 20.3822 5.82862 20.2993 5.75602C20.268 5.72909 20.2511 5.68155 20.2324 5.6201C20.2011 5.5162 20.1806 5.38171 20.1681 5.21448C20.1093 4.40323 19.8274 3.92197 19.402 3.73646C19.1202 3.61356 18.486 3.53338 18.2283 3.58475C17.6004 3.70979 17.4604 3.81174 17.2775 4.10953C17.0127 4.53977 16.8539 5.12324 16.8923 5.46973C16.9083 5.60789 16.8592 5.67531 16.828 5.73408ZM24.5731 27.0055C24.5838 27.0034 24.5936 27.001 24.6034 26.9984C24.9637 26.9059 25.2286 26.7504 25.3223 26.5757C25.407 26.4187 25.407 26.3897 25.3276 26.0722C25.2813 25.8868 25.2429 25.6697 25.2429 25.5897C25.2429 25.5097 25.2179 25.4196 25.1876 25.3893C25.1573 25.3588 25.1118 25.1671 25.0859 24.963C25.061 24.759 25.0181 24.5664 24.9923 24.535C24.9075 24.4324 24.7746 23.8258 24.8085 23.6932C24.8264 23.622 24.9281 23.4589 25.0342 23.3306C25.2099 23.1184 25.2224 23.0819 25.1796 22.9222C25.1537 22.8258 25.0654 22.6491 24.9834 22.5295C24.9771 22.5201 24.9709 22.5105 24.9646 22.5011C25.2919 22.9212 25.3535 18.4397 25.2982 17.8343C25.2456 17.2592 25.2152 16.6817 25.1537 16.1075C25.1376 15.956 25.0842 15.6901 25.0842 15.6901L24.5258 15.524C24.5258 15.524 24.4661 15.0131 24.3715 14.8701C24.137 14.5158 23.8953 14.1576 23.7258 13.7707C23.6777 13.6614 23.6126 13.5495 23.5546 13.4362C23.5038 13.226 23.4556 13.0278 23.4226 12.8894C23.452 12.7467 23.5501 12.6051 23.7642 12.4668C23.8533 12.4094 23.8935 12.1672 23.856 12.0402C23.6643 11.3973 23.4458 10.7622 23.2228 10.1294C23.1853 10.0245 23.081 9.86677 23.0034 9.86454C22.9829 9.86401 22.9633 9.86303 22.9445 9.86151C22.9436 9.84635 22.9427 9.8311 22.941 9.81576C22.9044 9.50636 22.8714 8.9542 22.8687 8.58862C22.8616 7.78888 22.2605 7.26597 21.8235 6.83091C21.4337 6.44241 21.2143 6.32995 20.9342 6.37463C20.7122 6.41022 20.2868 6.08067 20.1325 5.94653C20.0138 5.84316 19.9443 5.61288 19.9166 5.23294C19.8658 4.54762 19.6606 4.12487 19.3003 3.96808C19.0551 3.86097 18.5021 3.78783 18.2773 3.83261C17.7663 3.93455 17.6423 3.99921 17.4925 4.24198C17.2588 4.62218 17.109 5.13537 17.1438 5.44155C17.1687 5.66773 17.0858 5.76129 17.0492 5.85565C17.026 5.91656 16.9279 5.96276 16.9261 6.00762C16.9235 6.05249 17.0082 6.07915 17.0358 6.12473C17.0644 6.1711 17.1135 6.4739 17.0849 6.50083C17.0733 6.51118 17.0118 6.58654 16.9146 6.70739L16.3937 6.75323L10.5037 6.77571L10.2424 6.37552L10.1559 6.93527L8.74586 6.98039L8.74318 7.21888L10.18 7.24029L10.1524 7.95343L13.6155 7.95236L13.7725 8.78207L13.7689 9.49727L13.6815 10.4055C13.6815 10.4055 14.6635 10.5042 15.1059 10.5734C15.1148 10.511 15.1245 10.4485 15.1335 10.3861C15.3448 10.6634 15.5125 10.9951 15.7765 11.2057C16.2126 11.553 16.6666 11.4217 17.1027 11.1129C17.2303 11.0225 17.4452 11.0548 17.6201 11.0308C17.6361 11.1813 17.6566 11.3364 17.6735 11.4797C17.7752 12.3618 18.198 13.0568 18.7037 13.6352C18.7581 13.6974 18.8749 14.8651 18.8303 14.9512C18.2809 16.0219 17.6727 17.0634 17.0778 18.1104C16.73 18.7222 16.7068 19.3298 16.985 19.9775C17.4319 21.0176 17.8305 22.0787 18.2898 23.113C18.5003 23.5862 18.8062 24.017 19.155 24.6143C18.8473 24.7848 17.9795 25.0543 17.6504 25.2826C17.4319 25.4337 17.5094 25.5897 17.5826 25.7652H21.2045C21.192 25.4828 21.2205 25.1912 21.1599 24.9198C20.9334 23.9137 20.7229 22.9003 20.4187 21.917C20.1467 21.0394 19.7588 20.1976 19.4707 19.4645L20.664 17.8041C20.6863 17.8443 20.7032 17.8825 20.7113 17.9142C20.7282 17.9879 20.8237 18.1605 20.9218 18.2977C21.0217 18.4348 21.1171 18.5816 21.1349 18.6238C21.1527 18.6659 21.208 18.7925 21.2571 18.905C21.3053 19.0175 21.3624 19.1901 21.3829 19.2885C21.4034 19.3869 21.4373 19.4905 21.4587 19.5186C21.4792 19.5467 21.5595 19.7768 21.6353 20.0299C21.712 20.2829 21.7958 20.536 21.8208 20.5923C21.909 20.7858 22.0669 21.0394 22.1659 21.148C22.2212 21.208 22.2828 21.3136 22.3042 21.3829C22.3256 21.4521 22.3951 21.5502 22.4593 21.6009C22.5806 21.6957 22.6529 21.8752 22.7118 22.2226C22.7296 22.3318 22.7893 22.504 22.8438 22.6053C22.8982 22.7065 22.9419 22.8417 22.9419 22.9057C22.9419 22.9699 22.9641 23.0623 22.9909 23.111C23.0177 23.1599 23.0783 23.288 23.1265 23.3958C23.1746 23.5036 23.2621 23.6133 23.3209 23.6394C23.5715 23.751 23.7392 23.881 23.8043 24.0149C23.9087 24.2283 23.9809 25.2768 23.9096 25.5414C23.8783 25.6596 23.832 25.7816 23.8061 25.8125C23.6705 25.9788 23.7232 26.822 23.8783 26.9491C23.9443 27.0034 24.1548 27.0334 24.3528 27.0284V27.03C24.3689 27.1564 24.4768 27.2511 24.6034 27.2511C24.6016 27.2502 24.4027 27.1674 24.3608 27.0283C24.4108 27.0267 24.4607 27.0231 24.5062 27.0168C24.5562 27.1255 24.6034 27.2491 24.6034 27.2511L24.5731 27.0055Z" fill="white"/>
</g>
</g>
</svg>
