<svg width="24" height="24" viewBox="0 0 24 24" fill="none" xmlns="http://www.w3.org/2000/svg">
<g clip-path="url(#clip0_814_5)">
<rect width="24" height="24" fill="white"/>
<path d="M10.4808 0.868854C10.4186 1.02043 10.3915 1.18408 10.4016 1.34756C10.4016 1.58692 10.4304 1.84542 10.4328 2.09195C10.4227 2.15238 10.4363 2.21435 10.4707 2.26511C10.5051 2.31587 10.5576 2.35155 10.6176 2.36481C10.6944 2.38875 10.8144 2.40072 10.8192 2.51082C10.8005 2.58882 10.7616 2.66056 10.7064 2.71893C10.6513 2.77729 10.5818 2.82025 10.5048 2.84352C10.3968 2.84352 10.2864 2.85549 10.1784 2.84352C9.6048 2.82677 9.2184 3.16904 8.8632 3.54722C8.50836 3.94682 8.22357 4.40319 8.0208 4.89718C7.8096 5.37588 7.5936 5.83066 7.3872 6.29979C7.37498 6.33336 7.35172 6.36181 7.32121 6.3805C7.2907 6.39919 7.25474 6.40702 7.2192 6.40271C7.0728 6.40271 6.9264 6.40271 6.78 6.40271C6.73788 6.39941 6.69598 6.4114 6.66202 6.43647C6.62806 6.46154 6.60433 6.498 6.5952 6.53914C6.3192 7.36252 6.0384 8.18829 5.7504 9.00927C5.73776 9.03471 5.73053 9.06248 5.72916 9.09083C5.7278 9.11919 5.73233 9.14752 5.74247 9.17405C5.75262 9.20057 5.76815 9.22472 5.7881 9.24497C5.80805 9.26522 5.83199 9.28113 5.8584 9.29171C6.0024 9.38027 6.1392 9.47841 6.288 9.55979C6.30707 9.5687 6.32414 9.58138 6.33816 9.59705C6.35219 9.61272 6.36289 9.63106 6.36962 9.65096C6.37635 9.67087 6.37896 9.69193 6.37731 9.71287C6.37566 9.73381 6.36977 9.7542 6.36 9.77281C6.264 10.0576 6.1728 10.3473 6.0768 10.6345C6.0192 10.814 5.8512 10.9026 5.724 11.0151C5.61452 11.1123 5.53189 11.2359 5.484 11.3741C5.3232 11.7977 5.1552 12.219 5.004 12.6451C4.99185 12.7005 4.95912 12.7493 4.91238 12.7817C4.86565 12.8141 4.80836 12.8277 4.752 12.8198C4.4112 12.8198 4.3968 12.8461 4.3704 13.1932C4.32 14.1219 4.26 15.0625 4.1016 15.984C4.08419 16.1426 4.03221 16.2955 3.94929 16.432C3.86637 16.5684 3.75453 16.6851 3.6216 16.7739C3.13543 17.1011 2.76837 17.5763 2.5752 18.1287C2.2656 18.952 1.8864 19.7515 1.5384 20.5629C1.356 20.9889 1.1472 21.4078 0.996 21.8482C0.8952 22.1474 0.7728 22.4657 0.9192 22.8056C0.9384 22.8511 0.9192 22.8846 0.8952 22.9229C0.7008 23.2795 0.5016 23.641 0.3096 23.9952H0V0H11.208C10.8858 0.212653 10.633 0.514678 10.4808 0.868854Z" fill="#FAAC1C"/>
<path d="M10.8192 17.1186C10.4928 17.6978 10.1664 18.2771 9.8592 18.8659C9.76287 19.127 9.70232 19.4 9.6792 19.6773C9.5736 20.156 9.516 20.6347 9.3984 21.1134C9.2128 21.8091 9.0152 22.4953 8.8056 23.1718C8.74017 23.4216 8.70076 23.6775 8.688 23.9354C8.68948 23.9473 8.68948 23.9594 8.688 23.9713C8.68966 23.9808 8.68966 23.9905 8.688 24H2.6088C2.60655 23.9729 2.60655 23.9457 2.6088 23.9186C2.62455 23.5804 2.6582 23.2432 2.7096 22.9085C2.80458 22.6596 2.95376 22.4348 3.1464 22.2503C4.0848 21.0272 5.0184 19.7993 5.9784 18.593C6.28773 18.1607 6.54245 17.692 6.7368 17.1976C7.0992 16.3862 7.4568 15.57 7.8048 14.7586C7.908 14.5192 8.004 14.3038 8.112 14.0788C8.22 13.8538 8.4432 13.8155 8.592 14.0309C8.832 14.3971 9.072 14.7729 9.3 15.1487C9.61267 15.6444 9.95071 16.1238 10.3128 16.5848C10.4384 16.7164 10.5917 16.8186 10.7616 16.884C10.8768 16.9391 10.8864 16.9941 10.8192 17.1186Z" fill="#FAAC1C"/>
<path d="M24 0V23.988H12.7512C12.7512 23.9497 12.7728 23.9114 12.78 23.8779C12.7907 23.8497 12.795 23.8194 12.7924 23.7893C12.7897 23.7592 12.7804 23.7301 12.7649 23.7041C12.7495 23.6781 12.7283 23.6559 12.7031 23.6392C12.6779 23.6224 12.6492 23.6116 12.6192 23.6075C12.2568 23.5093 11.8992 23.3896 11.5416 23.2795C11.4398 23.2439 11.3544 23.1724 11.3016 23.0785C11.2632 23.0234 11.2296 22.9684 11.196 22.9085C10.9944 22.5806 10.9776 22.5591 11.2632 22.3221C11.6093 21.9933 11.8647 21.5812 12.0048 21.1254C12.2448 20.5533 12.4704 19.9836 12.7032 19.414C13.0008 18.6959 13.3152 17.9779 13.5888 17.2598C13.6623 17.0504 13.6933 16.8285 13.6801 16.6071C13.667 16.3856 13.6098 16.1689 13.512 15.9697C13.2432 15.3737 12.9 14.816 12.588 14.2463C12.2304 13.6025 11.868 12.9562 11.5176 12.3147C11.4984 12.2633 11.4681 12.2167 11.4288 12.1783C11.3465 12.1111 11.283 12.0237 11.2448 11.9247C11.2065 11.8256 11.1946 11.7184 11.2104 11.6134C11.2104 11.3741 11.1912 11.1347 11.1672 10.8954C11.1552 10.7709 11.2032 10.7207 11.3184 10.7326C11.5272 10.7518 11.6232 10.6465 11.7096 10.4669C12.0384 9.80632 12.384 9.15767 12.7248 8.50424C12.7517 8.46865 12.7642 8.42424 12.7598 8.37988C12.7553 8.33551 12.7343 8.29444 12.7008 8.26488C12.6843 8.24846 12.6691 8.23086 12.6552 8.21223C12.4728 7.97287 12.4728 7.97287 12.6864 7.75506C12.9 7.53725 12.9264 7.51571 13.2144 7.69762C13.416 7.81729 13.62 7.93697 13.8288 8.04947C14.1192 8.21223 14.388 8.04947 14.6664 7.98963C15.0696 7.88192 15.1872 7.554 15.3144 7.22609C15.3768 7.06333 15.4464 6.90057 15.5088 6.74738C15.5256 6.7043 15.5328 6.65882 15.588 6.666C15.6432 6.67318 15.6384 6.72345 15.648 6.76414C15.672 6.88142 15.696 7.00349 15.7176 7.11838C15.7392 7.23327 15.792 7.2596 15.8952 7.23566C16.3032 7.13753 16.7112 7.04657 17.1168 6.95323C17.256 6.92211 17.22 6.82876 17.2008 6.74259C17.1168 6.38835 17.0376 6.02453 16.9608 5.68226C16.9374 5.60518 16.9318 5.52384 16.9442 5.44429C16.9567 5.36473 16.987 5.28899 17.0328 5.2227C17.1357 5.00977 17.196 4.77888 17.2104 4.54293C17.244 4.36342 17.3184 4.32752 17.4864 4.32991C18.624 4.32991 19.7592 4.32991 20.8944 4.32991C21.084 4.32991 21.1344 4.26528 21.1344 4.09056C21.1344 3.97088 21.1344 3.8512 21.1344 3.72674C21.1344 3.60227 21.18 3.5544 21.3144 3.55919C21.696 3.55919 22.08 3.55919 22.4592 3.55919C22.6296 3.55919 22.6632 3.49935 22.6632 3.34616C22.6632 3.19298 22.6104 3.15229 22.464 3.15708C22.0752 3.15708 21.6864 3.15708 21.3 3.15708C21.168 3.15708 21.1248 3.12117 21.1368 2.98953C21.1464 2.88763 21.1464 2.78506 21.1368 2.68316C21.1386 2.65547 21.1313 2.62796 21.1162 2.60469C21.1011 2.58141 21.0789 2.56361 21.0528 2.5539C20.988 2.53715 20.9496 2.57545 20.9184 2.62571C20.9184 2.62571 20.9184 2.62571 20.9184 2.64007C20.7888 2.96799 20.5248 2.97277 20.2224 2.97038C18.2376 2.97038 16.2504 2.97038 14.2656 2.97038C14.1984 2.97038 14.1144 3.01107 14.0736 2.91772C14.0088 2.77172 14.0736 2.67837 14.2224 2.69752C14.5512 2.72624 14.496 2.73581 14.568 2.43183L14.7264 1.7784C14.7504 1.67308 14.7624 1.57734 14.6064 1.53904C14.5593 1.53947 14.5133 1.52415 14.4759 1.49552C14.4385 1.46689 14.4118 1.4266 14.4 1.38107C14.3098 1.08931 14.1579 0.820205 13.9546 0.591887C13.7514 0.363569 13.5014 0.181332 13.2216 0.0574449L13.1016 0H24Z" fill="#273B7F"/>
<path d="M22.6392 3.32702C22.6392 3.48021 22.6056 3.54484 22.4352 3.54005C22.056 3.54005 21.672 3.54005 21.2904 3.54005C21.156 3.54005 21.0984 3.56877 21.1104 3.7076C21.1224 3.84642 21.1104 3.94695 21.1104 4.07141C21.1104 4.24854 21.06 4.31077 20.8704 4.31077C19.7352 4.31077 18.6 4.31077 17.4624 4.31077C17.2944 4.31077 17.2224 4.34428 17.1864 4.52379C17.172 4.75974 17.1117 4.99063 17.0088 5.20356C16.963 5.26985 16.9327 5.34559 16.9202 5.42514C16.9078 5.5047 16.9134 5.58604 16.9368 5.66312C17.0232 6.01497 17.1024 6.36921 17.1768 6.72345C17.196 6.80962 17.232 6.90297 17.0928 6.93408C16.6872 7.02743 16.2792 7.11839 15.8712 7.21652C15.768 7.24046 15.7128 7.20455 15.6936 7.09924C15.6744 6.99392 15.648 6.85988 15.624 6.745C15.624 6.70431 15.624 6.65165 15.564 6.64686C15.504 6.64207 15.5016 6.68516 15.4848 6.72824C15.4224 6.88861 15.3528 7.05137 15.2904 7.20695C15.1632 7.53486 15.0504 7.86278 14.6424 7.97049C14.364 8.04229 14.0952 8.19309 13.8048 8.03032C13.596 7.91783 13.392 7.79097 13.1904 7.67848C12.8952 7.50135 12.8952 7.49896 12.6624 7.73592C12.4296 7.97288 12.4488 7.95373 12.6312 8.19309C12.6451 8.21172 12.6603 8.22932 12.6768 8.24574C12.7103 8.2753 12.7313 8.31636 12.7358 8.36073C12.7402 8.4051 12.7277 8.44951 12.7008 8.4851C12.36 9.13853 12.0144 9.78718 11.6856 10.4478C11.5992 10.6273 11.5032 10.7326 11.2944 10.7135C11.1792 10.7135 11.1312 10.7518 11.1432 10.8762C11.1672 11.1156 11.1792 11.3549 11.1864 11.5943C11.1706 11.6993 11.1825 11.8065 11.2208 11.9055C11.259 12.0045 11.3225 12.0919 11.4048 12.1592C11.4441 12.1976 11.4744 12.2442 11.4936 12.2956C11.8512 12.9371 12.2136 13.5833 12.564 14.2272C12.876 14.7969 13.2192 15.3545 13.488 15.9505C13.5858 16.1498 13.643 16.3664 13.6561 16.5879C13.6693 16.8094 13.6383 17.0313 13.5648 17.2407C13.2912 17.9587 12.9768 18.6768 12.6792 19.3948C12.4392 19.9645 12.1992 20.5342 11.9808 21.1062C11.8407 21.562 11.5853 21.9742 11.2392 22.303C10.9536 22.5423 10.9704 22.5615 11.172 22.8894C11.2056 22.9492 11.2392 23.0043 11.2776 23.0593C11.3304 23.1532 11.4158 23.2247 11.5176 23.2604C11.8752 23.3705 12.2376 23.4998 12.5952 23.5883C12.6252 23.5925 12.6539 23.6033 12.6791 23.62C12.7043 23.6368 12.7255 23.6589 12.7409 23.6849C12.7564 23.7109 12.7657 23.74 12.7684 23.7701C12.771 23.8002 12.7667 23.8305 12.756 23.8588C12.756 23.8923 12.7392 23.9306 12.7272 23.9689H8.6472C8.64886 23.9594 8.64886 23.9497 8.6472 23.9402C8.64868 23.9282 8.64868 23.9162 8.6472 23.9043C8.66078 23.6504 8.70018 23.3986 8.7648 23.1527C8.9808 22.4745 9.1776 21.79 9.3552 21.099C9.4728 20.6203 9.5304 20.1416 9.636 19.6629C9.65912 19.3856 9.71967 19.1127 9.816 18.8515C10.1256 18.2627 10.452 17.6835 10.776 17.1042C10.8432 16.9893 10.8336 16.9247 10.7136 16.8649C10.5643 16.7956 10.4305 16.6971 10.32 16.5753C9.95791 16.1142 9.61987 15.6349 9.3072 15.1391C9.0672 14.7633 8.844 14.3876 8.5992 14.0213C8.4576 13.8059 8.2368 13.8323 8.1192 14.0692C8.0016 14.3062 7.9152 14.5216 7.812 14.749C7.4568 15.5604 7.1064 16.3766 6.744 17.188C6.54965 17.6825 6.29493 18.1511 5.9856 18.5834C5.0256 19.7802 4.092 21.0177 3.1536 22.2408C2.96096 22.4252 2.81178 22.65 2.7168 22.899C2.6654 23.2337 2.63175 23.5708 2.616 23.9091C2.61375 23.9361 2.61375 23.9634 2.616 23.9904H0.312001C0.504001 23.629 0.703201 23.2724 0.897601 22.9181C0.919201 22.8798 0.940801 22.8463 0.921601 22.8008C0.775201 22.4681 0.897601 22.1498 0.998401 21.8434C1.1496 21.403 1.3584 20.9841 1.5408 20.5581C1.8888 19.7467 2.2608 18.9472 2.5776 18.1239C2.77077 17.5716 3.13783 17.0963 3.624 16.7691C3.75693 16.6804 3.86877 16.5636 3.95169 16.4272C4.03461 16.2908 4.0866 16.1379 4.104 15.9793C4.2624 15.0578 4.3104 14.1243 4.38 13.1956C4.4064 12.8485 4.4208 12.8174 4.7616 12.8222C4.81796 12.8301 4.87525 12.8166 4.92199 12.7841C4.96872 12.7517 5.00145 12.7029 5.0136 12.6475C5.1648 12.2214 5.3328 11.8001 5.4936 11.3765C5.54149 11.2383 5.62412 11.1147 5.7336 11.0175C5.8608 10.905 6.0288 10.8164 6.0864 10.6369C6.1824 10.3497 6.2736 10.06 6.3696 9.77521C6.37937 9.7566 6.38526 9.73621 6.38691 9.71527C6.38856 9.69433 6.38595 9.67327 6.37922 9.65337C6.37249 9.63346 6.36179 9.61512 6.34776 9.59945C6.33374 9.58378 6.31667 9.5711 6.2976 9.56219C6.1488 9.48081 6.012 9.38267 5.868 9.29411C5.8422 9.28348 5.81884 9.26773 5.79932 9.24783C5.7798 9.22793 5.76453 9.20429 5.75443 9.17833C5.74434 9.15238 5.73963 9.12465 5.74058 9.09683C5.74154 9.06901 5.74815 9.04167 5.76 9.01646C6.048 8.19548 6.3288 7.36971 6.6048 6.54633C6.61393 6.50519 6.63766 6.46872 6.67162 6.44365C6.70558 6.41858 6.74748 6.4066 6.7896 6.4099C6.936 6.4099 7.0824 6.4099 7.2288 6.4099C7.26435 6.41421 7.30031 6.40638 7.33081 6.38769C7.36132 6.36899 7.38458 6.34054 7.3968 6.30698C7.6032 5.82827 7.8192 5.3711 8.0304 4.90436C8.23317 4.41038 8.51796 3.95401 8.8728 3.55441C9.228 3.17623 9.6144 2.83635 10.188 2.85071C10.296 2.85071 10.4064 2.85071 10.5144 2.85071C10.5914 2.82744 10.6609 2.78448 10.716 2.72612C10.7712 2.66775 10.8101 2.596 10.8288 2.51801C10.8288 2.40791 10.704 2.39594 10.6272 2.372C10.5672 2.35874 10.5147 2.32306 10.4803 2.2723C10.4459 2.22154 10.4323 2.15957 10.4424 2.09914C10.4424 1.85979 10.4232 1.60368 10.4112 1.35475C10.4011 1.19127 10.4282 1.02762 10.4904 0.876042C10.6407 0.52281 10.8909 0.22089 11.2104 0.00718762H13.0992L13.2192 0.0646325C13.4987 0.187472 13.7487 0.368479 13.9523 0.595523C14.156 0.822567 14.3086 1.0904 14.4 1.38107C14.411 1.41873 14.4323 1.45259 14.4616 1.47881C14.4909 1.50503 14.5269 1.52257 14.5656 1.52948C14.7216 1.55581 14.7096 1.65155 14.6856 1.76883L14.5272 2.42227C14.4552 2.72625 14.5104 2.71667 14.1816 2.68795C14.0232 2.68795 13.968 2.76215 14.0328 2.90815C14.0736 3.0015 14.1576 2.96081 14.2248 2.96081C16.2096 2.96081 18.1968 2.96081 20.1816 2.96081C20.484 2.96081 20.748 2.96081 20.8776 2.6305C20.8776 2.6305 20.8776 2.6305 20.8776 2.61614C20.9088 2.56588 20.9472 2.52758 21.012 2.54434C21.0381 2.55404 21.0603 2.57185 21.0754 2.59512C21.0905 2.6184 21.0978 2.64591 21.096 2.67359C21.1056 2.77549 21.1056 2.87806 21.096 2.97996C21.096 3.11161 21.1272 3.1499 21.2592 3.14751C21.6456 3.14751 22.0344 3.14751 22.4232 3.14751C22.5864 3.13315 22.6416 3.17144 22.6392 3.32702Z" fill="white"/>
</g>
<defs>
<clipPath id="clip0_814_5">
<rect width="24" height="24" fill="white"/>
</clipPath>
</defs>
</svg>
