<svg width="24" height="24" viewBox="0 0 24 24" fill="none" xmlns="http://www.w3.org/2000/svg">
<path fill-rule="evenodd" clip-rule="evenodd" d="M5.15998 4.45127L2.51173 1.78363C4.27059 0.870503 6.95232 0.247536 9.81464 0.113474C10.2012 0.0956612 10.3804 0.0408153 10.3804 0.0408153C10.3804 0.0408153 10.9607 -0.00137185 11.8568 3.4391e-05C12.7033 0.00144064 13.3558 0.0197216 13.3071 0.0408153L14.1602 0.145345C14.1602 0.145345 20.598 1.20003 22.3238 2.34565L22.5615 2.50362L22.5583 3.05253L22.519 3.50205C22.519 3.50205 22.47 3.89299 22.4527 4.54643C22.305 10.1222 21.099 15.1036 19.1408 18.5339L17.8702 17.2542L17.8913 17.2533C18.3645 16.1742 18.6707 15.6769 18.9046 14.5373C18.9714 14.2158 19.0159 13.8281 19.1272 13.4883L5.67706 4.03127L5.15998 4.45127ZM13.716 5.17127C13.7271 5.16517 13.7494 5.16518 13.7716 5.15299L15.0855 4.83752C15.7591 4.65564 15.8593 4.61346 16.4328 4.32846C16.7 4.42549 17.4293 4.8558 17.613 5.09861C17.7354 5.26221 17.7243 5.2983 17.6909 5.47408C17.6853 5.51064 17.6742 5.5472 17.6686 5.58939V5.60158L17.3791 8.00204C17.0953 8.01423 17.0674 7.98986 16.9894 7.91111C16.956 7.88111 16.9171 7.83845 16.8447 7.79016C16.4105 7.48079 14.9853 6.36564 14.5399 5.97752L13.6547 5.22564L13.6603 5.21955C13.6714 5.20736 13.677 5.19517 13.6826 5.18345C13.6881 5.17736 13.7104 5.17736 13.716 5.17127Z" fill="#B22A23"/>
<path fill-rule="evenodd" clip-rule="evenodd" d="M5.15998 4.45127L4.71391 4.81361C4.71947 4.83189 15.7368 17.2289 15.7647 17.2589C15.8142 17.2772 17.1835 17.2833 17.8702 17.2542L19.1408 18.5339C18.5307 19.6026 17.8471 20.5214 17.0998 21.2597C15.6801 22.6626 13.8536 23.7079 12.4157 24H11.5513C9.6956 23.5453 7.4752 21.9651 6.05603 20.0887C4.78236 18.4045 3.88018 16.6083 3.08338 14.1689C2.18779 11.4272 1.51424 7.35236 1.51424 4.67533C1.51424 3.81002 1.47967 3.17346 1.47967 3.17346V2.49706L1.66133 2.30018C1.91246 2.11971 2.19732 1.94722 2.51173 1.78363L5.15998 4.45127ZM5.74385 13.9069C5.86632 13.5914 6.0389 13.0823 6.18362 12.8278C6.88511 13.2947 9.63525 16.2286 9.87463 16.6228C9.74102 16.6772 9.17319 16.762 8.22676 17.1623C7.62552 17.4169 7.06324 17.6531 6.51767 17.459C6.46201 17.4412 6.31724 17.3076 6.10015 17.1136C5.70485 16.7559 5.34855 16.4953 5.14257 16.3622C4.79187 16.1376 4.84753 16.1859 5.74385 13.9069Z" fill="#951917"/>
</svg>
