<svg width="24" height="24" viewBox="0 0 24 24" fill="none" xmlns="http://www.w3.org/2000/svg">
<path d="M12.4305 13.7948C15.2148 15.3925 18.8153 14.375 20.4725 11.522C22.1298 8.66898 21.2162 5.06095 18.4319 3.4632C15.6477 1.86546 12.0472 2.88304 10.3899 5.73603C8.73269 8.58902 9.6463 12.1971 12.4305 13.7948Z" fill="#EE7950"/>
<path fill-rule="evenodd" clip-rule="evenodd" d="M18.7534 2.82399L18.7372 2.81501C15.7096 1.11596 11.8368 2.15894 9.93422 5.14814C9.90167 5.19929 9.86969 5.251 9.83831 5.30328C9.821 5.3321 9.80391 5.3611 9.78694 5.39026C8.34687 7.86939 8.64076 10.8592 10.3031 12.9087C10.7813 13.4983 11.3727 14.0101 12.0688 14.4095C12.4002 14.5995 12.8319 14.4752 13.0311 14.1375C12.9882 14.2113 12.9344 14.2749 12.8729 14.3274C12.8402 14.3557 12.8053 14.3809 12.7693 14.4022C12.7602 14.4076 12.7511 14.4127 12.7419 14.4177C12.5905 14.4987 12.4141 14.524 12.2467 14.4831C12.2274 14.4784 12.2081 14.4728 12.189 14.4662L12.1809 14.4634C12.1592 14.4557 12.1378 14.4468 12.1166 14.4367C12.4912 14.6474 12.8788 14.8162 13.2742 14.9445C15.8226 15.7717 18.6897 14.9169 20.4425 12.7813L20.4608 12.7588C20.6854 12.4829 20.8913 12.1858 21.0757 11.8684C21.1032 11.821 21.1301 11.7735 21.1563 11.7257C21.1672 11.7059 21.178 11.6861 21.1887 11.6662C22.8761 8.52586 21.8533 4.64185 18.8447 2.87672C18.8331 2.86861 18.8207 2.86186 18.8082 2.85505C18.8024 2.85194 18.7967 2.84882 18.791 2.84555L18.7843 2.84161L18.775 2.836C18.768 2.83203 18.7607 2.828 18.7534 2.82399ZM13.9033 9.87009L14.5547 8.74948L10.7442 6.56444C10.2721 7.60293 10.159 8.72469 10.3649 9.77117C11.5038 9.39533 12.7559 9.40779 13.9033 9.87009ZM15.7611 9.44124L15.1096 10.5619C16.0883 11.3192 16.7257 12.3923 16.9665 13.5624C17.9834 13.2163 18.9063 12.5568 19.5759 11.6288L15.7611 9.44124ZM14.3821 11.8135C15.0001 12.3454 15.4096 13.0589 15.5801 13.8335C14.8522 13.8749 14.1132 13.7619 13.4133 13.48L14.3821 11.8135ZM10.8205 11.0995C11.1473 11.7461 11.6139 12.3253 12.2077 12.787L13.1757 11.1217C12.4046 10.8567 11.5797 10.8605 10.8205 11.0995ZM15.273 7.51377L15.7512 6.69114C14.7742 5.93513 14.1373 4.86421 13.8956 3.69643C12.9838 4.00684 12.1476 4.56927 11.5018 5.35129L15.273 7.51377ZM20.2534 10.3697L16.4794 8.20554L16.9576 7.38291C18.1053 7.84527 19.3576 7.85766 20.4966 7.48163C20.6826 8.42162 20.6113 9.42263 20.2534 10.3697ZM20.0394 6.15372C19.2804 6.39247 18.4559 6.3962 17.6851 6.13127L18.6514 4.46894C19.2452 4.92973 19.712 5.50799 20.0394 6.15372ZM15.2819 3.42519C16.0086 3.38369 16.7464 3.49622 17.4452 3.77692L16.4788 5.43951C15.8622 4.90888 15.4531 4.19758 15.2819 3.42519Z" fill="#4A4A4A"/>
<path fill-rule="evenodd" clip-rule="evenodd" d="M12.7693 14.4022C12.7602 14.4076 12.7511 14.4127 12.7419 14.4177C12.5908 14.4975 12.4136 14.5234 12.2467 14.4831C12.2274 14.4784 12.2081 14.4728 12.189 14.4662C12.1863 14.4653 12.1836 14.4644 12.1809 14.4634C12.1592 14.4557 12.1378 14.4468 12.1166 14.4367C12.1002 14.4289 12.0877 14.4222 12.0717 14.4131C11.3756 14.0137 10.7813 13.4983 10.3031 12.9087C10.782 13.4999 11.3744 14.013 12.0717 14.4131C12.0826 14.4193 12.0922 14.4239 12.1023 14.429C12.1068 14.4314 12.1117 14.4339 12.1166 14.4367C12.1378 14.4468 12.1592 14.4557 12.1809 14.4634C12.1836 14.4644 12.1863 14.4653 12.189 14.4662C12.2081 14.4728 12.2274 14.4784 12.2467 14.4831C12.4141 14.524 12.5905 14.4987 12.7419 14.4177C12.7511 14.4127 12.7602 14.4076 12.7693 14.4022Z" fill="#4A4A4A"/>
<path fill-rule="evenodd" clip-rule="evenodd" d="M9.93422 5.14814C9.91125 5.1767 9.89011 5.20736 9.8711 5.24001C9.86503 5.25046 9.85926 5.26098 9.85375 5.27159C9.84832 5.28208 9.84317 5.29265 9.83831 5.30328C9.86969 5.251 9.90167 5.19929 9.93422 5.14814ZM21.1563 11.7257C21.1672 11.7059 21.178 11.6861 21.1887 11.6662C21.1807 11.6826 21.172 11.6989 21.1627 11.7149L21.1563 11.7257Z" fill="#4A4A4A"/>
<path fill-rule="evenodd" clip-rule="evenodd" d="M16.2413 18.0625L15.4862 12.7884C15.2917 11.4318 14.1203 10.4265 12.7405 10.4265H6.45926C5.07938 10.4265 3.90804 11.4318 3.71351 12.7884L2.95844 18.0625C2.80595 19.1227 3.63108 20.0667 4.70514 20.0667C5.17664 20.0667 5.62012 19.8808 5.95314 19.5501L7.52014 18.0003H11.6796L13.24 19.5501C13.5722 19.8808 14.0231 20.0667 14.488 20.0667C15.5695 20.0667 16.3938 19.1227 16.2413 18.0625Z" fill="white"/>
<path d="M7.86634 12.1482H6.47986V13.5253H5.09338V14.9023H6.47986V16.2794H7.86634V14.9023H9.25282V13.5253H7.86634V12.1482Z" fill="#4A4A4A"/>
<path fill-rule="evenodd" clip-rule="evenodd" d="M6.45927 9.49235C4.61283 9.49235 3.04336 10.8391 2.78288 12.6566L2.02782 17.9307C1.79454 19.5542 3.0582 21 4.70515 21C5.42889 21 6.10977 20.7143 6.61754 20.21L7.9084 18.9344H11.2905L12.5748 20.21C13.0834 20.7151 13.7733 21 14.488 21C16.1415 21 17.4052 19.555 17.1719 17.9307L16.4169 12.6566C16.1564 10.8391 14.5869 9.49235 12.7405 9.49235H6.45927ZM6.45927 10.6713H12.7405C13.9967 10.6713 15.065 11.5866 15.2414 12.8228L15.9973 18.0969C16.1283 19.0097 15.417 19.8211 14.488 19.8211C14.0865 19.8211 13.7 19.6606 13.4139 19.3765L11.9557 17.9282C11.8444 17.8177 11.6936 17.7555 11.5362 17.7555H7.66275C7.50614 17.7555 7.35611 17.8177 7.24483 17.9274L5.77922 19.3765C5.49319 19.6598 5.11153 19.8211 4.70515 19.8211C3.78028 19.8211 3.07138 19.0089 3.20245 18.0969L3.95833 12.8228C4.13474 11.5866 5.20303 10.6713 6.45927 10.6713Z" fill="#4A4A4A"/>
<path fill-rule="evenodd" clip-rule="evenodd" d="M10.7395 12.7394C10.6757 12.8734 10.6397 13.0229 10.6397 13.1805C10.6397 13.7499 11.1067 14.2137 11.68 14.2137C12.2525 14.2137 12.7195 13.7499 12.7195 13.1805C12.7195 13.0229 12.6836 12.8734 12.6198 12.7394C12.4529 12.3901 12.0939 12.148 11.68 12.148C11.2654 12.148 10.9072 12.3901 10.7395 12.7394Z" fill="#C61414"/>
<path fill-rule="evenodd" clip-rule="evenodd" d="M13.0663 14.2137C12.4938 14.2137 12.026 14.6775 12.026 15.2461C12.026 15.8156 12.4938 16.2794 13.0663 16.2794C13.6388 16.2794 14.1066 15.8156 14.1066 15.2461C14.1066 14.6775 13.6388 14.2137 13.0663 14.2137Z" fill="#C61414"/>
</svg>
