<svg width="24" height="24" viewBox="0 0 24 24" fill="none" xmlns="http://www.w3.org/2000/svg">
<path fill-rule="evenodd" clip-rule="evenodd" d="M10.5725 5.47051C10.5013 5.5789 10.433 5.69023 10.3677 5.80446C8.70747 8.70844 9.62272 12.381 12.412 14.0073C13.9476 14.9026 15.7311 14.9911 17.3011 14.4052C17.2646 14.1657 17.1987 13.9347 17.1066 13.7161C18.0657 13.3513 18.9326 12.7004 19.5703 11.8025L15.7485 9.57589L15.096 10.7165C15.9033 11.3513 16.4789 12.2042 16.7915 13.1506C16.5754 12.8461 16.3019 12.5811 15.9839 12.3707C15.9506 12.2563 15.9121 12.147 15.8687 12.0408C15.4929 11.1252 14.8007 10.382 13.9255 9.94574L14.54 8.87176L12.1129 7.45767C11.9939 6.54969 11.3901 5.79611 10.5725 5.47051ZM20.249 10.5209L16.4681 8.31809L16.9472 7.48073C18.0969 7.95133 19.3515 7.96401 20.4926 7.58127C20.679 8.53806 20.6075 9.55696 20.249 10.5209ZM15.2596 7.61396L15.7386 6.77661C14.7599 6.00708 14.1218 4.91705 13.8797 3.72842C12.9662 4.04438 12.1285 4.61685 11.4816 5.41284L15.2596 7.61396ZM17.6761 6.20675L18.6441 4.5147C19.239 4.98374 19.7066 5.57236 20.0345 6.22966C19.2742 6.47266 18.4482 6.47645 17.6761 6.20675ZM15.2686 3.45231C15.4401 4.23848 15.8499 4.96248 16.4675 5.50259L17.4357 3.81032C16.7356 3.52462 15.9966 3.41008 15.2686 3.45231Z" fill="#EE7950"/>
<path fill-rule="evenodd" clip-rule="evenodd" d="M17.3183 15.1525C17.329 15.0514 17.3344 14.9489 17.3344 14.8453C17.3344 14.6961 17.3231 14.5491 17.3011 14.4052C17.2646 14.1657 17.1987 13.9347 17.1066 13.7161C17.0567 13.7351 17.0065 13.7533 16.9561 13.7707C16.9135 13.5605 16.8586 13.3534 16.7915 13.1506C16.5754 12.8461 16.3019 12.5811 15.9839 12.3707C15.9506 12.2563 15.9121 12.147 15.8687 12.0408C15.4929 11.1252 14.8007 10.382 13.9255 9.94574L13.8874 10.0123C12.7379 9.54188 11.4836 9.5292 10.3426 9.91173C10.1364 8.84654 10.2497 7.70474 10.7226 6.64768L12.1129 7.45767C11.9939 6.54969 11.3901 5.79611 10.5725 5.47051C10.3463 5.38045 10.1038 5.32313 9.85074 5.30435L9.84456 5.31459L9.82699 5.34395L9.81528 5.3637L9.79967 5.39028L9.78418 5.41691L9.76367 5.45251C8.32086 7.97621 8.61543 11.0198 10.2812 13.1059C10.7601 13.7058 11.3526 14.2266 12.0496 14.6329C13.7009 15.5957 15.6106 15.7253 17.3183 15.1525ZM9.89364 5.23424C9.895 5.23237 9.89625 5.23042 9.89745 5.22844L9.89364 5.23424ZM12.0496 14.6329C12.3829 14.8272 12.8151 14.7031 13.0136 14.3561L13.3965 13.6869C13.5979 13.7693 13.8026 13.8375 14.0093 13.8919C14.5222 14.0269 15.0476 14.0767 15.5674 14.0466C15.3965 13.2582 14.9863 12.5319 14.3671 11.9905C14.193 11.8383 14.0024 11.7007 13.796 11.5805C13.5896 11.4602 13.3761 11.3625 13.1585 11.2864C12.386 11.0167 11.5597 11.0206 10.7992 11.2638C11.1265 11.922 11.594 12.5115 12.1888 12.9814L11.8051 13.652C11.7805 13.695 11.7606 13.7395 11.7453 13.7847C11.743 13.7916 11.7408 13.7985 11.7386 13.8054C11.7346 13.8185 11.731 13.8318 11.7277 13.845C11.6531 14.1483 11.7759 14.4735 12.0496 14.6329Z" fill="#4A4A4A"/>
<path fill-rule="evenodd" clip-rule="evenodd" d="M11.9541 14.5658C11.9821 14.5893 12.0172 14.6137 12.0496 14.6329C12.0533 14.6352 12.0523 14.6345 12.0561 14.6367C12.3885 14.8256 12.8164 14.7008 13.0136 14.3561L13.3965 13.6869C13.1842 13.6 12.9755 13.4974 12.7717 13.3786C12.5657 13.2584 12.3713 13.1255 12.1888 12.9814L11.8051 13.652C11.7805 13.695 11.7606 13.7395 11.7453 13.7847C11.7441 13.7882 11.7398 13.8018 11.7386 13.8054M11.7333 13.8236C11.7313 13.8307 11.7295 13.8379 11.7277 13.845C11.6625 14.1103 11.7483 14.3925 11.9541 14.5658" fill="#4A4A4A"/>
<path fill-rule="evenodd" clip-rule="evenodd" d="M12.1888 12.9814L13.1585 11.2864C13.3761 11.3625 13.5896 11.4602 13.796 11.5805C14.0024 11.7007 14.193 11.8383 14.3671 11.9905L13.3965 13.6869L13.0136 14.3561C12.8151 14.7031 12.3829 14.8272 12.0496 14.6329C11.7759 14.4735 11.6531 14.1483 11.7277 13.845C11.731 13.8318 11.7346 13.8185 11.7386 13.8054C11.7408 13.7985 11.743 13.7916 11.7453 13.7847C11.7606 13.7395 11.7805 13.695 11.8051 13.652L12.1888 12.9814Z" fill="#4A4A4A"/>
<path fill-rule="evenodd" clip-rule="evenodd" d="M9.1646 8.82014C8.78688 8.63262 8.52707 8.24058 8.52707 7.78712C8.52707 7.15162 9.03754 6.6366 9.66716 6.6366C10.2969 6.6366 10.8074 7.15162 10.8074 7.78712C10.8074 8.24058 10.5476 8.63262 10.1698 8.82014V10.8632H10.4903C11.9062 10.8632 12.6161 10.8381 13.1745 11.0716C13.8393 11.3494 14.3675 11.8824 14.6427 12.5532C14.729 12.7632 14.7796 12.9943 14.8092 13.2758C15.5068 13.5017 16.0075 14.119 16.0075 14.8453C16.0075 15.5579 15.5253 16.1658 14.8481 16.4017C14.8401 17.1202 14.8025 17.5819 14.6427 17.971C14.3675 18.6418 13.8393 19.1747 13.1745 19.4526C12.6161 19.6859 11.9062 19.661 10.4902 19.661H8.84417C7.4283 19.661 6.71838 19.6859 6.1599 19.4526C5.49514 19.1747 4.96698 18.6418 4.6917 17.971C4.53197 17.582 4.49436 17.1202 4.48632 16.4017C3.80907 16.1658 3.32692 15.5579 3.32692 14.8453C3.32692 14.119 3.8275 13.5017 4.52517 13.2758C4.55486 12.9943 4.60546 12.7632 4.69157 12.5534C4.96698 11.8824 5.49514 11.3494 6.1599 11.0716C6.71838 10.8381 7.4283 10.8632 8.84417 10.8632H9.1646V8.82014Z" fill="white"/>
<path fill-rule="evenodd" clip-rule="evenodd" d="M7.83768 9.45727V9.53155C6.79273 9.55066 6.16954 9.6182 5.65214 9.83445C4.66237 10.2482 3.87574 11.0419 3.46573 12.0408C3.42218 12.1468 3.3837 12.2565 3.3503 12.3709C2.52569 12.9166 2 13.8292 2 14.8453C2 15.795 2.45901 16.6541 3.19243 17.208C3.23487 17.7317 3.32036 18.1291 3.46573 18.4833C3.87574 19.4823 4.66224 20.2759 5.65214 20.6896C6.31739 20.9675 7.15771 21 8.84416 21H10.4901C12.1767 21 13.017 20.9677 13.6822 20.6897C14.6722 20.276 15.4587 19.4822 15.8687 18.4833C16.0139 18.1291 16.0994 17.7316 16.142 17.2079C16.7953 16.7145 17.231 15.9788 17.3183 15.1525C17.329 15.0514 17.3344 14.9489 17.3344 14.8453C17.3344 14.6961 17.3231 14.5491 17.3011 14.4052C17.2646 14.1657 17.1987 13.9347 17.1066 13.7161C17.0225 13.5163 16.9167 13.3268 16.7915 13.1506C16.5754 12.8461 16.3019 12.5811 15.9839 12.3707C15.9506 12.2563 15.9121 12.147 15.8687 12.0408C15.4929 11.1252 14.8007 10.382 13.9255 9.94574C13.8459 9.90607 13.7648 9.86894 13.6823 9.83445C13.1649 9.61833 12.5417 9.55066 11.4966 9.53155V9.45727C11.8929 9.01566 12.1343 8.42986 12.1343 7.78712C12.1343 7.67543 12.127 7.56546 12.1129 7.45767C11.9939 6.54969 11.3901 5.79611 10.5725 5.47051C10.3463 5.38045 10.1038 5.32313 9.85074 5.30435C9.79012 5.29985 9.7289 5.29756 9.66715 5.29756C8.30473 5.29756 7.20014 6.41212 7.20014 7.78712C7.20014 8.42973 7.4414 9.01566 7.83768 9.45727ZM9.1646 8.82014C8.78688 8.63262 8.52707 8.24058 8.52707 7.78712C8.52707 7.15162 9.03754 6.6366 9.66716 6.6366C10.2969 6.6366 10.8074 7.15162 10.8074 7.78712C10.8074 8.24058 10.5476 8.63262 10.1698 8.82014V10.8632H10.4903C11.9062 10.8632 12.6161 10.8381 13.1745 11.0716C13.8393 11.3494 14.3675 11.8824 14.6427 12.5532C14.729 12.7632 14.7796 12.9943 14.8092 13.2758C15.5068 13.5017 16.0075 14.119 16.0075 14.8453C16.0075 15.5579 15.5253 16.1658 14.8481 16.4017C14.8401 17.1202 14.8025 17.5819 14.6427 17.971C14.3675 18.6418 13.8393 19.1747 13.1745 19.4526C12.6161 19.6859 11.9062 19.661 10.4902 19.661H8.84417C7.4283 19.661 6.71838 19.6859 6.1599 19.4526C5.49514 19.1747 4.96698 18.6418 4.6917 17.971C4.53197 17.582 4.49436 17.1202 4.48632 16.4017C3.80907 16.1658 3.32692 15.5579 3.32692 14.8453C3.32692 14.119 3.8275 13.5017 4.52517 13.2758C4.55486 12.9943 4.60546 12.7632 4.69157 12.5534C4.96698 11.8824 5.49514 11.3494 6.1599 11.0716C6.71838 10.8381 7.4283 10.8632 8.84417 10.8632H9.1646V8.82014Z" fill="#4A4A4A"/>
<path fill-rule="evenodd" clip-rule="evenodd" d="M13.7543 13.7641C13.7543 12.8005 12.9789 12.0181 12.0234 12.0181H7.31096C6.35547 12.0181 5.5801 12.8005 5.5801 13.7641V16.7596C5.5801 17.7243 6.35547 18.5067 7.31096 18.5067H12.0234C12.9789 18.5067 13.7543 17.7243 13.7543 16.7596V13.7641Z" fill="#4A4A4A"/>
<path fill-rule="evenodd" clip-rule="evenodd" d="M11.6216 16.3741C11.0136 16.3741 10.5203 15.8763 10.5195 15.262C10.5203 14.6478 11.0136 14.1499 11.6216 14.1499C12.231 14.1499 12.7244 14.6478 12.7236 15.262C12.7244 15.8763 12.231 16.3741 11.6216 16.3741Z" fill="#4EF4C1"/>
<path fill-rule="evenodd" clip-rule="evenodd" d="M7.71279 16.3741C7.10333 16.3741 6.60999 15.8763 6.61077 15.262C6.60999 14.6478 7.10333 14.1499 7.71279 14.1499C8.3207 14.1499 8.81404 14.6478 8.81482 15.262C8.81404 15.8763 8.3207 16.3741 7.71279 16.3741Z" fill="#4EF4C1"/>
<path fill-rule="evenodd" clip-rule="evenodd" d="M21.2266 11.7361L21.2293 11.7269L21.2312 11.7203C21.2308 11.7219 21.2298 11.7252 21.2293 11.7269C21.2287 11.7292 21.2271 11.7346 21.2266 11.7361Z" fill="#4A4A4A"/>
<path fill-rule="evenodd" clip-rule="evenodd" d="M17.3011 14.4052C17.2646 14.1657 17.1987 13.9347 17.1066 13.7161C18.0657 13.3513 18.9326 12.7004 19.5703 11.8025L15.7485 9.57589L15.096 10.7165C15.9033 11.3513 16.4789 12.2042 16.7915 13.1506C16.5754 12.8461 16.3019 12.5811 15.9839 12.3707C15.9506 12.2563 15.9121 12.147 15.8687 12.0408C15.4929 11.1252 14.8007 10.382 13.9255 9.94574L14.54 8.87176L12.1129 7.45767C11.9939 6.54969 11.3901 5.79611 10.5725 5.47051C10.3463 5.38045 10.1038 5.32313 9.85074 5.30435C9.86475 5.28116 9.8794 5.2572 9.89364 5.23424C9.895 5.23237 9.89625 5.23042 9.89745 5.22844L9.91106 5.20629C11.8283 2.14548 15.7442 1.08704 18.7851 2.86004C21.8405 4.64157 22.8878 8.62229 21.1873 11.8377L21.1815 11.8497L21.1786 11.8556L21.1751 11.8613L21.1692 11.8717L21.1648 11.88L21.16 11.8902L21.1517 11.9042C21.1259 11.9518 21.0997 11.9992 21.0728 12.0464C20.198 13.5766 18.8382 14.6427 17.3183 15.1525C17.329 15.0514 17.3344 14.9489 17.3344 14.8453C17.3344 14.6961 17.3231 14.5491 17.3011 14.4052ZM20.249 10.5209L16.4681 8.31809L16.9472 7.48073C18.0969 7.95133 19.3515 7.96401 20.4926 7.58127C20.679 8.53806 20.6075 9.55696 20.249 10.5209ZM15.2596 7.61396L15.7386 6.77661C14.7599 6.00708 14.1218 4.91705 13.8797 3.72842C12.9662 4.04438 12.1285 4.61685 11.4816 5.41284L15.2596 7.61396ZM17.6761 6.20675L18.6441 4.5147C19.239 4.98374 19.7066 5.57236 20.0345 6.22966C19.2742 6.47266 18.4482 6.47645 17.6761 6.20675ZM15.2686 3.45231C15.4401 4.23848 15.8499 4.96248 16.4675 5.50259L17.4357 3.81032C16.7356 3.52462 15.9966 3.41008 15.2686 3.45231Z" fill="#4A4A4A"/>
</svg>
