<svg width="24" height="24" viewBox="0 0 24 24" fill="none" xmlns="http://www.w3.org/2000/svg">
<path d="M20.4907 11.87C22.1297 9.22107 21.2111 5.86273 18.4391 4.36898C15.667 2.87523 12.0912 3.81172 10.4522 6.46068C8.81327 9.10965 9.73183 12.468 12.5039 13.9617C15.2759 15.4555 18.8517 14.519 20.4907 11.87Z" fill="#FC656E"/>
<path fill-rule="evenodd" clip-rule="evenodd" d="M19.1256 4.87794C19.4607 5.12956 19.7592 5.41234 20.0193 5.71905C20.0066 5.74955 19.9911 5.77952 19.973 5.80884L14.5625 14.5759C14.0967 14.5119 13.6349 14.3932 13.1875 14.217L18.7758 5.16177C18.8586 5.02769 18.9837 4.93089 19.1256 4.87794ZM16.8732 3.84551C17.2981 3.94009 17.7168 4.08188 18.1209 4.27306C18.113 4.36878 18.0826 4.46464 18.0277 4.55366L12.3253 13.7937C11.9218 13.5529 11.5608 13.2713 11.2448 12.9577L16.8305 3.9066C16.8438 3.88521 16.858 3.86489 16.8732 3.84551Z" fill="#FFECB3"/>
<path fill-rule="evenodd" clip-rule="evenodd" d="M9.85181 6.13713C8.01791 9.10116 9.04713 12.8641 12.1489 14.5355C15.2506 16.2069 19.2572 15.1576 21.0911 12.1936C22.925 9.22956 21.8958 5.46663 18.7941 3.79521C15.6923 2.1238 11.6857 3.1731 9.85181 6.13713ZM11.0527 6.78423C12.4944 4.45397 15.6455 3.62873 18.0841 4.94276C20.5226 6.25679 21.3321 9.21623 19.8903 11.5465C18.4485 13.8767 15.2974 14.702 12.8589 13.388C10.4203 12.0739 9.6109 9.11449 11.0527 6.78423Z" fill="#4A4A4A"/>
<path fill-rule="evenodd" clip-rule="evenodd" d="M19.3934 18.9087C19.8158 18.5121 19.8158 17.8678 19.3934 17.4712L15.5858 13.8951C15.1634 13.4985 14.4775 13.4985 14.0551 13.8951C13.6328 14.2918 13.6328 14.936 14.0551 15.3327L17.8628 18.9087C18.2851 19.3054 18.9711 19.3054 19.3934 18.9087Z" fill="#C99270"/>
<path fill-rule="evenodd" clip-rule="evenodd" d="M19.888 19.3732C20.5835 18.72 20.5832 17.6596 19.888 17.0067L16.0803 13.4306C15.3849 12.7775 14.256 12.7775 13.5605 13.4306C12.8651 14.0838 12.8648 15.1443 13.5602 15.7975L17.3679 19.3735C18.0631 20.0264 19.1925 20.0264 19.888 19.3732ZM18.8986 18.444C18.7491 18.5844 18.5065 18.5844 18.3573 18.4443L14.5497 14.8682C14.4005 14.7281 14.4005 14.5003 14.55 14.3599C14.6992 14.2198 14.9417 14.2198 15.0909 14.3599L18.8986 17.9359C19.0478 18.0761 19.0478 18.3038 18.8986 18.444Z" fill="#4A4A4A"/>
<path fill-rule="evenodd" clip-rule="evenodd" d="M16.2282 14.3025C16.5932 13.9597 16.5929 13.4035 16.2276 13.0604L6.95072 4.3477C6.58601 4.00518 5.99374 4.00497 5.62876 4.34776L3.88944 5.98128C3.52446 6.32407 3.52468 6.88032 3.88938 7.22284L13.1663 15.9355C13.5316 16.2786 14.1239 16.2788 14.4889 15.936L16.2282 14.3025Z" fill="#C99270"/>
<path fill-rule="evenodd" clip-rule="evenodd" d="M16.7227 14.7669C17.3605 14.1679 17.3601 13.195 16.7222 12.5959L7.44529 3.88321C6.80735 3.28408 5.77205 3.28427 5.13422 3.8833L3.39491 5.51683C2.75708 6.11586 2.75688 7.08819 3.39481 7.68732L12.6717 16.4C13.3097 16.9991 14.3456 16.9995 14.9834 16.4005L16.7227 14.7669ZM15.733 13.8375L13.9937 15.471C13.9022 15.557 13.7529 15.5575 13.6609 15.471L4.38395 6.75835C4.29248 6.67244 4.29243 6.53171 4.38398 6.44573L6.12329 4.81221C6.21483 4.72623 6.36468 4.72628 6.45615 4.81219L15.7331 13.5249C15.8251 13.6113 15.8246 13.7515 15.733 13.8375Z" fill="#4A4A4A"/>
<path fill-rule="evenodd" clip-rule="evenodd" d="M16.2534 18.2199L15.4977 13.2285C15.303 11.9446 14.1307 10.9931 12.7496 10.9931H6.46307C5.08201 10.9931 3.90967 11.9446 3.71497 13.2285L2.95926 18.2199C2.80664 19.2233 3.63247 20.1167 4.70746 20.1167C5.17936 20.1167 5.62321 19.9408 5.95652 19.6278L7.52486 18.161H11.6878L13.2496 19.6278C13.5821 19.9408 14.0333 20.1167 14.4986 20.1167C15.5811 20.1167 16.4061 19.2233 16.2534 18.2199Z" fill="white"/>
<path d="M7.87135 12.6226H6.48369V13.9258H5.09603V15.2291H6.48369V16.5323H7.87135V15.2291H9.25902V13.9258H7.87135V12.6226Z" fill="#4A4A4A"/>
<path fill-rule="evenodd" clip-rule="evenodd" d="M6.46308 10.109C4.61506 10.109 3.04425 11.3836 2.78355 13.1037L2.02784 18.0952C1.79436 19.6317 3.0591 21 4.70746 21C5.43182 21 6.11328 20.7296 6.62148 20.2523L7.91344 19.0451H11.2985L12.5838 20.2523C13.0928 20.7304 13.7834 21 14.4987 21C16.1536 21 17.4184 19.6324 17.1849 18.0952L16.4292 13.1037C16.1685 11.3836 14.5977 10.109 12.7496 10.109H6.46308ZM6.46308 11.2248H12.7496C14.007 11.2248 15.0762 12.091 15.2527 13.261L16.0092 18.2525C16.1404 19.1164 15.4284 19.8842 14.4987 19.8842C14.0969 19.8842 13.7099 19.7324 13.4237 19.4635L11.9642 18.0928C11.8529 17.9882 11.7019 17.9294 11.5443 17.9294H7.66759C7.51084 17.9294 7.36069 17.9882 7.24931 18.0921L5.78245 19.4635C5.49617 19.7316 5.11419 19.8842 4.70746 19.8842C3.78181 19.8842 3.0723 19.1156 3.20348 18.2525L3.96001 13.261C4.13656 12.091 5.20577 11.2248 6.46308 11.2248Z" fill="#4A4A4A"/>
<path fill-rule="evenodd" clip-rule="evenodd" d="M10.747 13.182C10.6831 13.3089 10.6471 13.4503 10.6471 13.5995C10.6471 14.1384 11.1145 14.5774 11.6883 14.5774C12.2613 14.5774 12.7287 14.1384 12.7287 13.5995C12.7287 13.4503 12.6927 13.3089 12.6288 13.182C12.4618 12.8515 12.1025 12.6224 11.6883 12.6224C11.2733 12.6224 10.9148 12.8515 10.747 13.182Z" fill="#C61414"/>
<path fill-rule="evenodd" clip-rule="evenodd" d="M13.0758 14.5774C12.5028 14.5774 12.0346 15.0163 12.0346 15.5545C12.0346 16.0934 12.5028 16.5324 13.0758 16.5324C13.6488 16.5324 14.117 16.0934 14.117 15.5545C14.117 15.0163 13.6488 14.5774 13.0758 14.5774Z" fill="#C61414"/>
</svg>
