<svg width="24" height="24" viewBox="0 0 24 24" fill="none" xmlns="http://www.w3.org/2000/svg">
<path d="M20.491 12.1033C22.1296 9.38468 21.2113 5.93802 18.4398 4.40499C15.6683 2.87195 12.0931 3.83306 10.4545 6.55169C8.81584 9.27033 9.73421 12.717 12.5057 14.25C15.2772 15.7831 18.8524 14.8219 20.491 12.1033Z" fill="#FC656E"/>
<path fill-rule="evenodd" clip-rule="evenodd" d="M19.1262 4.92733C19.4613 5.18556 19.7598 5.47577 20.0198 5.79056C20.0069 5.82185 19.9915 5.85275 19.9734 5.8827L14.564 14.8804C14.0982 14.8147 13.6366 14.6928 13.1892 14.512L18.7766 5.21861C18.8592 5.08101 18.9843 4.98166 19.1262 4.92733ZM16.8743 3.86774C17.299 3.96481 17.7176 4.11032 18.1217 4.30653C18.1139 4.40477 18.0834 4.50329 18.0285 4.59452L12.3273 14.0777C11.9237 13.8304 11.5628 13.5414 11.2469 13.2195L16.8317 3.93043C16.8447 3.90849 16.859 3.88763 16.8743 3.86774Z" fill="#FFECB3"/>
<path fill-rule="evenodd" clip-rule="evenodd" d="M9.85417 6.21964C8.02063 9.26162 9.04964 13.1235 12.1508 14.8389C15.2519 16.5543 19.2578 15.4774 21.0913 12.4354C22.9249 9.39339 21.8959 5.5315 18.7947 3.81613C15.6936 2.10075 11.6877 3.17766 9.85417 6.21964ZM11.0548 6.88376C12.4963 4.49221 15.6468 3.64526 18.0848 4.99385C20.5229 6.34244 21.3322 9.37971 19.8907 11.7713C18.4492 14.1628 15.2987 15.0098 12.8607 13.6612C10.4226 12.3126 9.61331 9.2753 11.0548 6.88376Z" fill="#4A4A4A"/>
<path fill-rule="evenodd" clip-rule="evenodd" d="M20.3028 19.3271C20.725 18.92 20.725 18.2588 20.3028 17.8517L16.4959 14.1816C16.0736 13.7746 15.3878 13.7746 14.9655 14.1816C14.5433 14.5887 14.5433 15.2499 14.9655 15.657L18.7724 19.3271C19.1947 19.7342 19.8805 19.7342 20.3028 19.3271Z" fill="#C99270"/>
<path fill-rule="evenodd" clip-rule="evenodd" d="M20.7973 19.8038C21.4926 19.1335 21.4923 18.0451 20.7973 17.375L16.9904 13.7049C16.295 13.0346 15.1664 13.0346 14.471 13.7049C13.7757 14.3753 13.7754 15.4636 14.4707 16.134L18.2776 19.8041C18.9727 20.4742 20.1019 20.4742 20.7973 19.8038ZM19.808 18.8501C19.6585 18.9942 19.4161 18.9942 19.2669 18.8504L15.46 15.1803C15.3108 15.0365 15.3108 14.8027 15.4603 14.6586C15.6095 14.5148 15.8519 14.5148 16.0011 14.6586L19.808 18.3287C19.9572 18.4725 19.9572 18.7063 19.808 18.8501Z" fill="#4A4A4A"/>
<path fill-rule="evenodd" clip-rule="evenodd" d="M17.1382 14.5997C17.5031 14.2479 17.5028 13.677 17.1376 13.3249L7.8625 4.38313C7.49787 4.0316 6.90571 4.03138 6.5408 4.38318L4.80182 6.05967C4.43691 6.41147 4.43713 6.98235 4.80176 7.33388L14.0769 16.2757C14.4421 16.6278 15.0343 16.628 15.3992 16.2762L17.1382 14.5997Z" fill="#C99270"/>
<path fill-rule="evenodd" clip-rule="evenodd" d="M17.6326 15.0764C18.2703 14.4616 18.2699 13.4631 17.6321 12.8482L8.35697 3.90642C7.71916 3.29153 6.68406 3.29172 6.04636 3.90651L4.30738 5.583C3.66968 6.19779 3.66947 7.19569 4.30729 7.81058L13.5824 16.7524C14.2202 17.3673 15.2559 17.3677 15.8936 16.7529L17.6326 15.0764ZM16.6431 14.1225L14.9042 15.799C14.8126 15.8872 14.6634 15.8877 14.5714 15.799L5.29623 6.85717C5.20478 6.76901 5.20473 6.62457 5.29626 6.53634L7.03524 4.85985C7.12676 4.77161 7.27658 4.77166 7.36803 4.85983L16.6432 13.8016C16.7352 13.8904 16.7347 14.0342 16.6431 14.1225Z" fill="#4A4A4A"/>
<path fill-rule="evenodd" clip-rule="evenodd" d="M9.15645 9.37743C8.77916 9.19848 8.51964 8.82438 8.51964 8.39167C8.51964 7.78525 9.02953 7.29379 9.65843 7.29379C10.2875 7.29379 10.7974 7.78525 10.7974 8.39167C10.7974 8.82438 10.5378 9.19848 10.1605 9.37743V11.327H10.4806C11.8949 11.327 12.604 11.3031 13.1618 11.5259C13.8258 11.791 14.3534 12.2996 14.6284 12.9397C14.7145 13.1401 14.765 13.3606 14.7946 13.6292C15.4914 13.8448 15.9916 14.4338 15.9916 15.1269C15.9916 15.8069 15.5099 16.387 14.8335 16.6121C14.8255 17.2977 14.7879 17.7383 14.6284 18.1095C14.3534 18.7497 13.8258 19.2582 13.1618 19.5234C12.604 19.7461 11.8949 19.7222 10.4805 19.7222H8.83637C7.42212 19.7222 6.71301 19.7461 6.15517 19.5234C5.49117 19.2582 4.9636 18.7497 4.68863 18.1095C4.52909 17.7384 4.49152 17.2977 4.48349 16.6121C3.80701 16.387 3.32541 15.8069 3.32541 15.1269C3.32541 14.4338 3.82542 13.8448 4.52229 13.6292C4.55195 13.3606 4.6025 13.1401 4.68851 12.9398C4.9636 12.2996 5.49117 11.791 6.15517 11.5259C6.71301 11.3031 7.42212 11.327 8.83637 11.327H9.15645V9.37743Z" fill="white"/>
<path fill-rule="evenodd" clip-rule="evenodd" d="M7.83104 9.9854V10.0563C6.78727 10.0745 6.1648 10.139 5.64798 10.3453C4.65933 10.7401 3.87361 11.4975 3.46406 12.4508C3.42056 12.5519 3.38213 12.6565 3.34876 12.7658C2.52509 13.2864 2 14.1573 2 15.1269C2 16.0332 2.45848 16.853 3.19107 17.3815C3.23346 17.8813 3.31885 18.2605 3.46406 18.5985C3.87361 19.5517 4.65921 20.309 5.64798 20.7038C6.31248 20.969 7.15184 21 8.83637 21H10.4805C12.1651 21 13.0045 20.9691 13.6689 20.7039C14.6578 20.3091 15.4434 19.5516 15.8529 18.5985C15.998 18.2605 16.0834 17.8812 16.1259 17.3814C16.8584 16.853 17.317 16.0332 17.317 15.1269C17.317 14.1573 16.7918 13.2863 15.968 12.7655C15.9347 12.6564 15.8963 12.552 15.8529 12.4508C15.4434 11.4975 14.6578 10.7401 13.669 10.3453C13.1522 10.1391 12.5297 10.0745 11.4858 10.0563V9.9854C11.8816 9.564 12.1228 9.005 12.1228 8.39167C12.1228 7.07958 11.0194 6.01602 9.65843 6.01602C8.29755 6.01602 7.19423 7.07958 7.19423 8.39167C7.19423 9.00488 7.43521 9.564 7.83104 9.9854ZM9.15645 9.37743C8.77916 9.19848 8.51964 8.82438 8.51964 8.39167C8.51964 7.78525 9.02953 7.29379 9.65843 7.29379C10.2875 7.29379 10.7974 7.78525 10.7974 8.39167C10.7974 8.82438 10.5378 9.19848 10.1605 9.37743V11.327H10.4806C11.8949 11.327 12.604 11.3031 13.1618 11.5259C13.8258 11.791 14.3534 12.2996 14.6284 12.9397C14.7145 13.1401 14.765 13.3606 14.7946 13.6292C15.4914 13.8448 15.9916 14.4338 15.9916 15.1269C15.9916 15.8069 15.5099 16.387 14.8335 16.6121C14.8255 17.2977 14.7879 17.7383 14.6284 18.1095C14.3534 18.7497 13.8258 19.2582 13.1618 19.5234C12.604 19.7461 11.8949 19.7222 10.4805 19.7222H8.83637C7.42212 19.7222 6.71301 19.7461 6.15517 19.5234C5.49117 19.2582 4.9636 18.7497 4.68863 18.1095C4.52909 17.7384 4.49152 17.2977 4.48349 16.6121C3.80701 16.387 3.32541 15.8069 3.32541 15.1269C3.32541 14.4338 3.82542 13.8448 4.52229 13.6292C4.55195 13.3606 4.6025 13.1401 4.68851 12.9398C4.9636 12.2996 5.49117 11.791 6.15517 11.5259C6.71301 11.3031 7.42212 11.327 8.83637 11.327H9.15645V9.37743Z" fill="#4A4A4A"/>
<path fill-rule="evenodd" clip-rule="evenodd" d="M13.7409 14.0952C13.7409 13.1757 12.9664 12.429 12.012 12.429H7.30492C6.35051 12.429 5.57603 13.1757 5.57603 14.0952V16.9536C5.57603 17.8742 6.35051 18.6208 7.30492 18.6208H12.012C12.9664 18.6208 13.7409 17.8742 13.7409 16.9536V14.0952Z" fill="#4A4A4A"/>
<path fill-rule="evenodd" clip-rule="evenodd" d="M11.6106 16.5858C11.0034 16.5858 10.5106 16.1107 10.5098 15.5246C10.5106 14.9384 11.0034 14.4633 11.6106 14.4633C12.2194 14.4633 12.7121 14.9384 12.7114 15.5246C12.7121 16.1107 12.2194 16.5858 11.6106 16.5858Z" fill="#4EF4C1"/>
<path fill-rule="evenodd" clip-rule="evenodd" d="M7.70629 16.5858C7.09752 16.5858 6.60475 16.1107 6.60552 15.5246C6.60475 14.9384 7.09752 14.4633 7.70629 14.4633C8.3135 14.4633 8.80628 14.9384 8.80706 15.5246C8.80628 16.1107 8.3135 16.5858 7.70629 16.5858Z" fill="#4EF4C1"/>
</svg>
