<svg width="24" height="24" viewBox="0 0 24 24" fill="none" xmlns="http://www.w3.org/2000/svg">
<path fill-rule="evenodd" clip-rule="evenodd" d="M16.3585 14.7769L16.2886 14.2854C16.7927 14.1536 17.2668 13.9476 17.6986 13.6797C17.9737 13.1773 18.2352 12.6042 18.4832 11.981L17.3364 10.6687C16.7592 10.8155 16.1738 10.9506 15.5932 11.0789L15.503 11.5233C15.1415 11.0186 14.6485 10.6182 14.0776 10.368C13.7342 10.0237 13.3922 9.67958 13.0569 9.33967L11.7845 9.3938C11.738 9.6272 11.6942 9.85553 11.6536 10.078H9.86885H9.37021C9.75624 12.8293 12.1197 14.9465 14.9774 14.9465C15.4538 14.9465 15.9164 14.8877 16.3585 14.7769ZM16.139 4.24615C15.7656 4.16039 15.3768 4.11508 14.9774 4.11508C14.3898 4.11508 13.8252 4.21313 13.2988 4.39377C13.2718 4.45871 13.2448 4.52424 13.2179 4.5903L14.1977 5.50658C14.7942 5.32591 15.3949 5.14751 15.9857 4.97724L16.139 4.24615ZM10.8723 6.14257C10.6636 6.41482 10.4814 6.70844 10.3295 7.01956C10.6469 7.42644 11.0212 7.87543 11.4381 8.35686L12.7293 8.30206C12.919 7.58539 13.1215 6.85232 13.3262 6.13005L12.5519 5.40591C11.95 5.64945 11.3807 5.89761 10.8723 6.14257ZM17.028 5.12617L17.1407 4.58829C18.0776 5.02069 18.8632 5.72523 19.396 6.60051L18.7002 6.79045C18.1582 6.21525 17.595 5.65271 17.028 5.12617ZM19.8533 7.56424L18.8509 7.83859C18.6618 8.60633 18.4589 9.3738 18.2474 10.1146L19.0657 11.0509C19.3682 10.9499 19.6601 10.8456 19.9392 10.7379C20.0741 10.2768 20.1464 9.78891 20.1464 9.28417C20.1464 8.68119 20.0432 8.1023 19.8533 7.56424Z" fill="white"/>
<path fill-rule="evenodd" clip-rule="evenodd" d="M16.4283 15.2678L16.3585 14.7769L16.2886 14.2854C15.8699 14.395 15.4304 14.4533 14.9774 14.4533C12.3927 14.4533 10.2508 12.5557 9.86885 10.078H9.37021H8.87246C9.2619 13.1026 11.8468 15.4398 14.9774 15.4398C15.4771 15.4398 15.963 15.3802 16.4283 15.2678Z" fill="#4A4A4A"/>
<path fill-rule="evenodd" clip-rule="evenodd" d="M15.9486 18.1104L15.2457 13.1672C15.0646 11.8958 13.9743 10.9535 12.6898 10.9535H6.84271C5.5582 10.9535 4.46783 11.8958 4.28674 13.1672L3.58386 18.1104C3.44191 19.1041 4.21001 19.9888 5.20984 19.9888C5.64875 19.9888 6.06157 19.8146 6.37157 19.5046L7.83027 18.0521H11.7022L13.1548 19.5046C13.464 19.8146 13.8837 19.9888 14.3165 19.9888C15.3232 19.9888 16.0906 19.1041 15.9486 18.1104Z" fill="white"/>
<path d="M8.15254 12.5672H6.86189V13.8578H5.57124V15.1485H6.86189V16.4391H8.15254V15.1485H9.44318V13.8578H8.15254V12.5672Z" fill="#4A4A4A"/>
<path fill-rule="evenodd" clip-rule="evenodd" d="M6.84272 10.078C5.1239 10.078 3.66291 11.3402 3.42043 13.0437L2.71756 17.9868C2.5004 19.5084 3.67672 20.8635 5.20984 20.8635C5.88356 20.8635 6.51737 20.5958 6.99005 20.1231L8.19169 18.9276H11.34L12.5355 20.1231C13.009 20.5965 13.6512 20.8635 14.3165 20.8635C15.8558 20.8635 17.0321 19.5092 16.8149 17.9868L16.4283 15.2678L16.3585 14.7769L16.2886 14.2854L16.1121 13.0437C16.0316 12.4783 15.8168 11.9615 15.503 11.5233C15.1415 11.0186 14.6485 10.6182 14.0776 10.368C13.651 10.181 13.1809 10.078 12.6898 10.078H11.6536H9.86885H9.37021H8.87246H6.84272ZM6.84272 11.1829H12.6898C13.8592 11.1829 14.8536 12.0408 15.0178 13.1995L15.7215 18.1426C15.8435 18.9982 15.1813 19.7586 14.3165 19.7586C13.9428 19.7586 13.5829 19.6082 13.3167 19.3419L11.9593 17.9845C11.8557 17.8809 11.7153 17.8226 11.5687 17.8226H7.96302C7.81723 17.8226 7.67758 17.8809 7.57399 17.9838L6.20967 19.3419C5.94341 19.6074 5.58814 19.7586 5.20984 19.7586C4.3489 19.7586 3.689 18.9974 3.811 18.1426L4.51464 13.1995C4.67885 12.0408 5.67331 11.1829 6.84272 11.1829Z" fill="#4A4A4A"/>
<path fill-rule="evenodd" clip-rule="evenodd" d="M10.8271 13.1213C10.7677 13.2469 10.7342 13.387 10.7342 13.5347C10.7342 14.0684 11.1689 14.5031 11.7026 14.5031C12.2356 14.5031 12.6703 14.0684 12.6703 13.5347C12.6703 13.387 12.6368 13.2469 12.5774 13.1213C12.4221 12.7939 12.0879 12.567 11.7026 12.567C11.3166 12.567 10.9832 12.7939 10.8271 13.1213Z" fill="#C61414"/>
<path fill-rule="evenodd" clip-rule="evenodd" d="M12.9931 14.5031C12.4602 14.5031 12.0247 14.9378 12.0247 15.4707C12.0247 16.0044 12.4602 16.4391 12.9931 16.4391C13.526 16.4391 13.9615 16.0044 13.9615 15.4707C13.9615 14.9378 13.526 14.5031 12.9931 14.5031Z" fill="#C61414"/>
<path fill-rule="evenodd" clip-rule="evenodd" d="M20.3439 7.47325C20.3446 7.47533 20.3453 7.47741 20.346 7.47949L20.3439 7.47325Z" fill="#4A4A4A"/>
<path fill-rule="evenodd" clip-rule="evenodd" d="M16.4283 15.2678L16.3585 14.7769L16.2886 14.2854C16.7927 14.1536 17.2668 13.9476 17.6986 13.6797C17.9737 13.1773 18.2352 12.6042 18.4832 11.981L17.3364 10.6687C16.7592 10.8155 16.1738 10.9506 15.5932 11.0789L15.503 11.5233C15.1415 11.0186 14.6485 10.6182 14.0776 10.368C13.7342 10.0237 13.3922 9.67958 13.0569 9.33967L11.7845 9.3938C11.738 9.6272 11.6942 9.85553 11.6536 10.078H9.86885H9.37021H8.87246C8.839 9.8181 8.82175 9.55315 8.82175 9.28417C8.82175 5.88461 11.5778 3.12857 14.9774 3.12857C18.3769 3.12857 21.133 5.88461 21.133 9.28417C21.133 12.1839 19.1277 14.6155 16.4283 15.2678ZM14.9774 4.11508C15.3768 4.11508 15.7656 4.16039 16.139 4.24615L15.9857 4.97724C15.3949 5.14751 14.7942 5.32591 14.1977 5.50658L13.2179 4.5903C13.2448 4.52424 13.2718 4.45871 13.2988 4.39377C13.8252 4.21313 14.3898 4.11508 14.9774 4.11508ZM10.3295 7.01956C10.4814 6.70844 10.6636 6.41482 10.8723 6.14257C11.3807 5.89761 11.95 5.64945 12.5519 5.40591L13.3262 6.13005C13.1215 6.85232 12.919 7.58539 12.7293 8.30206L11.4381 8.35686C11.0212 7.87543 10.6469 7.42644 10.3295 7.01956ZM17.1407 4.58829L17.028 5.12617C17.595 5.65271 18.1582 6.21525 18.7002 6.79045L19.396 6.60051C18.8632 5.72523 18.0776 5.02069 17.1407 4.58829ZM18.8509 7.83859L19.8533 7.56424C20.0432 8.1023 20.1464 8.68119 20.1464 9.28417C20.1464 9.78891 20.0741 10.2768 19.9392 10.7379C19.6601 10.8456 19.3682 10.9499 19.0657 11.0509L18.2474 10.1146C18.4589 9.3738 18.6618 8.60633 18.8509 7.83859Z" fill="#4A4A4A"/>
</svg>
