<svg width="24" height="24" viewBox="0 0 24 24" fill="none" xmlns="http://www.w3.org/2000/svg">
<path fill-rule="evenodd" clip-rule="evenodd" d="M15.5007 14.96C18.8024 14.96 21.4792 12.3942 21.4792 9.22957C21.4792 6.06494 18.8024 3.49918 15.5007 3.49918C12.1991 3.49918 9.5222 6.06494 9.5222 9.22957C9.5222 12.3942 12.1991 14.96 15.5007 14.96Z" fill="white"/>
<path fill-rule="evenodd" clip-rule="evenodd" d="M15.5007 15.4591C19.0901 15.4591 22 12.67 22 9.22957C22 5.78915 19.0901 3 15.5007 3C11.9113 3 9.0014 5.78915 9.0014 9.22957C9.0014 12.67 11.9113 15.4591 15.5007 15.4591ZM18.3737 13.678C18.16 13.8051 17.9365 13.9184 17.7045 14.0167C17.1363 13.6026 16.4999 13.1111 15.8304 12.5596L16.1509 11.0459C16.7639 10.916 17.382 10.7794 17.9914 10.6308L19.2022 11.9588C18.9404 12.5896 18.6643 13.1695 18.3737 13.678ZM11.9311 12.1853C11.8899 12.4146 11.8384 12.7321 11.7894 13.065C11.2589 12.5931 10.8264 12.0214 10.5246 11.381C10.979 11.4312 11.4299 11.4673 11.7597 11.4673C11.8384 10.8329 11.9687 10.1142 12.1295 9.34052L13.4728 9.28574C13.9947 9.7927 14.5319 10.3088 15.0664 10.8215L14.7905 12.1248C13.7672 12.1942 12.7967 12.2184 11.9311 12.1853ZM11.7637 8.29112C11.3237 7.80391 10.9284 7.34956 10.5933 6.93779C10.7538 6.6229 10.9461 6.32574 11.1665 6.05019C11.7033 5.80229 12.3043 5.55117 12.9398 5.30471L13.7573 6.03755C13.5412 6.7685 13.3274 7.51038 13.1271 8.23566L11.7637 8.29112ZM13.643 4.4793C13.6714 4.41245 13.6999 4.34613 13.7284 4.28041C14.2841 4.0976 14.8803 3.99836 15.5007 3.99836C15.9224 3.99836 16.3329 4.04422 16.7272 4.13101L16.5653 4.87089C15.9415 5.0432 15.3073 5.22374 14.6775 5.40658L13.643 4.4793ZM20.1658 6.51326C19.6032 5.62764 18.7739 4.91477 17.7848 4.47725L17.6658 5.02161C18.2645 5.55447 18.8591 6.12377 19.4314 6.70589L20.1658 6.51326ZM19.5905 7.76662L20.6489 7.48896C20.8494 8.03349 20.9584 8.61934 20.9584 9.22957C20.9584 9.74038 20.882 10.2341 20.7395 10.7008C20.4449 10.8097 20.1367 10.9153 19.8173 11.0175L18.9533 10.07C19.1766 9.32028 19.3909 8.54359 19.5905 7.76662Z" fill="#4A4A4A"/>
<path fill-rule="evenodd" clip-rule="evenodd" d="M9.02914 9.65008C8.65856 9.47533 8.40366 9.11001 8.40366 8.68745C8.40366 8.09525 8.90448 7.61533 9.5222 7.61533C10.14 7.61533 10.6409 8.09525 10.6409 8.68745C10.6409 9.11001 10.386 9.47533 10.0154 9.65008V11.554H10.3298C11.7189 11.554 12.4153 11.5306 12.9633 11.7481C13.6155 12.007 14.1336 12.5037 14.4037 13.1288C14.4883 13.3245 14.538 13.5398 14.567 13.8021C15.2514 14.0127 15.7427 14.5879 15.7427 15.2647C15.7427 15.9288 15.2695 16.4952 14.6052 16.715C14.5973 17.3846 14.5604 17.8148 14.4037 18.1774C14.1336 18.8025 13.6155 19.299 12.9633 19.558C12.4153 19.7755 11.7189 19.7522 10.3296 19.7522H8.71476C7.32566 19.7522 6.62917 19.7755 6.08125 19.558C5.42906 19.299 4.91088 18.8025 4.6408 18.1774C4.4841 17.8149 4.4472 17.3846 4.43931 16.715C3.77486 16.4952 3.30184 15.9288 3.30184 15.2647C3.30184 14.5879 3.79295 14.0127 4.47742 13.8021C4.50656 13.5398 4.5562 13.3245 4.64068 13.1289C4.91088 12.5037 5.42906 12.007 6.08125 11.7481C6.62917 11.5306 7.32566 11.554 8.71476 11.554H9.02914V9.65008Z" fill="white"/>
<path fill-rule="evenodd" clip-rule="evenodd" d="M7.72731 10.2438V10.313C6.70211 10.3308 6.09071 10.3938 5.58309 10.5953C4.61203 10.9808 3.84028 11.7204 3.43802 12.6513C3.39529 12.7501 3.35754 12.8522 3.32477 12.9589C2.51575 13.4674 2 14.3178 2 15.2647C2 16.1497 2.45033 16.9503 3.16988 17.4664C3.21152 17.9544 3.29539 18.3248 3.43802 18.6548C3.84028 19.5857 4.61191 20.3252 5.58309 20.7108C6.23576 20.9697 7.06019 21 8.71475 21H10.3296C11.9843 21 12.8087 20.9699 13.4613 20.7109C14.4326 20.3253 15.2042 19.5856 15.6065 18.6548C15.749 18.3248 15.8329 17.9543 15.8746 17.4663C16.5941 16.9503 17.0445 16.1497 17.0445 15.2647C17.0445 14.3178 16.5286 13.4672 15.7195 12.9587C15.6868 12.8521 15.6491 12.7502 15.6065 12.6513C15.2042 11.7204 14.4326 10.9808 13.4614 10.5953C12.9538 10.3939 12.3424 10.3308 11.3171 10.313V10.2438C11.7059 9.83228 11.9427 9.28639 11.9427 8.68745C11.9427 7.40614 10.859 6.36753 9.52219 6.36753C8.18553 6.36753 7.10182 7.40614 7.10182 8.68745C7.10182 9.28627 7.33852 9.83228 7.72731 10.2438ZM9.02914 9.65008C8.65856 9.47533 8.40366 9.11001 8.40366 8.68745C8.40366 8.09525 8.90448 7.61533 9.5222 7.61533C10.14 7.61533 10.6409 8.09525 10.6409 8.68745C10.6409 9.11001 10.386 9.47533 10.0154 9.65008V11.554H10.3298C11.7189 11.554 12.4153 11.5306 12.9633 11.7481C13.6155 12.007 14.1336 12.5037 14.4037 13.1288C14.4883 13.3245 14.538 13.5398 14.567 13.8021C15.2514 14.0127 15.7427 14.5879 15.7427 15.2647C15.7427 15.9288 15.2695 16.4952 14.6052 16.715C14.5973 17.3846 14.5604 17.8148 14.4037 18.1774C14.1336 18.8025 13.6155 19.299 12.9633 19.558C12.4153 19.7755 11.7189 19.7522 10.3296 19.7522H8.71476C7.32566 19.7522 6.62917 19.7755 6.08125 19.558C5.42906 19.299 4.91088 18.8025 4.6408 18.1774C4.4841 17.8149 4.4472 17.3846 4.43931 16.715C3.77486 16.4952 3.30184 15.9288 3.30184 15.2647C3.30184 14.5879 3.79295 14.0127 4.47742 13.8021C4.50656 13.5398 4.5562 13.3245 4.64068 13.1289C4.91088 12.5037 5.42906 12.007 6.08125 11.7481C6.62917 11.5306 7.32566 11.554 8.71476 11.554H9.02914V9.65008Z" fill="#4A4A4A"/>
<path fill-rule="evenodd" clip-rule="evenodd" d="M13.532 14.2572C13.532 13.3592 12.7713 12.6301 11.8339 12.6301H7.21055C6.27312 12.6301 5.51241 13.3592 5.51241 14.2572V17.0485C5.51241 17.9475 6.27312 18.6766 7.21055 18.6766H11.8339C12.7713 18.6766 13.532 17.9475 13.532 17.0485V14.2572Z" fill="#4A4A4A"/>
<path fill-rule="evenodd" clip-rule="evenodd" d="M11.4396 16.6893C10.8432 16.6893 10.3592 16.2254 10.3584 15.653C10.3592 15.0806 10.8432 14.6167 11.4396 14.6167C12.0376 14.6167 12.5216 15.0806 12.5208 15.653C12.5216 16.2254 12.0376 16.6893 11.4396 16.6893Z" fill="#4EF4C1"/>
<path fill-rule="evenodd" clip-rule="evenodd" d="M7.60478 16.6893C7.00684 16.6893 6.52283 16.2254 6.5236 15.653C6.52283 15.0806 7.00684 14.6167 7.60478 14.6167C8.20119 14.6167 8.6852 15.0806 8.68597 15.653C8.6852 16.2254 8.20119 16.6893 7.60478 16.6893Z" fill="#4EF4C1"/>
</svg>
