<svg width="24" height="24" viewBox="0 0 24 24" fill="none" xmlns="http://www.w3.org/2000/svg">
<g clip-path="url(#clip0_893_6)">
<path d="M0 12V24H12H24V12V0H12H0V12ZM9.4125 4.12969C9.4125 4.26094 9.42656 4.37812 9.44063 4.39219C9.45469 4.41094 9.44531 4.44844 9.4125 4.48594C9.375 4.5375 9.37969 4.54219 9.44063 4.51875C9.48281 4.50469 9.51562 4.51406 9.51562 4.54219C9.51562 4.57031 9.49688 4.59375 9.46875 4.59375C9.44531 4.59375 9.42188 4.63594 9.42188 4.6875C9.42188 4.73906 9.45 4.78125 9.4875 4.78125C9.53438 4.78125 9.54844 4.72969 9.54375 4.59375C9.53906 4.49062 9.54844 4.40625 9.5625 4.40625C9.57656 4.40625 9.58125 4.27969 9.57188 4.125C9.55313 3.8625 9.55781 3.84375 9.65156 3.84375C9.73594 3.84375 9.75 3.86719 9.72656 3.97031L9.70312 4.10156L9.75938 3.975C9.80625 3.8625 9.83906 3.84844 10.0266 3.85312C10.1438 3.85312 10.2563 3.88125 10.275 3.90937C10.3031 3.94687 10.3125 3.94219 10.3125 3.9C10.3125 3.87187 10.3547 3.84375 10.4062 3.84375C10.4906 3.84375 10.5 3.87656 10.5 4.21875C10.5 4.48594 10.5188 4.59375 10.5609 4.59375C10.5984 4.59375 10.5938 4.6125 10.5469 4.64062C10.4859 4.67812 10.4906 4.6875 10.5656 4.6875C10.6453 4.6875 10.65 4.65937 10.6219 4.27031L10.5891 3.85312H10.7063C10.8469 3.85312 10.9078 3.99375 10.8563 4.19531C10.8375 4.26094 10.8469 4.3125 10.8656 4.3125C10.8891 4.3125 10.8984 4.36875 10.8844 4.43906C10.8609 4.56562 10.8609 4.56562 10.9688 4.49531C11.0578 4.43437 11.0766 4.38281 11.0813 4.14375C11.0859 3.86719 11.0859 3.86719 11.2359 3.85312C11.3719 3.83906 11.3859 3.84844 11.3813 3.97969C11.3766 4.06875 11.3578 4.11094 11.325 4.09219C11.2969 4.07344 11.3016 4.09687 11.3391 4.13906C11.3719 4.18125 11.3859 4.25156 11.3719 4.29375C11.3531 4.34062 11.3672 4.35938 11.4 4.35C11.4375 4.33594 11.4656 4.22812 11.475 4.0875L11.4891 3.84375H11.7188H11.9484L11.9297 4.02656C11.9156 4.1625 11.9344 4.23281 12 4.28906C12.0609 4.34531 12.0844 4.35 12.0797 4.30312C12.0797 4.27031 12.0844 4.15312 12.0844 4.04062C12.0938 3.84844 12.0984 3.84375 12.2484 3.84375C12.4078 3.84375 12.4078 3.84375 12.4078 4.07344C12.4125 4.2 12.4266 4.32656 12.4453 4.35469C12.5016 4.44844 12.5672 4.35469 12.5625 4.2C12.5438 3.85312 12.5484 3.84375 12.7453 3.84375C12.8484 3.84375 12.9469 3.8625 12.9609 3.89062C12.975 3.91406 12.9656 3.9375 12.9328 3.9375C12.8906 3.9375 12.8906 3.95156 12.9328 4.00312C12.9656 4.04062 12.9797 4.15781 12.9656 4.28437C12.9516 4.44375 12.9609 4.5 12.9984 4.48594C13.0313 4.47656 13.0547 4.41094 13.05 4.34531C13.05 4.275 13.0688 4.21875 13.0922 4.21875C13.1156 4.21875 13.1203 4.18125 13.1016 4.13437C13.0828 4.09219 13.0594 4.00781 13.0547 3.95625C13.0406 3.84844 13.1203 3.82969 13.4438 3.87656L13.5984 3.89531L13.575 4.32656C13.5609 4.56562 13.5656 4.70625 13.5797 4.64062C13.5891 4.575 13.6313 4.50469 13.6688 4.48594C13.7109 4.4625 13.725 4.40625 13.7063 4.34062C13.6922 4.27969 13.7063 4.14375 13.7344 4.03594C13.7859 3.83906 13.7859 3.83906 13.9922 3.85312C14.1188 3.8625 14.1797 3.88594 14.1563 3.90937C14.1281 3.9375 14.1328 3.97969 14.1656 4.01719C14.1938 4.05 14.2219 4.2 14.2313 4.34531C14.2547 4.6875 14.3531 4.80937 14.3391 4.47656C14.3297 4.34531 14.3297 4.17656 14.3344 4.09687L14.3438 3.94687L14.6719 3.95625C14.9016 3.96094 15 3.94687 15 3.90937C15 3.87187 15.0797 3.85312 15.2109 3.85312H15.4219L15.4266 4.13906C15.4313 4.29844 15.4359 4.47656 15.4359 4.5375C15.4406 4.71562 15.5344 4.56562 15.5438 4.36406C15.5438 4.26562 15.5625 4.1625 15.5813 4.12969C15.6 4.10156 15.5906 4.07812 15.5672 4.07812C15.5391 4.07812 15.5156 4.02656 15.5156 3.96094C15.5156 3.82969 15.5859 3.81562 15.7734 3.9C15.8906 3.95156 15.8953 3.97031 15.8813 4.25156C15.8719 4.41562 15.8813 4.54688 15.9047 4.54688C15.9234 4.54688 15.9375 4.50937 15.9375 4.4625C15.9375 4.39219 15.9469 4.39219 15.9891 4.45312C16.0266 4.50469 16.0312 4.4625 16.0078 4.30312C15.975 4.05937 16.0219 3.90469 16.0828 4.05937C16.1109 4.13437 16.1203 4.13437 16.1203 4.06875C16.125 4.02656 16.1063 3.975 16.0781 3.96094C16.0078 3.91875 16.0219 3.85781 16.1016 3.85781C16.1391 3.85781 16.1719 3.88594 16.1719 3.91875C16.1719 3.95156 16.2094 4.00312 16.2563 4.02656C16.3172 4.06406 16.3219 4.07344 16.2656 4.07812C16.2047 4.07812 16.2047 4.08281 16.2656 4.125C16.3219 4.1625 16.3219 4.17188 16.2703 4.17188C16.2188 4.17188 16.2188 4.18594 16.2656 4.24219C16.2984 4.27969 16.3125 4.36406 16.3031 4.42969C16.2797 4.54219 16.3266 4.58906 16.3781 4.50937C16.3922 4.48594 16.4062 4.32656 16.4109 4.15781C16.4203 3.84375 16.4203 3.84375 16.5516 3.84375C16.6266 3.84375 16.6875 3.8625 16.6875 3.89062C16.6875 3.91406 16.6688 3.9375 16.6453 3.9375C16.6219 3.9375 16.6313 4.01719 16.6641 4.11094C16.6969 4.20937 16.7156 4.35469 16.7016 4.43437C16.6734 4.60781 16.7578 4.69219 16.8094 4.5375C16.8281 4.47656 16.8375 4.425 16.8375 4.42031C16.8328 4.41094 16.8609 4.32187 16.8984 4.21875C16.9359 4.11562 16.95 4.03125 16.9313 4.03125C16.9125 4.03125 16.9313 4.00781 16.9688 3.98438C17.0156 3.95625 17.0203 3.9375 16.9828 3.9375C16.95 3.9375 16.9219 3.91406 16.9219 3.89062C16.9219 3.8625 16.9641 3.84375 17.0156 3.84375C17.0859 3.84375 17.1094 3.87656 17.1094 3.97031C17.1094 4.24687 17.2641 4.26562 17.3438 4.00312C17.3672 3.92344 17.3859 4.9125 17.3859 6.47344L17.3906 9.07969L17.0438 9.14062C16.6594 9.20625 16.5234 9.19687 15.6797 9.04687C15.3703 8.99531 14.7844 8.92969 14.3719 8.90625C13.9641 8.88281 13.6219 8.85469 13.6078 8.84062C13.5938 8.83125 13.6125 8.775 13.6406 8.71875C13.6781 8.64844 13.7203 8.62969 13.7719 8.65312C13.9031 8.70937 14.0297 8.7 14.0531 8.62969C14.0672 8.58281 14.0391 8.57344 13.9313 8.60156C13.7484 8.63906 13.6969 8.55937 13.8469 8.46094C13.9969 8.3625 14.025 8.22656 13.9359 8.03906C13.8375 7.82812 13.9219 7.59375 14.0953 7.59375C14.1609 7.59375 14.2547 7.54688 14.3063 7.48594C14.3672 7.41562 14.4047 7.40156 14.4188 7.43906C14.4422 7.49531 14.5781 7.52812 14.5781 7.48125C14.5781 7.47187 14.5922 7.42969 14.6063 7.3875C14.625 7.33125 14.6063 7.32187 14.5266 7.33594C14.4516 7.35 14.4375 7.34062 14.4703 7.30781C14.5078 7.27031 14.5031 7.23281 14.4469 7.16719C14.3859 7.09687 14.3578 7.09219 14.3016 7.13906C14.2594 7.17188 14.2453 7.17656 14.2641 7.14375C14.2781 7.11562 14.2406 7.04062 14.1797 6.98438C14.1141 6.92344 14.0625 6.89531 14.0625 6.91875C14.0625 6.94219 14.0438 6.9375 14.025 6.91406C14.0063 6.88594 13.95 6.84375 13.8984 6.81562C13.8422 6.78281 13.8094 6.71719 13.8141 6.66094C13.8234 6.59531 13.8047 6.57187 13.7531 6.59531C13.7156 6.60938 13.6875 6.60469 13.6922 6.58125C13.7109 6.47812 13.6828 6.42188 13.6172 6.42188C13.5797 6.42188 13.5047 6.37969 13.4531 6.32812C13.3969 6.27187 13.3359 6.24375 13.3125 6.25781C13.2938 6.27187 13.2656 6.2625 13.2563 6.23438C13.2469 6.20625 13.1766 6.18281 13.0922 6.17344C13.0125 6.16875 12.9563 6.15 12.9656 6.13125C12.9891 6.09375 12.8625 6.05156 12.6375 6.02344C12.4969 6.00469 12.4688 6.01406 12.4688 6.08906C12.4688 6.15 12.3984 6.21094 12.2578 6.28125C12.1406 6.3375 11.9906 6.46406 11.9203 6.56719C11.7703 6.77812 11.7422 6.7875 11.6672 6.65156C11.625 6.57187 11.5875 6.55781 11.475 6.58125C11.3625 6.60469 11.3438 6.59531 11.3813 6.54844C11.4375 6.4875 11.3859 6.39844 11.2266 6.28125C11.1469 6.225 11.1516 6.23438 11.2406 6.33281C11.3625 6.47344 11.3766 6.57656 11.2641 6.55312C11.2172 6.54375 11.1797 6.49687 11.1797 6.44531C11.1797 6.375 11.1516 6.35156 11.0625 6.35625C10.8656 6.37031 10.8469 6.375 10.9219 6.42188C10.9641 6.44531 11.0109 6.44531 11.0484 6.4125C11.1328 6.34219 11.1844 6.40312 11.1141 6.4875C11.0672 6.54375 11.0813 6.55781 11.2031 6.58594C11.3203 6.60938 11.3438 6.64219 11.3438 6.75C11.3438 6.83906 11.3156 6.88594 11.25 6.90469C11.175 6.92344 11.1562 6.90469 11.1609 6.82969C11.1609 6.77344 11.175 6.75469 11.1891 6.78281C11.2172 6.8625 11.2969 6.85781 11.2969 6.77812C11.2969 6.74062 11.2641 6.70312 11.2266 6.68437C11.1891 6.67031 11.1562 6.675 11.1562 6.69375C11.1562 6.7125 11.1094 6.7875 11.0578 6.85312C10.9641 6.97031 10.95 6.975 10.8469 6.90469C10.7766 6.8625 10.7344 6.85312 10.7344 6.88594C10.7344 6.91406 10.6828 6.9375 10.6219 6.9375C10.5563 6.9375 10.4906 6.96094 10.4766 6.98438C10.4578 7.0125 10.425 7.02187 10.4016 7.00781C10.3781 6.98906 10.3594 6.99844 10.3594 7.02187C10.3594 7.04531 10.4016 7.07812 10.4531 7.09219C10.5047 7.10625 10.5469 7.14375 10.5422 7.18125C10.5422 7.22344 10.5328 7.22344 10.5188 7.18594C10.4906 7.125 10.3594 7.15781 10.3594 7.22812C10.3594 7.25156 10.3781 7.25625 10.4062 7.24219C10.4344 7.22812 10.4391 7.24687 10.425 7.28437C10.3781 7.40156 10.3313 7.37344 10.3266 7.22812C10.3266 7.15781 10.3219 7.07812 10.3125 7.05469C10.2938 6.96562 10.3688 6.80156 10.4438 6.77344C10.5094 6.75 10.5141 6.75469 10.4672 6.80156C10.3969 6.87187 10.3875 6.9375 10.4484 6.9375C10.5047 6.9375 10.5516 6.79688 10.5141 6.73594C10.4531 6.6375 10.4672 6.41719 10.5328 6.34687C10.6031 6.28125 10.5984 6.16875 10.5188 5.97656C10.4859 5.89219 10.4906 5.8875 10.575 5.95312C10.6594 6.01875 10.6594 6.01875 10.5891 5.92969C10.5469 5.87812 10.5 5.80312 10.4859 5.76562C10.4672 5.72812 10.4625 5.78906 10.4672 5.90625C10.4766 6.02344 10.5 6.15 10.5234 6.18281C10.5469 6.22969 10.5422 6.25781 10.5094 6.27187C10.4766 6.28125 10.4531 6.31875 10.4531 6.35625C10.4531 6.39375 10.4297 6.42188 10.3969 6.42188C10.3547 6.42188 10.3547 6.43594 10.3969 6.47812C10.4953 6.57656 10.4625 6.64219 10.3266 6.62812C10.2516 6.62344 10.1672 6.57187 10.1297 6.52031C10.0969 6.46406 10.0453 6.42188 10.0219 6.42188C9.99844 6.42188 10.0312 6.47812 10.0969 6.54844C10.2 6.66094 10.2047 6.67969 10.1438 6.77344C10.0828 6.86719 10.0969 6.9375 10.1766 6.9375C10.2 6.9375 10.2047 6.90937 10.1906 6.87187C10.1672 6.80625 10.2844 6.65625 10.3641 6.65625C10.4344 6.65625 10.4109 6.75 10.3359 6.77812C10.2984 6.79688 10.2797 6.825 10.2938 6.84844C10.3078 6.87187 10.275 6.95156 10.2234 7.02656C10.1156 7.17656 10.1016 7.21875 10.1672 7.21875C10.1906 7.21875 10.2234 7.18125 10.2328 7.13437C10.2516 7.06875 10.2563 7.07344 10.2609 7.15312C10.2609 7.20469 10.2422 7.27031 10.2094 7.30312C10.1672 7.34531 10.1391 7.33125 10.0969 7.22812C10.0688 7.15781 10.0594 7.07812 10.0828 7.05469C10.1016 7.02656 10.0875 6.96562 10.05 6.91875C10.0125 6.86719 9.98438 6.85312 9.98438 6.88594C9.98438 6.91875 9.96563 6.92812 9.9375 6.91406C9.91406 6.9 9.89062 6.84375 9.89062 6.79219C9.89062 6.70312 9.88594 6.70312 9.81563 6.76875C9.73594 6.84844 9.63281 6.825 9.68438 6.74062C9.70312 6.7125 9.69375 6.70312 9.67031 6.71719C9.64219 6.73594 9.58594 6.70781 9.53906 6.65625C9.49219 6.60469 9.43125 6.5625 9.40313 6.5625C9.375 6.5625 9.38438 6.58594 9.42188 6.60938C9.50625 6.66562 9.50156 6.66562 9.22969 6.675C9.04219 6.67969 9.01875 6.67031 9.0375 6.59062C9.06094 6.50625 9.06563 6.50625 9.12188 6.58125C9.15 6.62812 9.1875 6.64687 9.20156 6.62344C9.22969 6.58125 9.15938 6.47812 9.0375 6.38437C8.98125 6.3375 8.95312 6.3375 8.925 6.37969C8.90625 6.41719 8.91094 6.42188 8.94375 6.40312C8.98125 6.38437 8.99063 6.39375 8.97188 6.44062C8.94375 6.51094 8.8125 6.49219 8.8125 6.4125C8.8125 6.38906 8.84531 6.3375 8.8875 6.29531C8.93906 6.23906 8.97188 6.23438 9.01406 6.27656C9.09375 6.35625 9.1875 6.3375 9.1875 6.24375C9.1875 6.18281 9.19688 6.17812 9.22969 6.22969C9.2625 6.28125 9.27656 6.27187 9.3 6.19687C9.31875 6.14531 9.37031 6.09375 9.4125 6.08437C9.47344 6.07031 9.46875 6.06094 9.38906 6.0375C9.31406 6.01875 9.28125 6.02812 9.28125 6.075C9.28125 6.12187 9.23906 6.13125 9.13125 6.1125C8.98594 6.08906 8.98125 6.08906 9.06563 6.15937C9.13125 6.21562 9.14062 6.23438 9.08906 6.23438C8.99531 6.23438 8.92969 6.18281 8.86406 6.05625C8.8125 5.9625 8.81719 5.92969 8.8875 5.85469C8.92969 5.80781 8.94375 5.76562 8.91563 5.76562C8.8875 5.76562 8.82188 5.72344 8.775 5.67188C8.68594 5.57812 8.68125 5.57812 8.5125 5.65312C8.41875 5.7 8.34375 5.75625 8.34375 5.775C8.34375 5.79844 8.325 5.80312 8.29688 5.78906C8.27344 5.775 8.25 5.78437 8.25 5.80781C8.25 5.84062 8.21719 5.84062 8.15625 5.80312C8.05781 5.7375 8.02969 5.625 8.11406 5.625C8.1375 5.625 8.14688 5.59687 8.12813 5.56406C8.10469 5.52656 8.11875 5.53125 8.175 5.57344C8.23594 5.625 8.24063 5.64844 8.19375 5.67656C8.11406 5.72812 8.17031 5.775 8.26875 5.7375C8.31094 5.72344 8.34375 5.67188 8.34375 5.62969C8.34375 5.5875 8.36719 5.52656 8.4 5.49375C8.44219 5.45156 8.44219 5.4375 8.38594 5.4375C8.32969 5.4375 8.32969 5.43281 8.39062 5.39531C8.42813 5.36719 8.475 5.3625 8.49375 5.37187C8.5125 5.38594 8.53125 5.37187 8.53125 5.33906C8.53125 5.30625 8.49375 5.29688 8.43281 5.31094C8.35313 5.33437 8.34844 5.325 8.39531 5.26875C8.42344 5.23125 8.4375 5.18906 8.42344 5.175C8.37656 5.12812 8.50313 5.025 8.57812 5.05312C8.62031 5.06719 8.61563 5.04844 8.55938 5.00625C8.49844 4.95937 8.48906 4.92656 8.52188 4.90312C8.55469 4.88437 8.57812 4.84687 8.57812 4.81875C8.57812 4.78594 8.55469 4.79062 8.50781 4.82812C8.45156 4.875 8.44219 4.86094 8.45156 4.74375C8.45625 4.63594 8.475 4.6125 8.51719 4.65C8.55 4.67812 8.64844 4.68281 8.73281 4.66875C8.85469 4.64531 8.89219 4.65469 8.89219 4.71094C8.89219 4.74844 8.87813 4.78125 8.85938 4.78125C8.84063 4.78125 8.82656 4.81406 8.82656 4.85156C8.82656 4.88906 8.84531 4.90781 8.86875 4.89375C8.8875 4.87969 8.90625 4.89375 8.90625 4.92188C8.90625 4.95 8.92969 4.95937 8.95312 4.94531C8.98125 4.92656 9.03281 4.94062 9.07031 4.96875C9.10781 5.00156 9.14062 5.01094 9.14062 4.99219C9.14062 4.97344 9.10313 4.93125 9.06094 4.89844C8.99063 4.84687 8.98594 4.82812 9.04688 4.75312C9.10781 4.67812 9.10781 4.67344 9.04219 4.69687C8.97188 4.725 8.97188 4.71094 9.01875 4.57969C9.04688 4.49531 9.08906 4.41562 9.1125 4.40156C9.13125 4.38281 9.12656 4.35469 9.09844 4.34062C9.07031 4.32187 9.04688 4.28437 9.04688 4.26094C9.04688 4.23281 9.06563 4.22344 9.08906 4.24219C9.11719 4.25625 9.15469 4.22812 9.18281 4.18594C9.22969 4.10625 9.22969 4.10625 9.23438 4.18125C9.23438 4.22812 9.25781 4.26562 9.28125 4.26562C9.35156 4.26562 9.3375 4.19062 9.25781 4.10625C9.16875 4.01719 9.16875 3.98438 9.26719 3.90937C9.38906 3.825 9.41719 3.86719 9.4125 4.12969ZM14.8453 3.87187C14.8313 3.88594 14.7891 3.89062 14.7563 3.87656C14.7188 3.8625 14.7328 3.84844 14.7844 3.84844C14.8359 3.84375 14.8641 3.85781 14.8453 3.87187ZM9.09375 3.96094C9.09375 3.99844 9.075 4.03125 9.04688 4.03125C9.02344 4.03125 9 3.99844 9 3.96094C9 3.92344 9.02344 3.89062 9.04688 3.89062C9.075 3.89062 9.09375 3.92344 9.09375 3.96094ZM8.8125 4.07812C8.83594 4.04062 8.87344 4.02656 8.89219 4.05C8.91094 4.07344 8.90625 4.10156 8.87344 4.11094C8.84063 4.125 8.83125 4.19062 8.84531 4.29844C8.86875 4.42031 8.85938 4.45781 8.81719 4.43437C8.78906 4.41562 8.775 4.37812 8.78906 4.35469C8.82656 4.30312 8.775 4.125 8.72344 4.125C8.70469 4.125 8.69063 4.19531 8.69063 4.28437C8.69063 4.40156 8.71875 4.4625 8.78906 4.5C8.87344 4.54219 8.86875 4.54688 8.75156 4.52344C8.6625 4.50469 8.62969 4.51406 8.64844 4.54688C8.6625 4.57031 8.65313 4.59375 8.625 4.59375C8.59219 4.59375 8.57812 4.56094 8.59219 4.52344C8.61094 4.48594 8.60156 4.44375 8.57812 4.42969C8.55 4.41094 8.53125 4.43437 8.53125 4.47656C8.53125 4.51875 8.5125 4.5375 8.48438 4.52344C8.40938 4.47656 8.42813 4.41562 8.52656 4.38281C8.58281 4.36406 8.61094 4.32656 8.59219 4.28437C8.57812 4.24687 8.59688 4.15312 8.62969 4.06875C8.69063 3.92344 8.69063 3.92344 8.72813 4.03594C8.76094 4.125 8.77969 4.13437 8.8125 4.07812ZM8.18906 5.11875C8.175 5.15156 8.16563 5.12812 8.16563 5.0625C8.16563 4.99687 8.175 4.97344 8.18906 5.00156C8.19844 5.03437 8.19844 5.09062 8.18906 5.11875ZM7.95 5.56406C7.90313 5.61094 7.86094 5.54062 7.90313 5.47969C7.93125 5.42812 7.94063 5.42812 7.95938 5.47969C7.96875 5.5125 7.96406 5.55 7.95 5.56406ZM8.75156 5.71875C8.78438 5.76562 8.79375 5.82187 8.77031 5.83594C8.74688 5.85 8.71406 5.83125 8.7 5.80312C8.68594 5.77031 8.68125 5.80312 8.69531 5.87344C8.71875 5.99531 8.71406 6 8.625 5.95312C8.57344 5.925 8.53125 5.87812 8.53125 5.85C8.53125 5.81719 8.50781 5.82187 8.46094 5.85938C8.39062 5.92031 8.41406 6.02344 8.48906 5.97656C8.5125 5.95781 8.56406 5.97656 8.60156 6.01406C8.6625 6.075 8.6625 6.08906 8.60156 6.1125C8.56406 6.12656 8.49844 6.12656 8.46094 6.1125C8.40938 6.08906 8.4 6.10312 8.41875 6.15937C8.4375 6.21094 8.42344 6.23438 8.37188 6.23438C8.25469 6.23438 8.28281 6.37031 8.41406 6.43125C8.53594 6.4875 8.70469 6.70312 8.625 6.70312C8.54531 6.70312 8.57344 6.88125 8.65781 6.93281C8.70469 6.95625 8.72344 6.99375 8.70469 7.0125C8.68594 7.03125 8.64375 7.02187 8.61563 6.99375C8.53594 6.91406 8.46094 6.92344 8.53125 7.00781C8.57812 7.06406 8.57812 7.09219 8.52656 7.15312C8.475 7.21875 8.47969 7.2375 8.55469 7.29375C8.68125 7.3875 8.75625 7.37344 8.78906 7.26094C8.8125 7.19062 8.83594 7.17656 8.87344 7.21406C8.90625 7.24687 8.90156 7.28437 8.85938 7.33594C8.80781 7.39687 8.8125 7.425 8.88281 7.5C8.92969 7.55156 8.95312 7.59375 8.93438 7.59375C8.90156 7.59375 8.70938 7.49062 8.67188 7.45312C8.65781 7.43906 8.59688 7.40156 8.53594 7.36875C8.4375 7.30781 8.42813 7.3125 8.45625 7.38281C8.47031 7.425 8.47031 7.48594 8.45156 7.51406C8.42813 7.54688 8.40469 7.51406 8.38125 7.42969L8.34844 7.28906L8.3625 7.44375C8.37188 7.55625 8.34844 7.61719 8.28281 7.66406C8.23125 7.70156 8.17031 7.72031 8.14688 7.70625C8.12813 7.69219 8.10938 7.70625 8.10938 7.72969C8.10938 7.75781 8.09063 7.78125 8.07188 7.78125C8.05313 7.78125 8.03438 7.70625 8.02969 7.61719C8.025 7.52812 8.04375 7.45312 8.06719 7.45312C8.09063 7.45312 8.10938 7.47187 8.10938 7.49062C8.10938 7.51406 8.14219 7.53281 8.17969 7.53281C8.2875 7.53281 8.26406 7.46719 8.14688 7.43437L8.03906 7.40625L8.15625 7.3125C8.22188 7.26094 8.30156 7.21875 8.33438 7.21875C8.4 7.21875 8.41406 7.07812 8.34375 7.07812C8.32031 7.07812 8.29688 7.09687 8.29688 7.12031C8.29688 7.14375 8.22656 7.20469 8.1375 7.25625C8.025 7.32187 7.97344 7.39219 7.95938 7.49531C7.95 7.575 7.95469 7.64062 7.97813 7.64062C8.00156 7.64062 8.00625 7.66406 7.99219 7.69219C7.88906 7.85625 8.07188 8.02969 8.76562 8.40469C8.90625 8.47969 9.05625 8.57344 9.09844 8.60625C9.13594 8.64375 9.19688 8.67187 9.225 8.67187C9.25781 8.67187 9.28125 8.7375 9.28125 8.81719C9.28125 9.00937 8.98594 9.4125 8.77969 9.49687C8.69531 9.53437 8.56875 9.64687 8.50313 9.75C8.43281 9.85312 8.35781 9.92344 8.32969 9.90469C8.30156 9.89062 8.29688 9.9 8.31563 9.92812C8.33438 9.95625 8.28281 10.0687 8.20312 10.1766C8.12813 10.2844 8.0625 10.4016 8.0625 10.4391C8.0625 10.4766 8.02031 10.5609 7.97344 10.6219C7.90781 10.7062 7.875 10.8562 7.84688 11.1937C7.80938 11.6391 7.80938 11.6437 7.77656 11.3906C7.7625 11.25 7.76719 11.0953 7.79063 11.0531C7.80938 11.0109 7.82813 10.9266 7.82813 10.8703C7.82813 10.8141 7.875 10.6969 7.92656 10.6078C7.98281 10.5187 8.02031 10.4437 8.01094 10.4391C7.70625 10.2703 7.47188 10.1859 7.425 10.2234C7.3875 10.2562 7.37344 10.2469 7.37813 10.1859C7.37813 10.1391 7.35469 10.1016 7.32188 10.1016C7.28906 10.1016 7.24688 10.0781 7.22813 10.05C7.20938 10.0219 7.14375 9.98437 7.07813 9.96562C6.975 9.9375 6.97031 9.9375 7.05 9.98906C7.17656 10.0641 7.32188 10.2187 7.27031 10.2187C7.24219 10.2187 7.20938 10.1953 7.19531 10.1719C7.18125 10.1437 7.14375 10.125 7.12031 10.125C7.09219 10.125 7.0875 10.1437 7.10156 10.1719C7.11563 10.2 7.09688 10.2047 7.05938 10.1906C6.99375 10.1625 6.96094 10.2141 6.97969 10.3219C6.97969 10.3453 6.95156 10.3594 6.91406 10.3594C6.87656 10.3594 6.84375 10.3172 6.84375 10.2703C6.84375 10.2187 6.81563 10.1484 6.7875 10.1156C6.75469 10.0828 6.72188 10.0219 6.7125 9.98437C6.70313 9.94687 6.675 9.90469 6.65156 9.9C6.62813 9.89062 6.60938 9.49687 6.60938 9C6.60938 8.30156 6.62344 8.08594 6.68438 7.94062C6.77813 7.71094 6.79219 7.69687 6.84375 7.77656C6.86719 7.81875 6.85781 7.88437 6.81563 7.94531C6.75469 8.03437 6.75469 8.05781 6.81563 8.10469C6.85313 8.1375 6.87188 8.19844 6.85781 8.24062C6.82969 8.30625 6.83438 8.30625 6.89531 8.25C6.98906 8.16562 6.99844 8.01094 6.90938 8.04844C6.87188 8.0625 6.84375 8.04844 6.84375 8.02031C6.84375 7.99219 6.87656 7.96875 6.91406 7.96875C7.00313 7.96875 7.00313 7.80937 6.91406 7.72031C6.87656 7.68281 6.8625 7.64062 6.87656 7.62656C6.89063 7.60781 6.94219 7.64531 6.98906 7.70156C7.03594 7.75781 7.07344 7.77656 7.07813 7.74375C7.07813 7.71562 7.05938 7.6875 7.03125 7.6875C6.97969 7.6875 6.96563 7.39219 7.0125 7.34531C7.02656 7.33125 7.09219 7.33594 7.15781 7.36406C7.25625 7.40156 7.27031 7.39687 7.24688 7.32187C7.22813 7.26562 7.25625 7.19062 7.32188 7.11562C7.43906 6.98906 7.48594 6.84375 7.40625 6.84375C7.38281 6.84375 7.35938 6.8625 7.35938 6.89062C7.35938 6.98438 7.34063 7.01719 7.18594 7.19062C7.15313 7.22812 7.14375 7.27031 7.1625 7.28906C7.18125 7.3125 7.16719 7.3125 7.13906 7.29375C7.05469 7.24687 7.06406 7.12969 7.15313 7.09219C7.19063 7.07812 7.21406 7.03594 7.2 7.00312C7.18594 6.96562 7.19531 6.9375 7.21875 6.9375C7.24219 6.9375 7.25156 6.90937 7.24219 6.87656C7.22813 6.84844 7.24219 6.7875 7.26563 6.75C7.30313 6.69375 7.32188 6.69375 7.35 6.74062C7.37813 6.78281 7.39219 6.75469 7.39688 6.66094C7.40156 6.46875 7.50469 6.31875 7.59375 6.37969C7.69219 6.44062 7.7625 6.43125 7.69688 6.36562C7.65469 6.32344 7.65938 6.29062 7.72031 6.225C7.79063 6.14531 7.79063 6.13125 7.73438 6.09375C7.67344 6.05625 7.67813 6.0375 7.75781 5.98125C7.80938 5.94375 7.85625 5.89219 7.85625 5.86406C7.86094 5.83594 7.86563 5.78906 7.87031 5.76562C7.87969 5.68125 7.99688 5.71406 8.10938 5.83594C8.17031 5.90156 8.19375 5.95312 8.16563 5.95312C8.13281 5.95312 8.10938 5.97187 8.10938 6C8.10938 6.09375 8.19375 6.04219 8.4 5.83594C8.63906 5.59687 8.67188 5.5875 8.75156 5.71875ZM9.29531 6.78281C9.2625 6.79219 9.19688 6.79219 9.15469 6.78281C9.10781 6.76875 9.13594 6.75937 9.21094 6.75937C9.29063 6.75937 9.32344 6.76875 9.29531 6.78281ZM9.74063 6.87187C9.79688 6.83906 10.0125 7.02187 9.97031 7.06406C9.95156 7.07812 9.9 7.04531 9.84844 6.98906C9.79219 6.92344 9.75469 6.90469 9.74063 6.94219C9.72656 6.97969 9.68906 6.98906 9.6375 6.97031C9.59531 6.95156 9.57188 6.91875 9.58594 6.89062C9.6 6.86719 9.59063 6.84375 9.56719 6.84375C9.53906 6.84375 9.51562 6.82031 9.51562 6.7875C9.51562 6.75937 9.55313 6.76875 9.60469 6.81562C9.65625 6.8625 9.71719 6.88594 9.74063 6.87187ZM8.97656 6.84375C8.99063 6.87187 8.97188 6.87656 8.93438 6.8625C8.85 6.82969 8.83594 6.79688 8.90156 6.79688C8.92969 6.79688 8.9625 6.81562 8.97656 6.84375ZM8.89219 7.00312C8.87813 7.04062 8.89688 7.08281 8.93438 7.09687C9 7.125 9.02813 7.21875 8.96719 7.21875C8.94375 7.21875 8.89219 7.18594 8.84063 7.14844C8.75156 7.08281 8.76562 6.9375 8.86406 6.9375C8.89219 6.9375 8.90625 6.96562 8.89219 7.00312ZM9.30938 7.06406C9.27656 7.09687 9.1875 7.03125 9.1875 6.975C9.1875 6.94687 9.21563 6.94687 9.25781 6.98438C9.3 7.01719 9.31875 7.05469 9.30938 7.06406ZM11.1562 6.98438C11.1984 7.00781 11.2453 7.00781 11.2781 6.97969C11.3156 6.94687 11.3344 6.95156 11.3297 6.99375C11.325 7.15312 11.3484 7.21875 11.4141 7.21875C11.4516 7.21875 11.4844 7.19531 11.4844 7.17188C11.4844 7.14375 11.5172 7.125 11.5547 7.125C11.6484 7.125 11.6531 7.57031 11.5594 7.60781C11.4891 7.63594 11.3438 7.89844 11.3438 8.00156C11.3438 8.09062 11.1656 8.07656 11.0438 7.97812C10.9547 7.9125 10.9453 7.88437 10.9969 7.8375C11.0859 7.75312 11.1328 7.76719 11.0578 7.86094C11.0016 7.92656 11.0016 7.93594 11.0625 7.9125C11.1 7.90312 11.1516 7.84687 11.1797 7.79062C11.2031 7.73438 11.2406 7.6875 11.2594 7.6875C11.2828 7.6875 11.2969 7.64531 11.2969 7.58906C11.2969 7.5375 11.2781 7.50469 11.2547 7.52344C11.175 7.57031 11.1422 7.43906 11.2172 7.38281C11.3391 7.29375 11.3016 7.09219 11.1562 7.06406C11.0906 7.05 11.025 7.06406 11.0063 7.09219C10.9875 7.12031 10.9594 7.12969 10.9453 7.11562C10.9125 7.0875 11.0109 6.94219 11.0625 6.94219C11.0766 6.9375 11.1188 6.95625 11.1562 6.98438ZM10.6406 7.05937C10.6406 7.09687 10.6219 7.11562 10.5938 7.10156C10.5703 7.0875 10.5469 7.05469 10.5469 7.02656C10.5469 7.00312 10.5703 6.98438 10.5938 6.98438C10.6219 6.98438 10.6406 7.01719 10.6406 7.05937ZM10.9172 7.17188C10.9453 7.17188 10.9688 7.19062 10.9688 7.21875C10.9688 7.31719 10.8422 7.26094 10.7859 7.13437C10.7391 7.02656 10.7391 7.01719 10.7953 7.0875C10.8328 7.13437 10.8844 7.17188 10.9172 7.17188ZM8.65781 7.22812C8.64375 7.26562 8.62969 7.25156 8.62969 7.2C8.625 7.14844 8.63906 7.12031 8.65313 7.13906C8.66719 7.15312 8.67188 7.19531 8.65781 7.22812ZM9.1875 7.21875C9.1875 7.275 9 7.37812 8.9625 7.34062C8.94844 7.32656 8.9625 7.3125 8.99063 7.3125C9.02344 7.3125 9.04688 7.27969 9.04688 7.24219C9.04688 7.20469 9.07969 7.17188 9.11719 7.17188C9.15469 7.17188 9.1875 7.19062 9.1875 7.21875ZM10.7063 7.41562C10.7297 7.51406 10.7156 7.54688 10.6453 7.57031C10.5938 7.58437 10.5422 7.63125 10.5281 7.66875C10.5094 7.72031 10.5188 7.73906 10.5656 7.72031C10.6125 7.70156 10.6266 7.71562 10.6078 7.7625C10.5891 7.81406 10.5656 7.81875 10.5188 7.77656C10.4344 7.70625 10.4344 7.70156 10.575 7.57031L10.6969 7.45781L10.5984 7.37812C10.5281 7.31719 10.5188 7.28437 10.5609 7.25625C10.6313 7.21406 10.6688 7.25156 10.7063 7.41562ZM9.30469 7.3125C9.32344 7.34062 9.35625 7.35 9.37969 7.33594C9.40313 7.32187 9.40781 7.34062 9.39375 7.37812C9.37031 7.43437 9.35156 7.43906 9.27656 7.39219C9.22969 7.36406 9.1875 7.32187 9.1875 7.30312C9.1875 7.24687 9.27188 7.25625 9.30469 7.3125ZM9.5625 7.31719C9.5625 7.34531 9.525 7.40156 9.48281 7.44375C9.40781 7.51875 9.40781 7.51875 9.43594 7.43906C9.45469 7.39219 9.46875 7.33125 9.46875 7.30781C9.46875 7.28437 9.49219 7.26562 9.51562 7.26562C9.54375 7.26562 9.5625 7.28906 9.5625 7.31719ZM11.1094 7.3875C11.1094 7.39687 11.0766 7.40625 11.0391 7.40625C11.0016 7.40625 10.9688 7.3875 10.9688 7.35938C10.9688 7.33594 11.0016 7.32656 11.0391 7.34062C11.0766 7.35938 11.1094 7.37812 11.1094 7.3875ZM10.3594 7.4625C10.3594 7.48594 10.3359 7.49062 10.3125 7.47656C10.2844 7.45781 10.2328 7.46719 10.2 7.49531C10.1578 7.53281 10.1391 7.52812 10.1391 7.47656C10.1391 7.43906 10.1578 7.42031 10.1813 7.43437C10.2 7.44844 10.2188 7.43906 10.2188 7.41094C10.2188 7.38281 10.2516 7.37344 10.2891 7.3875C10.3266 7.40625 10.3594 7.43437 10.3594 7.4625ZM9.23438 7.425C9.23438 7.43906 9.21563 7.4625 9.1875 7.47656C9.16406 7.49062 9.14062 7.48125 9.14062 7.45781C9.14062 7.42969 9.16406 7.40625 9.1875 7.40625C9.21563 7.40625 9.23438 7.41562 9.23438 7.425ZM9.70312 7.58906C9.70312 7.6125 9.66563 7.62656 9.62344 7.62187C9.57656 7.62187 9.52031 7.66406 9.49219 7.72031C9.44063 7.84219 9.375 7.86094 9.375 7.75781C9.375 7.72031 9.41719 7.66406 9.46406 7.63125C9.51094 7.60312 9.54375 7.54688 9.525 7.50937C9.50625 7.45312 9.52031 7.45312 9.6 7.49531C9.65625 7.52812 9.70312 7.57031 9.70312 7.58906ZM8.67188 7.51875C8.67188 7.57031 8.58281 7.58906 8.55469 7.54688C8.54063 7.52344 8.55938 7.5 8.59688 7.5C8.63906 7.5 8.67188 7.50937 8.67188 7.51875ZM10.9453 7.66406C10.95 7.73438 10.9266 7.7625 10.8891 7.74844C10.8563 7.73438 10.8281 7.75312 10.8281 7.78594C10.8281 7.81875 10.8141 7.82812 10.7953 7.81406C10.7812 7.79531 10.8047 7.73906 10.8469 7.69219C10.8984 7.63594 10.9172 7.575 10.8938 7.5375C10.875 7.5 10.8797 7.49062 10.9031 7.51406C10.9266 7.5375 10.9453 7.60312 10.9453 7.66406ZM8.74688 7.72969C8.66719 7.81406 8.66719 7.81875 8.76094 7.85156C8.81719 7.86562 8.85938 7.90312 8.85938 7.93125C8.85938 7.98281 8.85 7.98281 8.59219 7.82812C8.47969 7.7625 8.39062 7.69687 8.39062 7.67344C8.39062 7.61719 8.47031 7.63594 8.53125 7.71094C8.60156 7.79531 8.71875 7.725 8.71875 7.60312C8.71875 7.54688 8.73281 7.54219 8.775 7.58437C8.81719 7.62656 8.80781 7.65937 8.74688 7.72969ZM9.09375 7.59375C9.09375 7.61719 9.075 7.64062 9.04688 7.64062C9.02344 7.64062 9 7.61719 9 7.59375C9 7.56562 9.02344 7.54688 9.04688 7.54688C9.075 7.54688 9.09375 7.56562 9.09375 7.59375ZM10.4531 7.60781C10.4531 7.63125 10.4109 7.64062 10.3594 7.62656C10.2984 7.6125 10.2469 7.64062 10.1906 7.725C10.1203 7.82812 10.1203 7.8375 10.1859 7.81406C10.2281 7.8 10.275 7.80937 10.2938 7.8375C10.3125 7.86562 10.3078 7.875 10.2797 7.86094C10.2563 7.84687 10.1953 7.90781 10.1484 8.00156C10.0641 8.15625 10.0641 8.17031 10.1391 8.22656C10.1813 8.25937 10.2188 8.31094 10.2188 8.34844C10.2188 8.39062 10.2047 8.39531 10.1813 8.3625C10.1625 8.33437 10.1016 8.28281 10.0406 8.25469C9.9375 8.19844 9.9375 8.18906 10.0031 8.11406C10.0453 8.06719 10.0781 8.00625 10.0781 7.97812C10.0781 7.94531 10.1063 7.92188 10.1391 7.92188C10.1672 7.92188 10.1344 7.87969 10.0547 7.82812C9.975 7.77656 9.94219 7.73438 9.98438 7.73438C10.0219 7.73438 10.1016 7.69687 10.1625 7.65C10.275 7.56094 10.4531 7.5375 10.4531 7.60781ZM9.28125 7.73906C9.28125 7.76719 9.24844 7.78125 9.21094 7.7625C9.16406 7.74844 9.14062 7.76719 9.14062 7.81406C9.14062 7.87969 9.12656 7.87969 9.08438 7.8375C9.0375 7.79062 9.0375 7.76719 9.09375 7.73438C9.1875 7.67344 9.28125 7.67812 9.28125 7.73906ZM10.4344 7.81406C10.4016 7.84687 10.3125 7.78125 10.3125 7.725C10.3125 7.69687 10.3406 7.69687 10.3828 7.73438C10.425 7.76719 10.4438 7.80469 10.4344 7.81406ZM9.68438 8.00156C9.65625 8.02969 9.51562 7.95937 9.51562 7.91719C9.51562 7.89375 9.55781 7.89844 9.60938 7.93125C9.65625 7.96406 9.69375 7.99687 9.68438 8.00156ZM10.4719 7.94531C10.4531 7.98281 10.425 8.01562 10.4016 8.01562C10.3781 8.01562 10.3594 7.98281 10.3594 7.94531C10.3594 7.90781 10.3922 7.875 10.4297 7.875C10.4719 7.875 10.4859 7.90312 10.4719 7.94531ZM9.46875 8.01562C9.46875 8.03906 9.45 8.0625 9.42188 8.0625C9.39844 8.0625 9.375 8.03906 9.375 8.01562C9.375 7.9875 9.39844 7.96875 9.42188 7.96875C9.45 7.96875 9.46875 7.9875 9.46875 8.01562ZM9.11719 8.0625C9.13125 8.08594 9.12188 8.10937 9.09844 8.10937C9.07031 8.10937 9.04688 8.08594 9.04688 8.0625C9.04688 8.03437 9.05625 8.01562 9.06563 8.01562C9.07969 8.01562 9.10313 8.03437 9.11719 8.0625ZM10.5938 8.1C10.5938 8.11875 10.5516 8.1375 10.5 8.14219C10.425 8.14687 10.4203 8.1375 10.4672 8.08594C10.5234 8.025 10.5938 8.03437 10.5938 8.1ZM9.375 8.12812C9.375 8.16562 9.35625 8.2125 9.32812 8.22656C9.30469 8.24062 9.28125 8.2125 9.28125 8.16094C9.28125 8.10469 9.30469 8.0625 9.32812 8.0625C9.35625 8.0625 9.375 8.09062 9.375 8.12812ZM9.62344 8.28281C9.63281 8.25469 9.65625 8.23594 9.66563 8.25C9.67969 8.26406 9.67969 8.31094 9.66094 8.35312C9.6375 8.42344 9.62344 8.42344 9.51562 8.33906C9.41719 8.25937 9.41719 8.25 9.50156 8.29219C9.57656 8.32969 9.60938 8.32969 9.62344 8.28281ZM10.0734 8.41875C9.99375 8.51719 9.92813 8.49844 9.98438 8.39062C10.0125 8.33906 10.0547 8.30625 10.0828 8.325C10.1109 8.34375 10.1109 8.37656 10.0734 8.41875ZM9.39844 8.80781C9.4125 8.83125 9.40313 8.86406 9.375 8.88281C9.35156 8.89687 9.32812 8.87812 9.32812 8.84062C9.32812 8.75625 9.35625 8.74219 9.39844 8.80781ZM6.675 10.1531C6.67969 10.2984 6.70313 10.3312 6.83438 10.3875C6.97969 10.4484 6.98906 10.4437 7.02656 10.35C7.05938 10.2609 7.06406 10.2562 7.09688 10.3359C7.13438 10.4391 7.12031 10.4531 6.975 10.4719C6.76875 10.4906 6.65625 10.6359 6.83438 10.6453C6.90469 10.65 6.9 10.6547 6.825 10.6734C6.75469 10.6922 6.75 10.7062 6.80156 10.7391C6.84844 10.7672 6.85313 10.7812 6.80625 10.7812C6.77344 10.7812 6.73594 10.7437 6.72188 10.6969C6.70781 10.6547 6.67969 10.5844 6.65625 10.5422C6.63281 10.4953 6.6375 10.4437 6.67031 10.4109C6.70781 10.3734 6.70781 10.3594 6.66563 10.3594C6.62813 10.3594 6.60938 10.2797 6.60938 10.1391C6.60938 9.88594 6.66563 9.9 6.675 10.1531ZM6.79688 10.2187C6.79688 10.2422 6.7875 10.2656 6.77813 10.2656C6.76406 10.2656 6.74063 10.2422 6.72656 10.2187C6.7125 10.1906 6.72188 10.1719 6.74531 10.1719C6.77344 10.1719 6.79688 10.1906 6.79688 10.2187ZM7.55156 10.2844C7.65938 10.2187 7.66875 10.3266 7.56094 10.4344C7.42031 10.5797 7.39688 10.5656 7.43906 10.3547C7.45313 10.2703 7.47656 10.2234 7.49063 10.2562C7.5 10.2891 7.52813 10.3031 7.55156 10.2844ZM7.34063 10.3219C7.35469 10.3406 7.34531 10.3922 7.3125 10.4391C7.27031 10.5141 7.26563 10.5094 7.28906 10.4062C7.31719 10.2984 7.3125 10.2937 7.25156 10.3734C7.18594 10.4531 7.18125 10.4531 7.1625 10.3687C7.14375 10.3078 7.1625 10.2844 7.22344 10.2891C7.27031 10.2937 7.32188 10.3078 7.34063 10.3219ZM7.875 10.5281C7.875 10.5422 7.84688 10.5375 7.81875 10.5094C7.78594 10.4812 7.73906 10.4625 7.72031 10.4625C7.69688 10.4625 7.66406 10.4437 7.65 10.425C7.63125 10.4062 7.64531 10.4062 7.67813 10.425C7.70625 10.4437 7.73438 10.4344 7.73438 10.4062C7.73438 10.3734 7.7625 10.3828 7.80469 10.425C7.84219 10.4625 7.875 10.5094 7.875 10.5281ZM17.3859 12.5016C17.3813 13.6594 17.3625 14.5172 17.3484 14.4141C17.3203 14.2406 17.3156 14.2359 17.2641 14.3203C17.2313 14.3719 17.2078 14.3906 17.2078 14.3672C17.2078 14.3391 17.2359 14.2781 17.2734 14.2312C17.3109 14.1797 17.3438 14.0953 17.3391 14.0437C17.3391 13.9875 17.325 13.9734 17.3109 14.0062C17.3016 14.0344 17.2688 14.0484 17.2453 14.0344C17.2172 14.0203 17.2219 13.9828 17.2547 13.9406C17.2969 13.8891 17.2969 13.875 17.2547 13.875C17.1703 13.875 16.9594 14.1047 16.9922 14.1562C17.0109 14.1844 17.0063 14.2453 16.9922 14.3016C16.9641 14.3859 16.9547 14.3906 16.8797 14.325C16.8328 14.2828 16.7766 14.2687 16.7391 14.2969C16.6594 14.3438 16.5375 14.3062 16.575 14.2453C16.5891 14.2172 16.6406 14.2125 16.6875 14.2266C16.7531 14.25 16.7625 14.2312 16.7438 14.1281C16.7297 14.0531 16.7109 14.0297 16.6875 14.0625C16.6641 14.1 16.6453 14.0953 16.6219 14.0391C16.6078 13.9969 16.575 13.9734 16.5516 13.9875C16.5281 14.0062 16.4953 13.9875 16.4859 13.9594C16.4719 13.9219 16.4578 13.9312 16.4578 13.9828C16.4531 14.0297 16.4297 14.0531 16.4062 14.0391C16.3781 14.0203 16.3734 13.9828 16.3875 13.9547C16.4109 13.9172 16.4016 13.9125 16.3688 13.9453C16.3359 13.9734 16.3313 14.0531 16.3547 14.1562C16.3875 14.3062 16.3828 14.325 16.2938 14.3344C16.2422 14.3344 16.1859 14.325 16.1719 14.3062C16.1578 14.2875 16.1016 14.25 16.0406 14.2266C15.9422 14.1844 15.9422 14.1703 16.0031 14.0859C16.0406 14.0344 16.0875 14.0109 16.1063 14.0297C16.1297 14.0484 16.1156 14.0859 16.0781 14.1094C16.0406 14.1328 16.0219 14.1609 16.0359 14.175C16.0922 14.2312 16.2656 13.9875 16.2656 13.8516C16.2656 13.8 16.2422 13.7906 16.2094 13.8141C16.1766 13.8328 16.1016 13.8422 16.0453 13.8328C15.9703 13.8234 15.9375 13.8469 15.9375 13.9031C15.9375 13.9688 15.9516 13.9688 16.0078 13.9219C16.05 13.8891 16.0922 13.8703 16.1063 13.8844C16.1156 13.8984 16.0734 13.9453 16.0078 13.9875C15.9422 14.0297 15.8953 14.0484 15.9 14.0297C15.9047 14.0109 15.8859 13.9453 15.8531 13.8844C15.8109 13.8141 15.8109 13.7812 15.8438 13.7812C15.8766 13.7812 15.8719 13.7531 15.8297 13.7156C15.7922 13.6734 15.7688 13.5891 15.7781 13.5141L15.7969 13.3828L15.7453 13.5141C15.7078 13.6078 15.7078 13.6594 15.75 13.7062C15.7828 13.7531 15.7875 13.7812 15.75 13.8047C15.7266 13.8187 15.7031 13.8047 15.6984 13.7719C15.6938 13.6969 15.6047 13.9594 15.5953 14.0812C15.5906 14.1328 15.5531 14.1844 15.5156 14.1937C15.4594 14.2125 15.4547 14.2078 15.5016 14.1469C15.5344 14.1094 15.5438 14.0625 15.525 14.0437C15.4781 13.9922 15.4828 13.7391 15.5344 13.7672C15.6656 13.8516 15.6563 13.4391 15.525 13.3125C15.4594 13.2516 15.4547 13.2516 15.5109 13.3219C15.5438 13.3641 15.5578 13.4437 15.5391 13.5C15.5203 13.5516 15.5297 13.5938 15.5578 13.5938C15.5859 13.5938 15.6094 13.6125 15.6094 13.6359C15.6094 13.7062 15.3563 13.6594 15.3375 13.5891C15.3234 13.5375 15.3328 13.5422 15.3703 13.5938C15.4172 13.6594 15.4313 13.65 15.4172 13.5656C15.4172 13.5469 15.4406 13.5187 15.4734 13.4953C15.5109 13.4766 15.5203 13.4437 15.5016 13.4203C15.4781 13.4016 15.4453 13.4156 15.4219 13.4531C15.3891 13.5094 15.3609 13.5094 15.2484 13.4531C15.1781 13.4156 15.1031 13.3781 15.0844 13.3687C15.0656 13.3641 15.0609 13.3922 15.0797 13.4391C15.0938 13.4859 15.0938 13.5094 15.0703 13.4906C15.0516 13.4719 14.9953 13.4766 14.9484 13.5047C14.8875 13.5328 14.8594 13.5328 14.8594 13.5C14.8594 13.4766 14.8922 13.4531 14.9297 13.4531C14.9719 13.4531 15 13.4109 15 13.3406C15 13.275 15.0328 13.1906 15.075 13.1531C15.1125 13.1109 15.1313 13.0781 15.1078 13.0781C15.0375 13.0828 14.8688 13.2469 14.8453 13.3406C14.8266 13.4156 14.8219 13.4156 14.8172 13.3219C14.8172 13.2656 14.8453 13.2047 14.8828 13.1906C14.9203 13.1719 14.9391 13.1437 14.925 13.1203C14.9109 13.0969 14.925 13.0781 14.9484 13.0781C14.9766 13.0781 15 13.0547 15 13.0312C15 13.0031 14.9484 13.0172 14.8828 13.0594C14.7656 13.1344 14.7656 13.1344 14.8031 13.0266C14.8266 12.9656 14.8313 12.8625 14.8125 12.7969L14.7844 12.6797L14.7516 12.8016C14.7328 12.8719 14.6906 12.9375 14.6531 12.9516C14.6016 12.975 14.5922 12.9516 14.625 12.8484C14.6531 12.7453 14.6391 12.6984 14.55 12.6141C14.4891 12.5578 14.4141 12.5156 14.3813 12.5203C14.2359 12.5391 14.2078 12.5156 14.2453 12.4125C14.2641 12.3516 14.2688 12.2437 14.2453 12.1687C14.2125 12.0609 14.2266 12.0187 14.3109 11.9484C14.3672 11.9016 14.4328 11.8641 14.4516 11.8594C14.475 11.8594 14.4797 11.8406 14.4609 11.8172C14.4469 11.7937 14.3859 11.8219 14.3203 11.8875C14.2594 11.9484 14.1891 12 14.1609 12C14.1328 12 14.1375 12.0516 14.1656 12.1312C14.2031 12.2297 14.2031 12.3375 14.1656 12.5203C14.1375 12.6703 14.1328 12.7781 14.1609 12.7875C14.1844 12.7969 14.2031 12.8391 14.2031 12.8812C14.2031 12.9422 14.1891 12.9422 14.1188 12.8625C14.0719 12.8109 14.0391 12.7031 14.0391 12.6094C14.0391 12.4969 14.0156 12.4406 13.9688 12.4312C13.8797 12.4172 13.6688 12.8672 13.7109 12.9797C13.7344 13.0406 13.7297 13.0406 13.6828 12.9984C13.6359 12.9516 13.6453 12.8906 13.725 12.6891C13.7813 12.5531 13.8281 12.3937 13.8281 12.3375C13.8281 12.2766 13.8469 12.1922 13.8703 12.15C13.8938 12.1078 13.9219 11.9766 13.9406 11.8594C13.9547 11.7422 13.9781 11.5828 13.9969 11.5031C14.0203 11.3859 14.0063 11.3391 13.9172 11.2828C13.8609 11.2406 13.7953 11.2172 13.7813 11.2266C13.7391 11.2547 13.6875 11.0203 13.7156 10.9453C13.7297 10.9172 13.9031 10.8937 14.1469 10.8844C15.6891 10.8469 16.275 10.7672 17.0859 10.5047C17.2406 10.4531 17.3719 10.4109 17.3813 10.4109C17.3859 10.4062 17.3859 11.3484 17.3859 12.5016ZM7.12969 10.6125C7.15313 10.5984 7.1625 10.5609 7.14375 10.5328C7.12969 10.5 7.14844 10.5141 7.18594 10.5562C7.22344 10.6031 7.275 10.6406 7.30781 10.6406C7.37344 10.6406 7.37813 10.7672 7.30781 10.8094C7.27969 10.8234 7.26563 10.875 7.27969 10.9219C7.29375 10.9828 7.27969 11.0016 7.2375 10.9828C7.18594 10.9641 7.17656 10.9125 7.2 10.8C7.23281 10.6312 7.21406 10.6125 7.08281 10.6828C7.0125 10.7203 7.00313 10.7109 7.0125 10.6266C7.02656 10.4812 7.04063 10.4672 7.06406 10.5609C7.07344 10.6031 7.10625 10.6312 7.12969 10.6125ZM7.64531 10.6078C7.58438 10.6687 7.52344 10.6219 7.57031 10.5516C7.58438 10.5234 7.62188 10.5141 7.65 10.5281C7.67813 10.5469 7.67813 10.575 7.64531 10.6078ZM6.72656 10.8281C6.74531 10.8562 6.77813 10.8656 6.80156 10.8516C6.825 10.8328 6.84375 10.8422 6.84375 10.8703C6.84375 10.8937 6.82031 10.9312 6.79688 10.9453C6.76875 10.9641 6.75938 10.9969 6.77344 11.0203C6.82031 11.0906 6.71719 11.0672 6.65625 10.9922C6.60469 10.9312 6.60938 10.9266 6.675 10.95C6.77813 10.9875 6.77344 10.8937 6.67031 10.8328C6.62344 10.8047 6.60938 10.7812 6.64219 10.7812C6.67031 10.7812 6.7125 10.8047 6.72656 10.8281ZM9.47813 11.0625C9.46875 11.1375 9.44063 11.1937 9.42188 11.1797C9.37969 11.1562 9.41719 10.9219 9.46406 10.9219C9.48281 10.9219 9.49219 10.9828 9.47813 11.0625ZM6.72656 11.2312C6.68906 11.2734 6.65625 11.325 6.65625 11.3531C6.65625 11.3812 6.64688 11.3953 6.63281 11.3812C6.59063 11.3437 6.7125 11.1094 6.75938 11.1375C6.77813 11.1516 6.76406 11.1937 6.72656 11.2312ZM9.24844 11.1984C9.23438 11.25 9.18281 11.3016 9.13125 11.3109C9.07031 11.3297 9.04219 11.3625 9.06094 11.4094C9.09375 11.4937 8.97656 11.7469 8.93438 11.6812C8.92031 11.6531 8.92031 11.5969 8.93438 11.5453C8.95781 11.475 8.95312 11.475 8.91094 11.5312C8.88281 11.5687 8.85938 11.5828 8.85938 11.5547C8.85938 11.5219 9.22969 11.1094 9.2625 11.1094C9.26719 11.1094 9.2625 11.1516 9.24844 11.1984ZM7.06875 11.2359C7.05938 11.2828 7.01719 11.325 6.97031 11.3344C6.89531 11.3484 6.89063 11.3391 6.94688 11.2547C7.02188 11.1375 7.09219 11.1281 7.06875 11.2359ZM9.47813 11.3906C9.49219 11.4656 9.4875 11.55 9.46875 11.5781C9.45 11.6062 9.43594 11.5453 9.43125 11.4375C9.42188 11.2172 9.45 11.1891 9.47813 11.3906ZM7.27969 11.3672C7.29844 11.4047 7.28906 11.4469 7.26563 11.4609C7.2375 11.4797 7.21875 11.4469 7.21875 11.3953C7.21875 11.2781 7.24688 11.2687 7.27969 11.3672ZM7.6875 11.5078C7.6875 11.5453 7.66875 11.5781 7.64063 11.5781C7.61719 11.5781 7.60781 11.5453 7.62188 11.5078C7.64063 11.4703 7.65938 11.4375 7.66875 11.4375C7.67813 11.4375 7.6875 11.4703 7.6875 11.5078ZM9.23438 11.5594C9.23438 11.5969 9.21094 11.6156 9.1875 11.6016C9.15938 11.5828 9.15 11.55 9.16406 11.5266C9.20625 11.4609 9.23438 11.475 9.23438 11.5594ZM6.78281 11.7281C6.76875 11.7656 6.75469 11.7516 6.75469 11.7C6.75 11.6484 6.76406 11.6203 6.77813 11.6391C6.79219 11.6531 6.79688 11.6953 6.78281 11.7281ZM8.76562 11.9859C8.71406 12.0656 8.71406 12.0656 8.7375 11.9859C8.75156 11.9391 8.76562 11.8734 8.77031 11.8453C8.77031 11.8031 8.77969 11.8031 8.79375 11.8453C8.80781 11.8781 8.79375 11.9391 8.76562 11.9859ZM6.825 11.9578C6.87656 12.0422 6.75938 12.1219 6.69375 12.0516C6.64219 12.0047 6.64688 12 6.71719 12.0234C6.80625 12.0609 6.82969 11.9766 6.74063 11.9391C6.69375 11.9203 6.69375 11.9109 6.73594 11.9109C6.76406 11.9062 6.80625 11.9297 6.825 11.9578ZM8.90625 12.0703C8.87344 12.1125 8.83594 12.1312 8.82656 12.1219C8.79375 12.0891 8.85938 12 8.91563 12C8.94375 12 8.94375 12.0281 8.90625 12.0703ZM7.62656 12.4312C7.61719 12.4922 7.60781 12.4453 7.60781 12.3281C7.60781 12.2109 7.61719 12.1641 7.62656 12.2203C7.63594 12.2812 7.63594 12.375 7.62656 12.4312ZM6.7875 12.3984C6.77344 12.4125 6.74531 12.3891 6.73125 12.3422C6.70313 12.2766 6.70781 12.2719 6.75469 12.3141C6.7875 12.3469 6.80156 12.3844 6.7875 12.3984ZM8.70938 12.3984C8.67188 12.4875 8.64375 12.5016 8.61563 12.4594C8.59688 12.4266 8.57812 12.375 8.57812 12.3516C8.57812 12.3234 8.59688 12.3328 8.62031 12.3656C8.65313 12.4172 8.6625 12.4172 8.68594 12.3562C8.70469 12.3141 8.72813 12.2812 8.7375 12.2812C8.75156 12.2812 8.7375 12.3328 8.70938 12.3984ZM6.78281 12.5719C6.76875 12.6094 6.75469 12.5953 6.75469 12.5437C6.75 12.4922 6.76406 12.4641 6.77813 12.4828C6.79219 12.4969 6.79688 12.5391 6.78281 12.5719ZM13.9547 12.6187C13.9406 12.6562 13.9266 12.6422 13.9266 12.5906C13.9219 12.5391 13.9359 12.5109 13.95 12.5297C13.9641 12.5437 13.9688 12.5859 13.9547 12.6187ZM6.675 12.8344C6.69375 12.975 6.68906 13.0734 6.66563 13.0594C6.64688 13.0453 6.62344 12.9234 6.61406 12.7875C6.6 12.4781 6.63281 12.5062 6.675 12.8344ZM7.48594 12.6656C7.47188 12.7031 7.45781 12.6891 7.45781 12.6375C7.45313 12.5859 7.46719 12.5578 7.48125 12.5766C7.49531 12.5906 7.5 12.6328 7.48594 12.6656ZM8.59219 12.6328C8.57812 12.675 8.55469 12.6984 8.54531 12.6844C8.53125 12.6703 8.53594 12.6422 8.55469 12.6141C8.59688 12.5391 8.625 12.5531 8.59219 12.6328ZM14.4844 12.6094C14.4844 12.6375 14.4703 12.6516 14.4516 12.6516C14.3438 12.6328 14.3438 12.6703 14.4563 12.7734C14.5266 12.8391 14.5594 12.8906 14.5359 12.8906C14.5078 12.8906 14.4844 12.9234 14.4844 12.9609C14.4844 12.9984 14.4609 13.0312 14.4375 13.0312C14.4047 13.0312 14.4047 13.0031 14.4375 12.9375C14.4984 12.8203 14.4141 12.8109 14.3484 12.9234C14.3203 12.9703 14.3016 12.9844 14.2969 12.9609C14.2969 12.9328 14.3203 12.8812 14.3438 12.8438C14.3719 12.7969 14.3578 12.7453 14.2969 12.6797C14.2078 12.5859 14.2125 12.5859 14.3484 12.5766C14.4234 12.5719 14.4844 12.5859 14.4844 12.6094ZM7.65938 12.6797C7.67344 12.7172 7.66406 12.75 7.64063 12.75C7.6125 12.75 7.59375 12.7172 7.59375 12.6797C7.59375 12.6422 7.60313 12.6094 7.6125 12.6094C7.62188 12.6094 7.64063 12.6422 7.65938 12.6797ZM14.5781 12.75C14.5781 12.7734 14.5688 12.7969 14.5594 12.7969C14.5453 12.7969 14.5219 12.7734 14.5078 12.75C14.4938 12.7219 14.5031 12.7031 14.5266 12.7031C14.5547 12.7031 14.5781 12.7219 14.5781 12.75ZM8.67188 12.7969C8.67188 12.8203 8.64844 12.8438 8.62031 12.8438C8.59688 12.8438 8.5875 12.8203 8.60156 12.7969C8.61563 12.7687 8.63906 12.75 8.65313 12.75C8.6625 12.75 8.67188 12.7687 8.67188 12.7969ZM13.9688 12.9562C13.9688 13.0219 13.8469 13.1719 13.8 13.1719C13.7578 13.1719 13.8047 12.9609 13.8516 12.9281C13.9266 12.8719 13.9688 12.8859 13.9688 12.9562ZM14.8125 12.9094C14.8125 12.9562 14.5828 13.1625 14.5594 13.1391C14.5453 13.1203 14.4984 13.1484 14.4563 13.2C14.3906 13.2844 14.3859 13.2844 14.4375 13.1812C14.4656 13.1203 14.5406 13.0547 14.6016 13.0312C14.6625 13.0078 14.7234 12.9656 14.7422 12.9422C14.7703 12.8906 14.8125 12.8719 14.8125 12.9094ZM7.01719 13.1062C7.00313 13.1203 6.96094 13.125 6.92813 13.1109C6.89063 13.0969 6.90469 13.0828 6.95625 13.0828C7.00781 13.0781 7.03594 13.0922 7.01719 13.1062ZM14.775 13.3594C14.7891 13.4344 14.7891 13.5 14.7844 13.5C14.7422 13.5 14.6719 13.3031 14.6953 13.2656C14.7422 13.1906 14.7516 13.2094 14.775 13.3594ZM13.4438 13.4484C13.4016 13.5141 13.3359 13.5469 13.2328 13.5469C13.1531 13.5469 13.0734 13.5703 13.0641 13.5938C13.05 13.6219 13.0453 13.6172 13.05 13.5844C13.0547 13.5516 13.1297 13.5187 13.2141 13.5094C13.2984 13.5 13.3875 13.4531 13.4156 13.4062C13.4484 13.3547 13.4813 13.3266 13.4906 13.3312C13.5 13.3406 13.4766 13.3922 13.4438 13.4484ZM14.1891 13.4625C14.175 13.5 14.1609 13.4859 14.1609 13.4344C14.1563 13.3828 14.1703 13.3547 14.1844 13.3734C14.1984 13.3875 14.2031 13.4297 14.1891 13.4625ZM13.6406 13.4484C13.6406 13.4719 13.6078 13.5141 13.5703 13.5469C13.4953 13.6125 13.4859 13.5938 13.5281 13.4812C13.5563 13.4016 13.6406 13.3781 13.6406 13.4484ZM14.5172 13.5562C14.5031 13.5891 14.4938 13.5656 14.4938 13.5C14.4938 13.4344 14.5031 13.4109 14.5172 13.4391C14.5266 13.4719 14.5266 13.5281 14.5172 13.5562ZM15.2813 13.6172C15.2813 13.6547 15.2578 13.6969 15.2344 13.7109C15.2063 13.7297 15.2016 13.7625 15.2156 13.7906C15.2344 13.8234 15.225 13.8281 15.1969 13.8094C15.1594 13.7859 15.1547 13.7484 15.1875 13.6922C15.2156 13.6359 15.2109 13.5891 15.1734 13.5516C15.1313 13.5047 15.1359 13.5 15.2016 13.5234C15.2438 13.5422 15.2813 13.5844 15.2813 13.6172ZM14.9297 13.8281C14.8828 13.9781 14.8219 13.9359 14.8266 13.7625C14.8313 13.6312 14.8406 13.6172 14.8969 13.6687C14.9344 13.7062 14.9484 13.7719 14.9297 13.8281ZM15.3797 13.8609C15.4406 13.9359 15.4359 13.9406 15.3656 13.8797C15.2859 13.8187 15.2625 13.7812 15.3 13.7812C15.3094 13.7812 15.3469 13.8187 15.3797 13.8609ZM15.3 13.9453C15.3141 13.9828 15.3047 14.0156 15.2813 14.0156C15.2531 14.0156 15.2344 13.9828 15.2344 13.9453C15.2344 13.9078 15.2438 13.875 15.2531 13.875C15.2625 13.875 15.2813 13.9078 15.3 13.9453ZM15.7641 13.9547C15.7313 13.9688 15.7219 14.0109 15.7359 14.0531C15.7547 14.1187 15.75 14.1187 15.7125 14.0672C15.6563 13.9875 15.6938 13.8656 15.7641 13.9078C15.8016 13.9312 15.8016 13.9453 15.7641 13.9547ZM16.1813 13.9781C16.1484 14.0109 16.125 14.0156 16.125 13.9875C16.125 13.9219 16.1813 13.8656 16.2141 13.8984C16.2234 13.9125 16.2094 13.95 16.1813 13.9781ZM13.2422 13.9641C13.2563 13.9875 13.2469 14.0203 13.2188 14.0391C13.1953 14.0531 13.1719 14.0344 13.1719 13.9969C13.1719 13.9125 13.2 13.8984 13.2422 13.9641ZM13.0781 14.1328C13.0781 14.1562 13.0547 14.1469 13.0313 14.1094C13.0078 14.0719 12.9844 14.0156 12.9844 13.9922C12.9844 13.9641 13.0078 13.9781 13.0313 14.0156C13.0547 14.0531 13.0781 14.1047 13.0781 14.1328ZM14.0156 14.0859C14.0156 14.1234 13.9969 14.1562 13.9688 14.1562C13.9453 14.1562 13.9219 14.1234 13.9219 14.0859C13.9219 14.0484 13.9453 14.0156 13.9688 14.0156C13.9969 14.0156 14.0156 14.0484 14.0156 14.0859ZM17.2266 14.1562C17.2078 14.1891 17.1328 14.1891 17.025 14.1609C17.0203 14.1562 17.0391 14.1281 17.0719 14.0906C17.1375 14.0203 17.2734 14.0812 17.2266 14.1562ZM16.5938 14.1094C16.5938 14.1328 16.5516 14.175 16.5 14.2031C16.4297 14.2406 16.4062 14.2406 16.4062 14.1891C16.4062 14.1516 16.4203 14.1094 16.4391 14.0953C16.4859 14.0484 16.5938 14.0578 16.5938 14.1094ZM14.7797 14.2219C14.7984 14.2641 14.7703 14.2828 14.7 14.2781C14.6344 14.2781 14.5969 14.25 14.6109 14.2125C14.6438 14.1375 14.7516 14.1422 14.7797 14.2219ZM15.7453 14.2359C15.7453 14.2875 15.7313 14.2969 15.7172 14.2594C15.7078 14.2312 15.6703 14.2172 15.6469 14.2312C15.6141 14.25 15.6094 14.2406 15.6281 14.2125C15.6797 14.1281 15.75 14.1469 15.7453 14.2359ZM15.8719 14.4141C15.8578 14.4516 15.8719 14.4844 15.9 14.4844C15.9281 14.4844 15.9422 14.4984 15.9234 14.5125C15.8766 14.5641 15.8016 14.4844 15.8297 14.4141C15.8438 14.3766 15.8625 14.3438 15.8766 14.3438C15.8906 14.3438 15.8906 14.3766 15.8719 14.4141ZM16.1813 14.6344C16.1391 14.6766 16.125 14.6672 16.125 14.5828C16.125 14.5172 16.0922 14.4656 16.0312 14.4516C15.9797 14.4375 15.9516 14.4047 15.9656 14.3812C15.9844 14.3531 16.05 14.3859 16.1156 14.4562C16.2141 14.55 16.2281 14.5875 16.1813 14.6344ZM15.5344 14.4234C15.5109 14.4469 15.4781 14.4797 15.4594 14.5078C15.4406 14.5359 15.4219 14.5172 15.4219 14.4703C15.4219 14.4281 15.4547 14.3906 15.5016 14.3906C15.5438 14.3906 15.5578 14.4047 15.5344 14.4234ZM16.2656 14.4375C16.2656 14.4609 16.2563 14.4844 16.2469 14.4844C16.2328 14.4844 16.2094 14.4609 16.1953 14.4375C16.1813 14.4094 16.1906 14.3906 16.2141 14.3906C16.2422 14.3906 16.2656 14.4094 16.2656 14.4375ZM16.6031 14.4234C16.5422 14.4469 16.4297 14.6625 16.4438 14.7281C16.4578 14.7891 16.3688 14.7703 16.35 14.7094C16.3219 14.6297 16.4203 14.4422 16.5 14.4187C16.6031 14.3906 16.6734 14.3953 16.6031 14.4234ZM17.1422 14.4656C17.1281 14.4797 17.0859 14.4844 17.0531 14.4703C17.0156 14.4562 17.0297 14.4422 17.0813 14.4422C17.1328 14.4375 17.1609 14.4516 17.1422 14.4656ZM16.7344 14.5781C16.7625 14.6297 16.7719 14.6719 16.7625 14.6719C16.7484 14.6719 16.7156 14.6297 16.6875 14.5781C16.6594 14.5266 16.65 14.4844 16.6594 14.4844C16.6734 14.4844 16.7063 14.5266 16.7344 14.5781ZM16.9688 14.625C16.9688 14.6766 16.95 14.7188 16.9219 14.7188C16.8984 14.7188 16.875 14.6766 16.875 14.625C16.875 14.5734 16.8984 14.5312 16.9219 14.5312C16.95 14.5312 16.9688 14.5734 16.9688 14.625ZM17.2969 14.6812C17.2969 14.7094 17.2641 14.7047 17.2266 14.6719C17.1891 14.6391 17.1562 14.5922 17.1562 14.5687C17.1562 14.5406 17.1891 14.5453 17.2266 14.5781C17.2641 14.6109 17.2969 14.6578 17.2969 14.6812ZM16.6453 14.775C16.6969 14.8734 16.6969 14.8781 16.6266 14.8172C16.5797 14.7844 16.5469 14.7375 16.5469 14.7141C16.5469 14.6437 16.5891 14.6672 16.6453 14.775ZM15.8203 14.8078C15.8344 14.8312 15.8297 14.8641 15.8063 14.8781C15.7828 14.8922 15.7641 14.8734 15.7641 14.8359C15.7641 14.7562 15.7781 14.7469 15.8203 14.8078ZM16.9781 14.8734C16.9922 14.9344 16.9828 15.0234 16.9641 15.075C16.9406 15.1359 16.9266 15.1078 16.9266 14.9625C16.9219 14.7469 16.9453 14.7047 16.9781 14.8734ZM17.2031 14.8875C17.2031 14.9531 17.1844 14.9953 17.1609 14.9812C17.1375 14.9672 17.1281 14.9109 17.1422 14.8594C17.175 14.7281 17.2031 14.7422 17.2031 14.8875ZM17.2828 15.0562C17.2688 15.0891 17.2594 15.0656 17.2594 15C17.2594 14.9344 17.2688 14.9109 17.2828 14.9391C17.2922 14.9719 17.2922 15.0281 17.2828 15.0562ZM16.7672 15.2437C16.7531 15.2812 16.7391 15.2672 16.7391 15.2156C16.7344 15.1641 16.7484 15.1359 16.7625 15.1547C16.7766 15.1687 16.7812 15.2109 16.7672 15.2437ZM16.1391 15.3984C16.125 15.4406 16.1016 15.4641 16.0922 15.45C16.0781 15.4359 16.0828 15.4078 16.1016 15.3797C16.1438 15.3047 16.1719 15.3187 16.1391 15.3984ZM17.2828 15.4781C17.2688 15.5156 17.2547 15.5016 17.2547 15.45C17.25 15.3984 17.2641 15.3703 17.2781 15.3891C17.2922 15.4031 17.2969 15.4453 17.2828 15.4781ZM17.3766 15.7594C17.3625 15.7969 17.3484 15.7828 17.3484 15.7312C17.3438 15.6797 17.3578 15.6516 17.3719 15.6703C17.3859 15.6844 17.3906 15.7266 17.3766 15.7594Z" fill="black"/>
<path d="M15.6094 3.90938C15.6094 3.96095 15.75 4.0922 15.7781 4.06876C15.7875 4.0547 15.7547 4.00782 15.7031 3.96095C15.6516 3.91407 15.6094 3.89063 15.6094 3.90938Z" fill="black"/>
<path d="M9.28125 3.98438C9.28125 4.00781 9.30469 4.03125 9.33281 4.03125C9.35625 4.03125 9.36563 4.00781 9.35156 3.98438C9.3375 3.95625 9.31406 3.9375 9.3 3.9375C9.29063 3.9375 9.28125 3.95625 9.28125 3.98438Z" fill="black"/>
<path d="M9.98906 4.0875C9.93281 4.22812 9.89999 4.80937 9.95156 4.85625C9.96093 4.86562 10.0078 4.82812 10.0594 4.77187C10.1391 4.68281 10.1391 4.67343 10.0641 4.70156C9.97968 4.73437 9.97968 4.71093 10.0641 4.36875C10.0828 4.29843 10.1016 4.20937 10.1062 4.17187C10.1109 4.13437 10.1203 4.07343 10.1297 4.03593C10.1672 3.9 10.05 3.94218 9.98906 4.0875Z" fill="black"/>
<path d="M11.6578 4.05C11.6391 4.09687 11.6531 4.11093 11.6953 4.09218C11.7328 4.07812 11.7516 4.05 11.7375 4.02656C11.7047 3.97031 11.6859 3.975 11.6578 4.05Z" fill="black"/>
<path d="M14.8734 4.10157C14.8734 4.13907 14.8922 4.15782 14.9156 4.14375C14.9344 4.12969 14.9531 4.10157 14.9531 4.07344C14.9531 4.05 14.9344 4.03125 14.9156 4.03125C14.8922 4.03125 14.8734 4.06407 14.8734 4.10157Z" fill="black"/>
<path d="M16.9922 4.08281C16.9734 4.11094 16.9688 4.13906 16.9828 4.15312C16.9922 4.16719 17.0156 4.14375 17.0297 4.10156C17.0625 4.02187 17.0344 4.00781 16.9922 4.08281Z" fill="black"/>
<path d="M11.1328 4.125C11.1469 4.14844 11.1703 4.17188 11.1844 4.17188C11.1938 4.17188 11.2031 4.14844 11.2031 4.125C11.2031 4.09687 11.1797 4.07812 11.1516 4.07812C11.1281 4.07812 11.1188 4.09687 11.1328 4.125Z" fill="black"/>
<path d="M16.5141 4.14844C16.5 4.19062 16.5 4.23281 16.5094 4.24687C16.5234 4.26094 16.5469 4.22812 16.5609 4.17187C16.5891 4.06406 16.5562 4.04531 16.5141 4.14844Z" fill="black"/>
<path d="M9.65625 4.17188C9.65625 4.19531 9.67969 4.21875 9.70312 4.21875C9.73125 4.21875 9.75 4.19531 9.75 4.17188C9.75 4.14375 9.73125 4.125 9.70312 4.125C9.67969 4.125 9.65625 4.14375 9.65625 4.17188Z" fill="black"/>
<path d="M16.5469 4.3125C16.5047 4.34063 16.5 4.35938 16.5328 4.35938C16.5609 4.35938 16.6031 4.33594 16.6172 4.3125C16.6547 4.25625 16.6359 4.25625 16.5469 4.3125Z" fill="black"/>
<path d="M11.1141 4.66875C11.1141 4.72031 11.1281 4.73438 11.1422 4.69688C11.1563 4.66406 11.1516 4.62188 11.1375 4.60781C11.1234 4.58906 11.1094 4.61719 11.1141 4.66875Z" fill="black"/>
<path d="M16.7578 4.73906C16.7391 4.76719 16.7344 4.79531 16.7484 4.80937C16.7578 4.82344 16.7813 4.8 16.7953 4.75781C16.8281 4.67812 16.8 4.66406 16.7578 4.73906Z" fill="black"/>
<path d="M9.44531 4.875C9.43125 4.89844 9.44063 4.92188 9.46406 4.92188C9.49219 4.92188 9.51563 4.89844 9.51563 4.875C9.51563 4.84687 9.50625 4.82812 9.49688 4.82812C9.48281 4.82812 9.45938 4.84687 9.44531 4.875Z" fill="black"/>
<path d="M11.1328 4.875C11.1469 4.89844 11.1703 4.92188 11.1844 4.92188C11.1938 4.92188 11.2031 4.89844 11.2031 4.875C11.2031 4.84687 11.1797 4.82812 11.1516 4.82812C11.1281 4.82812 11.1188 4.84687 11.1328 4.875Z" fill="black"/>
<path d="M9.46875 5.02031C9.46875 5.04375 9.49219 5.05312 9.51562 5.03906C9.54375 5.025 9.5625 5.00156 9.5625 4.9875C9.5625 4.97812 9.54375 4.96875 9.51562 4.96875C9.49219 4.96875 9.46875 4.99219 9.46875 5.02031Z" fill="black"/>
<path d="M8.84531 5.07187C8.87343 5.12343 9.04687 5.11874 9.04687 5.06718C9.04687 5.04374 8.99531 5.02968 8.93437 5.03437C8.87343 5.03437 8.83124 5.05312 8.84531 5.07187Z" fill="black"/>
<path d="M8.88281 5.20312C8.86875 5.22656 8.87813 5.25 8.90156 5.25C8.92969 5.25 8.95313 5.22656 8.95313 5.20312C8.95313 5.175 8.94375 5.15625 8.93438 5.15625C8.92031 5.15625 8.89688 5.175 8.88281 5.20312Z" fill="black"/>
<path d="M8.84531 5.33907C8.8875 5.38594 8.8875 5.42344 8.84531 5.48438C8.80781 5.55001 8.80781 5.58751 8.85468 5.64376C8.925 5.72813 9.04687 5.74219 9.04687 5.66719C9.04687 5.64376 9.02812 5.62969 9.00937 5.64376C8.99062 5.65313 8.94375 5.64844 8.90625 5.62501C8.85 5.58751 8.84531 5.56407 8.89218 5.48907C8.93906 5.41407 8.93437 5.38594 8.86875 5.33907C8.80312 5.28751 8.79843 5.28751 8.84531 5.33907Z" fill="black"/>
<path d="M9.35625 5.58749C9.37031 5.61093 9.40312 5.61562 9.42656 5.60156C9.4875 5.55937 9.47812 5.54531 9.39843 5.54531C9.36093 5.54531 9.34218 5.56406 9.35625 5.58749Z" fill="black"/>
<path d="M9.53906 5.57812C9.525 5.60625 9.54375 5.61094 9.58125 5.59687C9.66562 5.56406 9.67969 5.53125 9.61406 5.53125C9.58594 5.53125 9.55312 5.55 9.53906 5.57812Z" fill="black"/>
<path d="M10.0594 5.69531C10.1344 5.75625 10.1391 5.77031 10.0781 5.8125C10.0359 5.84062 10.0312 5.85938 10.0641 5.85938C10.0922 5.85938 10.1297 5.84062 10.1437 5.81719C10.1906 5.74687 10.1203 5.625 10.0406 5.625C9.97969 5.625 9.98437 5.63906 10.0594 5.69531Z" fill="black"/>
<path d="M9.32812 5.83594C9.29531 5.87812 9.27656 5.91562 9.28594 5.92969C9.3 5.93906 9.33281 5.90625 9.36562 5.85937C9.43125 5.74687 9.4125 5.7375 9.32812 5.83594Z" fill="black"/>
<path d="M10.1953 5.85469C10.1672 5.90626 10.2563 5.97657 10.2984 5.93438C10.3172 5.92032 10.3031 5.90626 10.2703 5.90626C10.2375 5.90626 10.2281 5.88282 10.2422 5.85938C10.2563 5.83126 10.2609 5.81251 10.2469 5.81251C10.2328 5.81251 10.2141 5.83126 10.1953 5.85469Z" fill="black"/>
<path d="M10.6266 5.86406C10.6594 5.89687 10.6969 5.91093 10.7109 5.89687C10.725 5.88281 10.7016 5.85468 10.6547 5.84062C10.5891 5.81249 10.5844 5.81718 10.6266 5.86406Z" fill="black"/>
<path d="M9.075 5.92969C9.09375 5.96719 9.12656 6 9.15 6C9.17812 6 9.17344 5.97187 9.14062 5.92969C9.10781 5.89219 9.075 5.85938 9.06562 5.85938C9.05625 5.85938 9.06094 5.89219 9.075 5.92969Z" fill="black"/>
<path d="M8.93438 5.96719C8.94844 6.01407 8.97657 6.03751 8.99063 6.02344C9.00469 6.00938 8.99063 5.97188 8.95782 5.93907C8.91094 5.89688 8.90625 5.90157 8.93438 5.96719Z" fill="black"/>
<path d="M9.96094 6C9.94687 6.02812 9.96562 6.03281 10.0031 6.01875C10.0875 5.98594 10.1016 5.95312 10.0359 5.95312C10.0078 5.95312 9.975 5.97187 9.96094 6Z" fill="black"/>
<path d="M9.79687 6.07031C9.76406 6.1125 9.74531 6.15 9.75469 6.16406C9.76875 6.17344 9.80156 6.14062 9.83437 6.09375C9.9 5.98125 9.88125 5.97187 9.79687 6.07031Z" fill="black"/>
<path d="M11.3906 6.07501C11.4094 6.23438 11.3906 6.24844 11.2875 6.15938L11.1797 6.07032L11.2688 6.17344C11.3391 6.25782 11.3719 6.26719 11.4234 6.22969C11.4984 6.16407 11.5031 6.06563 11.4328 6.01876C11.4047 6.00469 11.3859 6.02344 11.3906 6.07501Z" fill="black"/>
<path d="M10.125 6.11718C10.1578 6.15937 10.1953 6.17812 10.2047 6.16875C10.2375 6.13593 10.1719 6.04687 10.1156 6.04687C10.0875 6.04687 10.0875 6.075 10.125 6.11718Z" fill="black"/>
<path d="M9.98438 6.15937C9.98438 6.21562 9.96094 6.23438 9.91406 6.21562C9.87656 6.20156 9.84375 6.21094 9.84375 6.23438C9.84375 6.2625 9.87656 6.28125 9.91406 6.28125C9.99375 6.28125 10.0641 6.15469 10.0125 6.10781C9.99844 6.08906 9.98438 6.11719 9.98438 6.15937Z" fill="black"/>
<path d="M10.875 6.10781C10.875 6.12187 10.9312 6.16406 10.9969 6.21094C11.0672 6.25312 11.1047 6.26719 11.0906 6.23906C11.0578 6.1875 10.875 6.075 10.875 6.10781Z" fill="black"/>
<path d="M9.41718 6.22032C9.35624 6.3 9.35624 6.3 9.44531 6.23438C9.49687 6.19688 9.54843 6.15938 9.55781 6.15469C9.56718 6.14532 9.55781 6.14063 9.52968 6.14063C9.50156 6.14063 9.44999 6.17813 9.41718 6.22032Z" fill="black"/>
<path d="M10.2703 6.21563C10.2703 6.26719 10.2844 6.28125 10.2984 6.24375C10.3125 6.21094 10.3078 6.16875 10.2938 6.15469C10.2797 6.13594 10.2656 6.16406 10.2703 6.21563Z" fill="black"/>
<path d="M10.8328 6.2625C10.8328 6.31406 10.8469 6.32813 10.8609 6.29063C10.875 6.25781 10.8703 6.21563 10.8563 6.20156C10.8422 6.18281 10.8281 6.21094 10.8328 6.2625Z" fill="black"/>
<path d="M10.1016 6.28125C10.0875 6.30469 10.1062 6.32812 10.1484 6.32812C10.1906 6.32812 10.2094 6.30469 10.1953 6.28125C10.1812 6.25312 10.1578 6.23438 10.1484 6.23438C10.1391 6.23438 10.1156 6.25312 10.1016 6.28125Z" fill="black"/>
<path d="M9.46875 6.32344C9.46875 6.37031 9.55781 6.44063 9.58594 6.41719C9.59062 6.40781 9.57187 6.37031 9.53437 6.3375C9.49687 6.30469 9.46875 6.3 9.46875 6.32344Z" fill="black"/>
<path d="M9.27187 6.36093C9.16406 6.38906 9.16406 6.49687 9.26718 6.53437C9.31406 6.55312 9.33281 6.55312 9.31874 6.53437C9.29999 6.51562 9.30468 6.46406 9.33281 6.41718C9.35624 6.36562 9.37031 6.33281 9.36562 6.33281C9.35624 6.33749 9.31406 6.34687 9.27187 6.36093Z" fill="black"/>
<path d="M9.76875 6.39844C9.72187 6.43594 9.70312 6.46875 9.73125 6.46875C9.75937 6.46875 9.81093 6.43594 9.84375 6.39844C9.91875 6.30938 9.88593 6.30938 9.76875 6.39844Z" fill="black"/>
<path d="M10.2188 6.375C10.1578 6.4125 10.1625 6.42188 10.2328 6.42188C10.275 6.42188 10.3125 6.39844 10.3125 6.375C10.3125 6.31875 10.3078 6.31875 10.2188 6.375Z" fill="black"/>
<path d="M10.5938 6.47813C10.5938 6.50626 10.6266 6.51563 10.6641 6.49688C10.7344 6.47344 10.9688 6.63751 10.9688 6.71251C10.9688 6.78282 10.8328 6.75001 10.7859 6.66563C10.7484 6.60469 10.7391 6.60001 10.7344 6.65626C10.7344 6.69376 10.7719 6.75001 10.8234 6.78282C10.8984 6.82969 10.9266 6.82032 11.0109 6.73126L11.1141 6.62344L10.9359 6.53438C10.7344 6.43594 10.5938 6.41251 10.5938 6.47813Z" fill="black"/>
<path d="M9.46875 6.48749C9.46875 6.49687 9.50625 6.53437 9.55312 6.56718C9.62344 6.62812 9.62812 6.62343 9.56719 6.54843C9.50625 6.47343 9.46875 6.44999 9.46875 6.48749Z" fill="black"/>
<path d="M10.575 6.64218C10.5469 6.70781 10.5516 6.71249 10.5984 6.67031C10.6313 6.63749 10.6453 6.59999 10.6313 6.58593C10.6172 6.57187 10.5891 6.59531 10.575 6.64218Z" fill="black"/>
<path d="M10.0406 6.63281C10.0594 6.65156 10.0406 6.69844 9.99375 6.73125C9.92344 6.7875 9.92344 6.79219 9.98906 6.79688C10.0875 6.79688 10.1391 6.67031 10.0641 6.62813C10.0312 6.60938 10.0219 6.60938 10.0406 6.63281Z" fill="black"/>
<path d="M10.5938 6.82031C10.5563 6.8625 10.5563 6.89062 10.5844 6.89062C10.6406 6.89062 10.7063 6.80156 10.6734 6.76875C10.6641 6.75938 10.6266 6.77813 10.5938 6.82031Z" fill="black"/>
<path d="M14.1797 6.9375C14.1938 6.96094 14.2172 6.98438 14.2313 6.98438C14.2406 6.98438 14.25 6.96094 14.25 6.9375C14.25 6.90937 14.2266 6.89062 14.1984 6.89062C14.175 6.89062 14.1656 6.90937 14.1797 6.9375Z" fill="black"/>
<path d="M14.6531 7.44844C14.6391 7.47188 14.6531 7.50001 14.6859 7.51407C14.7234 7.52813 14.7516 7.50938 14.7516 7.47188C14.7516 7.39688 14.6906 7.38282 14.6531 7.44844Z" fill="black"/>
<path d="M7.99219 5.90625C8.00625 5.92969 8.02969 5.95312 8.04375 5.95312C8.05313 5.95312 8.0625 5.92969 8.0625 5.90625C8.0625 5.87812 8.03906 5.85938 8.01094 5.85938C7.9875 5.85938 7.97813 5.87812 7.99219 5.90625Z" fill="black"/>
<path d="M8.28281 6.01405C8.26875 6.04687 8.27344 6.10312 8.29688 6.13593C8.32031 6.17812 8.33906 6.17343 8.3625 6.11249C8.38125 6.0703 8.37656 6.01405 8.35313 5.99062C8.325 5.96249 8.29688 5.97187 8.28281 6.01405Z" fill="black"/>
<path d="M7.59375 6.51562C7.59375 6.53906 7.61719 6.5625 7.64062 6.5625C7.66875 6.5625 7.6875 6.53906 7.6875 6.51562C7.6875 6.4875 7.66875 6.46875 7.64062 6.46875C7.61719 6.46875 7.59375 6.4875 7.59375 6.51562Z" fill="black"/>
<path d="M8.32031 6.66094C8.26874 6.73594 8.31562 6.75001 8.38124 6.67501C8.41406 6.63751 8.41874 6.60938 8.39531 6.60938C8.37187 6.60938 8.33437 6.63282 8.32031 6.66094Z" fill="black"/>
<path d="M8.48438 6.65625C8.48438 6.67969 8.50781 6.70312 8.53594 6.70312C8.55938 6.70312 8.56875 6.67969 8.55469 6.65625C8.54063 6.62812 8.51719 6.60938 8.50313 6.60938C8.49375 6.60938 8.48438 6.62812 8.48438 6.65625Z" fill="black"/>
<path d="M7.57501 6.83906C7.55626 6.86249 7.56563 6.89531 7.58907 6.90937C7.61251 6.92812 7.64532 6.91874 7.65938 6.89531C7.67813 6.87187 7.66876 6.83906 7.64532 6.82499C7.62188 6.80624 7.58907 6.81562 7.57501 6.83906Z" fill="black"/>
<path d="M8.31093 6.89062C8.31562 6.94219 8.33437 6.98438 8.35312 6.98438C8.37187 6.98438 8.39062 6.94219 8.39062 6.89062C8.39062 6.83906 8.37187 6.79688 8.34843 6.79688C8.32031 6.79688 8.30624 6.83906 8.31093 6.89062Z" fill="black"/>
<path d="M8.10938 7.03125C8.04844 7.06875 8.05313 7.07812 8.12344 7.07812C8.16563 7.07812 8.20313 7.05469 8.20313 7.03125C8.20313 6.975 8.19844 6.975 8.10938 7.03125Z" fill="black"/>
<path d="M7.57968 7.06406C7.56562 7.07813 7.58437 7.12031 7.62187 7.15781C7.65937 7.2 7.70624 7.21875 7.72031 7.20469C7.73437 7.19063 7.71562 7.14375 7.67343 7.10625C7.63593 7.06875 7.59374 7.05 7.57968 7.06406Z" fill="black"/>
<path d="M7.28906 7.5C7.30313 7.52344 7.32656 7.54688 7.34063 7.54688C7.35 7.54688 7.35938 7.52344 7.35938 7.5C7.35938 7.47187 7.33594 7.45312 7.30781 7.45312C7.28438 7.45312 7.275 7.47187 7.28906 7.5Z" fill="black"/>
<path d="M7.11094 7.57968C7.09688 7.60312 7.12969 7.65 7.18594 7.6875C7.28438 7.74375 7.28438 7.74375 7.21876 7.65937C7.18126 7.6125 7.14844 7.56562 7.14376 7.55625C7.13907 7.54687 7.12501 7.56093 7.11094 7.57968Z" fill="black"/>
<path d="M7.37812 7.64532C7.36406 7.67344 7.38281 7.725 7.425 7.7625C7.46718 7.8 7.48125 7.80469 7.45781 7.77657C7.43437 7.74844 7.425 7.69219 7.43906 7.65938C7.46718 7.57969 7.425 7.57032 7.37812 7.64532Z" fill="black"/>
<path d="M7.54688 9.65625C7.58438 9.67969 7.64063 9.70312 7.66407 9.70312C7.69219 9.70312 7.67813 9.67969 7.64063 9.65625C7.60313 9.63281 7.55157 9.60938 7.52344 9.60938C7.50001 9.60938 7.50938 9.63281 7.54688 9.65625Z" fill="black"/>
<path d="M6.7125 9.79219C6.66563 9.82032 6.66563 9.83907 6.72188 9.88594C6.76875 9.92344 6.79688 9.92813 6.82031 9.89063C6.83438 9.86719 6.825 9.84375 6.79688 9.84375C6.76875 9.84375 6.75938 9.82032 6.77344 9.79688C6.80625 9.74063 6.79219 9.74063 6.7125 9.79219Z" fill="black"/>
<path d="M7.56563 9.91407C7.61719 9.95157 7.66875 9.97032 7.68282 9.95625C7.71094 9.92813 7.59375 9.84375 7.52344 9.84375C7.5 9.84844 7.51875 9.87657 7.56563 9.91407Z" fill="black"/>
<path d="M6.87656 9.92344C6.825 9.97031 6.83906 10.125 6.89062 10.125C6.91406 10.125 6.93281 10.0734 6.92812 10.0078C6.91406 9.87656 6.91875 9.88125 6.87656 9.92344Z" fill="black"/>
<path d="M7.45781 10.0594C7.45781 10.1109 7.47188 10.125 7.48594 10.0875C7.5 10.0547 7.49531 10.0125 7.48125 9.99844C7.46719 9.97969 7.45313 10.0078 7.45781 10.0594Z" fill="black"/>
<path d="M7.61719 10.0781C7.63594 10.1062 7.66875 10.1156 7.69219 10.1016C7.75781 10.0594 7.74375 10.0312 7.65937 10.0312C7.62187 10.0312 7.60312 10.0547 7.61719 10.0781Z" fill="black"/>
<path d="M6.70312 10.4531C6.66093 10.4813 6.65625 10.5 6.68906 10.5C6.71718 10.5 6.75937 10.4766 6.77343 10.4531C6.81093 10.3969 6.79218 10.3969 6.70312 10.4531Z" fill="black"/>
<path d="M14.0156 11.6953C14.0156 11.7469 14.0484 11.8313 14.0906 11.8828C14.1562 11.9719 14.1609 11.9719 14.1375 11.8406C14.1094 11.6719 14.0156 11.5641 14.0156 11.6953Z" fill="black"/>
<path d="M14.5312 12.2297C14.5312 12.2578 14.55 12.2813 14.5734 12.2813C14.5969 12.2813 14.625 12.3234 14.6344 12.375C14.6484 12.4594 14.6531 12.4594 14.7047 12.3516C14.7328 12.2859 14.7375 12.2484 14.7141 12.2625C14.6859 12.2766 14.6391 12.2625 14.6016 12.2344C14.55 12.1922 14.5312 12.1922 14.5312 12.2297Z" fill="black"/>
<path d="M14.3438 12.3328C14.3438 12.3562 14.3672 12.3656 14.3906 12.3516C14.4188 12.3375 14.4375 12.3141 14.4375 12.3C14.4375 12.2906 14.4188 12.2812 14.3906 12.2812C14.3672 12.2812 14.3438 12.3047 14.3438 12.3328Z" fill="black"/>
<path d="M14.6016 12.5625C14.5875 12.5859 14.6062 12.6094 14.6484 12.6094C14.6906 12.6094 14.7094 12.5859 14.6953 12.5625C14.6812 12.5344 14.6578 12.5156 14.6484 12.5156C14.6391 12.5156 14.6156 12.5344 14.6016 12.5625Z" fill="black"/>
<path d="M15.075 12.9187C15.0516 12.9844 15.0563 12.9891 15.1172 12.9375C15.1969 12.8719 15.2063 12.8437 15.1453 12.8437C15.1219 12.8437 15.0891 12.8766 15.075 12.9187Z" fill="black"/>
<path d="M15.1734 13.2188C15.1406 13.35 15.1453 13.3688 15.2156 13.3219C15.2438 13.3031 15.2531 13.2469 15.2344 13.2C15.2063 13.1156 15.2016 13.1156 15.1734 13.2188Z" fill="black"/>
<path d="M15.3281 13.3078C15.2719 13.4203 15.2672 13.4672 15.3234 13.4344C15.3656 13.4063 15.4266 13.2188 15.3938 13.2188C15.3844 13.2188 15.3563 13.2609 15.3281 13.3078Z" fill="black"/>
<path d="M17.25 13.2984C17.25 13.3172 17.2734 13.3688 17.2969 13.4063C17.3344 13.4672 17.3438 13.4672 17.3438 13.3969C17.3438 13.3547 17.325 13.3031 17.2969 13.2891C17.2734 13.275 17.25 13.275 17.25 13.2984Z" fill="black"/>
<path d="M17.25 13.65C17.25 13.6922 17.2078 13.7437 17.1563 13.7578C17.1047 13.7766 17.0719 13.8094 17.0859 13.8328C17.1047 13.8562 17.1469 13.8422 17.1844 13.8047C17.2266 13.7672 17.2781 13.7437 17.3016 13.7578C17.3578 13.7953 17.3531 13.7297 17.2969 13.6406C17.2594 13.5797 17.25 13.5797 17.25 13.65Z" fill="black"/>
<path d="M16.8188 13.7156C16.8422 13.7578 16.8563 13.8375 16.8469 13.8938C16.8328 13.95 16.8375 13.9688 16.8563 13.9359C16.8703 13.9031 16.9125 13.8938 16.95 13.9078C16.9875 13.9219 17.0156 13.9078 17.0156 13.875C17.0156 13.8469 16.9969 13.8375 16.9688 13.8516C16.9453 13.8656 16.9125 13.8234 16.8938 13.7578C16.8797 13.6922 16.8469 13.6406 16.8188 13.6406C16.7953 13.6406 16.7953 13.6688 16.8188 13.7156Z" fill="black"/>
<path d="M16.5938 13.8703C16.5938 13.8984 16.6125 13.9313 16.6406 13.9453C16.6687 13.9594 16.6734 13.9406 16.6594 13.9031C16.6266 13.8188 16.5938 13.8047 16.5938 13.8703Z" fill="black"/>
<path d="M16.7812 14.0719C16.7859 14.1375 16.8938 14.2969 16.9359 14.2969C16.95 14.2969 16.9313 14.2312 16.8938 14.1562C16.8188 14.0062 16.7812 13.9781 16.7812 14.0719Z" fill="black"/>
<path d="M16.2 14.1375C16.1672 14.2219 16.2 14.2969 16.2703 14.2969C16.2937 14.2969 16.3125 14.2453 16.3125 14.1797C16.3125 14.0484 16.2422 14.0203 16.2 14.1375Z" fill="black"/>
</g>
<defs>
<clipPath id="clip0_893_6">
<rect width="24" height="24" fill="white"/>
</clipPath>
</defs>
</svg>
