<svg width="24" height="24" viewBox="0 0 24 24" fill="none" xmlns="http://www.w3.org/2000/svg">
<path fill-rule="evenodd" clip-rule="evenodd" d="M20.4683 12.5658C21.0359 9.98294 19.2513 6.61389 15.9368 4.73627C12.6224 2.85864 8.7565 3.02673 6.76061 4.80047C6.19303 7.38333 7.97763 10.7524 11.2921 12.63C14.6065 14.5076 18.4724 14.3396 20.4683 12.5658Z" fill="#CA5A33"/>
<path fill-rule="evenodd" clip-rule="evenodd" d="M21.4194 13.6148C21.6475 13.4123 21.8054 13.144 21.8701 12.8489C22.5413 9.79425 20.5825 5.7243 16.6623 3.50373C12.7422 1.28316 8.17023 1.6538 5.80951 3.75149C5.58141 3.954 5.42354 4.22228 5.35884 4.51734C4.68758 7.57202 6.6464 11.642 10.5666 13.8625C14.4868 16.0831 19.0587 15.7125 21.4194 13.6148ZM20.4663 12.5643C21.0337 9.98245 19.2496 6.61468 15.9362 4.73778C12.6227 2.86087 8.75794 3.02889 6.76264 4.80195C6.19522 7.38383 7.97929 10.7516 11.2928 12.6285C14.6062 14.5054 18.471 14.3374 20.4663 12.5643Z" fill="#4A4A4A"/>
<path fill-rule="evenodd" clip-rule="evenodd" d="M17.3902 9.22337L17.8488 8.4441C18.0498 8.10265 17.9348 7.66804 17.5925 7.47415C17.25 7.28018 16.809 7.39988 16.608 7.74133L16.1494 8.5206L15.01 7.87524L15.4686 7.09597C15.6696 6.75452 15.5547 6.31998 15.2123 6.12602C14.8699 5.93213 14.4288 6.05175 14.2278 6.3932L13.7692 7.17247L12.63 6.52719L13.0886 5.74792C13.2895 5.40647 13.1745 4.97186 12.8322 4.77797C12.4898 4.584 12.0487 4.7037 11.8478 5.04515L11.3892 5.82442L10.1076 5.09852C9.76525 4.90463 9.32404 5.02438 9.12316 5.3657C8.92222 5.70715 9.03719 6.14176 9.37952 6.33565L10.6611 7.06155L10.2025 7.84082C10.0016 8.18227 10.1164 8.61681 10.4589 8.81077C10.8012 9.00466 11.2423 8.88504 11.4433 8.54359L11.9019 7.76432L13.0412 8.4096L12.5826 9.18887C12.3816 9.53032 12.4966 9.96493 12.8389 10.1588C13.1814 10.3528 13.6224 10.2331 13.8233 9.89164L14.2819 9.11237L15.4214 9.75773L14.9627 10.537C14.7618 10.8784 14.8766 11.313 15.2191 11.507C15.5614 11.7008 16.0026 11.5812 16.2035 11.2398L16.6621 10.4605L17.9436 11.1863C18.2861 11.3803 18.7271 11.2606 18.928 10.9191C19.1289 10.5778 19.0141 10.1432 18.6717 9.94919L17.3902 9.22337Z" fill="#F5DDCF"/>
<path fill-rule="evenodd" clip-rule="evenodd" d="M16.289 18.0777L15.5314 12.8309C15.3362 11.4813 14.1609 10.4812 12.7764 10.4812H6.4742C5.0897 10.4812 3.91444 11.4813 3.71925 12.8309L2.96166 18.0777C2.80866 19.1324 3.63655 20.0715 4.71421 20.0715C5.18729 20.0715 5.63225 19.8866 5.96638 19.5576L7.53863 18.0158H11.712L13.2776 19.5576C13.6109 19.8866 14.0633 20.0715 14.5298 20.0715C15.6149 20.0715 16.442 19.1324 16.289 18.0777Z" fill="white"/>
<path d="M7.88599 12.194H6.49487V13.5639H5.10375V14.9339H6.49487V16.3038H7.88599V14.9339H9.27711V13.5639H7.88599V12.194Z" fill="#4A4A4A"/>
<path fill-rule="evenodd" clip-rule="evenodd" d="M6.4742 9.55186C4.62158 9.55186 3.04685 10.8917 2.7855 12.6998L2.02791 17.9466C1.79385 19.5617 3.06174 21 4.71421 21C5.44037 21 6.12353 20.7158 6.633 20.214L7.92818 18.9451H11.3216L12.6102 20.214C13.1205 20.7166 13.8127 21 14.5298 21C16.1889 21 17.4568 19.5625 17.2227 17.9466L16.4651 12.6998C16.2038 10.8917 14.629 9.55186 12.7764 9.55186H6.4742ZM6.4742 10.7247H12.7764C14.0369 10.7247 15.1087 11.6353 15.2857 12.8651L16.0441 18.1119C16.1757 19.02 15.4619 19.8272 14.5298 19.8272C14.127 19.8272 13.7391 19.6675 13.4521 19.3849L11.9891 17.9441C11.8774 17.8342 11.7261 17.7723 11.5681 17.7723H7.68171C7.52457 17.7723 7.37405 17.8342 7.26239 17.9433L5.79187 19.3849C5.50488 19.6667 5.12195 19.8272 4.71421 19.8272C3.78625 19.8272 3.07497 19.0192 3.20647 18.1119L3.96489 12.8651C4.14188 11.6353 5.21376 10.7247 6.4742 10.7247Z" fill="#4A4A4A"/>
<path fill-rule="evenodd" clip-rule="evenodd" d="M10.7688 12.7821C10.7048 12.9154 10.6686 13.0641 10.6686 13.2209C10.6686 13.7874 11.1372 14.2488 11.7124 14.2488C12.2869 14.2488 12.7554 13.7874 12.7554 13.2209C12.7554 13.0641 12.7193 12.9154 12.6553 12.7821C12.4879 12.4346 12.1277 12.1938 11.7124 12.1938C11.2964 12.1938 10.937 12.4346 10.7688 12.7821Z" fill="#C61414"/>
<path fill-rule="evenodd" clip-rule="evenodd" d="M13.1034 14.2488C12.5289 14.2488 12.0596 14.7102 12.0596 15.2759C12.0596 15.8424 12.5289 16.3038 13.1034 16.3038C13.6778 16.3038 14.1472 15.8424 14.1472 15.2759C14.1472 14.7102 13.6778 14.2488 13.1034 14.2488Z" fill="#C61414"/>
</svg>
