<svg width="24" height="24" viewBox="0 0 24 24" fill="none" xmlns="http://www.w3.org/2000/svg">
<path fill-rule="evenodd" clip-rule="evenodd" d="M20.5142 13.0057C21.05 10.5771 19.2941 7.39451 16.06 5.60732C12.8259 3.82013 9.06836 3.95588 7.13884 5.61433C6.603 8.04294 8.35892 11.2255 11.593 13.0127C14.8271 14.7999 18.5847 14.6641 20.5142 13.0057Z" fill="#CA5A33"/>
<path fill-rule="evenodd" clip-rule="evenodd" d="M21.4476 14.0007C21.6682 13.8113 21.8201 13.5595 21.8812 13.2819C22.5151 10.4086 20.5849 6.56361 16.7586 4.44918C12.9323 2.33475 8.48828 2.65723 6.20539 4.61933C5.98481 4.80875 5.83294 5.06053 5.77184 5.33807C5.13793 8.21142 7.06815 12.0564 10.8944 14.1708C14.7207 16.2852 19.1647 15.9628 21.4476 14.0007ZM20.5142 13.0057C21.05 10.5771 19.2941 7.39451 16.06 5.60732C12.8259 3.82013 9.06836 3.95588 7.13884 5.61433C6.603 8.04294 8.35892 11.2255 11.593 13.0127C14.8271 14.7999 18.5847 14.6641 20.5142 13.0057Z" fill="#4A4A4A"/>
<path fill-rule="evenodd" clip-rule="evenodd" d="M17.502 9.83675L17.942 9.10724C18.1349 8.78759 18.0202 8.37833 17.6864 8.19384C17.3524 8.00929 16.9249 8.11894 16.732 8.43858L16.292 9.1681L15.1809 8.55407L15.6209 7.82455C15.8137 7.50491 15.6992 7.09571 15.3652 6.91116C15.0314 6.72668 14.6037 6.83625 14.4109 7.1559L13.9709 7.88541L12.8598 7.27145L13.2999 6.54194C13.4927 6.2223 13.378 5.81303 13.0442 5.62854C12.7102 5.444 12.2827 5.55364 12.0899 5.87328L11.6498 6.6028L10.4 5.91214C10.0662 5.72766 9.63846 5.83735 9.44572 6.15688C9.25291 6.47652 9.36758 6.88579 9.70142 7.07028L10.9512 7.76093L10.5112 8.49045C10.3184 8.81009 10.4329 9.21929 10.7669 9.40384C11.1007 9.58832 11.5284 9.47875 11.7212 9.1591L12.1612 8.42959L13.2722 9.04355L12.8322 9.77306C12.6394 10.0927 12.7541 10.502 13.0879 10.6865C13.4219 10.871 13.8494 10.7614 14.0422 10.4417L14.4822 9.7122L15.5934 10.3262L15.1533 11.0557C14.9605 11.3754 15.0751 11.7846 15.409 11.9691C15.7429 12.1536 16.1705 12.044 16.3633 11.7244L16.8034 10.9949L18.0531 11.6855C18.387 11.87 18.8146 11.7604 19.0074 11.4407C19.2001 11.1212 19.0856 10.7119 18.7517 10.5273L17.502 9.83675Z" fill="#F5DDCF"/>
<path fill-rule="evenodd" clip-rule="evenodd" d="M8.97617 9.75151C8.60838 9.57832 8.3554 9.21626 8.3554 8.79748C8.3554 8.21057 8.85245 7.73494 9.46552 7.73494C10.0787 7.73494 10.5758 8.21057 10.5758 8.79748C10.5758 9.21626 10.3228 9.57832 9.95498 9.75151V11.6384H10.267C11.6456 11.6384 12.3369 11.6152 12.8807 11.8308C13.528 12.0874 14.0422 12.5796 14.3103 13.1991C14.3942 13.3931 14.4435 13.6065 14.4723 13.8664C15.1516 14.0751 15.6392 14.6452 15.6392 15.3159C15.6392 15.9741 15.1696 16.5355 14.5103 16.7533C14.5024 17.4169 14.4658 17.8433 14.3103 18.2026C14.0422 18.8221 13.528 19.3142 12.8807 19.5709C12.3369 19.7864 11.6456 19.7633 10.2669 19.7633H8.66416C7.28552 19.7633 6.59427 19.7864 6.05048 19.5709C5.4032 19.3142 4.88892 18.8221 4.62088 18.2026C4.46535 17.8434 4.42873 17.4169 4.4209 16.7533C3.76146 16.5355 3.29199 15.9741 3.29199 15.3159C3.29199 14.6452 3.77941 14.0751 4.45873 13.8664C4.48764 13.6065 4.53691 13.3931 4.62076 13.1993C4.88892 12.5796 5.4032 12.0874 6.05048 11.8308C6.59427 11.6152 7.28552 11.6384 8.66416 11.6384H8.97617V9.75151Z" fill="white"/>
<path fill-rule="evenodd" clip-rule="evenodd" d="M7.68418 10.3399V10.4085C6.66671 10.4262 6.05991 10.4885 5.55611 10.6883C4.59236 11.0704 3.82642 11.8034 3.42719 12.7259C3.38478 12.8238 3.34732 12.9251 3.31479 13.0308C2.51187 13.5347 2 14.3776 2 15.3159C2 16.193 2.44694 16.9865 3.16107 17.4979C3.2024 17.9817 3.28564 18.3487 3.42719 18.6758C3.82642 19.5983 4.59224 20.3312 5.55611 20.7134C6.20386 20.97 7.02209 21 8.66419 21H10.2669C11.9091 21 12.7273 20.9701 13.375 20.7135C14.339 20.3313 15.1048 19.5982 15.504 18.6758C15.6455 18.3487 15.7287 17.9815 15.7701 17.4978C16.4842 16.9865 16.9312 16.193 16.9312 15.3159C16.9312 14.3776 16.4192 13.5346 15.6162 13.0306C15.5838 12.9249 15.5463 12.8239 15.504 12.7259C15.1048 11.8034 14.339 11.0704 13.3751 10.6883C12.8713 10.4887 12.2645 10.4262 11.2469 10.4085V10.3399C11.6328 9.93208 11.8678 9.39107 11.8678 8.79748C11.8678 7.52762 10.7923 6.49829 9.46555 6.49829C8.13895 6.49829 7.06341 7.52762 7.06341 8.79748C7.06341 9.39095 7.29832 9.93208 7.68418 10.3399ZM8.97617 9.75151C8.60838 9.57832 8.3554 9.21626 8.3554 8.79748C8.3554 8.21057 8.85245 7.73494 9.46552 7.73494C10.0787 7.73494 10.5758 8.21057 10.5758 8.79748C10.5758 9.21626 10.3228 9.57832 9.95498 9.75151V11.6384H10.267C11.6456 11.6384 12.3369 11.6152 12.8807 11.8308C13.528 12.0874 14.0422 12.5796 14.3103 13.1991C14.3942 13.3931 14.4435 13.6065 14.4723 13.8664C15.1516 14.0751 15.6392 14.6452 15.6392 15.3159C15.6392 15.9741 15.1696 16.5355 14.5103 16.7533C14.5024 17.4169 14.4658 17.8433 14.3103 18.2026C14.0422 18.8221 13.528 19.3142 12.8807 19.5709C12.3369 19.7864 11.6456 19.7633 10.2669 19.7633H8.66416C7.28552 19.7633 6.59427 19.7864 6.05048 19.5709C5.4032 19.3142 4.88892 18.8221 4.62088 18.2026C4.46535 17.8434 4.42873 17.4169 4.4209 16.7533C3.76146 16.5355 3.29199 15.9741 3.29199 15.3159C3.29199 14.6452 3.77941 14.0751 4.45873 13.8664C4.48764 13.6065 4.53691 13.3931 4.62076 13.1993C4.88892 12.5796 5.4032 12.0874 6.05048 11.8308C6.59427 11.6152 7.28552 11.6384 8.66416 11.6384H8.97617V9.75151Z" fill="#4A4A4A"/>
<path fill-rule="evenodd" clip-rule="evenodd" d="M13.4452 14.3175C13.4452 13.4275 12.6902 12.7049 11.7598 12.7049H7.1713C6.24093 12.7049 5.48595 13.4275 5.48595 14.3175V17.0838C5.48595 17.9748 6.24093 18.6974 7.1713 18.6974H11.7598C12.6902 18.6974 13.4452 17.9748 13.4452 17.0838V14.3175Z" fill="#4A4A4A"/>
<path fill-rule="evenodd" clip-rule="evenodd" d="M11.3685 16.7278C10.7766 16.7278 10.2962 16.2681 10.2955 15.7008C10.2962 15.1335 10.7766 14.6737 11.3685 14.6737C11.962 14.6737 12.4423 15.1335 12.4416 15.7008C12.4423 16.2681 11.962 16.7278 11.3685 16.7278Z" fill="#4EF4C1"/>
<path fill-rule="evenodd" clip-rule="evenodd" d="M7.56254 16.7278C6.9691 16.7278 6.48874 16.2681 6.4895 15.7008C6.48874 15.1335 6.9691 14.6737 7.56254 14.6737C8.15446 14.6737 8.63483 15.1335 8.63558 15.7008C8.63483 16.2681 8.15446 16.7278 7.56254 16.7278Z" fill="#4EF4C1"/>
</svg>
