<svg width="146" height="40" viewBox="0 0 146 40" fill="none" xmlns="http://www.w3.org/2000/svg">
<path d="M0.295898 20C0.295898 31 0.323171 40 0.359535 40C0.41408 40 7.89953 38.6291 8.81772 38.4473L9.29408 38.3564V23.6727H14.9886V22.3309C14.9886 21.5964 15.0159 19.6818 15.0523 18.0673L15.1068 15.1473H9.2959V8.70727H12.6486C14.4941 8.70727 15.9995 8.68909 15.9995 8.66182C15.9995 8.56182 16.7359 0.814546 16.7814 0.425455L16.8341 0H0.295898V20ZM137.656 1.17091L130.329 1.76909V37.9055L130.63 37.9509C130.898 37.9964 145.085 39.0109 145.369 39.0018C145.452 39.0018 145.48 38.0418 145.48 34.5127V30.0218H139.236V23.4927H144.561V15.6927H139.05V10.5218L139.263 10.4855C139.372 10.4582 140.309 10.4218 141.347 10.3855C142.383 10.3582 143.734 10.3127 144.36 10.2764L145.48 10.2218V0.545455L145.232 0.554545C145.085 0.563636 141.678 0.834546 137.656 1.17091ZM90.6105 2.42364C90.7032 3.33091 91.7505 17 91.7323 17.0182C91.7232 17.0364 90.3723 13.7618 88.7286 9.74364C87.727 7.26732 86.7106 4.79697 85.6795 2.33273C85.625 2.23273 83.0904 2.69636 78.9305 3.56727L78.5359 3.64727V34.8309H86.7086L86.6632 34.1782C86.5723 32.9636 86.2304 22.9127 86.2668 22.5145C86.2959 22.16 86.5704 22.7782 89.1795 29C90.7577 32.7818 92.0995 35.9109 92.1359 35.9655C92.1904 36.02 93.4668 35.9382 95.6341 35.7564C97.5177 35.5927 99.0595 35.4473 99.0595 35.44C99.0686 35.4309 99.0232 28.8909 98.9595 20.9091C98.8941 12.9273 98.8395 5.38909 98.8395 4.14545L98.8304 1.90727H90.5559L90.6105 2.42364ZM25.9632 2.46C20.4723 2.82364 17.4504 6.53273 16.4941 14.06C16.3014 15.62 16.2195 20.9182 16.3577 22.7691C16.8159 28.7727 18.4595 32.6727 21.3795 34.66C22.9504 35.72 25.3104 36.2927 27.6432 36.1564C30.2977 36.0109 32.105 35.2655 33.7304 33.6618C35.0632 32.3473 35.7886 31.1127 36.4868 29.0073C37.4595 26.0691 37.8995 21.68 37.6795 17.1091C37.4323 11.9927 36.6523 8.80909 35.0432 6.36909C33.5104 4.04727 31.0868 2.66 28.2577 2.48727C27.8086 2.46 27.3304 2.43273 27.2032 2.41455C26.7894 2.41384 26.3758 2.429 25.9632 2.46ZM27.2577 9.58909C27.9268 10.3055 28.2123 13.1636 28.2123 19.2764C28.2123 26.8036 27.7341 29.9327 26.6886 29.2618C26.2377 28.9636 25.8977 27.5036 25.7323 25.08C25.6141 23.3127 25.6141 15.2127 25.7323 13.5164C25.9068 11.1218 26.2195 9.79818 26.6886 9.48C26.945 9.29818 26.9904 9.30727 27.2577 9.58909ZM38.8632 18.9491V35.4673H47.285L47.3395 34.3145C47.3759 33.6709 47.4486 31.5836 47.505 29.66C47.5595 27.7382 47.6323 26.0509 47.6704 25.9145C47.7159 25.7255 48.1104 26.9509 49.325 31.0855C50.205 34.0691 50.9486 36.5455 50.985 36.5818C51.0577 36.6636 59.6723 35.9927 59.765 35.9018C59.7923 35.8655 58.8377 32.9 57.6432 29.2891L55.4759 22.74L55.9359 22.3418C57.4595 21.0273 58.7177 18.4873 59.0759 15.9745C59.2323 14.8764 59.1304 12.1564 58.8923 11.1491C57.9741 7.20364 55.5395 4.13818 52.4377 2.99455C51.0868 2.50364 51.1977 2.51455 44.8141 2.47818L38.8632 2.44182V18.9509V18.9491ZM48.3323 10.26C48.9832 10.5782 49.5159 11.3945 49.8014 12.5182C49.9941 13.2709 49.965 15.6564 49.7559 16.4182C49.3595 17.8527 48.6632 18.6873 47.6159 19.0036L47.405 19.0582V9.97818L47.7068 10.0418C47.8632 10.0691 48.1486 10.1691 48.3323 10.26ZM59.3432 6.76V10.9782H64.0268V35.2855H72.8414V12.4291H77.6177V3.99273L77.4159 3.95636C77.2232 3.91273 59.7104 2.53273 59.4632 2.54182C59.3704 2.54182 59.3432 3.45091 59.3432 6.76ZM100.754 19.9091V36.3709H109.845V3.44727H100.754V19.9091ZM120.225 4.59091C115.249 4.85455 111.107 5.07273 111.025 5.07273C110.867 5.08182 110.858 5.34546 110.858 9.34546V13.6073H115.541V37.4618H124.45V12.6091H129.407V8.34727C129.407 5.99818 129.38 4.09273 129.341 4.09273C129.296 4.10182 125.203 4.32 120.225 4.59091Z" fill="white"/>
</svg>
