<svg width="24" height="24" viewBox="0 0 24 24" fill="none" xmlns="http://www.w3.org/2000/svg">
<path fill-rule="evenodd" clip-rule="evenodd" d="M12 20C16.4183 20 20 16.4183 20 12C20 7.58172 16.4183 4 12 4C7.58172 4 4 7.58172 4 12C4 16.4183 7.58172 20 12 20ZM12 22C17.5228 22 22 17.5228 22 12C22 6.47715 17.5228 2 12 2C6.47715 2 2 6.47715 2 12C2 17.5228 6.47715 22 12 22Z" fill="url(#paint0_linear_1_24)"/>
<path d="M11.9914 7.758C13.3027 7.75805 14.3764 8.12031 15.1848 8.86835C15.9977 9.62077 16.3927 10.653 16.3928 11.9318C16.3928 13.211 15.9976 14.2893 15.1984 15.1486C14.3998 16.016 13.3254 16.4416 12.0031 16.4416C10.6916 16.4416 9.61814 16.0794 8.80975 15.3312C7.99675 14.5788 7.60077 13.5467 7.60077 12.2678C7.60082 10.9889 7.992 9.91046 8.78339 9.05096L8.78436 9.04999C9.5907 8.1836 10.669 7.758 11.9914 7.758ZM4.89178 8.0451L4.98846 8.54901L5.03534 8.79413L4.79022 8.841C4.29075 8.93768 3.9862 9.01478 3.85175 9.06854L3.841 9.07245V9.07147C3.81245 9.08147 3.80181 9.0936 3.79413 9.10663C3.78357 9.12457 3.76874 9.16512 3.76874 9.24432V14.9943H5.52362C5.54432 14.9683 5.56902 14.9334 5.59784 14.8889C5.65705 14.7973 5.72539 14.6748 5.80292 14.5197L5.80389 14.5178C5.97002 14.1934 6.07385 13.9534 6.12323 13.7912L6.18866 13.5773L6.40839 13.6183L6.98456 13.7267L7.19745 13.7658L7.18866 13.9816C7.18442 14.0877 7.17287 14.2306 7.15448 14.4084L7.07831 15.048C7.0146 15.5338 6.95638 15.8801 6.90253 16.0685L6.85077 16.2502H2.65448C2.49247 16.2502 2.02169 16.2842 1.22479 16.3566L1.00409 16.3771L0.958191 16.1594L0.861511 15.7033L0.81073 15.4592L1.05487 15.4074C1.34996 15.3453 1.54004 15.283 1.64471 15.2287C1.68782 15.2017 1.72089 15.1605 1.72089 15.0519V9.14764C1.72085 9.08042 1.7108 9.04269 1.70331 9.0246C1.7019 9.02122 1.70132 9.01848 1.70038 9.01678C1.57255 8.95087 1.39635 8.88606 1.16522 8.82635L1.0578 8.80487L0.804871 8.75507L0.863464 8.50409L0.970886 8.03534L1.02167 7.81464L1.24725 7.84393C1.78802 7.91446 2.34103 7.95037 2.90643 7.95038C3.48006 7.95038 4.04983 7.91462 4.61542 7.84393L4.84882 7.81464L4.89178 8.0451ZM21.3508 8.0451L21.4465 8.54901L21.4933 8.79413L21.2482 8.841C20.7487 8.93769 20.4442 9.01478 20.3098 9.06854L20.3 9.07245L20.217 8.83612L20.299 9.07147C20.2706 9.08148 20.2598 9.09359 20.2521 9.10663C20.2416 9.12458 20.2267 9.16515 20.2267 9.24432V14.9943H21.9816C22.0024 14.9683 22.027 14.9335 22.0558 14.8889C22.1151 14.7973 22.1834 14.6748 22.2609 14.5197L22.2619 14.5178H22.2629C22.4289 14.1935 22.5329 13.9534 22.5822 13.7912L22.6467 13.5773L22.8674 13.6183L23.4426 13.7267L23.6555 13.7658L23.6467 13.9816C23.6382 14.1939 23.6013 14.5523 23.5373 15.048H23.5363C23.4726 15.5336 23.4154 15.88 23.3615 16.0685L23.3098 16.2502H19.1125C18.9502 16.2502 18.4801 16.2842 17.6838 16.3566L17.4621 16.3771L17.4162 16.1594L17.3205 15.7033L17.2687 15.4592L17.5139 15.4074C17.8085 15.3454 17.9981 15.2829 18.1027 15.2287C18.1459 15.2018 18.1789 15.1606 18.1789 15.0519V9.14764C18.1789 9.08061 18.1698 9.04275 18.1623 9.0246C18.1564 9.01026 18.1541 9.01371 18.1594 9.01678C18.0316 8.95083 17.8553 8.8861 17.6242 8.82635L17.5158 8.80487L17.2639 8.75507L17.3215 8.50409L17.4289 8.03534L17.4807 7.81464L17.7053 7.84393C18.246 7.91447 18.799 7.95036 19.3644 7.95038C19.938 7.95038 20.5079 7.9146 21.0734 7.84393L21.3068 7.81464L21.3508 8.0451ZM11.9191 8.95428C11.1819 8.95428 10.666 9.21774 10.3273 9.7287C9.97907 10.2584 9.79321 10.9895 9.79315 11.9435C9.79315 12.8811 10.0039 13.6694 10.4142 14.3185C10.8095 14.9437 11.3551 15.2463 12.0754 15.2463C12.8144 15.2462 13.3246 14.9843 13.6545 14.4826V14.4816C14.0109 13.9433 14.2014 13.2124 14.2014 12.2678C14.2013 11.3221 13.9902 10.5307 13.5803 9.88202C13.185 9.25682 12.6394 8.95429 11.9191 8.95428Z" fill="#C79B3B" stroke="#8C5F00" stroke-width="0.5"/>
<defs>
<linearGradient id="paint0_linear_1_24" x1="12" y1="22" x2="12" y2="2" gradientUnits="userSpaceOnUse">
<stop stop-color="#08567C"/>
<stop offset="1" stop-color="#08DAE9"/>
</linearGradient>
</defs>
</svg>
