<?xml version="1.0" encoding="UTF-8" standalone="no"?>
<!-- Created with Inkscape (http://www.inkscape.org/) -->

<svg
   width="210mm"
   height="297mm"
   viewBox="0 0 210 297"
   version="1.1"
   id="svg1"
   xmlns="http://www.w3.org/2000/svg"
   xmlns:svg="http://www.w3.org/2000/svg">
  <defs
     id="defs1" />
  <g
     id="layer1">
    <path
       style="fill:#b9b9b9;fill-opacity:1"
       d="m 97.067584,198.2171 c 0.17463,-0.0183 0.46038,-0.0183 0.635,0 0.17463,0.0183 0.0318,0.0332 -0.3175,0.0332 -0.34925,0 -0.49212,-0.0149 -0.3175,-0.0332 z M 64.386445,184.85911 c 9.39e-4,-0.18626 0.01828,-0.25249 0.03853,-0.14718 0.02025,0.10532 0.01948,0.25772 -0.0017,0.33867 -0.02119,0.081 -0.03776,-0.005 -0.03682,-0.19149 z m -0.08467,-4.99533 c 9.4e-4,-0.18627 0.01828,-0.2525 0.03853,-0.14718 0.02025,0.10532 0.01948,0.25772 -0.0017,0.33867 -0.02119,0.081 -0.03776,-0.005 -0.03682,-0.19149 z m 34.799419,-6.95901 c 0.0824,-0.0215 0.19668,-0.02 0.254,0.003 0.0573,0.0232 -0.0101,0.0408 -0.14977,0.039 -0.1397,-0.002 -0.1866,-0.0207 -0.10423,-0.0422 z m 3.725336,-0.0847 c 0.0824,-0.0215 0.19668,-0.0201 0.254,0.003 0.0573,0.0232 -0.0101,0.0408 -0.14978,0.039 -0.1397,-0.002 -0.1866,-0.0207 -0.10422,-0.0422 z m -14.262649,-0.0838 c 0.06112,-0.0245 0.134144,-0.0214 0.162278,0.007 0.02813,0.0281 -0.02187,0.0481 -0.111125,0.0445 -0.09863,-0.004 -0.118694,-0.0241 -0.05115,-0.0512 z m 18.028699,0.002 c 0.0582,-0.0235 0.15346,-0.0235 0.21167,0 0.0582,0.0235 0.0106,0.0427 -0.10583,0.0427 -0.11642,0 -0.16405,-0.0192 -0.10584,-0.0427 z m -19.722032,-0.0864 c 0.06112,-0.0245 0.134143,-0.0215 0.162277,0.007 0.02813,0.0281 -0.02187,0.0481 -0.111125,0.0445 -0.09863,-0.004 -0.118694,-0.0241 -0.05115,-0.0512 z m -1.693334,-0.0847 c 0.06112,-0.0244 0.134144,-0.0214 0.162278,0.007 0.02813,0.0281 -0.02187,0.0481 -0.111125,0.0445 -0.09863,-0.004 -0.118694,-0.0241 -0.05115,-0.0512 z m -1.693333,-0.0847 c 0.06112,-0.0245 0.134144,-0.0214 0.162278,0.007 0.02813,0.0281 -0.02187,0.0482 -0.111125,0.0445 -0.09863,-0.004 -0.118694,-0.0241 -0.05115,-0.0512 z m -1.693333,-0.0847 c 0.06112,-0.0245 0.134144,-0.0215 0.162278,0.007 0.02813,0.0281 -0.02187,0.0481 -0.111125,0.0445 -0.09863,-0.004 -0.118695,-0.0241 -0.05115,-0.0511 z m -36.242624,-4.91258 c 0.104775,-0.0202 0.276225,-0.0202 0.381,0 0.104775,0.0202 0.01905,0.0367 -0.1905,0.0367 -0.20955,0 -0.295275,-0.0165 -0.1905,-0.0367 z m 66.863146,-9.71925 c 1e-5,-3.11997 0.0106,-4.38401 0.0235,-2.80899 0.0129,1.57502 0.0129,4.12772 -10e-6,5.67266 -0.0129,1.54495 -0.0235,0.2563 -0.0235,-2.86367 z m -0.85533,3.85233 c 0,-0.48895 0.014,-0.68897 0.0311,-0.4445 0.0171,0.24448 0.0171,0.64453 0,0.889 -0.0171,0.24448 -0.0311,0.0444 -0.0311,-0.4445 z m -3.47133,-0.0847 c 0,-0.48895 0.014,-0.68898 0.0311,-0.4445 0.0171,0.24447 0.0171,0.64452 0,0.889 -0.0171,0.24447 -0.0311,0.0445 -0.0311,-0.4445 z m -17.049321,-4.064 c 0,-2.43699 0.01844,-4.41245 0.04098,-4.38991 0.05637,0.0564 0.06056,8.71926 0.0042,8.77558 -0.02487,0.0249 -0.04522,-1.94868 -0.04522,-4.38567 z m 15.526891,2.159 c 1.5e-4,-0.60537 0.0136,-0.84191 0.03,-0.52565 0.0163,0.31626 0.0162,0.81156 -2.7e-4,1.10067 -0.0165,0.2891 -0.0299,0.0303 -0.0297,-0.57502 z m -6.933226,-1.05834 c 0.0843,-0.0931 0.17229,-0.16933 0.19558,-0.16933 0.0233,0 -0.0266,0.0762 -0.11091,0.16933 -0.0843,0.0931 -0.1723,0.16934 -0.19558,0.16934 -0.0233,0 0.0266,-0.0762 0.11091,-0.16934 z m 0.811016,-2.16605 c 0.004,-0.0986 0.0241,-0.11869 0.0511,-0.0511 0.0245,0.0611 0.0215,0.13414 -0.007,0.16227 -0.0281,0.0281 -0.0481,-0.0219 -0.0445,-0.11112 z m 6.57615,-1.70594 c 0.1979,-0.0178 0.52175,-0.0178 0.71966,0 0.19791,0.0178 0.036,0.0324 -0.35983,0.0324 -0.39582,0 -0.55774,-0.0146 -0.35983,-0.0324 z m 2.413,-1.69198 c 0.12805,-0.0194 0.3376,-0.0194 0.46566,0 0.12806,0.0194 0.0233,0.0353 -0.23283,0.0353 -0.25612,0 -0.36089,-0.0159 -0.23283,-0.0353 z"
       id="path6" />
    <path
       style="fill:#a3a3a3;fill-opacity:1"
       d="m 42.251219,199.32161 c 0.06112,-0.0245 0.134143,-0.0214 0.162277,0.007 0.02813,0.0281 -0.02187,0.0481 -0.111125,0.0445 -0.09863,-0.004 -0.118694,-0.0241 -0.05115,-0.0512 z m 4.741333,-0.254 c 0.06112,-0.0245 0.134144,-0.0214 0.162278,0.007 0.02813,0.0281 -0.02187,0.0482 -0.111125,0.0445 -0.09863,-0.004 -0.118695,-0.0241 -0.05115,-0.0512 z m 1.582208,-0.0268 c -0.02878,-0.0466 -0.01198,-0.0847 0.03734,-0.0847 0.04931,0 0.08966,0.0381 0.08966,0.0847 0,0.0466 -0.0168,0.0847 -0.03734,0.0847 -0.02054,0 -0.06088,-0.0381 -0.08966,-0.0847 z m 47.180494,-0.82399 c 0.19791,-0.0178 0.52176,-0.0178 0.71967,0 0.1979,0.0178 0.036,0.0324 -0.35984,0.0324 -0.39581,0 -0.55774,-0.0146 -0.35983,-0.0324 z M 64.301778,180.45645 c 9.4e-4,-0.18627 0.01828,-0.2525 0.03853,-0.14718 0.02025,0.10532 0.01948,0.25772 -0.0017,0.33866 -0.02119,0.081 -0.03776,-0.005 -0.03682,-0.19148 z m -0.09265,-4.86834 c 0,-0.11641 0.01922,-0.16404 0.0427,-0.10583 0.02349,0.0582 0.02349,0.15346 0,0.21167 -0.02349,0.0582 -0.0427,0.0106 -0.0427,-0.10584 z m 35.315406,-2.68334 c 0.0824,-0.0215 0.19668,-0.02 0.254,0.003 0.0573,0.0232 -0.0101,0.0408 -0.14978,0.039 -0.1397,-0.002 -0.1866,-0.0207 -0.10422,-0.0422 z m 3.725326,-0.0847 c 0.0824,-0.0215 0.19668,-0.0201 0.254,0.003 0.0573,0.0232 -0.0101,0.0408 -0.14978,0.039 -0.1397,-0.002 -0.1866,-0.0207 -0.10422,-0.0422 z m 3.72372,-0.0844 c 0.0815,-0.0213 0.21484,-0.0213 0.29634,0 0.0815,0.0213 0.0148,0.0387 -0.14817,0.0387 -0.16298,0 -0.22966,-0.0174 -0.14817,-0.0387 z m -60.74832,-5.25072 c 0.104775,-0.0202 0.276225,-0.0202 0.381,0 0.104775,0.0202 0.01905,0.0367 -0.1905,0.0367 -0.20955,0 -0.295275,-0.0165 -0.1905,-0.0367 z m 62.20775,-9.74041 0.001,-4.72017 0.40272,-0.008 0.40271,-0.008 -0.38084,0.0336 -0.38084,0.0336 -0.023,4.6944 -0.0229,4.6944 z m -12.498816,3.38666 c -0.0169,-0.12806 -0.0108,-1.26153 0.0136,-2.51883 l 0.0444,-2.286 0.0191,2.51883 c 0.0177,2.34159 -7e-5,2.86913 -0.0772,2.286 z m 14.189646,-0.46567 c -0.0223,-0.0582 -0.0302,-1.80128 -0.0176,-3.8735 l 0.023,-3.76766 0.0203,3.82774 0.0203,3.82774 0.6985,0.0285 0.6985,0.0285 -0.70116,0.0172 c -0.49616,0.0122 -0.71302,-0.0137 -0.74175,-0.0886 z m -2.03943,-2.94216 c 0,-0.48895 0.014,-0.68898 0.0311,-0.4445 0.0171,0.24447 0.0171,0.64452 0,0.889 -0.0171,0.24447 -0.0311,0.0444 -0.0311,-0.4445 z m -1.43803,-1.94734 c 0,-0.58208 0.0135,-0.8202 0.0301,-0.52916 0.0165,0.29104 0.0165,0.76729 0,1.05833 -0.0165,0.29104 -0.0301,0.0529 -0.0301,-0.52917 z m -13.108176,0.27882 c -0.046,-0.12066 -0.0362,-0.13039 0.0474,-0.0474 0.0579,0.0574 0.0839,0.12575 0.0578,0.15182 -0.0261,0.0261 -0.0734,-0.0209 -0.10521,-0.10443 z m -7.812424,-3.05101 c 0.316262,-0.0163 0.811562,-0.0162 1.100667,2.7e-4 0.289105,0.0165 0.03034,0.0298 -0.575021,0.0297 -0.605367,-1.5e-4 -0.841907,-0.0136 -0.525646,-0.03 z m 3.725333,0 c 0.316262,-0.0163 0.811562,-0.0162 1.100667,2.7e-4 0.289105,0.0165 0.03035,0.0298 -0.575021,0.0297 -0.605367,-1.5e-4 -0.841907,-0.0136 -0.525646,-0.03 z m 3.552481,8e-5 c 0.31432,-0.0163 0.82867,-0.0163 1.14299,0 0.31433,0.0163 0.0572,0.0296 -0.57149,0.0296 -0.628652,0 -0.885827,-0.0133 -0.5715,-0.0296 z m 3.51366,9e-5 c 0.29104,-0.0165 0.76729,-0.0165 1.05833,0 0.29104,0.0165 0.0529,0.0301 -0.52916,0.0301 -0.58209,0 -0.82021,-0.0135 -0.52917,-0.0301 z m 3.894666,2.7e-4 c 0.24447,-0.0171 0.64452,-0.0171 0.889,0 0.24447,0.0171 0.0444,0.0311 -0.4445,0.0311 -0.48895,0 -0.68898,-0.014 -0.4445,-0.0311 z m 4.064,-8.9e-4 c 0.66357,-0.0143 1.74942,-0.0143 2.413,0 0.66357,0.0143 0.12065,0.026 -1.2065,0.026 -1.32715,0 -1.87008,-0.0117 -1.2065,-0.026 z"
       id="path5" />
    <path
       style="fill:#8c8c8c;fill-opacity:1"
       d="m 94.400584,198.21679 c 0.19791,-0.0178 0.52176,-0.0178 0.71967,0 0.19791,0.0178 0.036,0.0324 -0.35983,0.0324 -0.39582,0 -0.55775,-0.0146 -0.35984,-0.0324 z M 64.300069,181.00678 c 0,-0.16298 0.01742,-0.22966 0.03872,-0.14817 0.0213,0.0815 0.0213,0.21485 0,0.29634 -0.0213,0.0815 -0.03872,0.0148 -0.03872,-0.14817 z m -0.08467,-4.99533 c 0,-0.16299 0.01742,-0.22966 0.03872,-0.14817 0.0213,0.0815 0.0213,0.21484 0,0.29633 -0.0213,0.0815 -0.03872,0.0148 -0.03872,-0.14816 z m 35.732465,-3.10668 c 0.0824,-0.0215 0.196676,-0.02 0.253996,0.003 0.0573,0.0232 -0.0101,0.0408 -0.14978,0.039 -0.139696,-0.002 -0.186596,-0.0207 -0.104216,-0.0422 z m 3.723716,-0.0844 c 0.0815,-0.0213 0.21484,-0.0213 0.29634,0 0.0815,0.0213 0.0148,0.0387 -0.14817,0.0387 -0.16298,0 -0.22966,-0.0174 -0.14817,-0.0387 z m 3.81,-0.0847 c 0.0815,-0.0213 0.21484,-0.0213 0.29634,0 0.0815,0.0213 0.0148,0.0387 -0.14817,0.0387 -0.16298,0 -0.22966,-0.0174 -0.14817,-0.0387 z m -60.57899,-5.25072 c 0.104774,-0.0202 0.276224,-0.0202 0.380999,0 0.104775,0.0202 0.01905,0.0367 -0.1905,0.0367 -0.209549,0 -0.295274,-0.0165 -0.190499,-0.0367 z m 37.48382,-9.71925 c 9e-6,-3.11997 0.01057,-4.38401 0.02348,-2.80899 0.01291,1.57502 0.0129,4.12772 -1.6e-5,5.67266 -0.01291,1.54495 -0.02347,0.2563 -0.02346,-2.86367 z m 2.500012,2.667 c 0,-1.13312 0.02153,-2.03869 0.04784,-2.01238 0.05728,0.0573 0.04963,3.97512 -0.0079,4.03263 -0.02199,0.022 -0.03998,-0.88713 -0.03998,-2.02025 z m 2.352648,0.18307 c -0.01337,-1.01691 -2.48e-4,-1.95989 0.02917,-2.0955 0.02942,-0.13561 0.05799,0.69641 0.0635,1.84893 0.0055,1.15253 -0.0076,2.0955 -0.02917,2.0955 -0.02155,0 -0.05013,-0.83202 -0.0635,-1.84893 z m 15.57712,-2.1939 c -0.0125,-2.22356 7.9e-4,-4.17619 0.0296,-4.33917 0.0288,-0.16298 0.0574,1.65629 0.0635,4.04283 0.006,2.38655 -0.007,4.33917 -0.0296,4.33917 -0.0224,0 -0.051,-1.81927 -0.0635,-4.04283 z m -11.473936,1.01886 c 0.12806,-0.0194 0.33761,-0.0194 0.46567,0 0.12805,0.0194 0.0233,0.0353 -0.23284,0.0353 -0.25611,0 -0.36089,-0.0159 -0.23283,-0.0353 z m 13.633886,-0.84837 c 0.22259,-0.0175 0.56549,-0.0173 0.762,4.7e-4 0.1965,0.0178 0.0144,0.0321 -0.40472,0.0318 -0.4191,-2.6e-4 -0.57988,-0.0148 -0.35728,-0.0323 z m -6.50421,-1.80596 c -0.0307,-0.0497 -0.0376,-0.10846 -0.0155,-0.13065 0.0222,-0.0222 0.0629,0.0184 0.0905,0.0903 0.0572,0.14919 0.008,0.17543 -0.075,0.0403 z m -4.490466,-2.11103 c 0,-0.95462 0.0124,-1.34514 0.0274,-0.86784 0.0151,0.47731 0.0151,1.25836 0,1.73567 -0.0151,0.47731 -0.0274,0.0868 -0.0274,-0.86783 z m -2.45219,1.51837 c -0.0307,-0.0497 -0.0376,-0.10846 -0.0155,-0.13066 0.0222,-0.0222 0.0629,0.0184 0.0905,0.0903 0.0572,0.14919 0.008,0.17544 -0.075,0.0404 z m 4.77635,-1.24321 c -0.10532,-0.13428 -0.10232,-0.13728 0.032,-0.032 0.0815,0.0639 0.14817,0.13058 0.14817,0.14817 0,0.0697 -0.0695,0.0248 -0.18013,-0.11621 z m 9.779126,-1.0795 c 1.9e-4,-0.51223 0.0141,-0.71086 0.031,-0.4414 0.0169,0.26945 0.0167,0.68855 -3.4e-4,0.93133 -0.017,0.24277 -0.0308,0.0223 -0.0307,-0.48993 z"
       id="path4" />
    <path
       style="fill:#767676;fill-opacity:1"
       d="m 93.132834,198.21668 c 0.19913,-0.0179 0.50393,-0.0176 0.67732,5.6e-4 0.1734,0.0182 0.0105,0.0328 -0.36206,0.0325 -0.37254,-3.1e-4 -0.514403,-0.0152 -0.31526,-0.0331 z m -27.434241,-4.14856 c 0.197908,-0.0178 0.521758,-0.0178 0.719667,0 0.197908,0.0178 0.03598,0.0324 -0.359834,0.0324 -0.395816,0 -0.557741,-0.0146 -0.359833,-0.0324 z m 62.729867,-1.18684 c -0.0357,-0.0576 3.79738,-0.0567 8.49596,0.002 1.00118,0.0125 -0.492,0.0315 -3.31817,0.0422 -2.82618,0.0107 -5.15619,-0.009 -5.17779,-0.0441 z m -20.48121,-6.94232 c 0.47731,-0.0151 1.25836,-0.0151 1.73567,0 0.4773,0.0151 0.0868,0.0274 -0.86784,0.0274 -0.95461,0 -1.34514,-0.0123 -0.86783,-0.0274 z m -43.645472,-4.38185 c 9.4e-4,-0.18626 0.01828,-0.25249 0.03853,-0.14718 0.02025,0.10532 0.01948,0.25772 -0.0017,0.33867 -0.02119,0.081 -0.03776,-0.005 -0.03682,-0.19149 z m -0.08467,-4.99533 c 9.4e-4,-0.18627 0.01828,-0.2525 0.03853,-0.14718 0.02025,0.10532 0.01948,0.25772 -0.0017,0.33867 -0.02119,0.0809 -0.03776,-0.005 -0.03682,-0.19149 z m 36.154082,-3.65701 c 0.0824,-0.0215 0.19668,-0.02 0.254,0.003 0.0573,0.0232 -0.0101,0.0408 -0.14977,0.039 -0.1397,-0.002 -0.1866,-0.0207 -0.10423,-0.0422 z m 3.76606,-0.0821 c 0.0582,-0.0235 0.15346,-0.0235 0.21167,0 0.0582,0.0235 0.0106,0.0427 -0.10584,0.0427 -0.11641,0 -0.16404,-0.0192 -0.10583,-0.0427 z m -56.557326,-5.33768 c 0.104775,-0.0202 0.276225,-0.0202 0.381,0 0.104775,0.0202 0.01905,0.0367 -0.1905,0.0367 -0.20955,0 -0.295275,-0.0165 -0.1905,-0.0367 z m 36.851165,-9.71925 v -5.63033 h 13.969995 13.969996 v 5.63033 5.63033 H 98.401084 84.431089 Z m 2.548919,2.8575 0.0089,-1.8415 0.283962,1.651 c 0.391665,2.2772 0.292188,2.04495 0.863027,2.01498 l 0.482185,-0.0253 0.310203,-1.82034 0.310203,-1.82033 0.0093,1.8415 0.0093,1.8415 h 1.726608 c 1.400511,0 1.735185,-0.0223 1.77202,-0.11834 0.02498,-0.0651 0.07208,-0.38894 0.104665,-0.71967 l 0.05925,-0.60132 h 0.615003 c 0.70635,0 0.67962,-0.0293 0.76508,0.83801 l 0.0593,0.60132 h 1.6824 1.68239 v -1.52666 c 0,-1.29788 0.0196,-1.53417 0.13065,-1.57679 0.0719,-0.0276 0.14744,-0.0334 0.16795,-0.0128 0.0205,0.0205 0.21549,0.73007 0.43328,1.57679 l 0.39598,1.5395 h 0.8754 c 0.644406,0 0.875146,-0.0279 0.874416,-0.10583 -5.5e-4,-0.0582 -0.22915,-0.86459 -0.508,-1.79195 -0.278856,-0.92736 -0.507006,-1.72017 -0.507006,-1.7618 0,-0.0416 0.11552,-0.21944 0.25672,-0.39514 0.290786,-0.36185 0.589936,-1.084 0.589936,-1.42412 0,-0.63827 0.18143,0.1592 0.50488,2.21917 0.19742,1.2573 0.39746,2.50622 0.44453,2.77537 l 0.0856,0.48936 1.02761,-0.0237 1.02762,-0.0237 0.63506,-4.01812 0.63506,-4.01811 0.022,4.03928 0.022,4.03928 h 1.65018 1.65018 v -0.889 -0.889 h -0.762 -0.762 v -1.0127 -1.01271 l 0.74083,-0.0245 0.74084,-0.0245 0.024,-0.91017 0.024,-0.91017 h -0.72253 -0.72253 v -1.016 -1.016 h 0.71966 0.71967 v -0.889 -0.889 h -2.44504 -2.44504 l -0.0877,0.61384 c -0.0482,0.33761 -0.21338,1.51696 -0.36694,2.62079 -0.15356,1.10383 -0.2934,1.99277 -0.31075,1.97542 -0.0306,-0.0306 -0.69084,-4.89161 -0.69328,-5.10421 -8.9e-4,-0.0782 -0.24638,-0.10584 -0.9416,-0.10584 -0.75234,0 -0.931666,0.0228 -0.896746,0.11373 0.024,0.0626 0.0711,0.33878 0.104566,0.61383 l 0.0609,0.50011 -0.346316,-0.39037 c -0.56866,-0.64098 -0.99765,-0.78007 -2.53202,-0.82096 l -1.29032,-0.0344 -0.022,3.9073 -0.022,3.90729 -0.58762,-3.89827 -0.58761,-3.89827 h -1.15712 -1.157117 l -0.133102,0.86784 c -0.07321,0.47731 -0.354878,2.35373 -0.625936,4.16983 l -0.492834,3.302 -0.02196,-4.16983 -0.02196,-4.16984 h -1.129876 -1.129793 l -0.276875,1.75684 c -0.152281,0.96626 -0.319975,2.00283 -0.372654,2.30349 l -0.09578,0.54665 -0.369572,-2.30349 -0.369572,-2.30349 h -1.090516 -1.090516 v 4.74134 4.74133 h 0.889 0.889 z m 6.195946,-1.43933 c 0.025,-0.12806 0.11244,-0.85305 0.19442,-1.61109 0.082,-0.75804 0.17505,-1.34859 0.20681,-1.31233 0.0318,0.0362 0.12274,0.61837 0.20219,1.29358 0.0794,0.67522 0.1661,1.37055 0.19257,1.54517 l 0.0481,0.3175 h -0.44474 c -0.43972,0 -0.44422,-0.003 -0.39937,-0.23283 z m 4.5478,-2.9845 c 0,-1.36375 0.009,-1.43934 0.16284,-1.43934 0.0896,0 0.27335,0.093 0.40843,0.20666 0.64987,0.54683 0.56183,2.17798 -0.13708,2.5394 -0.14105,0.0729 -0.29644,0.13261 -0.34532,0.13261 -0.0586,0 -0.0889,-0.49082 -0.0889,-1.43933 z m 13.885326,5.37633 v -0.889 h -0.71966 -0.71967 v -3.85233 -3.85234 h -0.889 -0.889 v 4.74134 4.74133 h 1.60867 1.60866 z"
       id="path3" />
    <path
       style="fill:#606060;fill-opacity:1"
       d="m 39.536594,199.49271 c 0.05821,-0.0235 0.153458,-0.0235 0.211666,0 0.05821,0.0235 0.01058,0.0427 -0.105833,0.0427 -0.116417,0 -0.164042,-0.0192 -0.105833,-0.0427 z m 4.831291,-0.25577 c 0.06112,-0.0245 0.134144,-0.0215 0.162278,0.007 0.02813,0.0281 -0.02187,0.0481 -0.111125,0.0445 -0.09863,-0.004 -0.118694,-0.0241 -0.05115,-0.0512 z m 47.40804,-1.02015 c 0.197909,-0.0178 0.521759,-0.0178 0.719667,0 0.197908,0.0178 0.03598,0.0324 -0.359833,0.0324 -0.395817,0 -0.557742,-0.0146 -0.359834,-0.0324 z m 53.276485,-0.81664 c 0,-0.0176 0.0667,-0.0843 0.14817,-0.14817 0.13429,-0.10531 0.13728,-0.10232 0.032,0.032 -0.11061,0.14103 -0.18014,0.18588 -0.18014,0.1162 z m 0.84667,-0.93134 c 0,-0.0176 0.0667,-0.0842 0.14817,-0.14816 0.13428,-0.10532 0.13728,-0.10232 0.032,0.032 -0.1106,0.14104 -0.18013,0.18589 -0.18013,0.1162 z m 4.14867,-4.572 c 0,-0.0176 0.0667,-0.0842 0.14816,-0.14816 0.13429,-0.10532 0.13729,-0.10232 0.032,0.032 -0.1106,0.14104 -0.18013,0.18589 -0.18013,0.1162 z m 0.84666,-0.93133 c 0,-0.0176 0.0667,-0.0843 0.14817,-0.14817 0.13429,-0.10531 0.13728,-0.10232 0.032,0.032 -0.11061,0.14103 -0.18014,0.18588 -0.18014,0.1162 z m -86.592632,-8.8157 c 9.4e-4,-0.18627 0.01828,-0.2525 0.03853,-0.14718 0.02025,0.10532 0.01948,0.25772 -0.0017,0.33867 -0.02119,0.081 -0.03776,-0.005 -0.03682,-0.19149 z m -0.08467,-4.99533 c 9.4e-4,-0.18627 0.01828,-0.2525 0.03853,-0.14718 0.02025,0.10532 0.01948,0.25772 -0.0017,0.33866 -0.02119,0.081 -0.03776,-0.005 -0.03682,-0.19148 z m 32.852086,-4.16501 c 0.0824,-0.0215 0.19668,-0.02 0.254,0.003 0.0573,0.0232 -0.0101,0.0408 -0.14977,0.039 -0.1397,-0.002 -0.1866,-0.0207 -0.10423,-0.0422 z m 3.725336,-0.0847 c 0.0824,-0.0215 0.19668,-0.02 0.254,0.003 0.0573,0.0232 -0.0101,0.0408 -0.14978,0.039 -0.1397,-0.002 -0.1866,-0.0207 -0.10422,-0.0422 z m -11.299316,-0.0838 c 0.06112,-0.0245 0.134144,-0.0215 0.162278,0.007 0.02813,0.0281 -0.02187,0.0481 -0.111125,0.0445 -0.09863,-0.004 -0.118694,-0.0241 -0.05115,-0.0512 z m 15.023036,-5.2e-4 c 0.0815,-0.0213 0.21484,-0.0213 0.29633,0 0.0815,0.0213 0.0148,0.0387 -0.14816,0.0387 -0.16299,0 -0.22966,-0.0174 -0.14817,-0.0387 z m -16.716369,-0.0841 c 0.06112,-0.0245 0.134144,-0.0214 0.162278,0.007 0.02813,0.0281 -0.02187,0.0481 -0.111125,0.0445 -0.09863,-0.004 -0.118694,-0.0241 -0.05115,-0.0512 z m -1.693333,-0.0847 c 0.06112,-0.0245 0.134143,-0.0215 0.162277,0.007 0.02813,0.0281 -0.02187,0.0481 -0.111125,0.0445 -0.09863,-0.004 -0.118694,-0.0241 -0.05115,-0.0512 z m -1.693334,-0.0847 c 0.06112,-0.0244 0.134144,-0.0214 0.162278,0.007 0.02813,0.0281 -0.02187,0.0481 -0.111125,0.0445 -0.09863,-0.004 -0.118694,-0.0241 -0.05115,-0.0512 z m -1.693333,-0.0847 c 0.06112,-0.0245 0.134144,-0.0214 0.162278,0.007 0.02813,0.0281 -0.02187,0.0482 -0.111125,0.0445 -0.09863,-0.004 -0.118694,-0.0241 -0.05115,-0.0512 z m -34.464624,-4.99725 c 0.104775,-0.0202 0.276225,-0.0202 0.381,0 0.104775,0.0202 0.01905,0.0367 -0.1905,0.0367 -0.20955,0 -0.295275,-0.0165 -0.1905,-0.0367 z"
       id="path2" />
    <path
       style="fill:#494949;fill-opacity:1"
       d="m 28.502924,204.93052 c 0.105878,-0.28238 2.376509,-6.39986 5.045847,-13.59441 2.669337,-7.19455 4.862391,-13.09355 4.873452,-13.10889 0.01106,-0.0153 1.697618,0.51709 3.747902,1.1832 2.050284,0.6661 3.710226,1.22866 3.68876,1.25013 -0.02147,0.0215 -0.269392,0.0662 -0.550945,0.0994 -0.281553,0.0332 -0.529834,0.0783 -0.551735,0.10018 -0.04732,0.0473 -5.287816,18.62945 -5.259952,18.65113 0.01055,0.008 2.000374,-0.0941 4.421841,-0.22735 2.421466,-0.13324 4.454807,-0.23292 4.518534,-0.22151 0.06373,0.0114 -4.4386,1.45191 -10.005171,3.20114 l -10.12104,3.1804 z m 113.586156,-2.19465 c -7.38081,-0.89142 -13.32441,-1.63018 -13.208,-1.6417 0.11642,-0.0115 3.14537,-0.19291 6.731,-0.40308 3.58564,-0.21017 6.60281,-0.39125 6.70484,-0.40239 0.12564,-0.0137 1.93381,-1.94627 5.60377,-5.98925 4.3651,-4.80877 5.39053,-5.98183 5.2755,-6.03499 -0.0785,-0.0363 -3.81179,-1.10816 -8.29615,-2.38193 -4.48435,-1.27376 -8.16824,-2.3308 -8.18641,-2.34897 -0.035,-0.035 1.85973,-8.4381 1.91447,-8.49086 0.0535,-0.0515 30.00282,-15.52508 30.01969,-15.50987 0.0343,0.0309 -2.40767,14.79247 -2.45495,14.83975 -0.0542,0.0542 -12.44235,3.59254 -12.47111,3.56202 -0.009,-0.01 0.79655,-0.6849 1.79103,-1.49982 0.99448,-0.81492 1.80998,-1.51075 1.81223,-1.5463 0.002,-0.0356 -0.11973,-0.0129 -0.27108,0.0503 -0.15134,0.0632 -3.64701,1.49836 -7.76816,3.18918 -4.12115,1.69083 -7.50888,3.08741 -7.52828,3.10352 -0.0194,0.0161 -0.0183,0.0462 0.002,0.067 0.0207,0.0207 4.64672,0.98004 10.27994,2.13178 5.63323,1.15174 10.25055,2.09876 10.26073,2.1045 0.0521,0.0294 -6.6443,18.78948 -6.71216,18.80436 -0.0438,0.01 -6.11852,-0.71186 -13.49934,-1.60327 z m -92.328987,-6.50004 c -2.607733,-3.63586 -4.843357,-6.75086 -4.968053,-6.92224 l -0.22672,-0.3116 7.441551,-3.76477 c 5.37622,-2.7199 7.401262,-3.78273 7.296387,-3.82948 -0.07984,-0.0356 -5.783965,-1.56928 -12.675831,-3.40821 -6.891867,-1.83893 -12.604782,-3.37484 -12.695368,-3.41313 -0.128346,-0.0542 -0.756508,-1.76884 -2.845819,-7.76778 -1.474615,-4.234 -2.675429,-7.70594 -2.668476,-7.71544 0.01371,-0.0187 21.656177,8.2184 21.934996,8.34845 0.106436,0.0497 -0.884193,0.0619 -2.667,0.033 -1.803672,-0.0292 -2.805507,-0.0165 -2.751666,0.0349 0.04657,0.0445 4.389966,1.82548 9.651999,3.95775 5.262033,2.13228 9.576315,3.88453 9.587293,3.89389 0.01098,0.009 0.06205,2.23886 0.113491,4.95444 0.07721,4.07559 0.07402,4.94948 -0.01826,5.00651 -0.06149,0.038 -2.798608,0.97205 -6.082492,2.07567 -3.283883,1.10362 -5.997508,2.02955 -6.030278,2.05762 -0.03277,0.0281 3.83438,2.49293 8.593666,5.47746 l 8.653248,5.42641 2.159,0.14753 c 1.18745,0.0811 2.165963,0.15433 2.174473,0.16263 0.0085,0.008 -4.23964,0.48518 -9.440333,1.05972 -5.200693,0.57454 -9.532006,1.05873 -9.625139,1.07598 -0.139177,0.0258 -1.013723,-1.14593 -4.910667,-6.57927 z m 19.223346,-0.0388 -3.551987,-2.06695 h 0.694487 c 0.381968,0 0.694487,-0.0297 0.694487,-0.0661 0,-0.10555 2.616728,-21.27837 2.673204,-21.62979 l 0.05104,-0.31757 -1.721953,-0.84536 c -0.947075,-0.46494 -1.607653,-0.82811 -1.467953,-0.80703 0.1397,0.0211 2.67335,0.34984 5.630333,0.73056 2.956983,0.38073 5.402106,0.71535 5.433606,0.7436 0.08199,0.0735 -4.700434,26.28092 -4.800292,26.30531 -0.04564,0.0112 -1.681375,-0.90986 -3.634968,-2.04667 z m 20.019653,1.53039 c 0.62865,-0.29858 1.303846,-0.63005 1.500436,-0.7366 0.273109,-0.14803 2.797056,-3.01017 10.698232,-12.13174 5.68744,-6.5659 10.41128,-12.0115 10.49743,-12.10135 0.14067,-0.1467 0.70734,-0.21337 5.55776,-0.65388 2.97062,-0.26978 5.43233,-0.48115 5.47046,-0.4697 0.0381,0.0114 -0.57147,0.35773 -1.35467,0.76952 -0.78319,0.41178 -1.45204,0.77423 -1.48631,0.80545 -0.0343,0.0312 -0.99661,5.35127 -2.13852,11.82235 -1.1419,6.47109 -2.09599,11.86142 -2.12019,11.97852 -0.0399,0.19298 0.0294,0.25635 0.74058,0.67733 l 0.78458,0.46443 -2.77804,0.0223 c -1.52793,0.0123 -3.99045,0.0123 -5.47228,0 l -2.69423,-0.0223 1.42695,-4.14867 c 0.78482,-2.28176 1.42849,-4.15819 1.43037,-4.16983 0.002,-0.0116 -1.00228,-0.0212 -2.23148,-0.0212 h -2.23491 l -2.73213,4.15672 c -1.50268,2.28619 -2.773436,4.16895 -2.823926,4.1839 -0.0505,0.0149 -2.58733,0.0475 -5.63745,0.0724 l -5.545662,0.0452 z m 21.590918,-11.78884 c 5.1e-4,-0.0349 0.32212,-1.58656 0.71469,-3.44808 0.39257,-1.86153 0.70146,-3.39689 0.68642,-3.41193 -0.0234,-0.0234 -4.7353,6.5239 -4.90639,6.81768 -0.0485,0.0833 0.31853,0.10583 1.72136,0.10583 0.98064,0 1.78341,-0.0286 1.78392,-0.0635 z m 9.22921,12.31937 c 0.009,-0.13003 5.66133,-26.74998 5.68343,-26.76589 0.0488,-0.0351 12.64333,-2.15512 12.66733,-2.13225 0.012,0.0115 -0.50556,0.42387 -1.15024,0.91645 l -1.17215,0.8956 -0.35103,1.00161 c -0.50787,1.44916 -7.12748,20.71757 -7.12748,20.74675 0,0.0135 2.33363,0.0227 5.18584,0.0205 l 5.18583,-0.004 1.77671,-1.21789 c 0.97719,-0.66984 1.78643,-1.20816 1.79833,-1.19626 0.0119,0.0119 -0.75158,1.75237 -1.69659,3.86773 l -1.71821,3.84612 -9.54162,0.0215 c -5.24789,0.0118 -9.54096,0.0118 -9.54015,0 z m -43.628576,-0.5502 1.119218,-0.47931 0.05559,-0.37072 c 0.406049,-2.70773 3.912556,-24.32944 3.952036,-24.36892 0.06556,-0.0656 7.802897,0.29059 8.113897,0.37348 l 0.220628,0.0588 -2.601436,8.29734 c -1.43079,4.56353 -2.587347,8.31321 -2.570128,8.33261 0.03919,0.0442 -0.823256,1.19968 6.12434,-8.20561 3.319435,-4.49369 6.067615,-8.20544 6.107065,-8.24834 0.0639,-0.0695 7.796456,-0.29488 10.067226,-0.29341 l 0.889,5.8e-4 -1.43933,0.53338 -1.43933,0.53338 -10.329336,12.15669 -10.329328,12.1567 -4.529666,10e-4 -4.529667,0.001 z"
       id="path1" />
  </g>
</svg>
