<svg width="24" height="24" viewBox="0 0 24 24" fill="none" xmlns="http://www.w3.org/2000/svg">
<path d="M12.4495 15.2259C12.4571 15.2276 12.4672 15.23 12.4791 15.2332C12.5061 15.2406 12.5427 15.2523 12.5805 15.2697C12.6548 15.3037 12.74 15.3625 12.7587 15.4586L12.7607 15.4691L12.65 15.5748L12.6224 15.547C12.617 15.5526 12.6169 15.5591 12.6169 15.5607C12.6169 15.5629 12.6173 15.5647 12.6175 15.5654C12.6177 15.566 12.6178 15.5666 12.618 15.5671C12.6182 15.5676 12.6184 15.568 12.6184 15.5681C12.6186 15.5684 12.6187 15.5688 12.6184 15.5681L12.6172 15.5663C12.6153 15.5636 12.6123 15.5594 12.608 15.5542C12.5995 15.5437 12.5863 15.5292 12.5683 15.5135C12.5324 15.4821 12.4779 15.4462 12.404 15.4278C12.2583 15.3915 12.0303 15.4216 11.7119 15.706V16.8158H12.8348V15.2639L12.6801 14.9932H12.4433L12.4495 15.2259Z" fill="url(#paint0_linear_210_9)"/>
<path fill-rule="evenodd" clip-rule="evenodd" d="M6.10227 20.1421V3.93498C6.5426 -0.38029 11.993 0.0521071 12.0678 0.0580399C12.0678 0.0580399 12.0683 0.0580795 12.0678 0.0580399C17.8759 -0.174365 17.8887 3.93498 17.8887 3.93498V7.00675H12.9455L12.9719 4.5867C11.932 3.64984 11.1245 4.56035 11.1245 4.56035L11.1508 8.61933C11.2802 7.81186 13.8033 7.86456 13.8033 7.86456C17.4717 7.86456 17.8887 9.97073 17.8887 9.97073V20.2715C17.2106 24.5365 11.8265 23.8872 11.8265 23.8872C5.84113 24.0189 6.10227 20.1421 6.10227 20.1421ZM15.4494 12.6829C15.4654 12.6717 15.4654 12.6717 15.4654 12.6716L15.4644 12.6702L15.4634 12.6689L15.4578 12.6616C15.4529 12.6553 15.4456 12.6464 15.4358 12.6354C15.4163 12.6135 15.387 12.5835 15.3475 12.5505C15.2686 12.4846 15.1489 12.4069 14.9852 12.3592C14.6573 12.2638 14.158 12.2906 13.4648 12.7645L13.4633 12.7653L13.4613 12.7664L13.4482 12.7733C13.4367 12.7793 13.4197 12.7881 13.3979 12.7988C13.3544 12.8204 13.2919 12.8502 13.2158 12.8829C13.0634 12.9483 12.8572 13.0254 12.6409 13.0724C12.4244 13.1194 12.1997 13.1358 12.0096 13.0818C11.8207 13.0282 11.6649 12.905 11.5838 12.6694L11.5793 12.6562H10.2447V12.7856H9.9524V13.0588H9.81102V13.3998H9.95567L9.95956 13.4837V20.9035H9.80859V21.3428H10.2039V21.4889H11.4292V21.326H11.5873V17.4436C11.5905 17.4397 11.596 17.4332 11.6026 17.4259C11.6159 17.4112 11.6361 17.3901 11.6634 17.3652C11.7181 17.3152 11.8015 17.2497 11.9155 17.188C12.1433 17.0646 12.4945 16.9559 12.9862 17.0177L13.0082 17.0205V14.9882C13.0147 14.985 13.0243 14.9805 13.0369 14.9748C13.0633 14.9628 13.1029 14.9456 13.1555 14.925C13.2607 14.8837 13.4178 14.8285 13.6247 14.7733C14.0386 14.6629 14.6521 14.5523 15.4494 14.5523H15.469V12.6767L15.4654 12.6716L15.4494 12.6829Z" fill="url(#paint1_linear_210_9)"/>
<defs>
<linearGradient id="paint0_linear_210_9" x1="11.9946" y1="22.6562" x2="12.2586" y2="0.936197" gradientUnits="userSpaceOnUse">
<stop stop-color="#612D91"/>
<stop offset="0.197917" stop-color="#02A7DD"/>
<stop offset="0.395833" stop-color="#92BD49"/>
<stop offset="0.59375" stop-color="#FCE92D"/>
<stop offset="0.796875" stop-color="#F07F2F"/>
<stop offset="1" stop-color="#EA2B3B"/>
</linearGradient>
<linearGradient id="paint1_linear_210_9" x1="11.9946" y1="22.6562" x2="12.2586" y2="0.936197" gradientUnits="userSpaceOnUse">
<stop stop-color="#612D91"/>
<stop offset="0.197917" stop-color="#02A7DD"/>
<stop offset="0.395833" stop-color="#92BD49"/>
<stop offset="0.59375" stop-color="#FCE92D"/>
<stop offset="0.796875" stop-color="#F07F2F"/>
<stop offset="1" stop-color="#EA2B3B"/>
</linearGradient>
</defs>
</svg>
