<?xml version="1.0" encoding="UTF-8" standalone="no"?>
<!-- Created with Inkscape (http://www.inkscape.org/) -->

<svg
   width="210mm"
   height="297mm"
   viewBox="0 0 210 297"
   version="1.1"
   id="svg1"
   xmlns="http://www.w3.org/2000/svg"
   xmlns:svg="http://www.w3.org/2000/svg">
  <defs
     id="defs1" />
  <g
     id="layer1">
    <g
       id="g1"
       transform="matrix(0.79954161,0,0,0.79954161,22.414498,52.674766)"
       style="opacity:1">
      <path
         style="fill:#b9b9b9;fill-opacity:1"
         d="m 17.702024,229.23853 c 0.0041,-0.0986 0.02412,-0.1187 0.05115,-0.0512 0.02446,0.0611 0.02145,0.13414 -0.0067,0.16227 -0.02813,0.0281 -0.04815,-0.0219 -0.04447,-0.11112 z m -0.06714,-5.15761 c 6.36e-4,-0.23284 0.01708,-0.31804 0.03654,-0.18934 0.01946,0.1287 0.01894,0.3192 -0.0012,0.42334 -0.0201,0.10413 -0.03602,-0.001 -0.03538,-0.234 z m 0.002,-1.69334 c 4.75e-4,-0.2794 0.01628,-0.38349 0.03513,-0.23131 0.01884,0.15217 0.01845,0.38077 -8.64e-4,0.508 -0.01932,0.12722 -0.03474,0.003 -0.03426,-0.27669 z m 18.783132,-3.937 c 0,-0.11641 0.01922,-0.16404 0.0427,-0.10583 0.02349,0.0582 0.02349,0.15346 0,0.21167 -0.02349,0.0582 -0.0427,0.0106 -0.0427,-0.10584 z m -18.711332,-3.048 c 0,-0.11641 0.01922,-0.16404 0.0427,-0.10583 0.02349,0.0582 0.02349,0.15346 0,0.21167 -0.02349,0.0582 -0.0427,0.0106 -0.0427,-0.10584 z M 3.9860252,214.76053 c 0.00406,-0.0986 0.024125,-0.1187 0.051153,-0.0511 0.024458,0.0611 0.02145,0.13414 -0.00668,0.16227 -0.028134,0.0281 -0.048145,-0.0219 -0.044469,-0.11112 z m 32.5186818,-0.88195 c 0,-0.11641 0.01922,-0.16404 0.0427,-0.10583 0.02349,0.0582 0.02349,0.15346 0,0.21167 -0.02349,0.0582 -0.0427,0.0106 -0.0427,-0.10584 z m -0.0067,-2.58938 c 0.0041,-0.0986 0.02412,-0.1187 0.05115,-0.0512 0.02446,0.0611 0.02145,0.13415 -0.0067,0.16228 -0.02813,0.0281 -0.04815,-0.0219 -0.04447,-0.11112 z m 11.176,-1.94734 c 0.0041,-0.0986 0.02413,-0.11869 0.05115,-0.0512 0.02446,0.0611 0.02145,0.13414 -0.0067,0.16228 -0.02813,0.0281 -0.04814,-0.0219 -0.04447,-0.11113 z m 78.993993,-4.064 c 0.004,-0.0986 0.0241,-0.11869 0.0512,-0.0512 0.0245,0.0611 0.0215,0.13414 -0.007,0.16228 -0.0281,0.0281 -0.0482,-0.0219 -0.0445,-0.11113 z m -138.853323,-1.524 c 0.0041,-0.0986 0.02412,-0.11869 0.05115,-0.0512 0.02446,0.0611 0.02145,0.13414 -0.0067,0.16228 -0.02813,0.0281 -0.04814,-0.0219 -0.04447,-0.11113 z m 95.601619,-0.20461 c 0,-0.16298 0.01742,-0.22966 0.03872,-0.14817 0.0213,0.0815 0.0213,0.21485 0,0.29634 -0.0213,0.0815 -0.03872,0.0148 -0.03872,-0.14817 z m 0.0094,-2.49767 c 3.08e-4,-0.37253 0.01519,-0.5144 0.03308,-0.31526 0.01789,0.19914 0.01763,0.50394 -5.59e-4,0.67734 -0.01819,0.17339 -0.03283,0.0105 -0.03252,-0.36208 z m -89.2676857,-2.1063 c 0,-0.0176 0.066675,-0.0842 0.1481667,-0.14816 0.134286,-0.10532 0.1372807,-0.10232 0.031966,0.032 -0.110606,0.14104 -0.180133,0.18589 -0.180133,0.1162 z M 115.32269,191.05386 c 0.004,-0.0986 0.0241,-0.11869 0.0512,-0.0511 0.0245,0.0611 0.0215,0.13414 -0.007,0.16228 -0.0281,0.0281 -0.0481,-0.0219 -0.0445,-0.11113 z M -6.0272,169.45541 c 0.061119,-0.0245 0.1341437,-0.0214 0.1622777,0.007 0.028134,0.0281 -0.021872,0.0481 -0.111125,0.0445 -0.098632,-0.004 -0.1186941,-0.0241 -0.051153,-0.0512 z m 192.90617,-18.65349 c 0,-0.16299 0.0174,-0.22966 0.0387,-0.14817 0.0213,0.0815 0.0213,0.21484 0,0.29633 -0.0213,0.0815 -0.0387,0.0148 -0.0387,-0.14816 z m -8.39496,-43.48339 c 0.004,-0.0986 0.0241,-0.11869 0.0512,-0.0511 0.0245,0.0611 0.0215,0.13414 -0.007,0.16227 -0.0281,0.0281 -0.0481,-0.0219 -0.0445,-0.11112 z M 60.628022,104.6092 c 0.0041,-0.0986 0.02412,-0.1187 0.05115,-0.0512 0.02446,0.0611 0.02145,0.13415 -0.0067,0.16228 -0.02813,0.0281 -0.04815,-0.0219 -0.04447,-0.11112 z M 78.549503,72.429179 c 0.05821,-0.02349 0.153458,-0.02349 0.211667,0 0.05821,0.02349 0.01058,0.0427 -0.105834,0.0427 -0.116416,0 -0.164041,-0.01922 -0.105833,-0.0427 z M 200.80816,60.067846 c 0.0582,-0.02349 0.15346,-0.02349 0.21167,0 0.0582,0.02349 0.0106,0.0427 -0.10583,0.0427 -0.11642,0 -0.16405,-0.01922 -0.10584,-0.0427 z"
         id="path7" />
      <path
         style="fill:#a3a3a3;fill-opacity:1"
         d="m -6.3499917,199.44292 c 0.2529352,-0.25612 0.4789322,-0.46567 0.5022155,-0.46567 0.023283,0 -0.1646136,0.20955 -0.4175488,0.46567 -0.2529352,0.25611 -0.4789322,0.46566 -0.5022155,0.46566 -0.023283,0 0.1646136,-0.20955 0.4175488,-0.46566 z m 2.9633332,-20.066 c 0.1093678,-0.11642 0.2179005,-0.21167 0.2411838,-0.21167 0.023283,0 -0.047149,0.0953 -0.1565172,0.21167 -0.1093677,0.11641 -0.2179005,0.21166 -0.2411838,0.21166 -0.023283,0 0.047149,-0.0953 0.1565172,-0.21166 z m 62.8226625,-4.6463 c 0,-0.0176 0.06668,-0.0843 0.148167,-0.14817 0.134286,-0.10531 0.137281,-0.10232 0.03197,0.032 -0.110606,0.14103 -0.180133,0.18588 -0.180133,0.1162 z M 34.290006,150.17729 c 0,-0.0176 0.06668,-0.0843 0.148166,-0.14817 0.134287,-0.10532 0.137281,-0.10232 0.03197,0.032 -0.110606,0.14104 -0.180133,0.18589 -0.180133,0.11621 z M 76.03067,95.990619 c 0,-0.01758 0.06668,-0.08426 0.148167,-0.148167 0.134286,-0.105314 0.13728,-0.10232 0.03197,0.03197 -0.110606,0.141034 -0.180133,0.185884 -0.180133,0.116201 z"
         id="path6" />
      <path
         style="fill:#8c8c8c;fill-opacity:1"
         d="m 17.708709,229.62658 c 0,-0.11641 0.01922,-0.16404 0.0427,-0.10583 0.02349,0.0582 0.02349,0.15346 0,0.21167 -0.02349,0.0582 -0.0427,0.0106 -0.0427,-0.10584 z m -0.08153,-4.86833 c 0.0017,-0.1397 0.0207,-0.1866 0.04217,-0.10422 0.02147,0.0824 0.02006,0.19668 -0.0031,0.254 -0.02319,0.0573 -0.04076,-0.0101 -0.03903,-0.14978 z M 3.9013586,222.4652 c 0.00406,-0.0986 0.024125,-0.1187 0.051153,-0.0512 0.024458,0.0611 0.02145,0.13415 -0.00668,0.16228 -0.028134,0.0281 -0.048145,-0.0219 -0.044468,-0.11112 z m 43.6033304,-0.0847 c 0.0041,-0.0986 0.02412,-0.1187 0.05115,-0.0512 0.02446,0.0611 0.02145,0.13414 -0.0067,0.16227 -0.02813,0.0281 -0.04814,-0.0219 -0.04447,-0.11112 z m -29.872664,-0.75495 c 9.4e-4,-0.18626 0.01828,-0.25249 0.03853,-0.14718 0.02025,0.10532 0.01948,0.25772 -0.0017,0.33867 -0.02119,0.081 -0.03776,-0.005 -0.03682,-0.19149 z M 3.9013586,218.9092 c 0.00406,-0.0986 0.024125,-0.1187 0.051153,-0.0512 0.024458,0.0611 0.02145,0.13415 -0.00668,0.16228 -0.028134,0.0281 -0.048145,-0.0219 -0.044468,-0.11112 z m 43.6033304,-2.37067 c 0.0041,-0.0986 0.02412,-0.1187 0.05115,-0.0512 0.02446,0.0611 0.02145,0.13414 -0.0067,0.16227 -0.02813,0.0281 -0.04814,-0.0219 -0.04447,-0.11112 z m -29.79598,-1.55928 c 0,-0.11642 0.01922,-0.16404 0.0427,-0.10583 0.02349,0.0582 0.02349,0.15346 0,0.21166 -0.02349,0.0582 -0.0427,0.0106 -0.0427,-0.10583 z m 18.789314,-0.72672 c 0.0041,-0.0986 0.02412,-0.1187 0.05115,-0.0512 0.02446,0.0611 0.02145,0.13414 -0.0067,0.16227 -0.02813,0.0281 -0.04815,-0.0219 -0.04447,-0.11112 z m 0,-3.21733 c 0.0041,-0.0986 0.02412,-0.1187 0.05115,-0.0512 0.02446,0.0611 0.02145,0.13415 -0.0067,0.16228 -0.02813,0.0281 -0.04815,-0.0219 -0.04447,-0.11112 z m 46.905331,-7.02734 c 0.0041,-0.0986 0.02413,-0.11869 0.05115,-0.0512 0.02446,0.0611 0.02145,0.13414 -0.0067,0.16228 -0.02813,0.0281 -0.04815,-0.0219 -0.04447,-0.11113 z m 113.357416,-30.91744 -0.29177,-0.3175 0.3175,0.29177 c 0.17462,0.16048 0.3175,0.30336 0.3175,0.3175 0,0.0647 -0.0717,0.004 -0.34323,-0.29177 z M 33.020006,151.45276 c 0,-0.0146 0.123825,-0.1384 0.275167,-0.27517 l 0.275166,-0.24867 -0.248673,0.27516 c -0.231799,0.2565 -0.30166,0.31409 -0.30166,0.24868 z m 166.546004,-0.5309 c 0.004,-0.0986 0.0241,-0.11869 0.0512,-0.0512 0.0245,0.0611 0.0215,0.13414 -0.007,0.16228 -0.0281,0.0281 -0.0481,-0.0219 -0.0445,-0.11113 z M 34.036006,150.43129 c 0,-0.0176 0.06667,-0.0843 0.148167,-0.14817 0.134286,-0.10532 0.13728,-0.10232 0.03197,0.032 -0.110606,0.14104 -0.180133,0.18589 -0.180133,0.11621 z m 165.530004,-0.44076 c 0.004,-0.0986 0.0241,-0.11869 0.0512,-0.0512 0.0245,0.0611 0.0215,0.13414 -0.007,0.16227 -0.0281,0.0281 -0.0481,-0.0219 -0.0445,-0.11112 z m -64.22634,-11.04195 c 0.0843,-0.0931 0.17229,-0.16933 0.19557,-0.16933 0.0233,0 -0.0266,0.0762 -0.11091,0.16933 -0.0843,0.0931 -0.17229,0.16934 -0.19557,0.16934 -0.0233,0 0.0266,-0.0762 0.11091,-0.16934 z m -1.54328,-22.94466 c 0,-0.20955 0.0165,-0.29528 0.0367,-0.1905 0.0202,0.10477 0.0202,0.27622 0,0.381 -0.0202,0.10477 -0.0367,0.0191 -0.0367,-0.1905 z m 44.68762,-9.02406 c 0.004,-0.0986 0.0241,-0.11869 0.0512,-0.0512 0.0245,0.0611 0.0215,0.13414 -0.007,0.16228 -0.0281,0.0281 -0.0481,-0.0219 -0.0445,-0.11113 z m -18.27162,-1.98261 c 0,-0.20955 0.0165,-0.29527 0.0367,-0.1905 0.0202,0.10478 0.0202,0.27623 0,0.381 -0.0202,0.10478 -0.0367,0.0191 -0.0367,-0.1905 z M 106.4152,90.794418 c -0.10531,-0.134286 -0.10232,-0.13728 0.032,-0.03197 0.0815,0.06391 0.14816,0.130585 0.14816,0.148167 0,0.06968 -0.0695,0.02483 -0.18013,-0.116201 z m 93.50396,-25.648862 c 0.0815,-0.0213 0.21484,-0.0213 0.29634,0 0.0815,0.0213 0.0148,0.03872 -0.14817,0.03872 -0.16298,0 -0.22966,-0.01742 -0.14817,-0.03872 z m -40.80933,-1.439334 c 0.0815,-0.0213 0.21484,-0.0213 0.29633,0 0.0815,0.0213 0.0148,0.03872 -0.14816,0.03872 -0.16299,0 -0.22966,-0.01742 -0.14817,-0.03872 z m 41.275,-3.638376 c 0.0582,-0.02349 0.15346,-0.02349 0.21167,0 0.0582,0.02349 0.0106,0.0427 -0.10584,0.0427 -0.11641,0 -0.16404,-0.01922 -0.10583,-0.0427 z"
         id="path5" />
      <path
         style="fill:#767676;fill-opacity:1"
         d="m 17.708709,229.96525 c 0,-0.11642 0.01922,-0.16404 0.0427,-0.10583 0.02349,0.0582 0.02349,0.15346 0,0.21166 -0.02349,0.0582 -0.0427,0.0106 -0.0427,-0.10583 z m -0.08467,-4.826 c 0,-0.11642 0.01922,-0.16404 0.04271,-0.10583 0.02349,0.0582 0.02349,0.15346 0,0.21166 -0.02349,0.0582 -0.04271,0.0106 -0.04271,-0.10583 z m 0.0063,-4.064 c 0,-0.16298 0.01742,-0.22966 0.03872,-0.14817 0.0213,0.0815 0.0213,0.21485 0,0.29634 -0.0213,0.0815 -0.03872,0.0148 -0.03872,-0.14817 z M 3.91118,219.25492 c 0.00173,-0.1397 0.020701,-0.1866 0.042168,-0.10422 0.021467,0.0824 0.020055,0.19667 -0.00314,0.254 -0.023192,0.0573 -0.040756,-0.0101 -0.03903,-0.14978 z m 43.593509,-2.97039 c 0.0041,-0.0986 0.02412,-0.1187 0.05115,-0.0511 0.02446,0.0611 0.02145,0.13414 -0.0067,0.16227 -0.02813,0.0281 -0.04814,-0.0219 -0.04447,-0.11112 z m -43.5186638,-1.016 c 0.00406,-0.0986 0.024125,-0.1187 0.051153,-0.0512 0.024458,0.0611 0.02145,0.13414 -0.00668,0.16227 -0.028134,0.0281 -0.048145,-0.0219 -0.044469,-0.11112 z m 13.7159988,-0.59267 c 0.0041,-0.0986 0.02412,-0.11869 0.05115,-0.0512 0.02446,0.0611 0.02145,0.13414 -0.0067,0.16228 -0.02813,0.0281 -0.04815,-0.0219 -0.04447,-0.11113 z m 18.795999,-0.16933 c 0.0041,-0.0986 0.02412,-0.1187 0.05115,-0.0512 0.02446,0.0611 0.02145,0.13414 -0.0067,0.16227 -0.02813,0.0281 -0.04815,-0.0219 -0.04447,-0.11112 z m 11.091333,-2.20133 c 0.0041,-0.0986 0.02412,-0.1187 0.05115,-0.0512 0.02446,0.0611 0.02145,0.13415 -0.0067,0.16228 -0.02813,0.0281 -0.04814,-0.0219 -0.04447,-0.11112 z m -29.802665,-1.60867 c 0.0041,-0.0986 0.02412,-0.1187 0.05115,-0.0512 0.02446,0.0611 0.02145,0.13414 -0.0067,0.16227 -0.02813,0.0281 -0.04815,-0.0219 -0.04447,-0.11112 z m 50.132485,-1.17828 c 0.0017,-0.1397 0.0207,-0.1866 0.04217,-0.10422 0.02147,0.0824 0.02005,0.19668 -0.0031,0.254 -0.02319,0.0573 -0.04076,-0.0101 -0.03903,-0.14978 z m -20.245153,-0.59972 c 0.0041,-0.0986 0.02413,-0.1187 0.05115,-0.0512 0.02446,0.0611 0.02145,0.13414 -0.0067,0.16227 -0.02813,0.0281 -0.04814,-0.0219 -0.04447,-0.11112 z m -29.802665,-1.35467 c 0.0041,-0.0986 0.02412,-0.11869 0.05115,-0.0512 0.02446,0.0611 0.02145,0.13414 -0.0067,0.16228 -0.02813,0.0281 -0.04814,-0.0219 -0.04447,-0.11113 z m 90.593332,-1.524 c 0.004,-0.0986 0.0241,-0.11869 0.0511,-0.0512 0.0245,0.0611 0.0215,0.13414 -0.007,0.16228 -0.0281,0.0281 -0.0481,-0.0219 -0.0445,-0.11113 z m -44.133894,-0.0931 c 0.06112,-0.0245 0.134143,-0.0215 0.162277,0.007 0.02813,0.0281 -0.02187,0.0481 -0.111125,0.0445 -0.09863,-0.004 -0.118694,-0.0241 -0.05115,-0.0511 z m 44.303224,-5.57955 c 0.004,-0.0986 0.0241,-0.1187 0.0511,-0.0512 0.0245,0.0611 0.0215,0.13415 -0.007,0.16228 -0.0281,0.0281 -0.0481,-0.0219 -0.0445,-0.11112 z m -42.101891,-4.41112 c 0.06112,-0.0245 0.134144,-0.0214 0.162278,0.007 0.02813,0.0281 -0.02187,0.0481 -0.111125,0.0445 -0.09863,-0.004 -0.118694,-0.0241 -0.05115,-0.0512 z m 82.826551,-3.37822 c 0.004,-0.0986 0.0241,-0.11869 0.0512,-0.0511 0.0245,0.0611 0.0214,0.13414 -0.007,0.16228 -0.0281,0.0281 -0.0481,-0.0219 -0.0445,-0.11113 z m -34.02931,-0.96661 c 0,-0.11642 0.0192,-0.16404 0.0427,-0.10583 0.0235,0.0582 0.0235,0.15346 0,0.21166 -0.0235,0.0582 -0.0427,0.0106 -0.0427,-0.10583 z m -31.066391,-5.16467 c 0,-0.16298 0.01742,-0.22965 0.03872,-0.14816 0.0213,0.0815 0.0213,0.21484 0,0.29633 -0.0213,0.0815 -0.03872,0.0148 -0.03872,-0.14817 z m 57.397721,-4.65666 c 0,-0.11642 0.0192,-0.16404 0.0427,-0.10584 0.0235,0.0582 0.0235,0.15346 0,0.21167 -0.0235,0.0582 -0.0427,0.0106 -0.0427,-0.10583 z m -73.50403,-2.7413 c 0,-0.0176 0.06667,-0.0843 0.148167,-0.14817 0.134286,-0.10531 0.137281,-0.10232 0.03197,0.032 -0.110606,0.14103 -0.180133,0.18588 -0.180133,0.1162 z m 43.58746,-23.64787 c 0.0611,-0.0245 0.13414,-0.0214 0.16227,0.007 0.0281,0.0281 -0.0219,0.0481 -0.11112,0.0445 -0.0986,-0.004 -0.1187,-0.0241 -0.0512,-0.0512 z m -78.216124,-4.45599 c 0,-0.0146 0.123825,-0.1384 0.275167,-0.27517 l 0.275166,-0.24867 -0.248674,0.27516 c -0.231798,0.2565 -0.301659,0.31409 -0.301659,0.24868 z m 166.054384,-0.48151 c 0,-0.20955 0.0165,-0.29527 0.0367,-0.1905 0.0202,0.10478 0.0202,0.27623 0,0.381 -0.0202,0.10478 -0.0367,0.019 -0.0367,-0.1905 z M 80.270687,132.21053 c 0.0041,-0.0986 0.02412,-0.11869 0.05115,-0.0512 0.02446,0.0611 0.02145,0.13414 -0.0067,0.16227 -0.02813,0.0281 -0.04815,-0.0219 -0.04447,-0.11112 z M 54.45404,131.66725 c 0,-0.11642 0.01922,-0.16404 0.0427,-0.10583 0.02349,0.0582 0.02349,0.15346 0,0.21166 -0.02349,0.0582 -0.0427,0.0106 -0.0427,-0.10583 z m 63.30142,-8.7785 c 0.0611,-0.0245 0.13414,-0.0215 0.16228,0.007 0.0281,0.0281 -0.0219,0.0481 -0.11113,0.0445 -0.0986,-0.004 -0.11869,-0.0241 -0.0512,-0.0511 z m 16.02456,-7.35755 c 0.004,-0.0986 0.0241,-0.1187 0.0511,-0.0512 0.0245,0.0611 0.0215,0.13415 -0.007,0.16228 -0.0281,0.0281 -0.0481,-0.0219 -0.0445,-0.11112 z m 44.71068,-8.84061 c 0,-0.11642 0.0192,-0.16405 0.0427,-0.10584 0.0235,0.0582 0.0235,0.15346 0,0.21167 -0.0235,0.0582 -0.0427,0.0106 -0.0427,-0.10583 z m -18.288,-1.18534 c 0,-0.11641 0.0192,-0.16404 0.0427,-0.10583 0.0235,0.0582 0.0235,0.15346 0,0.21167 -0.0235,0.0582 -0.0427,0.0106 -0.0427,-0.10584 z m 63.56049,-36.046831 c -0.10531,-0.134286 -0.10232,-0.137281 0.032,-0.03197 0.14103,0.110606 0.18588,0.180133 0.1162,0.180133 -0.0176,0 -0.0843,-0.06667 -0.14817,-0.148166 z m -24.13507,-4.312337 c 0.0611,-0.02446 0.13414,-0.02145 0.16228,0.0067 0.0281,0.02813 -0.0219,0.04815 -0.11113,0.04447 -0.0986,-0.0041 -0.11869,-0.02412 -0.0512,-0.05115 z m -1.94733,-5.08 c 0.0611,-0.02446 0.13414,-0.02145 0.16228,0.0067 0.0281,0.02813 -0.0219,0.04814 -0.11113,0.04447 -0.0986,-0.0041 -0.11869,-0.02413 -0.0512,-0.05115 z m 2.32465,-8.37e-4 c 0.0824,-0.02147 0.19668,-0.02005 0.254,0.0031 0.0573,0.02319 -0.0101,0.04076 -0.14978,0.03903 -0.1397,-0.0017 -0.1866,-0.0207 -0.10422,-0.04217 z"
         id="path4" />
      <path
         style="fill:#606060;fill-opacity:1"
         d="m 17.719556,230.51558 c 6.36e-4,-0.23283 0.01708,-0.31803 0.03654,-0.18933 0.01946,0.1287 0.01894,0.3192 -0.0012,0.42333 -0.0201,0.10414 -0.03602,-0.001 -0.03538,-0.234 z m -0.08753,-4.91066 c 9.4e-4,-0.18627 0.01828,-0.2525 0.03853,-0.14718 0.02025,0.10532 0.01948,0.25772 -0.0017,0.33866 -0.02119,0.081 -0.03776,-0.005 -0.03682,-0.19148 z M 3.91118,221.96425 c 0.00173,-0.1397 0.020701,-0.1866 0.042168,-0.10422 0.021467,0.0824 0.020055,0.19668 -0.00314,0.254 -0.023192,0.0573 -0.040756,-0.0101 -0.03903,-0.14978 z m 13.726593,-1.651 c 0,-0.30268 0.01537,-0.42651 0.03415,-0.27517 0.01878,0.15135 0.01878,0.399 0,0.55034 -0.01878,0.15134 -0.03415,0.0275 -0.03415,-0.27517 z m 29.801801,-0.0423 c 4.75e-4,-0.2794 0.01628,-0.38349 0.03513,-0.23132 0.01884,0.15218 0.01845,0.38078 -8.64e-4,0.508 -0.01932,0.12723 -0.03474,0.003 -0.03426,-0.27668 z m -43.5235481,-0.508 c 9.397e-4,-0.18627 0.018278,-0.2525 0.03853,-0.14718 0.020252,0.10532 0.019483,0.25772 -0.00171,0.33866 -0.021192,0.081 -0.037761,-0.005 -0.036821,-0.19148 z m 43.6016221,-3.85234 c 0,-0.16298 0.01742,-0.22965 0.03872,-0.14816 0.0213,0.0815 0.0213,0.21484 0,0.29633 -0.0213,0.0815 -0.03872,0.0148 -0.03872,-0.14817 z M 3.9958467,215.61425 c 0.00173,-0.1397 0.020701,-0.1866 0.042168,-0.10422 0.021467,0.0824 0.020055,0.19668 -0.00314,0.254 -0.023192,0.0573 -0.040756,-0.0101 -0.03903,-0.14978 z m 32.5151353,-0.71967 c 0,-0.16298 0.01742,-0.22965 0.03872,-0.14816 0.0213,0.0815 0.0213,0.21484 0,0.29633 -0.0213,0.0815 -0.03872,0.0148 -0.03872,-0.14817 z m -18.795999,-0.59266 c 0,-0.16299 0.01742,-0.22966 0.03872,-0.14817 0.0213,0.0815 0.0213,0.21484 0,0.29633 -0.0213,0.0815 -0.03872,0.0148 -0.03872,-0.14816 z m 29.884194,-2.32834 c 0.0017,-0.1397 0.0207,-0.1866 0.04217,-0.10422 0.02147,0.0824 0.02005,0.19668 -0.0031,0.254 -0.02319,0.0573 -0.04076,-0.0101 -0.03903,-0.14978 z m -11.091332,-1.43933 c 0.0017,-0.1397 0.0207,-0.1866 0.04217,-0.10422 0.02147,0.0824 0.02005,0.19668 -0.0031,0.254 -0.02319,0.0573 -0.04076,-0.0101 -0.03903,-0.14978 z m -18.71447,-0.127 c 0,-0.11642 0.01922,-0.16404 0.0427,-0.10583 0.02349,0.0582 0.02349,0.15346 0,0.21166 -0.02349,0.0582 -0.0427,0.0106 -0.0427,-0.10583 z M 0.5715079,209.84318 c 0.0582083,-0.0235 0.15345833,-0.0235 0.21166666,0 0.0582083,0.0235 0.0105833,0.0427 -0.10583333,0.0427 -0.11641666,0 -0.16404166,-0.0192 -0.10583333,-0.0427 z m 67.3525141,-0.83293 c 9.4e-4,-0.18627 0.01828,-0.2525 0.03853,-0.14718 0.02025,0.10532 0.01948,0.25772 -0.0017,0.33867 -0.02119,0.081 -0.03776,-0.005 -0.03682,-0.19149 z m -20.249999,-0.34572 c 0.0041,-0.0986 0.02413,-0.1187 0.05115,-0.0512 0.02446,0.0611 0.02145,0.13414 -0.0067,0.16227 -0.02813,0.0281 -0.04814,-0.0219 -0.04447,-0.11112 z m 60.705997,-0.33867 c 0.004,-0.0986 0.0241,-0.11869 0.0511,-0.0512 0.0245,0.0611 0.0215,0.13414 -0.007,0.16228 -0.0281,0.0281 -0.0482,-0.0219 -0.0445,-0.11113 z m 39.26277,-0.26245 c 0.0611,-0.0245 0.13414,-0.0215 0.16228,0.007 0.0281,0.0281 -0.0219,0.0481 -0.11113,0.0445 -0.0986,-0.004 -0.11869,-0.0241 -0.0512,-0.0512 z M 17.871358,207.30986 c 0.0041,-0.0986 0.02412,-0.11869 0.05115,-0.0511 0.02446,0.0611 0.02145,0.13414 -0.0067,0.16228 -0.02813,0.0281 -0.04814,-0.0219 -0.04447,-0.11113 z m 69.361547,-0.67028 c 4.75e-4,-0.2794 0.01628,-0.38349 0.03512,-0.23131 0.01884,0.15217 0.01846,0.38077 -8.64e-4,0.508 -0.01932,0.12722 -0.03474,0.003 -0.03426,-0.27669 z m -39.474216,-0.59972 c 0.0041,-0.0986 0.02413,-0.11869 0.05115,-0.0512 0.02446,0.0611 0.02145,0.13414 -0.0067,0.16228 -0.02813,0.0281 -0.04815,-0.0219 -0.04447,-0.11113 z m 15.974148,-0.095 c 0.104775,-0.0202 0.276225,-0.0202 0.381,0 0.104775,0.0202 0.01905,0.0367 -0.1905,0.0367 -0.20955,0 -0.295275,-0.0165 -0.1905,-0.0367 z m 44.731853,-0.15897 c 0.004,-0.0986 0.0241,-0.11869 0.0511,-0.0512 0.0245,0.0611 0.0215,0.13414 -0.007,0.16228 -0.0281,0.0281 -0.0481,-0.0219 -0.0445,-0.11113 z m 18.20333,-1.18533 c 0.004,-0.0986 0.0241,-0.1187 0.0512,-0.0511 0.0245,0.0611 0.0215,0.13414 -0.007,0.16227 -0.0281,0.0281 -0.0482,-0.0219 -0.0445,-0.11112 z M 83.403354,204.4312 c 0.0041,-0.0986 0.02413,-0.1187 0.05115,-0.0512 0.02446,0.0611 0.02145,0.13415 -0.0067,0.16228 -0.02813,0.0281 -0.04815,-0.0219 -0.04447,-0.11112 z m 25.152686,-1.47462 c 0,-0.11641 0.0192,-0.16404 0.0427,-0.10583 0.0235,0.0582 0.0235,0.15346 0,0.21167 -0.0235,0.0582 -0.0427,0.0106 -0.0427,-0.10584 z m 18.19664,-0.55738 c 0.004,-0.0986 0.0241,-0.1187 0.0512,-0.0512 0.0245,0.0611 0.0215,0.13415 -0.007,0.16228 -0.0281,0.0281 -0.0481,-0.0219 -0.0445,-0.11112 z m -33.10466,-1.778 c 0.0041,-0.0986 0.02412,-0.1187 0.05115,-0.0512 0.02446,0.0611 0.02145,0.13415 -0.0067,0.16228 -0.02813,0.0281 -0.04814,-0.0219 -0.04447,-0.11112 z m 33.18933,-0.33867 c 0.004,-0.0986 0.0241,-0.1187 0.0511,-0.0512 0.0245,0.0611 0.0215,0.13414 -0.007,0.16227 -0.0281,0.0281 -0.0482,-0.0219 -0.0445,-0.11112 z m -18.20333,-0.16933 c 0.004,-0.0986 0.0241,-0.1187 0.0511,-0.0512 0.0245,0.0611 0.0215,0.13415 -0.007,0.16228 -0.0281,0.0281 -0.0481,-0.0219 -0.0445,-0.11112 z m -9.736667,-2.11667 c 0.0041,-0.0986 0.02412,-0.1187 0.05115,-0.0512 0.02446,0.0611 0.02145,0.13414 -0.0067,0.16227 -0.02813,0.0281 -0.04815,-0.0219 -0.04447,-0.11112 z m 9.821337,-0.254 c 0.004,-0.0986 0.0241,-0.1187 0.0512,-0.0511 0.0245,0.0611 0.0215,0.13414 -0.007,0.16227 -0.0281,0.0281 -0.0481,-0.0219 -0.0445,-0.11112 z m 18.28799,-1.778 c 0.004,-0.0986 0.0241,-0.1187 0.0512,-0.0512 0.0245,0.0611 0.0215,0.13414 -0.007,0.16227 -0.0281,0.0281 -0.0481,-0.0219 -0.0445,-0.11112 z m -59.252176,-0.009 c 0.08149,-0.0213 0.214841,-0.0213 0.296333,0 0.08149,0.0213 0.01482,0.0387 -0.148167,0.0387 -0.162983,0 -0.229658,-0.0174 -0.148166,-0.0387 z m 31.227515,-0.24503 c 0.0041,-0.0986 0.02413,-0.1187 0.05115,-0.0512 0.02446,0.0611 0.02145,0.13414 -0.0067,0.16227 -0.02813,0.0281 -0.04815,-0.0219 -0.04447,-0.11112 z m 9.821331,0 c 0.004,-0.0986 0.0241,-0.1187 0.0512,-0.0512 0.0245,0.0611 0.0215,0.13414 -0.007,0.16227 -0.0281,0.0281 -0.0481,-0.0219 -0.0445,-0.11112 z M -2.2013253,195.04025 c 0.1093678,-0.11642 0.2179005,-0.21167 0.2411839,-0.21167 0.023283,0 -0.047149,0.0953 -0.1565172,0.21167 -0.1093678,0.11642 -0.2179005,0.21167 -0.2411838,0.21167 -0.023283,0 0.047149,-0.0953 0.1565171,-0.21167 z m -8.4532977,-1.05833 c 0,-0.11642 0.01922,-0.16404 0.04271,-0.10584 0.02349,0.0582 0.02349,0.15346 0,0.21167 -0.02349,0.0582 -0.04271,0.0106 -0.04271,-0.10583 z m 137.745973,-0.0494 c 0.004,-0.0986 0.0241,-0.1187 0.0511,-0.0512 0.0245,0.0611 0.0215,0.13414 -0.007,0.16227 -0.0281,0.0281 -0.0481,-0.0219 -0.0445,-0.11112 z m 4.91067,-1.016 c 0.004,-0.0986 0.0241,-0.1187 0.0512,-0.0512 0.0245,0.0611 0.0215,0.13414 -0.007,0.16227 -0.0281,0.0281 -0.0481,-0.0219 -0.0445,-0.11112 z m 17.36335,-0.62795 c 0,-0.11641 0.0192,-0.16404 0.0427,-0.10583 0.0235,0.0582 0.0235,0.15346 0,0.21167 -0.0235,0.0582 -0.0427,0.0106 -0.0427,-0.10584 z m -34.02973,-0.254 c 0,-0.16298 0.0174,-0.22965 0.0387,-0.14816 0.0213,0.0815 0.0213,0.21484 0,0.29633 -0.0213,0.0815 -0.0387,0.0148 -0.0387,-0.14817 z m 11.84038,-0.13405 c 0.004,-0.0986 0.0241,-0.1187 0.0512,-0.0512 0.0245,0.0611 0.0215,0.13414 -0.007,0.16227 -0.0281,0.0281 -0.0481,-0.0219 -0.0445,-0.11112 z m -33.104667,-0.84667 c 0.0041,-0.0986 0.02412,-0.11869 0.05115,-0.0511 0.02446,0.0611 0.02145,0.13414 -0.0067,0.16228 -0.02813,0.0281 -0.04814,-0.0219 -0.04447,-0.11113 z m -40.872899,-0.75494 c 3.75e-4,-0.32597 0.01568,-0.44894 0.03401,-0.27328 0.01833,0.17566 0.01802,0.44236 -6.83e-4,0.59267 -0.0187,0.1503 -0.0337,0.007 -0.03332,-0.31939 z m 78.888226,0.41628 c 0.004,-0.0986 0.0241,-0.1187 0.0512,-0.0512 0.0245,0.0611 0.0214,0.13415 -0.007,0.16228 -0.0281,0.0281 -0.0481,-0.0219 -0.0445,-0.11112 z m -98.982007,-4.05695 c 0.109367,-0.11642 0.2179,-0.21167 0.241183,-0.21167 0.02328,0 -0.04715,0.0952 -0.156517,0.21167 -0.109368,0.11642 -0.2179,0.21167 -0.241184,0.21167 -0.02328,0 0.04715,-0.0953 0.156518,-0.21167 z m 116.266967,-2.58233 c 0,-0.16299 0.0174,-0.22966 0.0387,-0.14817 0.0213,0.0815 0.0213,0.21484 0,0.29633 -0.0213,0.0815 -0.0387,0.0148 -0.0387,-0.14816 z m -67.551619,-0.762 c 0,-0.53552 0.01375,-0.75459 0.03055,-0.48684 0.0168,0.26776 0.0168,0.70591 0,0.97367 -0.0168,0.26776 -0.03055,0.0487 -0.03055,-0.48683 z m 121.453839,-3.28084 c -0.10531,-0.13428 -0.10232,-0.13728 0.032,-0.032 0.14103,0.1106 0.18588,0.18013 0.1162,0.18013 -0.0176,0 -0.0843,-0.0667 -0.14817,-0.14817 z m -86.84382,-8.5725 c 0,-0.11641 0.0192,-0.16404 0.0427,-0.10583 0.0235,0.0582 0.0235,0.15346 0,0.21167 -0.0235,0.0582 -0.0427,0.0106 -0.0427,-0.10584 z m 0.74863,-5.70463 c 0,-0.0176 0.0667,-0.0843 0.14816,-0.14816 0.13429,-0.10532 0.13728,-0.10232 0.032,0.032 -0.11061,0.14103 -0.18013,0.18589 -0.18013,0.1162 z M -17.377824,162.0065 c 0.05821,-0.0235 0.153458,-0.0235 0.211666,0 0.05821,0.0235 0.01058,0.0427 -0.105833,0.0427 -0.116417,0 -0.164042,-0.0192 -0.105833,-0.0427 z m 172.088034,-6.33626 c 6.4e-4,-0.23283 0.0171,-0.31803 0.0365,-0.18933 0.0195,0.12869 0.0189,0.31919 -0.001,0.42333 -0.0201,0.10413 -0.036,-10e-4 -0.0354,-0.234 z M 68.847372,137.67858 c 0,-0.11641 0.01922,-0.16404 0.04271,-0.10583 0.02349,0.0582 0.02349,0.15346 0,0.21167 -0.02349,0.0582 -0.04271,0.0106 -0.04271,-0.10584 z m 11.436274,-5.842 c 0,-0.16298 0.01742,-0.22965 0.03872,-0.14816 0.0213,0.0815 0.0213,0.21484 0,0.29633 -0.0213,0.0815 -0.03872,0.0148 -0.03872,-0.14817 z m 7.028857,-0.14302 c 0.08149,-0.0213 0.214841,-0.0213 0.296333,0 0.08149,0.0213 0.01482,0.0387 -0.148167,0.0387 -0.162983,0 -0.229658,-0.0174 -0.148166,-0.0387 z m -6.787816,-3.97036 c 0.0041,-0.0986 0.02412,-0.1187 0.05115,-0.0512 0.02446,0.0611 0.02145,0.13415 -0.0067,0.16228 -0.02813,0.0281 -0.04815,-0.0219 -0.04447,-0.11112 z m 38.759843,-4.16278 c -0.10531,-0.13429 -0.10232,-0.13728 0.032,-0.032 0.0815,0.0639 0.14817,0.13059 0.14817,0.14817 0,0.0697 -0.0695,0.0248 -0.18014,-0.1162 z m -6.42842,-10.49867 -0.29178,-0.3175 0.3175,0.29178 c 0.17463,0.16047 0.3175,0.30335 0.3175,0.3175 0,0.0647 -0.0716,0.004 -0.34322,-0.29178 z m 24.31726,-2.39183 c 0,-0.11642 0.0192,-0.16404 0.0427,-0.10583 0.0235,0.0582 0.0235,0.15345 0,0.21166 -0.0235,0.0582 -0.0427,0.0106 -0.0427,-0.10583 z m 22.51465,-0.21872 c 0.004,-0.0986 0.0241,-0.1187 0.0512,-0.0512 0.0245,0.0611 0.0214,0.13415 -0.007,0.16228 -0.0281,0.0281 -0.0481,-0.0219 -0.0445,-0.11112 z m 0.51468,-3.67595 c 0,-0.11641 0.0192,-0.16404 0.0427,-0.10583 0.0235,0.0582 0.0235,0.15346 0,0.21167 -0.0235,0.0582 -0.0427,0.0106 -0.0427,-0.10584 z m 18.29598,-0.55033 c 9.4e-4,-0.18627 0.0183,-0.2525 0.0385,-0.14718 0.0203,0.10532 0.0195,0.25772 -0.002,0.33867 -0.0212,0.0809 -0.0378,-0.005 -0.0368,-0.19149 z m -18.29284,-0.33867 c 0.002,-0.1397 0.0207,-0.1866 0.0422,-0.10422 0.0215,0.0824 0.0201,0.19668 -0.003,0.254 -0.0232,0.0573 -0.0408,-0.0101 -0.039,-0.14978 z m -12.27353,-1.22766 c 0,-0.16299 0.0174,-0.22966 0.0387,-0.14817 0.0213,0.0815 0.0213,0.21484 0,0.29633 -0.0213,0.0815 -0.0387,0.0148 -0.0387,-0.14816 z m 30.63637,-2.08139 c 0.004,-0.0986 0.0241,-0.1187 0.0512,-0.0512 0.0245,0.0611 0.0214,0.13415 -0.007,0.16228 -0.0281,0.0281 -0.0481,-0.0219 -0.0445,-0.11112 z M 80.957842,99.536252 c 0.0017,-0.1397 0.0207,-0.1866 0.04217,-0.104222 0.02147,0.08238 0.02005,0.196678 -0.0031,0.254 -0.02319,0.05732 -0.04076,-0.01008 -0.03903,-0.149778 z m 127.046988,-6.61774 c 0.0582,-0.02349 0.15346,-0.02349 0.21167,0 0.0582,0.02349 0.0106,0.0427 -0.10584,0.0427 -0.11641,0 -0.16404,-0.01922 -0.10583,-0.0427 z m -58.38546,-4.68526 c 0,-0.116417 0.0192,-0.164042 0.0427,-0.105833 0.0235,0.05821 0.0235,0.153458 0,0.211666 -0.0235,0.05821 -0.0427,0.01058 -0.0427,-0.105833 z m 20.2416,-11.853333 c 0,-0.162984 0.0174,-0.229659 0.0387,-0.148167 0.0213,0.08149 0.0213,0.214842 0,0.296333 -0.0213,0.08149 -0.0387,0.01482 -0.0387,-0.148166 z m 61.88506,-1.693334 c 0,-0.116416 0.0192,-0.164041 0.0427,-0.105833 0.0235,0.05821 0.0235,0.153458 0,0.211667 -0.0235,0.05821 -0.0427,0.01058 -0.0427,-0.105834 z m -0.007,-0.642055 c 0.004,-0.09863 0.0241,-0.118694 0.0512,-0.05115 0.0245,0.06112 0.0214,0.134144 -0.007,0.162278 -0.0281,0.02813 -0.0481,-0.02187 -0.0445,-0.111125 z M 71.098837,72.344512 c 0.05821,-0.02349 0.153458,-0.02349 0.211667,0 0.05821,0.02349 0.01058,0.04271 -0.105834,0.04271 -0.116416,0 -0.164041,-0.01922 -0.105833,-0.04271 z m 136.233953,-6.94443 c 0.0611,-0.02446 0.13414,-0.02145 0.16227,0.0067 0.0281,0.02813 -0.0219,0.04814 -0.11112,0.04447 -0.0986,-0.0041 -0.11869,-0.02412 -0.0512,-0.05115 z m -12.87463,-0.0829 c 0.0582,-0.02349 0.15346,-0.02349 0.21167,0 0.0582,0.02349 0.0106,0.0427 -0.10583,0.0427 -0.11642,0 -0.16405,-0.01922 -0.10584,-0.0427 z m 7.874,0 c 0.0582,-0.02349 0.15346,-0.02349 0.21167,0 0.0582,0.02349 0.0106,0.0427 -0.10583,0.0427 -0.11642,0 -0.16405,-0.01922 -0.10584,-0.0427 z m -3.048,-0.169333 c 0.0582,-0.02349 0.15346,-0.02349 0.21167,0 0.0582,0.02349 0.0106,0.0427 -0.10583,0.0427 -0.11642,0 -0.16405,-0.01922 -0.10584,-0.0427 z m -19.89666,-4.572 c 0.0582,-0.02349 0.15346,-0.02349 0.21166,0 0.0582,0.02349 0.0106,0.0427 -0.10583,0.0427 -0.11642,0 -0.16404,-0.01922 -0.10583,-0.0427 z m 6.86329,-0.08643 c 0.0611,-0.02446 0.13414,-0.02145 0.16228,0.0067 0.0281,0.02813 -0.0219,0.04814 -0.11113,0.04447 -0.0986,-0.0041 -0.11869,-0.02412 -0.0512,-0.05115 z m 2.20133,-0.08467 c 0.0611,-0.02446 0.13415,-0.02145 0.16228,0.0067 0.0281,0.02813 -0.0219,0.04814 -0.11113,0.04447 -0.0986,-0.0041 -0.11869,-0.02412 -0.0511,-0.05115 z m 2.20133,-0.08467 c 0.0611,-0.02446 0.13415,-0.02145 0.16228,0.0067 0.0281,0.02813 -0.0219,0.04814 -0.11112,0.04447 -0.0986,-0.0041 -0.1187,-0.02412 -0.0512,-0.05115 z m 4.48734,-0.169334 c 0.0611,-0.02446 0.13414,-0.02145 0.16228,0.0067 0.0281,0.02813 -0.0219,0.04814 -0.11113,0.04447 -0.0986,-0.0041 -0.11869,-0.02412 -0.0511,-0.05115 z m 8.29733,0 c 0.0611,-0.02446 0.13414,-0.02145 0.16228,0.0067 0.0281,0.02813 -0.0219,0.04814 -0.11113,0.04447 -0.0986,-0.0041 -0.11869,-0.02412 -0.0512,-0.05115 z m -5.08529,-0.08952 c 0.29104,-0.01653 0.76729,-0.01653 1.05833,0 0.29104,0.01653 0.0529,0.03006 -0.52916,0.03006 -0.58209,0 -0.82021,-0.01353 -0.52917,-0.03006 z"
         id="path3" />
      <path
         style="fill:#494949;fill-opacity:1"
         d="m 17.711846,231.10825 c 0.0017,-0.1397 0.0207,-0.1866 0.04217,-0.10422 0.02147,0.0824 0.02005,0.19668 -0.0031,0.254 -0.02319,0.0573 -0.04076,-0.0101 -0.03903,-0.14978 z m -0.08467,-4.99533 c 0.0017,-0.1397 0.0207,-0.1866 0.04217,-0.10422 0.02147,0.0824 0.02006,0.19667 -0.0031,0.254 -0.02319,0.0573 -0.04076,-0.0101 -0.03903,-0.14978 z m 27.817659,-1.19908 c 0.05821,-0.0235 0.153459,-0.0235 0.211667,0 0.05821,0.0235 0.01058,0.0427 -0.105833,0.0427 -0.116417,0 -0.164042,-0.0192 -0.105834,-0.0427 z m -41.51884,-4.00792 c 0,-0.48895 0.013993,-0.68898 0.031096,-0.4445 0.017103,0.24447 0.017103,0.64452 0,0.889 -0.017103,0.24447 -0.031096,0.0444 -0.031096,-0.4445 z m 13.706027,-1.397 c 9.4e-4,-0.18627 0.01828,-0.2525 0.03853,-0.14718 0.02025,0.10532 0.01948,0.25772 -0.0017,0.33866 -0.02119,0.081 -0.03776,-0.005 -0.03682,-0.19148 z m 29.794682,0.127 c 0,-0.11642 0.01922,-0.16404 0.0427,-0.10584 0.02349,0.0582 0.02349,0.15346 0,0.21167 -0.02349,0.0582 -0.0427,0.0106 -0.0427,-0.10583 z M 3.9860252,215.94586 c 0.00406,-0.0986 0.024125,-0.11869 0.051153,-0.0512 0.024458,0.0611 0.02145,0.13414 -0.00668,0.16228 -0.028134,0.0281 -0.048145,-0.0219 -0.044469,-0.11113 z m 43.5186638,-0.42333 c 0.0041,-0.0986 0.02412,-0.1187 0.05115,-0.0511 0.02446,0.0611 0.02145,0.13414 -0.0067,0.16227 -0.02813,0.0281 -0.04814,-0.0219 -0.04447,-0.11112 z m -11.006666,-0.254 c 0.0041,-0.0986 0.02412,-0.1187 0.05115,-0.0512 0.02446,0.0611 0.02145,0.13414 -0.0067,0.16227 -0.02813,0.0281 -0.04815,-0.0219 -0.04447,-0.11112 z m -18.795999,-1.35467 c 0.0041,-0.0986 0.02412,-0.11869 0.05115,-0.0512 0.02446,0.0611 0.02145,0.13414 -0.0067,0.16228 -0.02813,0.0281 -0.04815,-0.0219 -0.04447,-0.11113 z m 18.795999,-3.72533 c 0.0041,-0.0986 0.02412,-0.1187 0.05115,-0.0511 0.02446,0.0611 0.02145,0.13414 -0.0067,0.16227 -0.02813,0.0281 -0.04815,-0.0219 -0.04447,-0.11112 z m -18.711332,-0.0847 c 0.0041,-0.0986 0.02412,-0.11869 0.05115,-0.0512 0.02446,0.0611 0.02145,0.13414 -0.0067,0.16228 -0.02813,0.0281 -0.04815,-0.0219 -0.04447,-0.11113 z m 29.887332,-1.69333 c 0.0041,-0.0986 0.02413,-0.1187 0.05115,-0.0512 0.02446,0.0611 0.02145,0.13414 -0.0067,0.16227 -0.02813,0.0281 -0.04814,-0.0219 -0.04447,-0.11112 z m 99.714767,-0.34712 c 0.0611,-0.0245 0.13414,-0.0215 0.16228,0.007 0.0281,0.0281 -0.0219,0.0481 -0.11113,0.0445 -0.0986,-0.004 -0.11869,-0.0241 -0.0512,-0.0512 z m -38.9241,-2.53155 c 0.004,-0.0986 0.0241,-0.11869 0.0511,-0.0512 0.0245,0.0611 0.0215,0.13414 -0.007,0.16228 -0.0281,0.0281 -0.0481,-0.0219 -0.0445,-0.11113 z m -51.95773,-3.61244 -0.161289,-0.1905 0.1905,0.16129 c 0.179023,0.15157 0.229044,0.21971 0.161289,0.21971 -0.01607,0 -0.101791,-0.0857 -0.1905,-0.1905 z m 150.51954,-5.2705 c 0.002,-0.1397 0.0207,-0.1866 0.0422,-0.10422 0.0215,0.0824 0.02,0.19667 -0.003,0.254 -0.0232,0.0573 -0.0408,-0.0101 -0.039,-0.14978 z M 67.373504,195.95784 c 0.05821,-0.0235 0.153458,-0.0235 0.211666,0 0.05821,0.0235 0.01058,0.0427 -0.105833,0.0427 -0.116417,0 -0.164042,-0.0192 -0.105833,-0.0427 z m -69.9558292,-0.53659 c 0.084285,-0.0931 0.1722945,-0.16933 0.1955778,-0.16933 0.023283,0 -0.026627,0.0762 -0.1109112,0.16933 -0.084285,0.0931 -0.1722945,0.16933 -0.1955779,0.16933 -0.023283,0 0.026627,-0.0762 0.1109113,-0.16933 z m 0.7619999,-0.762 c 0.084284,-0.0931 0.1722946,-0.16933 0.1955779,-0.16933 0.023283,0 -0.026627,0.0762 -0.1109112,0.16933 -0.084284,0.0931 -0.1722946,0.16933 -0.1955779,0.16933 -0.023283,0 0.026627,-0.0762 0.1109112,-0.16933 z m -8.8409817,-0.98072 c 0.0041,-0.0986 0.02413,-0.1187 0.05115,-0.0512 0.02446,0.0611 0.02145,0.13414 -0.0067,0.16227 -0.02813,0.0281 -0.04814,-0.0219 -0.04447,-0.11112 z m 80.433328,-1.10067 c 0.0041,-0.0986 0.02412,-0.11869 0.05115,-0.0511 0.02446,0.0611 0.02145,0.13414 -0.0067,0.16228 -0.02813,0.0281 -0.04815,-0.0219 -0.04447,-0.11113 z m 45.550669,-0.16933 c 0.004,-0.0986 0.0241,-0.1187 0.0512,-0.0512 0.0245,0.0611 0.0215,0.13414 -0.007,0.16227 -0.0281,0.0281 -0.0481,-0.0219 -0.0445,-0.11112 z m 0.10335,-2.91395 c 0,-0.25611 0.0159,-0.36089 0.0353,-0.23283 0.0194,0.12806 0.0194,0.33761 0,0.46567 -0.0194,0.12806 -0.0353,0.0233 -0.0353,-0.23284 z m 33.00799,-1.18533 c 0,-0.11642 0.0192,-0.16404 0.0427,-0.10583 0.0235,0.0582 0.0235,0.15346 0,0.21166 -0.0235,0.0582 -0.0427,0.0106 -0.0427,-0.10583 z m 42.3623,-2.87867 c -0.13804,-0.0593 -0.14288,-0.0739 -0.0262,-0.0787 0.0787,-0.003 0.16671,0.0322 0.19549,0.0787 0.0602,0.0974 0.0572,0.0974 -0.16933,0 z M 81.794687,184.3652 c 0.0041,-0.0986 0.02412,-0.1187 0.05115,-0.0512 0.02446,0.0611 0.02145,0.13415 -0.0067,0.16228 -0.02813,0.0281 -0.04815,-0.0219 -0.04447,-0.11112 z m 0,-2.11667 c 0.0041,-0.0986 0.02412,-0.1187 0.05115,-0.0511 0.02446,0.0611 0.02145,0.13414 -0.0067,0.16227 -0.02813,0.0281 -0.04815,-0.0219 -0.04447,-0.11112 z m 121.225173,-2.46945 c -0.10531,-0.13428 -0.10232,-0.13728 0.032,-0.032 0.0815,0.0639 0.14817,0.13058 0.14817,0.14817 0,0.0697 -0.0695,0.0248 -0.18014,-0.11621 z M 45.381338,177.18595 c 0,-0.0176 0.06668,-0.0842 0.148167,-0.14816 0.134286,-0.10532 0.137281,-0.10232 0.03197,0.032 -0.110605,0.14103 -0.180133,0.18589 -0.180133,0.1162 z m -22.436665,-2.29637 c 0.109368,-0.11641 0.217901,-0.21166 0.241184,-0.21166 0.02328,0 -0.04715,0.0952 -0.156517,0.21166 -0.109368,0.11642 -0.217901,0.21167 -0.241184,0.21167 -0.02328,0 0.04715,-0.0952 0.156517,-0.21167 z m 33.019998,-23.622 c 0.109368,-0.11641 0.217901,-0.21166 0.241184,-0.21166 0.02328,0 -0.04715,0.0953 -0.156517,0.21166 -0.109368,0.11642 -0.217901,0.21167 -0.241184,0.21167 -0.02328,0 0.04715,-0.0953 0.156517,-0.21167 z m 118.963339,0.0776 c 0.004,-0.0986 0.0241,-0.1187 0.0512,-0.0512 0.0245,0.0611 0.0214,0.13415 -0.007,0.16228 -0.0281,0.0281 -0.0481,-0.0219 -0.0445,-0.11112 z M 97.070335,148.2619 c 0.08428,-0.0931 0.172295,-0.16934 0.195578,-0.16934 0.02328,0 -0.02663,0.0762 -0.110911,0.16934 -0.08428,0.0931 -0.172295,0.16933 -0.195578,0.16933 -0.02328,0 0.02663,-0.0762 0.110911,-0.16933 z m 58.451535,-4.97417 c -0.10532,-0.13428 -0.10232,-0.13728 0.032,-0.032 0.14104,0.1106 0.18589,0.18013 0.1162,0.18013 -0.0176,0 -0.0842,-0.0667 -0.14816,-0.14817 z m -75.589849,-9.80722 c 0.0041,-0.0986 0.02412,-0.11869 0.05115,-0.0511 0.02446,0.0611 0.02145,0.13414 -0.0067,0.16227 -0.02813,0.0281 -0.04815,-0.0219 -0.04447,-0.11112 z m 0.338666,-2.032 c 0.0041,-0.0986 0.02412,-0.11869 0.05115,-0.0512 0.02446,0.0611 0.02145,0.13414 -0.0067,0.16227 -0.02813,0.0281 -0.04815,-0.0219 -0.04447,-0.11112 z m 0,-1.524 c 0.0041,-0.0986 0.02412,-0.11869 0.05115,-0.0512 0.02446,0.0611 0.02145,0.13414 -0.0067,0.16227 -0.02813,0.0281 -0.04815,-0.0219 -0.04447,-0.11112 z m -64.065058,-5.39045 -0.161289,-0.1905 0.1905,0.16129 c 0.179023,0.15158 0.229044,0.21971 0.161289,0.21971 -0.01607,0 -0.101791,-0.0857 -0.1905,-0.1905 z M 119.53853,123.8144 c -0.10531,-0.13429 -0.10232,-0.13728 0.032,-0.032 0.0815,0.0639 0.14817,0.13059 0.14817,0.14817 0,0.0697 -0.0695,0.0248 -0.18014,-0.1162 z m -6.04286,-0.52917 c 0.0843,-0.0931 0.17229,-0.16933 0.19558,-0.16933 0.0233,0 -0.0266,0.0762 -0.11092,0.16933 -0.0843,0.0931 -0.17229,0.16933 -0.19557,0.16933 -0.0233,0 0.0266,-0.0762 0.11091,-0.16933 z m -10.03756,-7.59883 -0.29178,-0.3175 0.3175,0.29177 c 0.17463,0.16048 0.3175,0.30336 0.3175,0.3175 0,0.0647 -0.0716,0.004 -0.34322,-0.29177 z m -74.512904,-3.13267 c -0.105314,-0.13428 -0.102319,-0.13728 0.03197,-0.032 0.08149,0.0639 0.148166,0.13058 0.148166,0.14816 0,0.0697 -0.06953,0.0248 -0.180133,-0.1162 z m 29.802665,-0.84666 c -0.105314,-0.13429 -0.102319,-0.13729 0.03197,-0.032 0.08149,0.0639 0.148166,0.13058 0.148166,0.14817 0,0.0697 -0.06953,0.0248 -0.180133,-0.1162 z m 78.418809,-0.74789 c 0.004,-0.0986 0.0241,-0.1187 0.0512,-0.0512 0.0245,0.0611 0.0215,0.13415 -0.007,0.16228 -0.0281,0.0281 -0.0481,-0.0219 -0.0445,-0.11112 z m 34.19865,-2.60725 c 0,-0.0176 0.0667,-0.0842 0.14817,-0.14816 0.13428,-0.10532 0.13728,-0.10232 0.032,0.032 -0.1106,0.14104 -0.18013,0.18589 -0.18013,0.1162 z m -11.15636,-2.00003 c 0,-0.16298 0.0174,-0.22966 0.0387,-0.14817 0.0213,0.0815 0.0213,0.21484 0,0.29634 -0.0213,0.0815 -0.0387,0.0148 -0.0387,-0.14817 z m 18.28173,-0.59267 c 0,-0.11641 0.0192,-0.16404 0.0427,-0.10583 0.0235,0.0582 0.0235,0.15346 0,0.21167 -0.0235,0.0582 -0.0427,0.0106 -0.0427,-0.10584 z M 99.441002,105.0819 c 0.08428,-0.0931 0.172294,-0.16933 0.195578,-0.16933 0.02328,0 -0.02663,0.0762 -0.110911,0.16933 -0.08428,0.0931 -0.172295,0.16933 -0.195578,0.16933 -0.02328,0 0.02663,-0.0762 0.110911,-0.16933 z M 80.948021,99.867863 c 0.0041,-0.09863 0.02412,-0.118694 0.05115,-0.05115 0.02446,0.06112 0.02145,0.134144 -0.0067,0.162278 -0.02813,0.02813 -0.04815,-0.02187 -0.04447,-0.111125 z M 30.056673,93.873952 c 0,-0.01758 0.06668,-0.08426 0.148166,-0.148167 0.134286,-0.105314 0.137281,-0.102319 0.03197,0.03197 -0.110606,0.141033 -0.180133,0.185884 -0.180133,0.1162 z M 227.07599,84.306619 c 0,-0.01758 0.0667,-0.08426 0.14817,-0.148167 0.13429,-0.105314 0.13728,-0.10232 0.032,0.03197 -0.11061,0.141033 -0.18014,0.185883 -0.18014,0.1162 z m 4.67004,-9.9587 c 0,-0.116417 0.0192,-0.164042 0.0427,-0.105834 0.0235,0.05821 0.0235,0.153459 0,0.211667 -0.0235,0.05821 -0.0427,0.01058 -0.0427,-0.105833 z m -6.43153,-1.312334 c 0.002,-0.1397 0.0207,-0.1866 0.0422,-0.104222 0.0215,0.08238 0.02,0.196678 -0.003,0.254 -0.0232,0.05732 -0.0408,-0.01008 -0.039,-0.149778 z m -31.10505,-7.72017 c 0.0611,-0.02446 0.13415,-0.02145 0.16228,0.0067 0.0281,0.02813 -0.0219,0.04815 -0.11112,0.04447 -0.0986,-0.0041 -0.1187,-0.02412 -0.0512,-0.05115 z m 8.46138,0.0018 c 0.0582,-0.02349 0.15346,-0.02349 0.21167,0 0.0582,0.02349 0.0106,0.0427 -0.10584,0.0427 -0.11641,0 -0.16404,-0.01922 -0.10583,-0.0427 z m -3.63538,-0.171097 c 0.0611,-0.02446 0.13415,-0.02145 0.16228,0.0067 0.0281,0.02813 -0.0219,0.04815 -0.11112,0.04447 -0.0986,-0.0041 -0.1187,-0.02412 -0.0512,-0.05115 z m -40.55533,-1.439334 c 0.0611,-0.02446 0.13415,-0.02145 0.16228,0.0067 0.0281,0.02813 -0.0219,0.04814 -0.11112,0.04447 -0.0986,-0.0041 -0.1187,-0.02412 -0.0512,-0.05115 z m 25.64871,-3.130902 c 0.0582,-0.02349 0.15346,-0.02349 0.21167,0 0.0582,0.02349 0.0106,0.0427 -0.10584,0.0427 -0.11641,0 -0.16404,-0.01922 -0.10583,-0.0427 z"
         id="path2" />
      <path
         style="fill:#333333;fill-opacity:1"
         d="m 15.707982,234.62313 c -0.264304,-0.13903 -0.636981,-0.38668 -0.82817,-0.55033 -0.375374,-0.32131 -0.61404,-0.3687 -0.872456,-0.17324 -0.226032,0.17096 -0.660615,0.16116 -0.819428,-0.0185 -0.07204,-0.0815 -0.367741,-0.62441 -0.657103,-1.2065 -0.550833,-1.10806 -0.894834,-1.64131 -1.012072,-1.56885 -0.03825,0.0236 -0.09593,0.18628 -0.128172,0.36142 -0.09198,0.49962 -0.350537,1.0161 -0.538551,1.07577 -0.262978,0.0835 -0.672523,-0.13035 -1.369356,-0.71492 C 8.5333439,231.03159 8.0658881,230.75342 7.4930075,230.64399 6.7908265,230.50987 6.2511917,230.33273 5.4765794,229.9821 4.7067425,229.63363 4.5817282,229.45769 4.3676897,228.42146 4.0905,227.0795 4.0299363,225.5305 4.0234341,219.61665 c -0.00402,-3.65299 -0.037086,-5.84961 -0.088843,-5.90137 -0.053483,-0.0535 -0.2068609,-0.0267 -0.4366089,0.0761 l -0.3541633,0.15856 -0.381365,-0.27114 -0.3813649,-0.27114 0.4994232,-0.75939 c 0.7970863,-1.212 0.7542823,-1.2619 -0.9827473,-1.14555 -0.6899491,0.0462 -1.26477326,0.0737 -1.27738695,0.0611 -0.0126137,-0.0126 0.11027023,-0.22073 0.27307539,-0.46248 0.34136626,-0.5069 0.43403476,-0.85184 0.29742386,-1.1071 -0.078363,-0.14642 -0.1746726,-0.17968 -0.52036305,-0.17968 -0.34282352,0 -0.46600244,-0.0418 -0.64208967,-0.21788 -0.30292074,-0.30292 -0.23814007,-0.58658 0.35746073,-1.56523 0.80200799,-1.31781 0.90809929,-1.60472 0.95201719,-2.57465 l 0.038453,-0.84924 0.5049535,-0.381 c 0.2777245,-0.20955 0.8987833,-0.78953 1.3801308,-1.28886 0.8656768,-0.89801 0.8780468,-0.90686 1.139528,-0.81571 0.1453929,0.0507 0.277623,0.0782 0.2938447,0.0612 0.016222,-0.017 0.1673754,-1.25016 0.3358972,-2.74029 0.3770632,-3.33414 0.521546,-4.36258 1.1478264,-8.17034 0.5260733,-3.1985 0.6446073,-4.064 0.5565845,-4.064 -0.030166,0 -0.6339818,0.50792 -1.3418131,1.12871 -0.7078313,0.62079 -2.163266,1.88289 -3.2342993,2.80467 -2.85695245,2.45882 -4.1615609,3.6794 -5.630333,5.26769 -0.7217833,0.78052 -1.9409832,2.06839 -2.7093331,2.86194 -1.0229505,1.05651 -1.5819667,1.71575 -2.0878139,2.46214 -0.3799477,0.56062 -1.2874165,1.73186 -2.0165981,2.60275 -1.118329,1.33567 -1.361314,1.58324 -1.552852,1.58214 -0.404033,-0.002 -0.48982,-0.11872 -0.282096,-0.3828 0.100115,-0.12727 0.182027,-0.33986 0.182027,-0.47242 0,-0.50392 -0.189884,-1.48435 -0.345693,-1.78492 -0.259784,-0.50115 -0.209899,-0.82681 0.266822,-1.74186 0.525934,-1.00952 0.610343,-1.45968 0.329711,-1.7584 -0.10763,-0.11457 -0.245321,-0.2083 -0.30598,-0.2083 -0.06066,0 -0.174613,-0.0982 -0.25323,-0.21816 -0.140986,-0.21517 -0.132861,-0.23803 0.594285,-1.67216 0.902434,-1.77985 0.991416,-2.1454 1.023763,-4.20568 0.03167,-2.01742 0.162663,-2.4173 1.2330611,-3.76429 1.4199789,-1.78689 2.1751943,-3.29248 2.4504918,-4.88526 0.1664655,-0.96312 0.4148897,-1.64198 0.8344542,-2.28028 0.7188308,-1.09359 3.1514606,-3.62595 4.8405667,-5.03902 0.91385424,-0.7645 6.6635971,-5.2829 8.3394137,-6.55347 1.6928268,-1.28347 7.8832995,-5.3801 10.8373325,-7.17175 6.578285,-3.9898 7.819836,-4.66834 16.128999,-8.81491 l 7.069666,-3.52802 0.889,0.007 c 0.816168,0.007 0.953012,0.0326 1.670344,0.3175 0.47545,0.1888 0.922931,0.30984 1.143,0.30917 0.913485,-0.003 3.393087,-0.68083 4.530402,-1.23879 0.430144,-0.21103 1.115944,-0.47013 1.524,-0.57579 0.902158,-0.2336 2.633985,-0.87868 3.15492,-1.17515 0.266047,-0.15142 0.610906,-0.24532 1.143,-0.31125 0.531402,-0.0659 0.954165,-0.18087 1.397,-0.38009 0.34925,-0.15711 1.053441,-0.40185 1.564869,-0.54385 0.778756,-0.21623 0.948368,-0.23969 1.043704,-0.14435 0.09534,0.0953 -0.02826,0.19609 -0.760536,0.61999 -0.480904,0.27838 -1.674471,0.91612 -2.65237,1.41719 -1.796189,0.92036 -2.299644,1.26174 -2.169246,1.47092 0.05569,0.0893 0.326547,0.0515 1.368267,-0.19134 0.714356,-0.1665 1.328332,-0.27323 1.364391,-0.23717 0.03606,0.0361 -0.295033,0.45215 -0.735759,0.92465 -0.440726,0.4725 -0.80132,0.90058 -0.80132,0.95128 0,0.12809 0.230375,0.11522 0.761546,-0.0425 0.668883,-0.19863 4.919874,-1.98131 6.43512,-2.6986 0.721783,-0.34168 1.540933,-0.68526 1.820333,-0.7635 1.249303,-0.34988 2.931783,-0.93847 3.513667,-1.22921 0.34925,-0.1745 0.9779,-0.40097 1.397,-0.50326 0.4191,-0.1023 1.12395,-0.33101 1.566333,-0.50824 0.442383,-0.17724 1.147233,-0.42452 1.566333,-0.54951 0.4191,-0.12499 1.701139,-0.54652 2.848976,-0.93673 1.147837,-0.39021 2.957587,-0.95708 4.021666,-1.25972 1.06408,-0.30264 2.366457,-0.70495 2.89417,-0.89403 1.139298,-0.40821 1.912896,-0.60976 3.243182,-0.84496 0.541931,-0.0958 1.046756,-0.19779 1.121833,-0.2266 0.193484,-0.0742 0.174702,0.15515 -0.0228,0.27849 -0.08762,0.0547 -0.401944,0.1419 -0.6985,0.19373 -0.855207,0.14947 -1.284736,0.30988 -2.952192,1.10248 -0.861483,0.40949 -2.134723,0.97957 -2.829422,1.26683 -1.916467,0.79248 -4.097596,1.77391 -6.441578,2.89847 -1.164166,0.55853 -2.547329,1.22091 -3.073696,1.47196 -0.526366,0.25105 -1.444092,0.74067 -2.039391,1.08805 -0.738911,0.43118 -1.410011,0.74394 -2.114928,0.98563 -0.567912,0.19472 -1.269436,0.50172 -1.558942,0.68223 -0.829446,0.51715 -1.574525,0.88325 -2.743989,1.34825 -0.596412,0.23715 -1.979736,0.9006 -3.074053,1.47433 -1.094316,0.57373 -4.161366,2.14615 -6.815666,3.49426 -5.064143,2.57207 -7.441772,3.82188 -10.667999,5.60766 -1.071034,0.59284 -2.880783,1.58508 -4.021667,2.20498 -2.472298,1.34331 -3.95931,2.20826 -6.179864,3.59466 -0.908491,0.56721 -2.680502,1.65251 -3.937802,2.41177 -2.576151,1.55569 -3.15321,1.94479 -3.758379,2.53425 -0.887519,0.86447 -1.280942,1.69921 -1.620389,3.43804 -0.1,0.51223 -0.422666,2.03623 -0.717046,3.38667 -0.990729,4.54486 -1.117602,5.27481 -1.394221,8.02148 -0.145936,1.44907 -0.156774,2.18085 -0.0323,2.18085 0.208341,0 2.014104,-1.0761 4.812882,-2.86812 0.8847,-0.56646 2.23725,-1.34977 3.005666,-1.7407 2.154504,-1.09609 8.473983,-4.11185 8.61631,-4.11185 0.238516,0 0.07299,0.6372 -0.247006,0.95087 -0.155935,0.15286 -0.402818,0.41102 -0.548631,0.57369 -0.145813,0.16268 -0.40412,0.40308 -0.574016,0.53423 -0.169896,0.13115 -0.411483,0.39785 -0.536861,0.59266 -0.125377,0.19482 -0.426648,0.57288 -0.66949,0.84013 -0.348475,0.38349 -0.453726,0.56722 -0.49939,0.87173 -0.108329,0.72239 0.124951,1.63546 0.518354,2.02887 0.201485,0.20148 0.332609,0.4857 0.540873,1.17238 0.348638,1.14951 0.35858,1.68419 0.04516,2.42884 -0.160431,0.38117 -0.250354,0.78636 -0.298045,1.34299 -0.048,0.56019 -0.114348,0.85772 -0.223219,1.00093 -0.08521,0.11209 -1.240771,0.81509 -2.567921,1.56222 -1.32715,0.74712 -3.327399,1.90126 -4.444999,2.56475 -1.1176,0.66348 -2.6416,1.56141 -3.386667,1.99538 -2.74312,1.59779 -3.610293,2.27056 -4.211734,3.26757 -0.365092,0.60522 -0.544778,1.12193 -0.651982,1.87488 -0.202361,1.42129 -0.38672,16.04775 -0.272642,21.63056 0.0922,4.51223 0.066,5.0493 -0.279577,5.73127 -0.409302,0.80772 -0.870283,0.94777 -1.693756,0.5146 z m 28.907654,-9.90355 c -0.211587,-0.0861 -0.607129,-0.18424 -0.878982,-0.2182 -0.422948,-0.0529 -0.542615,-0.1101 -0.829218,-0.3967 -0.459359,-0.45936 -0.545385,-0.70864 -0.788429,-2.28471 -0.116203,-0.75354 -0.249422,-1.51173 -0.296041,-1.68486 -0.124009,-0.46054 -0.510788,-1.27395 -0.591692,-1.24435 -0.03833,0.014 -0.438053,0.51172 -0.888273,1.10601 -0.450221,0.59428 -0.893981,1.12086 -0.986134,1.17018 -0.126989,0.068 -0.217416,0.057 -0.373539,-0.0453 -0.113294,-0.0742 -0.205989,-0.17225 -0.205989,-0.21782 0,-0.0456 -0.188644,-0.21839 -0.419208,-0.38403 -0.230564,-0.16565 -0.442694,-0.37517 -0.471399,-0.46561 -0.04413,-0.13903 -0.103428,-0.15625 -0.383796,-0.11141 -0.239866,0.0384 -0.392487,0.0131 -0.551673,-0.0912 -0.450091,-0.29491 -0.446701,-0.24516 -0.416726,-6.11706 0.01739,-3.40596 0.06154,-5.60323 0.118233,-5.88433 0.04977,-0.24675 0.187135,-1.72499 0.305264,-3.28497 0.220083,-2.90638 0.366269,-4.50197 0.798974,-8.72067 0.136124,-1.32715 0.272934,-2.8321 0.304022,-3.34433 0.03236,-0.53325 0.145505,-1.27513 0.2647,-1.73567 0.114496,-0.44238 0.299171,-1.4213 0.410389,-2.17537 0.281597,-1.90928 0.732499,-3.86074 1.232729,-5.33514 0.279304,-0.82323 0.440925,-1.4556 0.471583,-1.84515 0.04333,-0.55051 0.08354,-0.64838 0.565361,-1.37584 l 0.518717,-0.78316 h 0.625721 c 0.49113,0 0.698278,-0.0408 0.963048,-0.18959 0.331663,-0.18641 0.574727,-0.51786 0.574727,-0.78372 0,-0.27712 0.38088,-0.5332 0.887102,-0.59645 0.463823,-0.058 0.512675,-0.0882 1.048527,-0.64959 0.45271,-0.47427 0.620997,-0.73153 0.865135,-1.32256 0.379256,-0.91813 1.552344,-3.28951 1.762139,-3.56214 0.302903,-0.39363 0.396711,-0.20018 0.500214,1.03151 0.06278,0.74707 0.157142,1.3041 0.273689,1.6156 0.09783,0.26148 0.157522,0.50835 0.132646,0.54859 -0.02488,0.0403 0.344047,0.19333 0.819827,0.34018 0.975814,0.30118 1.365166,0.56111 1.593463,1.06377 0.242146,0.53315 0.195277,1.05383 -0.263697,2.92949 -1.501228,6.13496 -2.87812,15.70092 -3.38154,23.49324 -0.184471,2.85539 -0.431741,12.2803 -0.458698,17.48367 -0.01731,3.34033 -0.01761,3.34271 -0.491085,3.78479 -0.494544,0.46175 -1.59566,0.59373 -2.360091,0.28287 z m 30.196881,-9.89419 c -0.43825,-1.12062 -0.685396,-1.43161 -1.202797,-1.51352 -0.181894,-0.0288 -0.463386,-0.14166 -0.625537,-0.25082 -0.424104,-0.2855 -0.852654,-0.25947 -1.596355,0.0969 -0.592283,0.28384 -1.77444,0.6882 -1.825393,0.62437 -0.01351,-0.0169 -0.133505,-0.53976 -0.266646,-1.16184 -0.262832,-1.22806 -0.23972,-1.20578 -0.633986,-0.61124 l -0.129867,0.19583 -0.27077,-0.22783 c -0.41112,-0.34594 -0.490522,-0.72797 -0.375473,-1.80654 0.15401,-1.44381 0.213165,-4.04244 0.09696,-4.25957 -0.09704,-0.18132 -0.116938,-0.18305 -1.253464,-0.10892 -0.635171,0.0414 -1.897806,0.0735 -2.805856,0.0712 -1.823825,-0.005 -2.124143,-0.0563 -3.513666,-0.60556 -1.014905,-0.40117 -1.49841,-0.73727 -2.158416,-1.50041 -0.303005,-0.35036 -1.008117,-1.12812 -1.566917,-1.72837 -1.560027,-1.67575 -2.362541,-3.12409 -2.470621,-4.45887 -0.02948,-0.36408 -0.137933,-0.80492 -0.281192,-1.143 -0.559966,-1.32146 -0.847661,-6.79488 -0.480629,-9.144 0.309327,-1.97978 0.837334,-3.84064 1.548839,-5.45859 0.212942,-0.48422 0.37127,-0.97393 0.37127,-1.14833 0,-0.22622 0.06398,-0.36536 0.249886,-0.54347 0.137437,-0.13167 0.272564,-0.34266 0.300282,-0.46886 0.08283,-0.37711 0.747172,-1.42934 1.443783,-2.28675 0.35942,-0.44238 0.787401,-1.01388 0.95107,-1.27 0.417585,-0.65345 1.996813,-2.20209 3.150978,-3.08994 0.535517,-0.41194 1.240367,-0.99534 1.566333,-1.29644 0.624825,-0.57715 2.639315,-1.94779 4.064,-2.76511 0.921469,-0.52863 1.143,-0.69383 1.143,-0.85236 0,-0.057 0.104775,-0.14436 0.232833,-0.19418 3.588078,-1.39578 7.587613,-2.83046 9.357851,-3.35677 1.966918,-0.58479 2.227585,-0.64319 2.640582,-0.59159 0.41949,0.0524 0.476896,0.0386 0.678997,-0.16351 0.360617,-0.36062 0.44578,-0.29489 0.509282,0.39307 0.09405,1.01893 -0.356368,5.51459 -0.587911,5.86797 -0.21041,0.32113 -0.65157,0.60635 -1.168801,0.75567 -0.267759,0.0773 -0.486723,0.18546 -0.486589,0.24037 1.35e-4,0.0549 0.18111,0.1955 0.402167,0.31244 0.483219,0.25561 0.498969,0.41264 0.122153,1.21788 -0.45575,0.97391 -0.868999,1.30803 -2.350657,1.90051 -0.462499,0.18494 -1.526707,0.63997 -2.364907,1.01117 -0.8382,0.3712 -1.902147,0.79672 -2.364327,0.9456 -1.058143,0.34086 -2.938175,1.29427 -4.119668,2.08919 -0.330348,0.22226 -3.141703,3.31662 -3.759274,4.1377 -0.734861,0.97702 -1.206832,2.02866 -1.785907,3.97933 l -0.326742,1.10067 -0.0027,1.56633 c -0.0024,1.38708 0.01959,1.64385 0.192151,2.24367 0.3871,1.34557 1.424985,3.08935 2.315072,3.88961 0.532653,0.4789 0.888518,0.56425 2.220356,0.53253 1.049528,-0.025 1.096492,-0.034 1.276364,-0.24306 0.342972,-0.39873 1.086312,-3.45942 0.840178,-3.45942 -0.01946,0 -0.300187,0.13335 -0.623828,0.29634 -0.746947,0.37615 -1.09397,0.38702 -1.38318,0.0433 -0.117095,-0.13915 -0.275262,-0.46753 -0.351484,-0.72973 -0.168289,-0.57889 -0.425624,-0.99749 -0.847289,-1.37824 -0.218042,-0.19689 -0.460039,-0.5901 -0.772753,-1.25563 -0.250412,-0.53294 -0.455294,-1.03621 -0.455294,-1.11839 0,-0.253 0.269169,-0.41752 1.833668,-1.12082 2.771206,-1.24574 4.11685,-1.77942 6.505998,-2.58024 1.376324,-0.46132 2.814569,-1.00613 3.429,-1.2989 0.64414,-0.30692 1.339984,-0.56806 1.778,-0.66724 0.395816,-0.0896 1.048336,-0.24827 1.450044,-0.35255 0.523145,-0.13581 0.838236,-0.17343 1.11052,-0.1326 l 0.380144,0.057 0.04324,1.49934 c 0.02499,0.86646 0.08627,1.60656 0.145173,1.75334 0.231932,0.57793 0.551285,2.93822 0.466149,3.44523 -0.103652,0.61729 -0.386181,0.76168 -1.932427,0.98759 -0.72187,0.10546 -0.945616,0.29296 -1.063654,0.89135 -0.047,0.23824 -0.314453,3.02397 -0.594349,6.1905 -0.70864,8.01702 -0.739977,8.40253 -0.980756,12.065 -0.117863,1.79282 -0.23414,3.32421 -0.258392,3.4031 -0.02425,0.0789 -0.263228,0.33327 -0.531058,0.56529 -0.529605,0.45881 -0.82904,0.93886 -1.112092,1.7829 -0.245137,0.73098 -0.48783,1.19138 -0.628027,1.19138 -0.06881,0 -0.273307,-0.40383 -0.506666,-1.00053 z m 14.482599,-1.2169 c -0.02693,-0.15413 -0.167698,-1.27084 -0.31281,-2.48157 -0.295051,-2.46174 -0.304181,-2.48817 -0.979257,-2.83475 -0.525502,-0.26979 -0.711401,-0.61524 -0.711581,-1.32231 -7.3e-5,-0.28402 -0.02458,-0.8056 -0.05446,-1.15907 l -0.05433,-0.64268 -0.283411,0.19258 c -0.155875,0.10592 -0.399401,0.35271 -0.541168,0.54841 -0.474563,0.65512 -0.904086,0.64774 -1.240079,-0.0213 -0.11975,-0.23845 -0.228502,-0.44573 -0.241671,-0.46062 -0.01317,-0.0149 -0.178517,0.0518 -0.367441,0.14816 -0.448817,0.22897 -0.527674,0.2221 -0.807937,-0.0704 l -0.235374,-0.24568 0.01126,-2.9261 c 0.0084,-2.18746 0.04324,-3.10323 0.137969,-3.62782 0.216161,-1.19709 0.713175,-9.28161 0.713175,-11.60064 0,-1.22352 0.04801,-1.85456 0.248594,-3.2674 0.136727,-0.96306 0.28962,-2.32252 0.339763,-3.02102 0.165726,-2.30863 0.268523,-3.17818 0.431836,-3.65285 0.108769,-0.31615 0.3022,-1.73056 0.592825,-4.33487 0.241267,-2.16202 0.547169,-4.46262 0.69412,-5.22028 0.181579,-0.93619 0.264666,-1.62166 0.268969,-2.21897 l 0.0062,-0.8643 0.550333,-0.34586 c 0.731367,-0.45963 1.727807,-0.9337 2.084037,-0.99151 0.424259,-0.0688 1.543717,0.35399 1.645425,0.6215 0.04199,0.11045 0.09434,0.20081 0.116331,0.20081 0.02199,0 0.312106,-0.31433 0.644701,-0.6985 0.382002,-0.44125 0.725681,-0.95187 0.933154,-1.38646 0.180639,-0.37837 0.523414,-0.9213 0.761721,-1.2065 0.524291,-0.62745 0.754256,-0.67688 1.023807,-0.22002 0.09687,0.16419 0.245482,0.33564 0.330245,0.381 0.220462,0.11799 0.726812,0.10018 1.265912,-0.0445 0.593576,-0.15932 0.816214,-0.15915 0.877549,6.9e-4 0.05551,0.14466 -0.07335,1.25718 -0.500049,4.31731 -0.444753,3.18957 -1.128231,9.27514 -1.077776,9.59631 0.03706,0.23592 0.07435,0.27619 0.224199,0.24212 0.09886,-0.0225 0.865544,-0.23035 1.703744,-0.46196 0.8382,-0.23161 1.896851,-0.50593 2.352558,-0.6096 0.678461,-0.15435 0.853861,-0.22711 0.968231,-0.40167 0.10135,-0.15468 0.19246,-0.75069 0.33211,-2.17252 0.33782,-3.43953 0.46086,-4.44663 0.84453,-6.91235 0.20651,-1.32715 0.46787,-3.03877 0.58081,-3.8036 0.24594,-1.66565 0.311,-1.78054 0.92125,-1.62688 0.83196,0.20949 1.37533,0.0828 2.21853,-0.51717 0.82679,-0.58831 1.53977,-0.8394 2.70398,-0.95227 1.13736,-0.11026 1.64856,-0.51748 1.71921,-1.36953 0.0313,-0.37696 0.0679,-0.46013 0.21753,-0.4939 0.75386,-0.17014 0.98547,-0.20743 1.29981,-0.20925 0.46133,-0.003 0.65555,0.25499 0.62718,0.83204 -0.0106,0.21646 -0.28319,2.50811 -0.60566,5.09256 -1.41134,11.31119 -1.92362,16.68268 -2.28514,23.96067 -0.0497,1.00118 -0.18262,3.45863 -0.2953,5.461 -0.27332,4.85666 -0.35905,6.84751 -0.50676,11.76866 -0.20729,6.90594 -0.21855,7.12448 -0.38267,7.43162 -0.0802,0.15018 -0.24507,0.30851 -0.36625,0.35185 -0.19819,0.0709 -0.25681,0.0376 -0.58315,-0.33154 -0.58308,-0.65946 -0.74343,-0.94055 -1.04156,-1.82582 -0.34929,-1.03719 -0.49246,-1.28261 -0.92572,-1.58694 -0.47882,-0.33633 -1.29132,-0.7795 -1.42912,-0.7795 -0.20371,0 -0.37309,0.28157 -0.55054,0.91519 -0.16999,0.60696 -0.4289,1.13228 -0.75894,1.53986 l -0.16603,0.20504 -0.31654,-0.49483 c -0.49052,-0.7668 -0.71566,-1.32691 -0.84193,-2.09457 -0.0638,-0.38813 -0.1614,-0.81999 -0.2168,-0.95969 -0.0554,-0.1397 -0.1349,-0.34143 -0.17668,-0.44829 -0.0727,-0.18608 -0.0972,-0.17156 -0.57861,0.34302 -0.27645,0.29553 -0.577068,0.62925 -0.668038,0.74159 -0.145623,0.17984 -0.191411,0.19241 -0.38294,0.10514 -0.542093,-0.24699 -0.651066,-1.25354 -0.446928,-4.12813 0.07606,-1.07103 0.195839,-3.52848 0.266178,-5.461 0.14106,-3.87555 0.240225,-5.73213 0.424918,-7.95539 0.14226,-1.71248 0.154032,-2.34465 0.04492,-2.41209 -0.154716,-0.0956 -4.221298,0.9934 -4.770992,1.27765 -0.134447,0.0695 -0.295767,0.24923 -0.358488,0.39935 -0.08372,0.20036 -0.22812,2.87214 -0.543097,10.04854 -0.235982,5.37659 -0.467048,10.08041 -0.51348,10.45294 -0.07003,0.56191 -0.121437,0.7098 -0.301621,0.86784 -0.11946,0.10477 -0.31985,0.19108 -0.445312,0.19179 -0.125461,7.2e-4 -0.274635,0.0309 -0.331497,0.067 -0.05686,0.0361 -0.386548,0.65467 -0.732634,1.37454 -0.591036,1.22936 -0.991757,2.33621 -1.109899,3.06568 -0.05031,0.31064 -0.05942,0.3175 -0.42166,0.3175 -0.203631,0 -0.425836,0.0213 -0.493788,0.0474 -0.08822,0.0339 -0.137553,-0.0327 -0.17252,-0.23284 z m 34.610264,-3.15438 c -0.60573,-0.92928 -0.92193,-1.63233 -1.08905,-2.4214 -0.0735,-0.34712 -0.24957,-0.99308 -0.39124,-1.43546 -0.29827,-0.93139 -0.58955,-2.51285 -0.59023,-3.20458 -2.6e-4,-0.26313 -0.0398,-0.61992 -0.0878,-0.79286 -0.20581,-0.74103 -0.45358,-0.4595 -1.00171,1.13818 -0.52502,1.53032 -0.58446,1.64711 -1.01379,1.99209 l -0.34328,0.27583 -0.22512,-0.28213 c -0.46264,-0.57981 -1.11661,-2.4151 -1.43858,-4.0372 -0.16857,-0.84928 -0.64215,-2.46747 -0.76468,-2.61285 -0.0141,-0.0168 -0.25357,0.14849 -0.53205,0.36728 -0.28643,0.22503 -0.57257,0.38504 -0.65884,0.36843 -0.19869,-0.0383 -0.58541,-0.96447 -0.70014,-1.67687 -0.0478,-0.29668 -0.11143,-1.01857 -0.14145,-1.6042 -0.0474,-0.92387 -0.0303,-1.16563 0.12899,-1.82679 0.27481,-1.14073 0.35419,-2.34024 0.35298,-5.334 -8.5e-4,-2.11453 0.0283,-2.86732 0.13284,-3.429 0.10912,-0.58636 0.12564,-1.13214 0.0892,-2.94643 l -0.0447,-2.22677 0.21067,0.13803 c 0.11586,0.0759 0.23177,0.11693 0.25757,0.0911 0.0258,-0.0258 0.006,-0.83772 -0.0443,-1.80427 -0.0502,-0.96656 -0.0778,-1.77073 -0.0615,-1.78706 0.0163,-0.0163 0.10914,0.0128 0.20627,0.0648 0.21194,0.11343 0.20658,0.22163 0.0916,-1.84982 -0.075,-1.35181 -0.0679,-1.52673 0.0863,-2.13078 0.11516,-0.45101 0.16802,-0.9379 0.16802,-1.54744 0,-0.61193 0.0557,-1.12257 0.17856,-1.6369 0.13633,-0.57078 0.16592,-0.88588 0.12513,-1.33274 -0.0483,-0.52929 -0.0354,-0.60444 0.13553,-0.78635 0.1425,-0.15168 0.18298,-0.28379 0.16467,-0.53742 -0.0134,-0.18497 0.0382,-0.52445 0.11459,-0.75441 0.10353,-0.3117 0.11596,-0.46091 0.0489,-0.58629 -0.12624,-0.23589 -0.11209,-0.4379 0.0427,-0.6089 0.0776,-0.0858 0.2006,-0.56283 0.29638,-1.14967 0.1252,-0.76718 0.85642,-6.29991 1.15777,-8.76027 0.0412,-0.33608 -0.15622,-0.81264 -0.37067,-0.89494 -0.099,-0.038 -0.10463,-0.0652 -0.0237,-0.11527 0.0585,-0.0361 0.19102,-0.01 0.29569,0.0588 0.17925,0.11745 0.19234,0.11123 0.23813,-0.11321 0.23851,-1.16901 0.2747,-2.05557 0.12832,-3.14331 l -0.0927,-0.68908 0.29366,-0.34307 c 0.34951,-0.40832 0.54373,-0.99602 0.61527,-1.8617 0.0289,-0.34925 0.10819,-0.9398 0.17627,-1.31233 0.0681,-0.37254 0.14652,-1.11601 0.17429,-1.65218 0.0457,-0.88318 0.0337,-1.00779 -0.12831,-1.32531 -0.20805,-0.40782 -0.64624,-0.79338 -1.2375,-1.08888 -0.61271,-0.30622 -1.2296,-0.28451 -2.31645,0.0815 -0.47493,0.15994 -1.16997,0.35331 -1.54453,0.42971 -0.37457,0.0764 -0.9555,0.23292 -1.29096,0.34782 -0.33547,0.11491 -1.28343,0.39636 -2.10659,0.62544 -1.43016,0.398 -1.70467,0.49508 -3.0853,1.09112 -0.33145,0.14308 -1.32205,0.4671 -2.20134,0.72003 -3.46756,0.99744 -6.825997,2.18065 -7.229038,2.54686 -0.615932,0.55964 -4.223296,1.43589 -4.048848,0.98349 0.01495,-0.0388 0.389131,-0.37558 0.831515,-0.74846 0.442383,-0.37289 0.971833,-0.83436 1.176556,-1.02549 l 0.372223,-0.34752 -0.05132,-0.54951 c -0.02822,-0.30223 -0.109998,-0.663 -0.181723,-0.8017 -0.17666,-0.34162 -0.164392,-0.42967 0.06009,-0.43131 0.412154,-0.003 0.856705,-0.3571 1.121833,-0.89353 0.1397,-0.28265 0.422064,-0.71437 0.627475,-0.95937 0.214945,-0.25638 0.440491,-0.6486 0.531354,-0.92403 0.268072,-0.81258 0.682033,-1.28909 1.465833,-1.68732 0.80197,-0.40745 4.79733,-1.94294 7.493,-2.87969 3.0353,-1.05476 4.73091,-1.61896 8.59367,-2.85948 1.2573,-0.40378 2.68605,-0.89818 3.175,-1.09867 0.48895,-0.20048 1.3081,-0.48524 1.82033,-0.63279 0.51223,-0.14755 2.32198,-0.70165 4.02167,-1.23134 3.59727,-1.12105 9.0882,-2.71654 12.53066,-3.64102 1.32715,-0.3564 3.49885,-0.95051 4.826,-1.32023 3.09605,-0.86251 11.19159,-2.89196 15.494,-3.88415 1.83938,-0.42418 4.63973,-1.10962 6.223,-1.52319 4.08861,-1.06799 5.3607,-1.37894 7.27535,-1.77838 0.92804,-0.19361 3.63314,-0.78842 6.01133,-1.32179 2.37819,-0.53337 5.52229,-1.23818 6.98688,-1.56625 2.76661,-0.61972 2.87726,-0.63061 3.51147,-0.34568 l 0.33236,0.14932 -0.41703,0.27768 c -0.33725,0.22456 -0.48181,0.27143 -0.75569,0.24501 -0.26345,-0.0254 -0.64683,0.0861 -1.72617,0.50214 -0.76312,0.29415 -1.40215,0.53482 -1.42006,0.53482 -0.0179,0 -0.19363,0.14801 -0.3905,0.32892 -0.26469,0.24324 -0.50131,0.36541 -0.90827,0.46895 -0.64105,0.1631 -1.07956,0.42941 -1.40099,0.85083 -0.21522,0.28217 -0.22582,0.33656 -0.172,0.88275 0.0524,0.5314 0.0404,0.60095 -0.13733,0.79932 -0.10708,0.11951 -0.53758,0.36365 -0.95668,0.54255 -0.50491,0.21552 -1.23457,0.65624 -2.16266,1.30624 -0.77036,0.53954 -1.63091,1.09722 -1.91234,1.23928 -0.62211,0.31404 -1.02156,0.74642 -1.08845,1.17818 -0.13107,0.84598 -0.17784,0.98456 -0.38222,1.13255 -0.14741,0.10674 -0.91844,0.27271 -2.54,0.54675 -1.28058,0.21642 -3.07128,0.57717 -3.97933,0.80166 -0.90805,0.2245 -2.27965,0.52848 -3.048,0.67551 -0.76835,0.14703 -2.27509,0.47136 -3.3483,0.72072 -1.07322,0.24937 -2.72522,0.58986 -3.67112,0.75665 -2.10677,0.37148 -2.13659,0.37803 -4.07191,0.89495 -0.86149,0.23011 -2.57599,0.64596 -3.81,0.92413 -1.23402,0.27816 -3.52002,0.82743 -5.08,1.22059 -1.55999,0.39316 -3.44537,0.85108 -4.18975,1.0176 -1.3015,0.29115 -1.42167,0.33662 -3.13267,1.18528 -2.05426,1.01891 -2.87153,1.61165 -3.77324,2.73661 -0.63423,0.79127 -1.30374,2.02274 -1.67084,3.07331 -0.73755,2.11071 -1.50526,5.8765 -2.17481,10.668 -0.12039,0.86148 -0.40923,2.77633 -0.64187,4.25521 -0.5392,3.42765 -0.64295,4.32555 -1.81226,15.68379 -0.74265,7.21372 -1.12843,13.73939 -1.65676,28.02466 -0.19739,5.33713 -0.19599,5.32643 -0.70846,5.42257 -0.1619,0.0304 -0.33381,0.0308 -0.38203,0.001 -0.10756,-0.0665 -0.13292,0.0415 -0.34702,1.47674 -0.0938,0.62865 -0.23066,1.35092 -0.30419,1.60505 -0.14723,0.50878 -0.49058,1.23178 -0.62419,1.31435 -0.0469,0.029 -0.29766,-0.27304 -0.5572,-0.67121 z m 22.99196,-2.62848 -0.19818,-0.21095 0.23759,-0.48755 c 0.29901,-0.61355 0.5592,-0.99177 1.26373,-1.83696 0.70054,-0.8404 2.24486,-3.04397 2.98123,-4.25388 0.60415,-0.99266 1.76664,-3.26676 2.62737,-5.13976 0.38093,-0.82892 0.56761,-1.35338 0.63287,-1.778 0.0509,-0.33125 0.18753,-0.83088 0.3036,-1.11028 0.25296,-0.6089 2.14178,-6.21981 2.14178,-6.36234 0,-0.0549 -0.16192,-0.1266 -0.35983,-0.15938 -0.70958,-0.11755 -0.87133,-0.28982 -0.95052,-1.01238 -0.0307,-0.28008 -0.15919,-0.77593 -0.28553,-1.1019 -0.21008,-0.542 -0.25041,-0.59267 -0.47176,-0.59267 -0.22362,0 -0.25284,-0.0387 -0.3839,-0.508 -0.26191,-0.93787 -0.621,-1.38075 -1.2795,-1.57804 -0.2545,-0.0763 -0.34848,-0.15435 -0.38479,-0.31976 -0.1857,-0.84596 -0.40913,-1.27799 -0.95789,-1.85221 -0.44708,-0.46783 -0.59607,-0.8004 -0.4572,-1.02055 0.0889,-0.14093 0.22424,-0.18849 2.56759,-0.90221 1.42264,-0.43329 3.64206,-1.24013 3.85233,-1.40045 0.0466,-0.0355 0.24486,-0.10738 0.44065,-0.15972 0.43826,-0.11717 0.85715,-0.45859 1.00924,-0.8226 0.063,-0.15076 0.17394,-0.81929 0.24654,-1.48562 0.0726,-0.66632 0.22532,-1.83119 0.33937,-2.5886 0.11405,-0.7574 0.34105,-2.3957 0.50443,-3.64066 0.16339,-1.24497 0.33391,-2.47313 0.37893,-2.72924 0.045,-0.25612 0.1416,-1.30387 0.21459,-2.32834 0.1629,-2.28607 0.24244,-2.86646 0.472,-3.44405 0.16919,-0.42568 0.17331,-0.49813 0.0744,-1.3095 -0.0785,-0.64392 -0.0808,-0.92727 -0.009,-1.13211 0.13626,-0.39087 0.33318,-1.61372 0.39519,-2.454 0.0292,-0.39582 0.12607,-1.46262 0.21524,-2.37067 0.66992,-6.8215 0.75207,-7.98914 0.58415,-8.3029 -0.1045,-0.19525 -0.35817,-0.21372 -0.50503,-0.0368 -0.0654,0.0789 -0.25396,0.12764 -0.4972,0.12868 -0.71373,0.003 -1.55965,0.16513 -3.11962,0.59772 -0.84838,0.23525 -1.66703,0.4157 -1.81923,0.401 -0.20803,-0.0201 -0.31905,-0.0966 -0.44717,-0.30805 -0.0937,-0.15473 -0.36094,-0.51631 -0.59377,-0.80351 -0.63605,-0.78457 -1.21446,-2.22242 -1.22398,-3.04267 -0.005,-0.45686 -0.26023,-0.68948 -0.6921,-0.63155 -0.2588,0.0347 -0.34739,0.0119 -0.41027,-0.10556 -0.10779,-0.20141 -0.44198,-0.31839 -1.09793,-0.38433 -0.34742,-0.0349 -0.67519,-0.1308 -0.90239,-0.26395 -0.29644,-0.17372 -1.05296,-0.39446 -2.31759,-0.67622 l -0.20959,-0.0467 0.20959,-0.162 c 0.62525,-0.48329 8.39423,-2.74677 16.80425,-4.89589 10.47444,-2.67667 14.07954,-3.01557 18.51426,-1.74047 1.29289,0.37174 1.74532,0.56701 3.66841,1.58325 2.01458,1.06459 2.98794,1.69483 4.11123,2.66198 1.92826,1.66023 3.10512,2.96564 4.05201,4.49462 0.58934,0.95163 2.17334,3.98225 2.47454,4.73446 0.83335,2.08119 1.1145,4.97616 0.78874,8.12141 -0.45142,4.35847 -1.02163,6.02267 -3.44863,10.06512 -1.29468,2.15644 -1.66055,2.6579 -2.78847,3.82177 -0.89841,0.92704 -1.08309,1.1609 -1.08309,1.37149 0,0.13964 0.022,0.31108 0.0488,0.38099 0.0268,0.0699 0.7031,0.7292 1.50283,1.46511 2.29424,2.11113 3.62605,3.43874 4.91414,4.89864 0.65738,0.74506 2.06848,2.25001 3.13578,3.34433 4.65297,4.77076 8.33276,9.25345 13.86564,16.891 1.96148,2.70762 2.18683,3.05256 2.18683,3.34732 0,0.3538 -0.27262,0.42035 -1.722,0.42035 -0.70988,0 -1.7295,0.0575 -2.26581,0.12788 -1.7856,0.23417 -2.54964,-0.11338 -3.33448,-1.5168 -0.42343,-0.75717 -0.54348,-0.81123 -0.96191,-0.4332 -0.18149,0.16396 -0.40978,0.29812 -0.5073,0.29812 -0.0975,0 -0.55529,-0.24765 -1.01725,-0.55034 -0.46196,-0.30268 -0.85771,-0.55033 -0.87944,-0.55033 -0.0217,0 -0.0356,0.27623 -0.0308,0.61383 0.006,0.41094 -0.0427,0.74703 -0.14679,1.01678 l -0.15547,0.40295 -0.42479,-0.23361 c -0.23363,-0.12849 -0.487,-0.32887 -0.56303,-0.44528 -0.27293,-0.41788 -0.57623,-0.53653 -0.77116,-0.30166 -0.0555,0.0669 -0.19158,0.65629 -0.30231,1.30971 -0.22234,1.31199 -0.29582,1.51302 -0.57238,1.56593 -2.24121,0.42878 -2.51213,0.44471 -3.02147,0.17765 -0.39939,-0.20942 -0.76499,-0.68386 -1.04743,-1.35929 -0.32698,-0.78193 -1.72376,-3.10428 -3.63818,-6.04901 -1.92683,-2.96381 -2.70374,-4.03965 -3.84031,-5.31792 -1.51242,-1.70099 -1.49424,-1.67666 -1.54677,-2.07023 -0.044,-0.32936 -0.07,-0.36099 -0.31717,-0.38494 -0.24812,-0.024 -0.36401,-0.16702 -1.4755,-1.82033 -1.47068,-2.18761 -1.93086,-2.79957 -3.2913,-4.37695 -2.86011,-3.31618 -2.87019,-3.32563 -3.36449,-3.15323 -0.12949,0.0452 -0.94029,0.51892 -1.80177,1.0528 -3.63823,2.25468 -5.64013,3.40905 -6.79779,3.91986 -0.59718,0.26349 -0.67424,0.32527 -0.81589,0.65413 -0.0962,0.22327 -0.17833,0.68926 -0.21328,1.20981 -0.26127,3.89085 -1.86162,11.33437 -3.24018,15.07067 -0.50987,1.3819 -1.76693,3.90686 -2.88738,5.79966 -1.04203,1.76033 -1.22197,1.94281 -2.13606,2.16631 -1.07385,0.26256 -1.49313,-0.0561 -1.59875,-1.2151 l -0.0483,-0.53046 -0.46566,0.31016 c -0.25612,0.17058 -0.68168,0.51384 -0.9457,0.7628 -0.26402,0.24896 -0.58787,0.49408 -0.71967,0.54471 -0.1318,0.0506 -0.57219,0.0889 -0.97865,0.085 -0.6074,-0.006 -0.87528,0.0382 -1.5041,0.2471 -0.66769,0.22183 -0.88614,0.25423 -1.71631,0.25454 -0.91585,3.5e-4 -0.96541,0.01 -1.33224,0.25464 -0.77974,0.52038 -1.13708,0.59942 -3.81,0.84273 -0.53551,0.0488 -1.44991,0.20225 -2.032,0.34111 -0.71624,0.17086 -1.27934,0.2528 -1.74207,0.25348 -0.61991,9.2e-4 -0.70224,-0.0187 -0.88192,-0.20994 z m 29.26215,-41.37441 c 1.31515,-0.80875 2.09687,-1.3862 4.19462,-3.09853 1.50495,-1.22845 1.61394,-1.35472 1.71967,-1.99227 0.0416,-0.25061 0.2064,-0.48312 0.75029,-1.05833 0.8259,-0.87347 1.24856,-1.45478 2.14758,-2.95372 0.51031,-0.85083 0.69739,-1.09851 0.7876,-1.04275 0.0651,0.0402 0.14415,0.0572 0.17571,0.0377 0.0316,-0.0195 0.0844,-0.39614 0.11747,-0.83697 l 0.0601,-0.80151 0.19131,0.22241 0.19132,0.22242 0.18015,-0.59312 c 0.37253,-1.22648 0.45322,-1.6504 0.40621,-2.13412 -0.0255,-0.26261 -0.0813,-1.14422 -0.12391,-1.95914 -0.0601,-1.14851 -0.11551,-1.57685 -0.2465,-1.905 -0.0929,-0.23283 -0.25337,-0.80433 -0.35651,-1.27 -0.27525,-1.24275 -0.38858,-1.5983 -0.68927,-2.16245 -0.82636,-1.55041 -3.53662,-3.08914 -6.34696,-3.60345 -0.9981,-0.18265 -3.37774,-0.21581 -3.76438,-0.0525 -0.52369,0.22127 -0.4993,-0.0479 -0.56171,6.19936 -0.0314,3.14325 -0.15593,8.7551 -0.27673,12.47079 -0.16153,4.96859 -0.19504,6.80173 -0.12667,6.92947 0.12947,0.24193 0.24708,0.19563 1.57062,-0.61829 z m -43.65616,30.94415 c -0.2652,-0.10094 -0.49814,-0.39524 -0.54843,-0.6929 -0.0556,-0.32882 0.20765,-7.22073 0.42402,-11.10255 0.45859,-8.22778 1.15394,-15.7999 2.3247,-25.31534 0.36955,-3.00355 0.73145,-5.95101 0.80422,-6.54993 0.0728,-0.59891 0.1706,-1.16049 0.21741,-1.24795 0.12719,-0.23766 0.4132,-0.35461 1.9078,-0.78009 0.74913,-0.21326 1.95645,-0.64001 2.68293,-0.94833 1.07899,-0.45793 1.35183,-0.54403 1.48988,-0.47014 0.25106,0.13436 0.55554,0.11037 0.96104,-0.0757 0.41318,-0.18963 3.97664,-1.12849 6.11943,-1.61229 0.79164,-0.17873 2.13043,-0.48081 2.97511,-0.6713 0.84468,-0.19048 1.89243,-0.39942 2.32834,-0.46432 0.94196,-0.14023 1.15351,-0.065 1.43139,0.50902 0.18007,0.37198 0.41557,1.35879 0.41802,1.75163 0.002,0.3911 -0.18924,0.73861 -1.4681,2.66159 -0.67455,1.0143 -1.24827,1.92112 -1.27494,2.01514 -0.0451,0.15897 -0.0101,0.17084 0.49879,0.16933 0.78567,-0.002 0.8699,0.10497 0.89596,1.14138 0.0306,1.21497 0.0265,1.23757 -0.23773,1.33753 -0.12806,0.0484 -0.40429,0.11148 -0.61384,0.14009 -0.20955,0.0286 -0.5334,0.10824 -0.71966,0.17694 -0.18627,0.0687 -1.71027,0.41087 -3.38667,0.76037 -4.03356,0.84094 -5.38804,1.14192 -5.56596,1.23685 -0.20799,0.11096 -0.36996,0.46912 -0.43532,0.96256 -0.32578,2.45976 -0.63136,5.33895 -0.58909,5.55034 0.029,0.14513 0.0991,0.28166 0.15576,0.3034 0.13467,0.0517 3.74252,-0.71982 5.6168,-1.20109 1.71258,-0.43974 1.97108,-0.45908 2.26099,-0.16917 0.30353,0.30354 0.27445,0.9175 -0.12982,2.74054 -0.39524,1.78228 -0.42337,1.86527 -0.81154,2.39406 l -0.2957,0.40283 0.21973,0.15421 c 0.52767,0.37034 0.7,0.548 0.74407,0.76712 0.0597,0.29691 -0.094,1.86298 -0.20278,2.06629 -0.12973,0.2424 -0.33895,0.3174 -1.75364,0.62865 -0.73159,0.16096 -1.95811,0.48715 -2.72559,0.72487 -0.76747,0.23771 -1.7912,0.50358 -2.27495,0.59081 -1.66561,0.30037 -1.87545,0.55977 -1.97597,2.44265 -0.0361,0.67714 -0.12485,1.90205 -0.19711,2.72202 -0.11915,1.3521 -0.10633,2.19215 0.0334,2.19212 0.029,0 0.8025,-0.14809 1.71894,-0.32907 1.29844,-0.25643 1.76569,-0.38514 2.11667,-0.58307 0.39889,-0.22495 0.6005,-0.26969 1.76274,-0.39117 1.65478,-0.17297 1.9071,-0.16977 2.34658,0.0297 l 0.35692,0.16203 -0.20201,0.36528 c -0.40162,0.72622 -0.50597,1.28047 -0.48998,2.60257 l 0.0148,1.2213 -0.29599,0.48724 c -0.44893,0.73903 -0.64356,1.37356 -0.64653,2.10783 -0.003,0.64391 0.0458,0.82651 0.57196,2.159 0.2043,0.51736 0.23866,0.7379 0.27042,1.73567 0.0397,1.24874 -0.0158,1.51807 -0.3598,1.74344 -0.28366,0.18587 -0.66629,0.27136 -3.76249,0.84073 -1.41743,0.26065 -3.30338,0.63958 -4.191,0.84206 -0.88762,0.20248 -2.7759,0.59869 -4.19619,0.88048 -1.42028,0.28178 -2.794,0.5855 -3.05271,0.67492 -0.54839,0.18956 -1.0848,0.27851 -1.26529,0.20982 z M -8.9136269,169.54593 c -0.5057904,-0.49127 -0.4632453,-0.58964 0.6515917,-1.50657 1.130325,-0.92967 1.4040436,-1.24479 1.4040436,-1.61641 0,-0.46327 -0.1422062,-0.49821 -2.2859999,-0.56174 -1.9890215,-0.059 -3.8923975,-0.24629 -4.6143335,-0.45417 -0.441062,-0.127 -1.058333,-0.49822 -1.058333,-0.63646 0,-0.0439 0.06228,-0.23556 0.138405,-0.42581 0.07801,-0.19498 0.105722,-0.3735 0.0635,-0.40914 -0.0412,-0.0348 -0.417805,-0.18783 -0.836905,-0.34012 -0.440681,-0.16013 -0.843034,-0.36602 -0.954171,-0.48824 l -0.192172,-0.21135 0.187079,-0.33286 c 0.290669,-0.51718 0.211714,-0.54664 -1.394488,-0.52041 -1.599062,0.0261 -2.107298,-0.0577 -2.67781,-0.44162 -0.297697,-0.20034 -0.442028,-0.25399 -0.507405,-0.18861 -0.06538,0.0654 -0.09137,0.006 -0.09137,-0.20787 0,-0.21368 -0.100038,-0.44204 -0.349926,-0.79876 -0.363534,-0.51896 -0.75074,-1.42429 -0.75074,-1.7553 0,-0.30398 -0.233575,-0.57542 -0.449544,-0.52242 -0.102071,0.025 -0.489217,-0.0657 -0.861046,-0.20191 l -0.675589,-0.24741 0.04059,-0.66558 c 0.07832,-1.28422 0.04478,-1.6509 -0.193347,-2.11402 -0.288155,-0.56041 -0.603067,-0.92962 -1.014348,-1.18925 -0.387111,-0.24437 -0.623713,-0.70591 -0.489976,-0.9558 0.11313,-0.21139 0.365294,-0.28355 2.076927,-0.59438 0.791634,-0.14377 2.23623,-0.47268 3.210214,-0.73093 0.973985,-0.25825 2.326534,-0.59551 3.005667,-0.74946 1.149484,-0.26057 3.50645,-0.85914 4.871668,-1.23719 0.323885,-0.0897 0.838235,-0.18736 1.143,-0.21706 0.304764,-0.0297 0.763667,-0.14069 1.019784,-0.24667 0.256117,-0.10598 0.9800165,-0.34697 1.6086665,-0.53553 0.6286499,-0.18857 1.3715999,-0.42235 1.6509999,-0.51952 0.2794,-0.0972 1.2699999,-0.40639 2.2013332,-0.68714 5.465816,-1.64766 6.7749673,-2.17538 11.0913326,-4.47098 4.7611118,-2.53212 4.8892018,-2.61571 7.5501668,-4.92692 2.723097,-2.36518 3.20031,-3.02375 4.112677,-5.67557 l 0.359822,-1.04583 v -1.73567 c 0,-1.48095 -0.02347,-1.804 -0.15995,-2.20133 -0.659062,-1.91874 -1.795051,-3.06952 -4.816787,-4.87951 -3.1783168,-1.90379 -3.745906,-2.35513 -4.635709,-3.68629 -0.4012446,-0.60027 -0.8227213,-1.12459 -1.0328392,-1.28485 -0.261896,-0.19975 -0.4784631,-0.50399 -0.8259257,-1.16027 -0.2590233,-0.48923 -0.5919999,-1.04084 -0.7399479,-1.2258 -0.3830841,-0.47891 -0.6524963,-1.118 -0.9626762,-2.28361 -0.1487007,-0.5588 -0.3791447,-1.2594 -0.5120978,-1.55688 -0.1329531,-0.29748 -0.2417328,-0.67925 -0.2417328,-0.84837 0,-0.16912 -0.076143,-0.58226 -0.1692059,-0.91809 -0.1434071,-0.5175 -0.1565719,-0.69797 -0.086344,-1.18363 0.1198011,-0.82849 0.099517,-2.32939 -0.042072,-3.11303 -0.1663791,-0.92086 -0.162689,-0.9502 0.1391085,-1.10627 l 0.2648205,-0.13694 -0.063184,-0.60606 c -0.1100284,-1.05541 -0.085042,-1.23813 0.2796964,-2.0454 0.1893569,-0.4191 0.3823425,-0.93152 0.4288571,-1.13871 0.046514,-0.207187 0.1600272,-0.435787 0.2522506,-0.507999 0.092223,-0.07221 0.5312111,-0.919718 0.9755284,-1.883349 1.5443062,-3.349276 1.4107053,-3.144204 3.7509705,-5.757596 2.7228485,-3.040627 4.9474185,-4.884008 8.2819055,-6.862768 2.22252,-1.318894 4.333132,-2.503344 5.503333,-3.088404 0.605366,-0.302662 1.500716,-0.772173 1.989666,-1.043358 0.554903,-0.307763 1.207188,-0.586207 1.735667,-0.740911 0.465667,-0.136317 2.473299,-0.861363 4.461405,-1.611213 4.467938,-1.685165 10.990649,-3.792535 16.916927,-5.465554 4.896339,-1.382261 17.671356,-4.369806 18.685694,-4.369806 0.220113,0 0.252697,0.175813 0.104719,0.565025 -0.126852,0.333646 -0.119326,0.812164 0.01619,1.029154 0.221439,0.35458 0.566029,0.437821 1.812439,0.437821 h 1.162449 l -0.06137,0.3175 c -0.03376,0.174625 -0.0811,0.421787 -0.105196,0.54925 -0.07871,0.416251 0.03337,0.642008 0.364063,0.733316 0.376785,0.104035 2.676298,-0.0098 4.860352,-0.240533 0.861483,-0.09103 1.823087,-0.190901 2.136898,-0.221947 0.651065,-0.06441 1.673101,0.09161 1.673101,0.255411 0,0.143558 -0.373833,0.300336 -0.716143,0.300336 -0.694693,0 -3.570721,0.797509 -6.099523,1.691369 -0.931333,0.3292 -2.817283,0.939916 -4.191,1.357146 -6.04399,1.835702 -8.45279,2.668248 -12.872829,4.449196 -7.589818,3.058133 -10.456688,4.373608 -15.575169,7.146726 -3.997582,2.165833 -4.971186,2.795884 -7.789333,5.040733 -1.300237,1.035729 -3.134289,2.794646 -4.104999,3.93683 -1.2627,1.485755 -2.215727,3.461233 -2.593697,5.376335 -0.192936,0.97757 -0.14768,3.60734 0.08041,4.67262 0.351472,1.6415 1.031093,3.2263 2.026425,4.72538 1.061249,1.59836 2.183771,2.6408 3.631679,3.37262 0.240251,0.12143 0.697451,0.44281 1.016,0.71418 0.31855,0.27137 0.830397,0.6702 1.137438,0.88629 0.55267,0.38897 1.920949,1.56349 3.80023,3.2621 0.582244,0.52627 1.134561,0.9484 1.377787,1.05303 0.504768,0.21715 0.712505,0.4617 1.26885,1.49372 0.242253,0.44938 0.639001,1.03301 0.881662,1.29697 0.242661,0.26395 0.497437,0.58866 0.566169,0.72157 0.176108,0.34056 1.030695,2.60989 1.192719,3.16723 0.394571,1.35728 0.545429,3.30576 0.392687,5.07195 -0.101243,1.17071 -0.442358,3.66731 -0.591502,4.32919 -0.127306,0.56496 -1.407591,4.3031 -1.870256,5.46071 -1.332349,3.33362 -2.896135,5.42583 -7.206078,9.6411 -1.35726,1.32745 -1.642762,1.55849 -3.672759,2.9721 -1.210604,0.84302 -2.601149,1.77364 -3.090099,2.06804 -2.069145,1.24587 -10.071226,5.28831 -12.636179,6.38345 -1.5001,0.64049 -6.010027,2.44964 -10.7318192,4.30505 -1.3737166,0.53979 -2.89771654,1.08217 -3.38666651,1.20529 -0.48894997,0.12312 -1.47271619,0.3927 -2.18614719,0.59907 -1.5228379,0.44051 -2.5156627,0.62725 -3.349443,0.62998 -0.3315085,10e-4 -1.0789927,0.0962 -1.661076,0.21135 -0.5820833,0.11515 -1.0594442,0.20951 -1.060802,0.20968 -0.00136,1.8e-4 -0.1442328,-0.13737 -0.3175,-0.30566 z M 52.949566,144.99479 c -0.110446,-0.44005 0.209453,-3.4664 0.596599,-5.64404 0.129036,-0.72581 0.161379,-1.07949 0.09871,-1.07948 -0.06256,1e-5 -0.08985,-0.29251 -0.08301,-0.88979 0.0093,-0.81418 0.02912,-0.91711 0.232833,-1.21107 0.173818,-0.25082 0.222639,-0.42237 0.22265,-0.78238 8e-6,-0.25361 0.05862,-0.76591 0.130248,-1.13845 0.07163,-0.37253 0.106742,-0.81802 0.07803,-0.98998 -0.04311,-0.25816 -0.02154,-0.33179 0.123753,-0.42253 0.15653,-0.0978 0.175955,-0.19222 0.175955,-0.85572 0,-0.75507 0.09654,-1.09402 0.378188,-1.32777 0.107293,-0.089 0.124658,-0.21063 0.08376,-0.5865 -0.04196,-0.38567 -0.01194,-0.57835 0.160866,-1.03246 0.124318,-0.32668 0.302781,-1.15212 0.430176,-1.98967 0.338029,-2.22235 0.379775,-2.45026 0.520647,-2.84238 0.07251,-0.20184 0.624407,-2.61137 1.226433,-5.3545 0.808182,-3.68248 1.094594,-5.13854 1.094594,-5.56466 0,-0.55436 0.0099,-0.58228 0.25149,-0.70719 0.403768,-0.2088 0.456717,-0.39784 0.212307,-0.758 -0.115388,-0.17004 -0.209797,-0.32398 -0.209797,-0.3421 0,-0.0181 0.114314,-0.21684 0.25403,-0.4416 0.208232,-0.33497 0.27534,-0.5764 0.372225,-1.33912 0.126499,-0.99586 0.30156,-1.52748 0.573096,-1.74036 0.214508,-0.16818 0.725689,-2.05988 0.79926,-2.95779 0.08853,-1.08049 -0.215564,-2.14264 -0.805961,-2.81506 -0.149542,-0.17032 -0.5042,-0.42576 -0.788129,-0.56764 -0.677726,-0.33866 -1.549633,-0.36054 -2.267187,-0.0569 -2.877781,1.21782 -5.371312,2.31296 -6.096,2.67731 -0.48895,0.24583 -1.459932,0.6735 -2.157738,0.95038 -0.697806,0.27688 -2.240856,0.97336 -3.429,1.54772 -1.188144,0.57436 -2.467187,1.16164 -2.842318,1.30505 -0.375131,0.14341 -1.61696,0.73386 -2.759621,1.3121 -1.424089,0.72066 -2.208219,1.06994 -2.492944,1.11044 -0.310638,0.0442 -0.492478,0.13284 -0.72114,0.35156 l -0.305761,0.29246 -0.181072,-0.30689 c -0.09959,-0.16879 -0.181072,-0.3394 -0.181072,-0.37914 0,-0.0687 3.528615,-2.72639 4.783667,-3.60295 0.325966,-0.22766 0.899779,-0.65128 1.275139,-0.94138 0.37536,-0.29009 0.789876,-0.57637 0.921145,-0.63618 0.150776,-0.0687 0.295882,-0.24221 0.394019,-0.47116 0.140842,-0.32857 0.183132,-0.3624 0.452967,-0.3624 0.259787,0 0.318653,-0.0412 0.463067,-0.3243 l 0.165445,-0.3243 -0.422965,-0.13526 c -0.412096,-0.13179 -0.430305,-0.13028 -0.708531,0.0585 -0.303771,0.20614 -1.703898,0.5108 -1.936792,0.42143 -0.07226,-0.0277 -0.15717,-0.13167 -0.188689,-0.23098 -0.08879,-0.27974 0.930675,-1.18727 1.923564,-1.71237 1.066655,-0.5641 1.923223,-1.22252 2.845495,-2.187231 0.95545,-0.999418 1.754263,-2.185874 2.638184,-3.918423 0.997486,-1.955145 1.575435,-2.53422 3.159205,-3.165358 0.38651,-0.154025 1.331396,-0.594735 2.099746,-0.979356 1.619649,-0.810762 8.419636,-3.5445 11.556999,-4.646156 1.164167,-0.408786 3.126317,-1.104363 4.360333,-1.545726 4.255483,-1.522033 5.643717,-1.98584 9.567333,-3.196433 4.792454,-1.478663 6.302634,-1.925882 8.551333,-2.532353 0.954617,-0.257459 3.164416,-0.884047 4.910666,-1.392418 1.74625,-0.50837 3.7465,-1.04399 4.445,-1.190266 0.6985,-0.146276 1.9177,-0.436126 2.709333,-0.644111 0.791631,-0.207985 2.696631,-0.680439 4.233331,-1.049897 1.5367,-0.369458 3.92307,-0.977889 5.30305,-1.35207 1.37998,-0.374181 2.90398,-0.741374 3.38667,-0.815985 1.13282,-0.175107 3.47737,-0.775341 3.58694,-0.918306 0.0515,-0.0672 0.3793,-0.132975 0.83689,-0.167935 0.83031,-0.06343 2.37299,-0.392546 8.05311,-1.71803 2.0955,-0.488995 4.953,-1.114572 6.35,-1.390171 1.397,-0.275598 2.7686,-0.593391 3.048,-0.706206 0.3512,-0.141807 0.7432,-0.218899 1.27,-0.249766 0.77502,-0.04541 4.8489,-0.850682 15.02834,-2.97061 5.96219,-1.241661 6.18753,-1.292614 6.68055,-1.510572 0.29732,-0.13144 0.5505,-0.162966 1.24928,-0.155554 0.7253,0.0077 1.26677,-0.06475 3.14078,-0.420178 3.24287,-0.615059 3.35355,-0.632953 6.20138,-1.002666 1.42029,-0.184384 3.49674,-0.469366 4.61434,-0.633293 1.7717,-0.259871 3.8996,-0.498794 6.1595,-0.691598 0.66674,-0.05688 0.80901,-0.133481 0.46566,-0.250718 -0.32764,-0.111878 0.32881,-0.15195 0.75036,-0.0458 0.50056,0.126042 1.38482,0.113689 2.20593,-0.03082 0.39487,-0.06949 1.23012,-0.121472 1.94733,-0.121186 0.69074,2.77e-4 3.80858,-0.100968 6.92855,-0.224988 9.99941,-0.397479 15.61317,-0.220983 21.88633,0.688106 1.92899,0.279543 3.01533,0.508561 5.842,1.231588 3.72933,0.953916 4.70104,1.334723 6.96924,2.731216 1.43177,0.881517 2.43705,1.659841 3.04109,2.35452 2.1731,2.499185 2.94367,4.355739 2.94367,7.09226 0,3.455598 -1.18853,6.110227 -4.22739,9.442071 -1.33507,1.46378 -2.10553,2.056021 -4.78961,3.681682 -3.38563,2.05057 -4.78226,2.626012 -10.07533,4.151257 -1.30387,0.375721 -2.72355,0.795838 -3.15485,0.933595 -0.91803,0.293218 -1.66079,0.326752 -2.17004,0.09797 l -0.32955,-0.148051 0.83755,-0.328403 c 0.46066,-0.180622 1.09917,-0.443936 1.41892,-0.585144 l 0.58137,-0.256741 0.33565,-0.703027 c 0.19037,-0.398752 0.43345,-0.772501 0.56163,-0.863546 0.12429,-0.08829 0.57568,-0.277545 1.00308,-0.420576 0.90696,-0.303517 2.97683,-1.318368 3.04356,-1.492244 0.0252,-0.06569 0.16647,-0.145206 0.31392,-0.176712 0.14745,-0.03151 0.31572,-0.09565 0.37392,-0.142541 0.13417,-0.108077 0.13531,-0.436659 0.003,-0.803098 -0.13939,-0.385474 -0.0521,-0.494691 0.62297,-0.779011 0.30925,-0.130257 0.72835,-0.348144 0.93133,-0.484194 0.36015,-0.241391 0.37175,-0.26365 0.48039,-0.921958 0.0612,-0.371027 0.18166,-0.833687 0.26762,-1.028134 0.1454,-0.328903 0.1465,-0.362097 0.0157,-0.476342 -0.0895,-0.07819 -0.41746,-0.139999 -0.90262,-0.170136 -0.73245,-0.0455 -1.397,-0.194204 -1.397,-0.312606 0,-0.0311 0.52388,-0.278717 1.16417,-0.55026 2.72924,-1.15745 4.10978,-2.063785 6.18999,-4.063783 1.20991,-1.16325 1.77333,-2.03102 2.26521,-3.488832 0.18542,-0.549535 0.2224,-0.809622 0.22123,-1.555881 -0.002,-1.286417 -0.11422,-1.722988 -0.633,-2.462738 -0.7849,-1.119212 -1.48446,-1.708574 -3.06927,-2.585767 -0.97391,-0.539062 -1.50042,-0.730278 -2.49766,-0.907089 -0.44239,-0.07843 -1.87114,-0.348038 -3.175,-0.599118 -3.67598,-0.707867 -6.22676,-0.958938 -10.75267,-1.058377 -1.86266,-0.04092 -3.76183,-0.117291 -4.22037,-0.169702 -0.61181,-0.06993 -1.41182,-0.07091 -3.00567,-0.0037 -1.19458,0.05038 -3.39116,0.112136 -4.88129,0.137239 -1.49013,0.0251 -2.94129,0.08168 -3.2248,0.125727 -1.64037,0.254857 -3.60689,1.280091 -4.67459,2.437072 -1.33717,1.448998 -2.43637,3.915219 -3.30792,7.421829 -0.72768,2.927797 -1.87914,9.755423 -2.33458,13.843 -0.41516,3.726097 -0.91546,11.632219 -1.02333,16.171339 -0.0304,1.28058 -0.0864,2.38395 -0.12436,2.45193 -0.065,0.11639 -0.43247,0.22944 -1.38209,0.42519 -0.35876,0.0739 -0.44785,0.0614 -0.73383,-0.10316 -0.36117,-0.20787 -0.37538,-0.20419 -1.2285,0.31797 -0.67215,0.41139 -1.19236,0.22802 -1.65429,-0.58313 -0.13608,-0.23896 -0.33587,-0.54385 -0.44398,-0.67753 l -0.19656,-0.24306 -1.16116,1.22431 -1.16115,1.22431 -1.90233,0.30775 c -1.04628,0.16926 -1.9586,0.28615 -2.02737,0.25976 -0.18474,-0.0709 -0.19829,-0.16591 -0.30636,-2.14901 -0.1,-1.83473 -0.0933,-2.06792 0.13033,-4.52966 0.0677,-0.74507 0.16529,-2.32622 0.21692,-3.513676 0.11849,-2.724999 0.2763,-4.5127 0.54561,-6.180666 0.11654,-0.721784 0.21223,-1.540934 0.21265,-1.820334 8.1e-4,-0.536317 0.50391,-4.633262 0.72778,-5.926666 0.21679,-1.252448 0.53702,-2.666059 0.76721,-3.386667 0.13728,-0.429778 0.22584,-0.924888 0.24229,-1.354666 0.0199,-0.518897 0.0792,-0.792346 0.25376,-1.169023 0.2276,-0.491174 0.24143,-0.71861 0.0818,-1.345266 -0.0411,-0.161209 -0.01,-0.29804 0.10723,-0.465667 0.27098,-0.388929 0.36692,-0.781196 0.42045,-1.719044 0.0294,-0.515783 0.11702,-1.082983 0.20861,-1.351064 0.12515,-0.36631 0.17699,-0.915882 0.25019,-2.652009 0.10576,-2.508635 0.0809,-2.659045 -0.55299,-3.349624 -0.51301,-0.558866 -1.03778,-0.774661 -1.87064,-0.769242 -0.96213,0.0063 -1.37207,0.06247 -6.05367,0.829983 -4.72098,0.773974 -4.95556,0.817949 -7.06966,1.3253 -0.8382,0.201154 -2.1336,0.484097 -2.87867,0.628762 -0.74506,0.144665 -1.81186,0.394468 -2.37066,0.555119 -0.5588,0.160651 -1.7399,0.447198 -2.62467,0.636771 -1.83184,0.392496 -2.65834,0.596557 -4.80878,1.187273 -0.83774,0.230122 -2.32475,0.590891 -3.30448,0.80171 -2.4091,0.518395 -2.88366,0.643334 -4.79841,1.263291 -0.90805,0.294009 -2.01295,0.619249 -2.45533,0.722756 -1.75101,0.409694 -2.48566,0.606658 -4.27567,1.146332 -1.02446,0.308869 -3.17711,0.898822 -4.78366,1.311008 -1.60655,0.412185 -3.47345,0.924999 -4.14867,1.139587 -0.67522,0.214588 -2.12895,0.655298 -3.23052,0.979357 -1.10156,0.324058 -2.17829,0.664402 -2.39273,0.75632 -0.21444,0.09192 -1.66884,0.531002 -3.23202,0.97574 -3.39914,0.967091 -4.07161,1.18075 -6.94496,2.206577 -1.21617,0.434191 -2.987819,1.022757 -3.936993,1.307924 -2.664407,0.800484 -8.686488,2.813436 -11.050344,3.693707 -4.677196,1.741733 -8.145865,3.307151 -9.230522,4.165756 -0.970014,0.767855 -2.528859,2.290066 -3.032796,2.961523 -0.904942,1.205766 -1.775087,3.064193 -2.069113,4.419148 -0.126899,0.58478 -0.815989,4.59022 -1.09973,6.39233 -0.631437,4.01043 -1.447358,10.9486 -2.583765,21.971 -0.478958,4.64557 -0.54046,5.32643 -0.671079,7.42914 -0.135196,2.17638 -0.03548,2.01023 -1.663792,2.77243 -0.349088,0.1634 -0.695608,0.2971 -0.770045,0.2971 -0.180946,0 -0.349793,-0.2036 -0.626323,-0.75524 l -0.230043,-0.4589 -0.370042,0.57512 c -0.203522,0.31632 -0.446307,0.70439 -0.539521,0.86238 -0.248893,0.42184 -0.550638,0.50949 -1.001419,0.2909 -0.199154,-0.0966 -0.411588,-0.1756 -0.472075,-0.1756 -0.170243,0 -0.434758,0.33093 -0.718481,0.89887 -0.436933,0.87463 -0.951085,1.19326 -2.119941,1.31379 -0.493667,0.0509 -0.931182,0.16488 -1.439333,0.37497 -0.951373,0.39333 -1.570188,0.61374 -3.033052,1.08034 -0.715697,0.22829 -1.437308,0.52311 -1.782925,0.72843 -0.702398,0.41729 -1.089293,0.45879 -1.172866,0.12581 z m 27.060437,-11.15712 c 0,-0.65418 0.02849,-0.82914 0.162841,-0.99993 0.148323,-0.18857 0.161855,-0.34621 0.151789,-1.76826 -0.0088,-1.23819 0.01886,-1.66887 0.133493,-2.08145 0.0795,-0.28612 0.145098,-0.76237 0.145776,-1.05833 6.78e-4,-0.29596 0.05324,-0.69052 0.116816,-0.87678 0.06357,-0.18627 0.142235,-0.72871 0.17481,-1.20542 0.03257,-0.47672 0.208607,-1.54337 0.391184,-2.37033 0.182577,-0.82696 0.331958,-1.6085 0.331958,-1.73674 0,-0.35025 -0.245882,-0.30095 -0.984376,0.19738 -0.350933,0.23681 -0.647549,0.41778 -0.659146,0.40217 -0.0116,-0.0156 -0.05641,-0.15777 -0.09959,-0.3159 -0.103603,-0.37945 -0.295582,-0.49872 -0.611057,-0.37964 l -0.241806,0.0913 0.281986,-0.92882 c 0.155091,-0.51085 0.281985,-1.0029 0.281985,-1.09346 0,-0.25405 -0.150841,-0.47827 -0.41292,-0.61379 -0.220351,-0.11395 -0.24718,-0.18346 -0.351369,-0.91036 -0.06204,-0.43284 -0.259094,-1.2064 -0.437895,-1.71901 l -0.325092,-0.93202 0.276805,-0.23553 c 0.152242,-0.12954 0.543504,-0.3141 0.869471,-0.41013 0.847104,-0.24956 3.114718,-1.09823 3.229311,-1.20859 0.133647,-0.12872 0.503244,-1.75606 0.665318,-2.92941 0.323959,-2.34533 0.383902,-2.69353 0.543201,-3.15539 0.109207,-0.31662 0.214387,-1.01429 0.299071,-1.98378 0.106089,-1.21451 0.16014,-1.52831 0.287765,-1.67061 0.253273,-0.28242 0.274165,-0.34613 0.481111,-1.46723 0.136433,-0.73911 0.172169,-1.1167 0.115677,-1.22225 -0.04496,-0.084 -0.09985,-0.15274 -0.121975,-0.15274 -0.02213,0 -0.62086,0.24319 -1.330521,0.54043 -1.665129,0.69743 -1.647592,0.69259 -1.849426,0.50993 -0.45014,-0.40737 -0.532548,-0.68293 -0.537166,-1.79623 l -0.0044,-1.052513 -0.353085,-0.138045 C 80.150711,98.97859 79.870878,98.698129 79.568848,98.102111 79.207463,97.388965 79.04658,97.194143 78.295949,96.560699 77.797651,96.140193 77.636996,95.954318 77.65611,95.820413 c 0.02101,-0.147162 0.332628,-0.30323 1.761188,-0.882049 4.239788,-1.71786 6.720007,-2.578023 12.996333,-4.507244 4.040553,-1.241989 5.207497,-1.55749 6.239129,-1.686846 0.868564,-0.108908 2.78675,-0.110797 3.25266,-0.0032 0.19128,0.04418 0.67728,0.117757 1.07998,0.163515 0.40271,0.04576 0.9038,0.159109 1.11355,0.251891 0.57194,0.252993 1.77404,1.142937 2.5495,1.887447 0.49018,0.470615 0.75005,0.66069 0.90331,0.66069 0.18646,0 0.22597,0.05072 0.29627,0.380323 0.11281,0.528943 0.67492,1.282632 1.32655,1.778677 0.18161,0.138254 0.229,0.254802 0.25816,0.635 0.0197,0.256117 0.15176,0.807666 0.29358,1.225666 0.43687,1.287603 0.62696,2.460758 0.62451,3.854334 -0.004,2.231373 -0.42923,3.603403 -1.97864,6.382863 -0.55669,0.99865 -0.93023,1.76266 -0.93023,1.90264 0,0.28495 -0.0725,0.20867 2.0204,2.1261 1.38032,1.26462 1.77967,1.58512 2.0865,1.67459 0.30343,0.0885 0.41191,0.17425 0.5414,0.42808 0.22881,0.44849 1.26062,1.54039 1.45563,1.54039 0.19022,0 0.18948,0.0143 0.0327,-0.635 -0.14598,-0.60459 -0.16018,-1.32734 -0.0341,-1.73622 0.0502,-0.16268 0.10273,-0.73393 0.11681,-1.26944 0.0141,-0.53753 0.12324,-1.54256 0.24356,-2.24367 0.29633,-1.72663 0.99112,-7.73171 1.27839,-11.049 0.13669,-1.578363 0.51653,-3.471333 0.69656,-3.471333 0.0839,0 0.11348,-0.151932 0.11348,-0.582022 0,-0.320112 0.056,-0.740734 0.12444,-0.934716 0.0684,-0.193981 0.18074,-0.779797 0.24954,-1.301811 0.0688,-0.522015 0.27806,-1.550946 0.46499,-2.286515 0.18694,-0.735568 0.49536,-2.030968 0.68539,-2.878666 0.19002,-0.847699 0.3843,-1.66319 0.43174,-1.812204 0.12418,-0.390123 0.58572,-0.754767 1.1963,-0.945168 6.06125,-1.890086 7.10224,-2.187612 9.84394,-2.813499 1.02446,-0.23387 2.37701,-0.553672 3.00566,-0.710672 1.66229,-0.415142 4.69072,-1.059393 4.97989,-1.059393 0.45418,0 0.45877,0.03266 0.35936,2.555722 -0.10154,2.577268 -0.10908,2.657285 -0.35884,3.80732 -0.13912,0.640618 -0.21621,0.837216 -0.35646,0.909126 -0.43497,0.22302 -3.41091,1.088336 -7.12161,2.070759 -3.19332,0.845441 -4.10516,1.156275 -4.392,1.497169 -0.25946,0.30835 -0.24652,0.233817 -0.8887,5.11957 -0.10177,0.774264 -0.006,1.005729 0.43026,1.042047 0.36183,0.03011 3.49749,-0.756394 6.05233,-1.518074 0.94045,-0.280377 1.81675,-0.49752 1.94734,-0.482541 0.19402,0.02226 0.27853,0.112378 0.46222,0.492901 0.4721,0.978004 0.49504,1.70439 0.10024,3.175 -0.14704,0.547709 -0.22527,1.140309 -0.27819,2.107229 -0.0889,1.624021 -0.12356,1.694661 -0.97304,1.981601 -0.83999,0.28373 -5.92551,1.73911 -7.15946,2.04889 -0.58209,0.14614 -1.14588,0.32242 -1.25288,0.39176 -0.33857,0.21938 -0.50961,0.60937 -0.56726,1.29346 -0.0298,0.35405 -0.16941,1.80578 -0.31017,3.22606 -0.14075,1.42028 -0.23659,2.72816 -0.21298,2.9064 0.0515,0.38858 0.2657,0.6496 0.53312,0.6496 0.10758,0 1.23159,-0.36288 2.4978,-0.8064 1.81474,-0.63565 2.45626,-0.82307 3.02978,-0.88515 0.40017,-0.0433 0.92802,-0.15669 1.17299,-0.25194 0.24498,-0.0953 0.52303,-0.17318 0.6179,-0.17318 0.0949,0 0.2609,-0.10278 0.36895,-0.2284 0.18646,-0.21678 0.21371,-0.22324 0.53493,-0.127 0.45252,0.13557 0.81146,0.12778 1.17854,-0.0256 0.74168,-0.30989 1.32591,-0.0541 1.43504,0.6284 0.0576,0.36019 0.36172,0.7686 0.57233,0.7686 0.0679,0 0.22216,0.11722 0.34271,0.2605 0.34473,0.40968 0.29857,0.82087 -0.28114,2.50446 -0.54214,1.57448 -0.685,2.26903 -0.685,3.3303 0,0.80905 -0.12218,1.10423 -0.53894,1.302 -0.16082,0.0763 -1.50553,0.46463 -2.98823,0.86292 -1.48271,0.39829 -3.74358,1.04379 -5.02416,1.43445 -1.28058,0.39066 -2.95621,0.86609 -3.72362,1.05651 -1.39571,0.34632 -1.74349,0.48596 -1.84061,0.73903 -0.0295,0.0768 0.0983,0.43028 0.29658,0.82057 0.48778,0.95998 0.79115,1.67665 0.73395,1.73385 -0.0267,0.0267 -0.19497,0.0486 -0.37391,0.0486 -0.26859,0 -0.39695,-0.0666 -0.7357,-0.38177 -0.5126,-0.4769 -0.89981,-0.71444 -1.36719,-0.83873 -0.30505,-0.0811 -0.51109,-0.0671 -1.26904,0.0863 -1.06476,0.21553 -1.53755,0.18474 -2.13212,-0.13887 -0.53382,-0.29054 -0.7304,-0.24054 -1.24871,0.31765 -0.44152,0.47548 -1.48159,1.1994 -1.85945,1.29424 -0.13065,0.0328 -0.34054,0.18038 -0.46644,0.32798 l -0.22889,0.26836 -0.61826,-0.66998 c -0.34004,-0.36849 -1.14812,-1.43529 -1.79573,-2.37066 -0.64761,-0.93538 -1.46571,-2.08169 -1.818,-2.54735 -1.65059,-2.18181 -4.74665,-5.45792 -5.15993,-5.46001 -0.10821,-5.5e-4 -0.67971,0.28007 -1.27,0.62358 -1.947992,1.13363 -3.239655,1.83663 -5.029998,2.73765 -2.292901,1.15393 -2.163909,0.97693 -2.315826,3.17765 -0.0619,0.89675 -0.211116,3.28345 -0.331585,5.30376 -0.159544,2.67564 -0.252179,3.73741 -0.341071,3.9093 -0.08295,0.16041 -0.264797,0.29099 -0.567741,0.40768 -0.245138,0.0944 -0.674305,0.26791 -0.953705,0.38552 -0.2794,0.11762 -0.663009,0.21475 -0.852466,0.21586 -0.500642,0.003 -1.148367,0.21799 -1.62745,0.54039 -0.332663,0.22387 -0.536267,0.29268 -0.991832,0.33522 -0.315283,0.0294 -0.663183,0.11247 -0.773113,0.1845 -0.10993,0.072 -0.356213,0.3785 -0.547295,0.68106 -0.47921,0.75878 -0.55477,0.78691 -1.214098,0.45198 l -0.538704,-0.27365 -0.41052,0.21537 c -2.518104,1.32109 -2.772866,1.43319 -3.137403,1.38059 -0.300125,-0.0433 -0.373323,-0.024 -0.464866,0.12257 -0.05976,0.0957 -0.137586,0.17397 -0.172952,0.17397 -0.03536,0 -0.0643,-0.35681 -0.0643,-0.79291 z m 16.410665,-26.96355 c 1.520277,-0.65706 2.437209,-1.18705 2.996463,-1.73197 0.694379,-0.67658 2.872429,-3.47725 3.140379,-4.0381 0.21474,-0.44948 0.26859,-0.68204 0.29739,-1.284333 0.0518,-1.083109 -0.11286,-1.532504 -0.8602,-2.347938 -0.32506,-0.354673 -0.76592,-0.749325 -0.97969,-0.877003 -0.37901,-0.22637 -0.42131,-0.232144 -1.701008,-0.232191 -1.58702,-5.8e-5 -2.635086,0.110194 -2.993194,0.314871 -0.481299,0.275087 -0.612561,0.701373 -1.023886,3.325174 -0.207992,1.32676 -0.532044,3.36479 -0.720115,4.52896 -0.398799,2.46857 -0.416072,2.77541 -0.166092,2.9505 0.223291,0.1564 0.283522,0.13818 2.009953,-0.60797 z m 40.831532,9.39787 c -0.11343,-0.21194 -0.12045,-3.97826 -0.0114,-6.11007 0.0442,-0.86316 0.18264,-2.15319 0.33174,-3.09033 0.14076,-0.88477 0.31713,-2.35162 0.39194,-3.25967 0.1434,-1.74076 0.19523,-2.20077 0.66776,-5.926668 0.16241,-1.280584 0.31847,-2.690284 0.3468,-3.132667 0.13872,-2.166082 0.23982,-2.843847 0.81442,-5.459796 0.64678,-2.94454 1.38103,-7.130472 1.32174,-7.535128 -0.0204,-0.138925 0.0529,-0.516796 0.16268,-0.839713 0.10983,-0.322917 0.32099,-1.289217 0.46925,-2.147335 0.18341,-1.06159 0.31906,-1.623147 0.42446,-1.757139 0.18856,-0.239726 0.79163,-0.442279 3.4974,-1.174671 2.99855,-0.811642 3.8892,-1.023968 5.715,-1.362411 0.90805,-0.168323 2.2606,-0.439543 3.00567,-0.602711 2.85004,-0.624154 8.8762,-1.819706 9.04839,-1.795144 0.27148,0.03872 0.26595,0.333342 -0.0175,0.933311 -0.26084,0.552061 -0.33695,0.865357 -0.77705,3.198737 -0.28273,1.49903 -0.44033,2.116615 -0.68703,2.692281 -0.27089,0.632138 -0.41047,0.675904 -6.38145,2.000897 -4.83774,1.073521 -4.77979,1.056272 -5.07306,1.509835 -0.13636,0.210896 -0.46434,2.216624 -0.7275,4.448941 -0.21336,1.809923 -0.18559,1.923584 0.46832,1.916442 0.66269,-0.0072 3.32848,-0.601926 3.77637,-0.842439 0.23489,-0.126129 0.65822,-0.246543 1.05834,-0.301037 1.23811,-0.168622 1.57865,-0.247392 2.05486,-0.475314 0.36869,-0.176454 0.63926,-0.235528 1.21183,-0.264573 0.7251,-0.03678 0.74126,-0.0333 0.9872,0.212635 0.13751,0.137516 0.29383,0.418323 0.34737,0.624014 0.0536,0.205692 0.17267,0.628635 0.26472,0.939874 l 0.16737,0.565888 -0.38805,2.312778 c -0.43759,2.608118 -0.49136,2.822818 -0.74749,2.984813 -0.10062,0.06364 -1.3831,0.369654 -2.84995,0.68004 -3.90423,0.826135 -7.01612,1.63237 -7.31034,1.893981 -0.26925,0.239402 -0.30301,0.383537 -0.43248,1.846289 -0.23389,2.64256 -0.48366,5.97106 -0.45055,6.00417 0.0438,0.0438 1.85818,-0.27178 2.39371,-0.4163 0.23283,-0.0628 0.85494,-0.27343 1.38246,-0.46799 0.80945,-0.29853 1.11334,-0.36596 1.94733,-0.43207 0.54351,-0.0431 1.12156,-0.11889 1.28454,-0.16845 0.16298,-0.0496 0.75353,-0.16505 1.31233,-0.25663 0.5588,-0.0916 1.4351,-0.28109 1.94733,-0.42113 1.09955,-0.3006 1.50034,-0.32161 1.73121,-0.0907 0.29491,0.29491 0.33061,0.70923 0.26298,3.05246 -0.0518,1.79532 -0.0937,2.3198 -0.20948,2.62467 -0.0835,0.21986 -0.17991,0.8465 -0.22792,1.48167 -0.0458,0.60536 -0.12299,1.20276 -0.17163,1.32755 -0.0984,0.25231 -0.44967,0.44865 -0.96182,0.53752 -0.18627,0.0323 -0.98637,0.2092 -1.778,0.39306 -0.79163,0.18386 -2.41088,0.54432 -3.59833,0.80101 -1.18745,0.25669 -3.40948,0.76859 -4.93784,1.13755 -1.52836,0.36895 -3.61542,0.84342 -4.63791,1.05437 -1.02248,0.21095 -2.15326,0.47513 -2.51283,0.58705 -1.02457,0.31894 -1.29416,0.37889 -2.31878,0.51567 -0.52781,0.0705 -1.08008,0.14988 -1.22728,0.1765 -0.21235,0.0384 -0.28668,0.0128 -0.35983,-0.12388 z"
         id="path1" />
    </g>
  </g>
</svg>
