<svg width="24" height="24" viewBox="0 0 24 24" fill="none" xmlns="http://www.w3.org/2000/svg">
<path d="M10.1937 20.7524C10.4638 20.9175 10.7551 21 11.0674 21H12.9199C13.2407 21 13.532 20.9175 13.7937 20.7524C14.0639 20.5956 14.2665 20.3851 14.4015 20.121L22.2724 4.4488C22.6064 3.78379 22.1229 3 21.3788 3H18.0926C17.7141 3 17.3681 3.21366 17.1985 3.55203L12.8913 12.1481C12.5222 12.8848 11.4705 12.884 11.1025 12.1467L6.81377 3.55344C6.64451 3.2143 6.29805 3 5.91902 3H2.62019C1.87629 3 1.39283 3.7833 1.72629 4.44827L9.58583 20.121C9.72935 20.3851 9.93196 20.5956 10.1937 20.7524Z" fill="#FF4655"/>
</svg>
