<svg width="24" height="24" viewBox="0 0 24 24" fill="none" xmlns="http://www.w3.org/2000/svg">
<path d="M11.35 4.87501H11.4C11.4333 4.87501 11.4667 4.90001 11.5 4.95001C11.55 4.98335 11.5917 5.00001 11.625 5.00001C11.725 5.00001 11.825 4.96668 11.925 4.90001C12.025 4.83335 12.125 4.75835 12.225 4.67501C12.3417 4.57501 12.4583 4.49168 12.575 4.42501C12.6917 4.35835 12.8167 4.32501 12.95 4.32501C13.05 4.32501 13.15 4.42501 13.25 4.62501C13.35 4.82501 13.4667 4.97501 13.6 5.07501L13.375 5.32501V5.82501C13.3583 5.94168 13.3417 6.02501 13.325 6.07501C13.325 6.12501 13.3167 6.17501 13.3 6.22501C13.3 6.25835 13.2917 6.30001 13.275 6.35001C13.2583 6.38335 13.225 6.45001 13.175 6.55001H13.225C13.125 6.83334 13.0583 7.04168 13.025 7.17501C12.9917 7.29168 12.975 7.36668 12.975 7.40001C12.9917 7.41668 13 7.42501 13 7.42501L12.975 7.90001C12.9417 7.90001 12.9083 7.95001 12.875 8.05001C12.8583 8.13335 12.8417 8.23335 12.825 8.35001C12.8083 8.46668 12.7917 8.57501 12.775 8.67501C12.7583 8.77501 12.7417 8.83335 12.725 8.85001C12.7083 8.90001 12.7 8.95001 12.7 9.00001C12.7 9.03335 12.7 9.06668 12.7 9.10001C12.7167 9.11668 12.725 9.14168 12.725 9.17501C12.725 9.34168 12.6833 9.51668 12.6 9.70001C12.5333 9.86668 12.4833 10.025 12.45 10.175L12.575 10.1L12.425 10.675L12.475 10.725C12.3583 10.8583 12.3 11.0167 12.3 11.2C12.3 11.2333 12.3 11.275 12.3 11.325C12.3167 11.375 12.325 11.4167 12.325 11.45L11.9 12.85C11.8833 12.9833 11.8667 13.1917 11.85 13.475C11.8333 13.7417 11.7917 13.9833 11.725 14.2C11.6917 14.2833 11.6583 14.375 11.625 14.475C11.5917 14.575 11.575 14.6667 11.575 14.75L11.6 14.975C11.5833 14.9917 11.575 15.0167 11.575 15.05C11.575 15.0667 11.5667 15.0833 11.55 15.1V15.125C11.5333 15.1583 11.525 15.2083 11.525 15.275C11.525 15.3083 11.525 15.35 11.525 15.4C11.5417 15.4333 11.55 15.4667 11.55 15.5C11.55 15.5667 11.5 15.6333 11.4 15.7C11.3 15.7667 11.1833 15.8333 11.05 15.9C10.9333 15.95 10.8083 16.0083 10.675 16.075C10.5583 16.1417 10.4667 16.2083 10.4 16.275C10.35 16.3583 10.275 16.4 10.175 16.4C10.0917 16.4 9.975 16.375 9.825 16.325C9.675 16.2917 9.5 16.2583 9.3 16.225C9.08333 16.1417 8.825 15.9417 8.525 15.625C8.24167 15.3083 7.98333 14.9083 7.75 14.425C7.76667 14.425 7.73333 14.3833 7.65 14.3C7.58333 14.2167 7.55 14.1583 7.55 14.125V14.025L7.525 13.975L7.675 14V13.925C7.625 13.8083 7.56667 13.6833 7.5 13.55C7.45 13.4 7.39167 13.2667 7.325 13.15C7.25833 13.0167 7.2 12.9167 7.15 12.85C7.11667 12.7667 7.1 12.725 7.1 12.725L7.075 12.7V12.8C7.075 12.85 7.05833 12.875 7.025 12.875C6.84167 12.5917 6.71667 12.35 6.65 12.15C6.58333 11.9333 6.475 11.6667 6.325 11.35C6.275 11.45 6.20833 11.575 6.125 11.725C6.05833 11.875 5.98333 12.0417 5.9 12.225C5.81667 12.3917 5.74167 12.55 5.675 12.7C5.625 12.85 5.59167 12.975 5.575 13.075L5.625 13.15L5.3 13.8V13.875C5.3 13.9583 5.25833 14.05 5.175 14.15C5.10833 14.25 5.06667 14.3417 5.05 14.425C5 14.575 4.94167 14.7417 4.875 14.925C4.825 15.0917 4.75 15.25 4.65 15.4C4.56667 15.55 4.46667 15.675 4.35 15.775C4.23333 15.875 4.09167 15.925 3.925 15.925L3.85 16.125L3.325 16.2C3.225 16.1167 3.13333 16.0583 3.05 16.025C2.98333 15.9917 2.91667 15.9667 2.85 15.95C2.8 15.9167 2.74167 15.875 2.675 15.825C2.625 15.775 2.55833 15.6833 2.475 15.55L2.425 15.475C2.40833 15.4583 2.4 15.4167 2.4 15.35L2.45 15.325L2.125 14.55L2.15 14.5L2.2 14.55L2.35 14.375H2.125L2.25 14.2V13.925C2.21667 13.675 2.175 13.4417 2.125 13.225C2.09167 13.0417 2.04167 12.8583 1.975 12.675C1.90833 12.475 1.84167 12.3083 1.775 12.175C1.75833 12.225 1.75 12.2917 1.75 12.375C1.75 12.525 1.76667 12.6667 1.8 12.8C1.85 12.9333 1.875 13.075 1.875 13.225H1.825L1.6 12.575C1.6 12.2583 1.54167 11.9333 1.425 11.6C1.30833 11.25 1.25 10.8583 1.25 10.425L1.075 8.97501C1.04167 8.82501 1 8.73335 0.95 8.70001C0.9 8.66668 0.858333 8.53335 0.825 8.30001C0.825 8.26668 0.833333 8.20001 0.85 8.10001C0.883333 8.00001 0.9 7.91668 0.9 7.85001C0.9 7.76668 0.875 7.67501 0.825 7.57501C0.775 7.45835 0.75 7.38335 0.75 7.35001L0.825 6.77501C0.825 6.75835 0.883333 6.74168 1 6.72501C1.11667 6.70835 1.18333 6.70001 1.2 6.70001L2.1 6.85001L2.65 7.30001C2.75 7.41668 2.80833 7.59168 2.825 7.82501C2.84167 8.04168 2.86667 8.21668 2.9 8.35001C2.9 8.36668 2.90833 8.41668 2.925 8.50001C2.94167 8.58335 2.95833 8.68335 2.975 8.80001C3.00833 8.90001 3.03333 9.00001 3.05 9.10001C3.08333 9.20001 3.1 9.26668 3.1 9.30001L3.35 10.975C3.35 11.025 3.35833 11.1667 3.375 11.4C3.40833 11.6333 3.44167 11.8833 3.475 12.15C3.50833 12.4 3.54167 12.6333 3.575 12.85C3.625 13.05 3.675 13.1583 3.725 13.175C3.75833 13.0917 3.79167 13.0167 3.825 12.95C3.875 12.8833 3.90833 12.8167 3.925 12.75L3.85 12.8V12.75C3.85 12.7167 3.85 12.675 3.85 12.625C3.86667 12.575 3.89167 12.55 3.925 12.55C3.94167 12.55 3.95 12.5583 3.95 12.575C3.95 12.575 3.95833 12.575 3.975 12.575C4.125 12.2417 4.225 11.9917 4.275 11.825C4.34167 11.6583 4.39167 11.5333 4.425 11.45L4.575 11.275L4.475 11.175L4.525 11.1C4.55833 10.9333 4.625 10.8167 4.725 10.75C4.825 10.6667 4.875 10.5167 4.875 10.3C4.875 10.1167 4.90833 10.0333 4.975 10.05C5.04167 10.0667 5.075 10.05 5.075 10C5.075 9.98335 5.06667 9.97501 5.05 9.97501C5.05 9.95835 5.05 9.93335 5.05 9.90001L5.6 8.80001V8.52501C5.7 8.49168 5.79167 8.44168 5.875 8.37501C5.95833 8.30835 6.05 8.27501 6.15 8.27501C6.21667 8.27501 6.30833 8.30001 6.425 8.35001C6.55833 8.38335 6.675 8.44168 6.775 8.52501C6.89167 8.59168 6.99167 8.67501 7.075 8.77501C7.15833 8.85835 7.2 8.94168 7.2 9.02501L7.25 9.15001C7.28333 9.25001 7.35 9.37501 7.45 9.52501C7.55 9.67501 7.60833 9.76668 7.625 9.80001C7.725 9.96668 7.79167 10.1167 7.825 10.25C7.85833 10.3667 7.89167 10.4917 7.925 10.625C7.975 10.7417 8.025 10.875 8.075 11.025C8.14167 11.1583 8.24167 11.325 8.375 11.525C8.39167 11.6583 8.44167 11.7333 8.525 11.75L8.675 12.325C8.69167 12.3417 8.71667 12.3917 8.75 12.475C8.8 12.5583 8.84167 12.6417 8.875 12.725C8.925 12.8083 8.96667 12.8917 9 12.975C9.03333 13.0417 9.06667 13.075 9.1 13.075L9.125 13.05C9.20833 12.8167 9.25833 12.6 9.275 12.4C9.30833 12.2 9.325 12.0083 9.325 11.825C9.325 11.6417 9.325 11.4583 9.325 11.275C9.34167 11.075 9.38333 10.8583 9.45 10.625L9.325 10.7C9.325 10.6333 9.31667 10.6 9.3 10.6L9.675 9.62501L9.85 9.57501C9.93333 9.52501 9.98333 9.41668 10 9.25001C10.0333 9.08335 10.05 8.95835 10.05 8.87501C10.05 8.80835 10.0333 8.77501 10 8.77501L10.125 8.20001L10.025 8.30001L9.925 8.25001L10.125 8.02501L10 7.92501L10.075 7.67501L10.325 7.60001L10.275 7.57501C10.275 7.32501 10.3 7.10001 10.35 6.90001C10.4 6.70001 10.425 6.52501 10.425 6.37501C10.425 6.27501 10.4167 6.20835 10.4 6.17501C10.3833 6.19168 10.4167 6.15001 10.5 6.05001C10.5833 5.95001 10.625 5.87501 10.625 5.82501L11.35 4.87501ZM7.725 14.025C7.725 14.1083 7.775 14.2417 7.875 14.425C7.975 14.5917 8.06667 14.7083 8.15 14.775V14.725C8.15 14.6417 8.1 14.525 8 14.375C7.9 14.225 7.80833 14.1083 7.725 14.025ZM7.125 13.175C7.15833 13.175 7.18333 13.2083 7.2 13.275C7.23333 13.325 7.25 13.375 7.25 13.425C7.25 13.4917 7.23333 13.525 7.2 13.525C7.16667 13.525 7.14167 13.4917 7.125 13.425C7.10833 13.3583 7.1 13.3 7.1 13.25C7.1 13.2 7.10833 13.175 7.125 13.175ZM1.875 13.35C1.89167 13.3667 1.9 13.4083 1.9 13.475C1.91667 13.525 1.925 13.5667 1.925 13.6C1.925 13.65 1.91667 13.675 1.9 13.675C1.88333 13.675 1.86667 13.65 1.85 13.6C1.83333 13.5333 1.825 13.475 1.825 13.425C1.825 13.375 1.84167 13.35 1.875 13.35ZM1.375 9.77501C1.325 9.77501 1.3 9.80001 1.3 9.85001C1.3 9.91668 1.325 9.95001 1.375 9.95001C1.40833 9.95001 1.425 9.92501 1.425 9.87501C1.425 9.80835 1.40833 9.77501 1.375 9.77501ZM7.075 12.925C7.15833 12.925 7.2 12.9833 7.2 13.1C7.2 13.1167 7.19167 13.125 7.175 13.125C7.09167 13.125 7.05 13.0667 7.05 12.95C7.05 12.9333 7.05833 12.925 7.075 12.925ZM1.6 11.4C1.6 11.5 1.625 11.575 1.675 11.625V11.55C1.675 11.5 1.65833 11.4083 1.625 11.275L1.6 11.4ZM7.45 13.75C7.5 13.75 7.525 13.8 7.525 13.9C7.525 13.95 7.50833 13.975 7.475 13.975C7.425 13.975 7.4 13.9333 7.4 13.85C7.4 13.7833 7.41667 13.75 7.45 13.75ZM1.55 10.725V10.625C1.55 10.6083 1.53333 10.575 1.5 10.525C1.48333 10.4583 1.46667 10.3917 1.45 10.325V10.5L1.55 10.725ZM7.325 13.575C7.375 13.575 7.4 13.6167 7.4 13.7C7.4 13.7333 7.39167 13.75 7.375 13.75C7.30833 13.75 7.275 13.7083 7.275 13.625C7.275 13.5917 7.29167 13.575 7.325 13.575ZM1.6 10.825C1.56667 10.825 1.55 10.85 1.55 10.9C1.55 10.9333 1.56667 10.95 1.6 10.95C1.63333 10.95 1.65 10.9333 1.65 10.9C1.65 10.85 1.63333 10.825 1.6 10.825ZM1.65 11.025C1.6 11.025 1.575 11.05 1.575 11.1C1.59167 11.1167 1.60833 11.125 1.625 11.125C1.675 11.125 1.7 11.1083 1.7 11.075C1.7 11.0417 1.68333 11.025 1.65 11.025ZM1.45 10.125C1.41667 10.1417 1.4 10.15 1.4 10.15H1.375C1.375 10.1667 1.4 10.175 1.45 10.175C1.48333 10.175 1.5 10.1667 1.5 10.15C1.48333 10.1333 1.46667 10.125 1.45 10.125Z" fill="#32C8FF"/>
<path d="M20.6305 20.125C20.6138 20.0917 20.5805 20.0417 20.5305 19.975C20.4805 19.925 20.4555 19.8667 20.4555 19.8C20.4555 19.75 20.4721 19.7167 20.5055 19.7L20.6805 19.925L20.7555 19.85C20.7388 19.8333 20.7305 19.8 20.7305 19.75C20.7305 19.7 20.7388 19.6417 20.7555 19.575C20.7888 19.5083 20.8138 19.4583 20.8305 19.425L20.6555 19.4C20.6388 19.4 20.6305 19.3583 20.6305 19.275C20.6305 19.2083 20.5888 19.1167 20.5055 19L20.6305 19.05C20.6638 19.0167 20.6805 18.9667 20.6805 18.9C20.6805 18.8 20.6388 18.7083 20.5555 18.625C20.5055 18.675 20.4805 18.725 20.4805 18.775C20.4805 18.8417 20.4888 18.8917 20.5055 18.925H20.4555C20.4388 18.925 20.3971 18.9083 20.3305 18.875C20.3305 18.9083 20.3305 18.9583 20.3305 19.025C20.3305 19.0917 20.3221 19.1417 20.3055 19.175H20.2305C20.1971 19.1417 20.1805 19.0833 20.1805 19C20.1805 18.9167 20.1638 18.8417 20.1305 18.775L20.1555 18.8C20.1888 18.8 20.1971 18.7417 20.1805 18.625C20.1805 18.525 20.2471 18.425 20.3805 18.325C20.3805 18.4083 20.3805 18.4667 20.3805 18.5C20.3971 18.55 20.4055 18.5917 20.4055 18.625C20.4221 18.5917 20.4305 18.5417 20.4305 18.475C20.4305 18.3583 20.3971 18.2583 20.3305 18.175C20.2805 18.1083 20.2555 18.025 20.2555 17.925C20.2555 17.9083 20.2555 17.8917 20.2555 17.875C20.2721 17.8583 20.2805 17.8417 20.2805 17.825L20.1305 17.75C20.0971 17.7 20.0721 17.6 20.0555 17.45C20.0555 17.3 20.0471 17.1917 20.0305 17.125C20.0305 17.175 20.0055 17.2083 19.9555 17.225C19.9221 17.2583 19.9138 17.275 19.9305 17.275C19.8638 17.2417 19.8221 17.225 19.8055 17.225C19.7721 17.225 19.7555 17.2417 19.7555 17.275C19.7221 17.2083 19.6971 17.1083 19.6805 16.975C19.6638 16.8583 19.5971 16.7333 19.4805 16.6C19.4138 16.6667 19.3638 16.7 19.3305 16.7C19.3138 16.7167 19.3055 16.7417 19.3055 16.775C19.3055 16.7917 19.3055 16.8083 19.3055 16.825C19.3221 16.8417 19.3305 16.8667 19.3305 16.9C19.3138 16.9 19.2971 16.9 19.2805 16.9C19.2805 16.9167 19.2721 16.925 19.2555 16.925C19.1888 16.925 19.1555 16.8917 19.1555 16.825L19.2305 16.175H19.3305C19.3138 16.1583 19.2888 16.1 19.2555 16C19.1721 16.0667 19.1305 16.1083 19.1305 16.125C19.1471 16.1417 19.1555 16.1583 19.1555 16.175L19.0055 16.25C18.9721 16.2167 18.9138 16.1167 18.8305 15.95C18.7471 15.7667 18.6971 15.65 18.6805 15.6L18.6305 15.325C18.5971 15.225 18.5388 15.1083 18.4555 14.975C18.3888 14.825 18.3471 14.6917 18.3305 14.575V14.475L18.2555 14.45C18.2388 14.3667 18.2221 14.2917 18.2055 14.225C18.1888 14.1417 18.1721 14.0667 18.1555 14L18.0805 13.825L17.9055 13.725L17.1555 11.75C17.1055 11.6833 17.0805 11.6167 17.0805 11.55C17.0805 11.5167 17.0805 11.5 17.0805 11.5C17.0971 11.4833 17.1055 11.4583 17.1055 11.425C17.1055 11.3917 17.0805 11.325 17.0305 11.225L16.6805 11.25C16.6471 11.2667 16.6055 11.275 16.5555 11.275C16.5721 11.2583 16.5805 11.25 16.5805 11.25H16.5555C16.5388 11.25 16.5221 11.25 16.5055 11.25C16.4888 11.2333 16.4721 11.225 16.4555 11.225H16.0805C15.9138 11.1917 15.7805 11.15 15.6805 11.1C15.5971 11.05 15.5138 11.0083 15.4305 10.975C15.3471 11.3917 15.3055 11.6167 15.3055 11.65L15.3555 11.875L15.3055 11.95C15.3055 11.9833 15.2971 12.0083 15.2805 12.025C15.2638 12.0417 15.2555 12.0583 15.2555 12.075L15.3055 12.15H15.3555L15.2555 12.35V12.525C15.2555 12.7417 15.2471 12.9083 15.2305 13.025C15.2138 13.125 15.1888 13.2 15.1555 13.25C15.1388 13.3 15.1221 13.3417 15.1055 13.375C15.0888 13.4083 15.0805 13.4583 15.0805 13.525L15.1305 13.55C15.1138 13.5833 15.1055 13.6083 15.1055 13.625C15.1055 13.6417 15.0971 13.65 15.0805 13.65C15.0471 13.65 15.0305 13.6417 15.0305 13.625C15.0138 13.6083 15.0055 13.5917 15.0055 13.575C14.9888 13.575 14.9805 13.6333 14.9805 13.75L15.0305 13.8L14.9555 13.975V14.875C14.9555 14.9083 14.9471 14.9917 14.9305 15.125C14.9305 15.2417 14.9305 15.3167 14.9305 15.35L14.8805 15.4L14.9305 15.525V15.875L14.9805 15.95V16.125L14.9555 16.225L14.8305 16.375L14.2555 16.575L13.5805 16.675L13.0055 16.6C12.7721 16.5333 12.6055 16.4167 12.5055 16.25C12.4055 16.0833 12.3555 15.9083 12.3555 15.725C12.3555 15.675 12.3555 15.5833 12.3555 15.45C12.3555 15.3167 12.3638 15.1833 12.3805 15.05C12.3971 14.9 12.4138 14.7667 12.4305 14.65C12.4471 14.5167 12.4721 14.4333 12.5055 14.4L12.5555 15.525L12.6805 15.675C12.6805 15.425 12.6888 15.075 12.7055 14.625C12.7388 14.175 12.8138 13.6333 12.9305 13L12.9055 13.05C12.8555 13.05 12.8305 12.9417 12.8305 12.725C12.8305 12.5083 12.8555 12.4 12.9055 12.4C12.9388 12.5 12.9555 12.5917 12.9555 12.675L13.2805 11.5H13.1805C13.1805 11.3833 13.2055 11.3167 13.2555 11.3C13.3055 11.2667 13.3305 11.2333 13.3305 11.2H13.2805V11.025C13.4138 10.075 13.6138 9.14168 13.8805 8.22501C14.1471 7.30835 14.4221 6.45001 14.7055 5.65001C14.7555 5.53334 14.8055 5.38335 14.8555 5.20001C14.9221 5.00001 14.9721 4.88335 15.0055 4.85001L15.1555 4.75001H15.4555C15.5888 4.75001 15.7305 4.76668 15.8805 4.80001C16.0305 4.81668 16.1721 4.82501 16.3055 4.82501H16.3805C16.4971 4.90834 16.5721 5.00834 16.6055 5.12501C16.6555 5.24168 16.7055 5.36668 16.7555 5.50001C16.7555 5.50001 16.7471 5.54168 16.7305 5.62501C16.7305 5.69168 16.7221 5.76668 16.7055 5.85001C16.7055 5.93335 16.6971 6.01668 16.6805 6.10001C16.6805 6.16668 16.6721 6.20835 16.6555 6.22501L17.5305 5.67501C17.5638 5.64168 17.6805 5.60001 17.8805 5.55001C18.0805 5.48335 18.3055 5.42501 18.5555 5.37501C18.8055 5.32501 19.0471 5.28335 19.2805 5.25001C19.5138 5.21668 19.6805 5.20001 19.7805 5.20001L19.9055 5.32501H20.0055L19.9555 5.25001H20.0805C20.0971 5.25001 20.1555 5.27501 20.2555 5.32501C20.3555 5.37501 20.4138 5.40001 20.4305 5.40001C20.5971 5.45001 20.7721 5.48335 20.9555 5.50001C21.1388 5.51668 21.3055 5.56668 21.4555 5.65001C21.6055 5.71668 21.7221 5.83335 21.8055 6.00001C21.9055 6.15001 21.9555 6.39168 21.9555 6.72501L22.1055 6.62501L22.1555 6.72501L22.0555 6.87501L22.1055 7.00001L21.9805 7.22501C21.9805 7.27501 21.9555 7.35001 21.9055 7.45001C21.8721 7.53335 21.8555 7.59168 21.8555 7.62501L21.9055 7.72501C21.9055 7.75834 21.8638 7.87501 21.7805 8.07501L21.6805 8.37501L21.7305 8.42501V8.57501C21.7305 8.62501 21.7305 8.68335 21.7305 8.75001C21.7471 8.80001 21.7555 8.85001 21.7555 8.90001C21.7555 9.01668 21.7138 9.09168 21.6305 9.12501V9.20001C21.6305 9.36668 21.5555 9.55835 21.4055 9.77501C21.2721 9.97501 21.1888 10.1333 21.1555 10.25V10.375L21.0305 10.5C20.9971 10.5333 20.9221 10.5667 20.8055 10.6C20.7055 10.6333 20.6305 10.6667 20.5805 10.7L20.3305 10.8C20.3138 10.8 20.2638 10.8167 20.1805 10.85C20.0971 10.8667 20.0055 10.8917 19.9055 10.925C19.8055 10.9583 19.7055 10.9917 19.6055 11.025C19.5221 11.0417 19.4721 11.05 19.4555 11.05C19.4888 11.2333 19.5721 11.3833 19.7055 11.5C19.8555 11.6167 19.9305 11.7417 19.9305 11.875C19.9305 12.0083 19.9721 12.1667 20.0555 12.35C20.1388 12.5333 20.2221 12.7167 20.3055 12.9C20.4055 13.0833 20.4971 13.2417 20.5805 13.375C20.6638 13.5083 20.7055 13.5917 20.7055 13.625V13.725L20.6555 13.75L20.5055 13.675L21.0555 14.75L21.2055 15.225L21.4055 15.35L21.4555 15.45L21.3805 15.55C21.4138 15.6 21.4721 15.6917 21.5555 15.825C21.6555 15.9417 21.7138 16.0167 21.7305 16.05L21.8055 16.125L21.8805 16.4C21.8971 16.45 21.9055 16.5083 21.9055 16.575L21.9305 16.825L22.0555 17.2C22.0888 17.3333 22.1221 17.425 22.1555 17.475L22.3305 18.025L22.1805 18.125L22.1055 18.25L22.2305 18.425L22.3055 18.375L22.4555 18.45L22.5555 18.675L22.6305 18.6L22.9055 19.375V19.425C22.9055 19.475 22.9138 19.525 22.9305 19.575C22.9638 19.6417 22.9805 19.7167 22.9805 19.8C22.9805 19.8333 22.9555 19.8667 22.9055 19.9C22.8555 19.9333 22.8305 20.0083 22.8305 20.125C22.7138 20.075 22.6388 20.0333 22.6055 20C22.5721 19.9667 22.5471 19.95 22.5305 19.95C22.4471 19.95 22.3638 19.9833 22.2805 20.05C22.1971 20.1167 22.1555 20.175 22.1555 20.225C22.1555 20.3083 22.1638 20.3583 22.1805 20.375L22.0055 20.35L21.9805 20.2C21.9471 20.2 21.9221 20.2 21.9055 20.2C21.9055 20.2167 21.8971 20.225 21.8805 20.225C21.8638 20.225 21.8471 20.2167 21.8305 20.2C21.8305 20.2 21.8221 20.2 21.8055 20.2V20.325C21.8055 20.3417 21.8138 20.35 21.8305 20.35H21.8055L21.7055 20.175C21.6888 20.225 21.6305 20.2667 21.5305 20.3C21.4471 20.35 21.3638 20.375 21.2805 20.375L21.2305 20.275C21.1638 20.275 21.1055 20.325 21.0555 20.425C20.9055 20.3583 20.7638 20.2583 20.6305 20.125ZM15.9305 9.32501C15.8971 9.35835 15.8555 9.45835 15.8055 9.62501C15.7555 9.77501 15.6971 9.95835 15.6305 10.175C15.9138 10.0583 16.1888 10.0167 16.4555 10.05C16.7388 10.0667 16.9971 10.0417 17.2305 9.97501C17.3305 9.95835 17.4888 9.91668 17.7055 9.85001C17.9221 9.76668 18.0888 9.70834 18.2055 9.67501C18.3221 9.60835 18.4471 9.56668 18.5805 9.55001C18.7305 9.53335 18.8638 9.50835 18.9805 9.47501C19.1138 9.42501 19.2221 9.34168 19.3055 9.22501C19.4055 9.10835 19.4555 8.92501 19.4555 8.67501C19.4888 8.42501 19.5221 8.23335 19.5555 8.10001C19.5888 7.95001 19.6221 7.81668 19.6555 7.70001C19.6888 7.56668 19.7138 7.42501 19.7305 7.27501C19.7638 7.12501 19.7805 6.92501 19.7805 6.67501C19.6471 6.67501 19.5221 6.70001 19.4055 6.75001C19.3055 6.80001 19.1805 6.82501 19.0305 6.82501C18.9471 6.82501 18.8638 6.83335 18.7805 6.85001C18.7138 6.85001 18.6388 6.83334 18.5555 6.80001L18.5305 6.77501L18.3805 6.82501C18.2971 6.89168 18.1721 6.95001 18.0055 7.00001C17.8555 7.05001 17.6971 7.10001 17.5305 7.15001C17.3805 7.18335 17.2471 7.22501 17.1305 7.27501C17.0138 7.32501 16.9555 7.37501 16.9555 7.42501L16.6555 7.47501L16.4805 7.45001H16.3055C16.3055 7.48335 16.2888 7.53335 16.2555 7.60001C16.2388 7.65001 16.2305 7.69168 16.2305 7.72501L16.2805 7.87501C16.2805 7.84168 16.2971 7.81668 16.3305 7.80001C16.3805 7.78335 16.4138 7.77501 16.4305 7.77501C16.4305 8.00835 16.3638 8.26668 16.2305 8.55001C16.1138 8.81668 16.0138 9.07501 15.9305 9.32501ZM21.0055 18.45C21.0388 18.5333 21.0805 18.575 21.1305 18.575C21.1471 18.575 21.1555 18.5417 21.1555 18.475C21.1555 18.375 21.1471 18.25 21.1305 18.1C21.1138 17.95 21.0805 17.8 21.0305 17.65C20.9805 17.5 20.9138 17.3667 20.8305 17.25C20.7471 17.15 20.6305 17.1 20.4805 17.1V17.225C20.5638 17.3083 20.6138 17.3417 20.6305 17.325C20.6638 17.325 20.7471 17.35 20.8805 17.4L20.7555 17.6V17.625C20.7555 17.6583 20.7888 17.7 20.8555 17.75C20.9221 17.8 20.9555 17.8833 20.9555 18C20.9555 18.0833 20.9305 18.175 20.8805 18.275C20.8805 18.275 20.9305 18.2917 21.0305 18.325L21.0055 18.45ZM19.3555 17.05C19.4388 17.1167 19.4888 17.2 19.5055 17.3C19.5221 17.4 19.5305 17.4333 19.5305 17.4C19.5305 17.5 19.5221 17.5667 19.5055 17.6C19.4388 17.4667 19.3805 17.3583 19.3305 17.275C19.2971 17.2083 19.2805 17.1583 19.2805 17.125C19.2805 17.075 19.3055 17.05 19.3555 17.05ZM12.5055 14.2H12.4055C12.4055 14.1833 12.4055 14.1417 12.4055 14.075C12.4221 14.0083 12.4305 13.9333 12.4305 13.85C12.4471 13.75 12.4555 13.6667 12.4555 13.6C12.4721 13.5167 12.4888 13.4583 12.5055 13.425V14.2ZM20.7555 19.125C20.8055 19.175 20.8471 19.2 20.8805 19.2L20.8555 19.075L20.7555 19.125ZM19.8805 17.375C19.9638 17.375 20.0055 17.3917 20.0055 17.425L19.9555 17.475L19.8805 17.375ZM21.0305 18.75C21.0138 18.75 20.9888 18.7083 20.9555 18.625L20.9305 18.775L21.0305 18.75Z" fill="#32C8FF"/>
</svg>
