<svg xmlns:xlink="http://www.w3.org/1999/xlink" xmlns="http://www.w3.org/2000/svg" version="1.1" width="24" height="43" viewBox="0 0 24 43">
  <defs>
    <style>
      .cls-1 {
        fill-rule: evenodd;
      }

      .cls-1, .cls-2 {
        fill: #fff;
      }

      .cls-3 {
        opacity: 1;
      }
    </style>
  </defs>
  <!-- Generator: Adobe Illustrator 28.7.1, SVG Export Plug-In . SVG Version: 1.2.0 Build 142)  -->
  <g>
    <g id="wot">
      <g class="cls-3">
        <g>
          <path class="cls-1" d="M21.9,24.1l-9.9,9.1L2.2,24.1v-15.1s19.7,0,19.7,0v15.1s0,0,0,0ZM.1,7v17.9s11.9,11,11.9,11l11.9-11V7s-23.7,0-23.7,0Z" fill="#A6A6A7"></path>
          <polygon class="cls-2" points="16.3 11 7.8 11 4.1 15 10 15 10 28.7 12 30.5 14 28.7 14 15 19.9 15 16.3 11" fill="#A6A6A7"></polygon>
          <polygon class="cls-2" points="8.1 16.9 4.2 16.9 4.2 23.2 7.4 26.3 10 23.5 8.1 21.6 8.1 16.9" fill="#A6A6A7"></polygon>
          <polygon class="cls-2" points="15.9 21.6 14.1 23.5 16.6 26.3 19.9 23.2 19.9 16.9 15.9 16.9 15.9 21.6" fill="#A6A6A7"></polygon>
        </g>
      </g>
    </g>
  </g>
</svg>